<svg width="61" height="61" viewBox="0 0 61 61" fill="none" xmlns="http://www.w3.org/2000/svg">
<path d="M9.4873 18.2163L31.1541 46.3832M9.4873 18.2163V43.093L31.1541 55.9326M9.4873 18.2163L31.1541 5.37671L52.821 33.5436M31.1541 46.3832V55.9326M31.1541 46.3832L52.821 33.5436M52.821 33.5436L52.821 43.093L31.1541 55.9326" stroke="#161616" stroke-width="1.5" stroke-linecap="round"/>
<path d="M43.7006 25.6526L25.751 35.8443L34.6899 36.6783L43.7006 25.6526Z" fill="#E6E3E0"/>
<path d="M27.8843 21.9933C24.1204 29.3137 32.7554 42.4122 17.7006 33.0269C12.7572 30.4853 11.8011 22.4904 15.565 15.1699C19.3289 7.84945 26.3875 3.97544 31.3308 6.51709C45.8663 12.9239 31.6482 14.6728 27.8843 21.9933Z" fill="#D6CFC7" stroke="#57534E" stroke-width="1.5"/>
<path d="M25.374 6.18433L31.5474 9.14761" stroke="#57534E" stroke-width="1.5"/>
<path d="M22.2881 8.03662L28.4614 10.9999" stroke="#57534E" stroke-width="1.5"/>
<path d="M19.6338 10.3335L25.8072 13.2968" stroke="#57534E" stroke-width="1.5"/>
<path d="M17.041 13.0354L23.2144 15.9987" stroke="#57534E" stroke-width="1.5"/>
<path d="M14.9658 16.2944L21.1392 19.2577" stroke="#57534E" stroke-width="1.5"/>
<path d="M13.9531 19.9817L20.1265 22.945" stroke="#57534E" stroke-width="1.5"/>
<path d="M13.0273 23.3906L19.3824 26.6618" stroke="#57534E" stroke-width="1.5"/>
<path d="M13.46 27.2727L19.6334 30.5955" stroke="#57534E" stroke-width="1.5"/>
<ellipse cx="30.3125" cy="22.9448" rx="9.64705" ry="14.9043" transform="rotate(26.8989 30.3125 22.9448)" fill="#D6CFC7" stroke="#57534E" stroke-width="1.5"/>
<path d="M34.6839 23.2405C34.6839 25.0131 33.5581 27.0812 31.292 28.4908V29.9596L30.4148 30.466V28.9635C28.3826 29.9005 26.8328 29.4278 26.7305 27.039L28.2217 26.178C28.3387 27.5792 29.0697 28.0519 30.4148 27.4779V23.4431C30.4002 23.4515 30.3855 23.4431 30.3709 23.4515C28.8504 23.8567 27.1398 24.1184 27.1398 22.0925C27.1398 20.1849 28.3972 18.2097 30.4148 16.9604V15.7618L31.292 15.2553V16.5046C33.0611 15.7365 34.3038 16.302 34.4207 18.4123L32.9295 19.2732C32.7979 18.0831 32.2423 17.6779 31.292 18.0071V21.603C33.295 21.1218 34.6839 20.9108 34.6839 23.2405ZM28.6457 21.0543C28.6457 22.0503 29.3621 22.025 30.4148 21.8056V18.446C29.3329 19.1382 28.6457 20.1089 28.6457 21.0543ZM31.292 23.2236V27.0221C32.6809 26.1358 33.178 25.1398 33.178 24.1606C33.178 23.0464 32.564 22.9451 31.292 23.2236Z" fill="black"/>
<path d="M36.8804 29.9933C33.1165 37.3137 41.7515 50.4122 26.6967 41.0269C21.7533 38.4853 20.7972 30.4904 24.5611 23.1699C28.325 15.8495 35.3836 11.9754 40.3269 14.5171C54.8624 20.9239 40.6443 22.6728 36.8804 29.9933Z" fill="#D6CFC7" stroke="#57534E" stroke-width="1.5"/>
<path d="M34.3701 14.1843L40.5435 17.1476" stroke="#57534E" stroke-width="1.5"/>
<path d="M31.2842 16.0366L37.4575 18.9999" stroke="#57534E" stroke-width="1.5"/>
<path d="M28.6299 18.3335L34.8032 21.2968" stroke="#57534E" stroke-width="1.5"/>
<path d="M26.0371 21.0354L32.2105 23.9987" stroke="#57534E" stroke-width="1.5"/>
<path d="M23.9619 24.2944L30.1353 27.2577" stroke="#57534E" stroke-width="1.5"/>
<path d="M22.9492 27.9817L29.1226 30.945" stroke="#57534E" stroke-width="1.5"/>
<path d="M22.0234 31.3906L28.3785 34.6618" stroke="#57534E" stroke-width="1.5"/>
<path d="M22.4561 35.2727L28.6295 38.5955" stroke="#57534E" stroke-width="1.5"/>
<ellipse cx="39.3086" cy="30.9448" rx="9.64705" ry="14.9043" transform="rotate(26.8989 39.3086 30.9448)" fill="#D6CFC7" stroke="#57534E" stroke-width="1.5"/>
<path d="M43.68 31.2405C43.68 33.0131 42.5542 35.0812 40.2881 36.4908V37.9596L39.4109 38.466V36.9635C37.3787 37.9005 35.8289 37.4278 35.7266 35.039L37.2178 34.178C37.3348 35.5792 38.0658 36.0519 39.4109 35.4779V31.4431C39.3963 31.4515 39.3816 31.4431 39.367 31.4515C37.8465 31.8567 36.1359 32.1184 36.1359 30.0925C36.1359 28.1849 37.3933 26.2097 39.4109 24.9604V23.7618L40.2881 23.2553V24.5046C42.0571 23.7365 43.2999 24.302 43.4168 26.4123L41.9256 27.2732C41.794 26.0831 41.2384 25.6779 40.2881 26.0071V29.603C42.2911 29.1218 43.68 28.9108 43.68 31.2405ZM37.6418 29.0543C37.6418 30.0503 38.3582 30.025 39.4109 29.8056V26.446C38.329 27.1382 37.6418 28.1089 37.6418 29.0543ZM40.2881 31.2236V35.0221C41.677 34.1358 42.1741 33.1398 42.1741 32.1606C42.1741 31.0464 41.5601 30.9451 40.2881 31.2236Z" fill="black"/>
<path d="M10.0368 18.9307L31.1541 46.3832L52.3581 33.8179C52.5625 33.6968 52.821 33.8441 52.821 34.0816L52.821 42.9184C52.821 43.0266 52.7638 43.1269 52.6707 43.1821L31.1541 55.9326L9.63757 43.1821C9.54442 43.1269 9.4873 43.0266 9.4873 42.9184V19.1176C9.4873 18.8249 9.85836 18.6987 10.0368 18.9307Z" fill="#E0DCD8"/>
<path d="M31.1541 46.3832L10.0368 18.9307C9.85836 18.6987 9.4873 18.8249 9.4873 19.1176V42.9184C9.4873 43.0266 9.54442 43.1269 9.63757 43.1821L31.1541 55.9326M31.1541 46.3832V55.9326M31.1541 46.3832L52.3581 33.8179C52.5625 33.6968 52.821 33.8441 52.821 34.0816L52.821 42.9184C52.821 43.0266 52.7638 43.1269 52.6707 43.1821L31.1541 55.9326" stroke="#161616" stroke-width="1.5" stroke-linecap="round"/>
</svg>
