<svg width="186" height="66" viewBox="0 0 186 66" fill="none" xmlns="http://www.w3.org/2000/svg">
<path d="M83.0806 34.5317C84.701 34.3608 86.7498 34.8261 87.9936 35.8323C90.2449 37.6537 90.2248 40.4869 89.7514 43.0817C89.5107 44.4006 89.3066 45.7429 89.0523 47.064C88.9061 47.8236 88.7149 48.6714 88.749 49.4389C88.7694 49.7419 88.9308 50.0973 89.1761 50.2839C89.8232 50.7769 91.5177 50.1847 92.0745 49.7563C92.4036 49.5031 92.9043 48.6072 93.2159 48.2201C94.0235 47.2163 94.8283 46.2101 95.6968 45.2549C96.3587 44.5374 97.0519 43.8494 97.7746 43.1929C98.7397 42.3131 99.8578 41.361 100.624 40.3098C98.9649 40.2056 97.3034 40.1531 95.6414 40.152C94.8189 40.1566 93.739 40.1678 92.9257 40.3167C93.3269 38.8853 93.3946 37.2447 93.9563 35.864C94.5157 34.4888 96.2629 34.6166 97.4686 34.6228C98.6154 34.6356 99.7619 34.6634 100.908 34.7063C104.039 34.7941 107.821 34.8867 110.944 34.5959C110.953 34.6425 110.962 34.6893 110.97 34.7363C111.122 35.6228 111.028 36.534 110.699 37.3708C109.606 40.1934 105.381 43.6899 103.195 45.805C102.009 46.9534 101.167 47.9895 100.204 49.3333C103.212 49.053 106.345 49.6692 109.595 49.4288C109.474 49.9913 109.362 50.8441 109.27 51.4294C108.959 53.052 108.843 55.0123 106.71 55.0532C104.065 55.0911 101.467 54.846 98.8171 54.8259C96.8284 54.8108 94.78 55.1767 92.8017 54.9988C92.2092 54.9456 91.7473 54.5623 91.4143 54.0878C90.0522 55.0779 87.7605 55.214 86.1612 54.9627C82.7677 54.4295 81.5395 51.3835 82.1387 48.2644C82.2459 47.7064 82.3395 47.0774 82.4365 46.512L83.0585 42.8686C83.1722 42.1984 83.4738 41.0379 83.0314 40.4957C81.7921 38.9767 78.8083 40.2725 78.1481 41.7978C78.017 42.1005 77.8975 42.9798 77.8388 43.3252C77.7165 44.0549 77.5882 44.7837 77.454 45.5114C76.9028 48.5897 76.321 51.6981 75.8059 54.7791C74.7633 54.7893 73.7205 54.7882 72.678 54.7758C71.8663 54.7662 70.2203 54.8781 69.6996 54.1938C69.1257 53.4394 69.5937 51.7041 69.7539 50.8095L70.2922 47.7654L71.7566 39.4617C72.0194 37.9695 72.3436 36.316 72.5572 34.8264C73.2822 34.7938 74.0301 34.8278 74.7574 34.8186C76.3245 34.799 78.3385 34.7072 78.861 36.6035C79.948 35.4687 81.5301 34.7417 83.0806 34.5317Z" fill="#8C8884"/>
<path d="M59.3162 25.6016L59.4108 25.6011L59.4656 25.682C59.4997 26.0688 58.9004 29.0814 58.8087 29.6009L58.0323 34.0228C57.8918 34.822 57.7312 35.8861 57.5362 36.6504C58.2282 35.9053 59.1704 35.3573 60.1226 35.0482C64.1504 33.7401 68.9418 35.59 69.3852 40.2179C69.664 43.1273 69.2749 45.9984 68.0094 48.6362C66.5913 51.5924 64.2822 53.3831 61.2488 54.4193C56.7456 55.7232 52.0421 54.8576 47.6875 53.4149L50.6868 36.4978L51.6516 31.054C51.847 29.9388 52.0133 28.8395 52.2775 27.7379C52.8383 25.4005 54.9888 25.6011 56.887 25.6073C57.6967 25.6145 58.5065 25.6126 59.3162 25.6016ZM55.3241 49.5684C56.2068 49.7377 57.0532 49.7942 57.9422 49.6175C61.3845 48.8845 62.6705 44.7227 62.2554 41.6292C62.0811 40.3303 60.9023 39.8722 59.7416 39.9432C58.7458 40.0652 56.8717 40.8119 56.6554 41.9307C56.4239 43.1281 56.2311 44.3487 56.0167 45.5511C55.8202 46.8376 55.4835 48.3001 55.3241 49.5684Z" fill="#8C8884"/>
<path d="M115.854 17.4619C116.021 17.6485 116.254 20.4901 116.488 20.8033C116.873 21.3212 119.482 20.865 120.014 21.1054L120.032 21.1721C119.868 21.3827 119.611 21.4394 119.449 21.5839C118.932 22.0432 116.751 23.0027 116.881 23.7966C117.052 24.8453 117.199 25.9259 117.355 26.9526C116.572 26.4824 115.527 25.3089 114.691 24.9118C114.492 24.8172 114.087 25.0635 113.9 25.1914C113.015 25.7448 111.967 26.4901 111.088 26.9823C111.485 25.9476 112.455 24.5246 112.698 23.4166C112.722 23.3082 112.629 23.1355 112.548 23.0533C111.868 22.3592 110.877 21.7567 110.242 21.0328C110.962 21.021 111.682 21.0184 112.402 21.025C114.092 21.0525 113.915 21.1582 114.735 19.5856C114.974 19.1265 115.558 17.7596 115.854 17.4619Z" fill="#8C8884"/>
<path d="M126.077 10.9277C126.349 11.1122 126.462 13.7824 126.732 14.2661C127.019 14.7778 129.598 14.3819 130.275 14.5696C130.337 14.5867 130.334 14.5901 130.365 14.6447C130.296 14.7558 128.782 15.6643 128.542 15.8408C127.993 16.2446 127.456 16.3714 127.138 17.0668C127.288 18.0313 127.46 19.5868 127.658 20.487C127.025 19.97 125.69 18.7915 124.973 18.3927C124.773 18.2812 124.328 18.5605 124.121 18.6884C123.771 18.9723 121.794 20.209 121.358 20.4762C121.658 19.7209 122.945 17.58 122.967 16.8111C122.98 16.3616 120.767 14.9876 120.617 14.6257C120.885 14.3318 123.514 14.6528 124.02 14.4457C124.493 14.2523 124.692 13.7075 124.912 13.2703C125.303 12.4919 125.669 11.6995 126.077 10.9277Z" fill="#8C8884"/>
<path d="M122.286 31.0022C122.664 31.2385 122.631 34.0288 123.065 34.4084C123.445 34.7406 126.334 34.4292 126.571 34.6204C126.41 35.0253 123.76 36.3041 123.468 36.9073C123.315 37.2247 123.42 37.6917 123.499 38.0245C123.691 38.8348 123.683 39.7022 123.902 40.5013C123.152 40.102 121.838 38.6622 121.158 38.3831C120.812 38.4675 120.678 38.5449 120.38 38.7185C119.813 39.0921 118.097 40.2619 117.572 40.4816C117.864 39.9477 119.199 37.4526 119.209 37.0271C119.213 36.8465 119.143 36.7009 119.031 36.5632C118.85 36.3389 118.589 36.164 118.368 35.98C117.806 35.5128 117.196 35.0558 116.699 34.5194C117.708 34.5894 118.719 34.5713 119.729 34.5728C120.055 34.5734 120.526 34.449 120.701 34.144C121.284 33.1315 121.72 32.0308 122.286 31.0022Z" fill="#8C8884"/>
<path d="M134.036 17.4951L134.086 17.5142C134.21 17.6287 134.593 20.4451 134.777 20.9407C135.471 21.0937 138.078 20.9899 138.3 21.0802L138.32 21.1598C137.788 21.7617 134.928 22.924 135.127 23.8249C135.339 24.7865 135.426 26.1003 135.657 27.0321C134.89 26.4716 133.775 25.3244 132.91 24.8981C132.739 24.8136 132.346 25.0573 132.182 25.1638C131.297 25.7879 130.254 26.3927 129.338 27.0111C129.597 26.3819 130.992 23.8913 130.956 23.4411C130.942 23.263 130.854 23.1119 130.74 22.9789C130.436 22.6262 129.971 22.318 129.607 22.0213C129.19 21.6819 128.788 21.3263 128.383 20.9736C129.113 21.0714 131.209 21.0331 132.01 21.0114C132.099 20.9571 132.284 20.8351 132.337 20.7541C132.982 19.7659 133.465 18.546 134.036 17.4951Z" fill="#8C8884"/>
</svg>
