<svg width="186" height="66" viewBox="0 0 186 66" fill="none" xmlns="http://www.w3.org/2000/svg">
<path d="M98.6396 17.1316C103.052 16.053 106.942 19.8041 111.362 19.1199L113.146 18.7732C114.662 18.5156 116.058 18.0574 117.621 18.0574C118.015 18.0574 118.427 18.0813 118.75 18.2986C119.357 18.7092 119.421 19.5786 119.421 20.3191C119.413 24.8105 119.396 29.3101 119.396 33.8015C119.396 36.0472 119.397 38.317 119.855 40.5144C120.131 41.8505 120.786 43.3478 122.096 43.6296C123.098 43.847 124.093 43.243 124.812 42.5105C126.713 40.5546 127.337 37.6566 127.542 34.9119C127.811 31.3944 127.55 27.8609 127.242 24.3435C127.117 22.8383 126.816 21.0833 125.498 20.3992C125.182 20.2382 124.772 20.0852 124.796 19.6667C124.812 19.4335 124.961 19.2321 125.174 19.1355C126.824 18.395 128.632 18.033 130.431 18.0652C130.967 18.0813 131.543 18.1452 131.938 18.5154C132.42 18.9742 132.451 19.723 132.451 20.3992L132.411 38.905C132.403 41.0218 132.594 43.5084 134.346 44.6433V44.6199C134.645 44.813 135.127 45.1913 134.725 45.5535C134.63 45.6339 134.519 45.6898 134.409 45.738C132.72 46.5268 130.739 47.1549 128.86 47.0906C128.6 47.0825 128.324 47.0344 128.103 46.8816C127.874 46.7287 127.716 46.4867 127.598 46.2371C127.369 45.7462 127.257 45.2152 127.155 44.6921C127.045 44.1609 126.95 43.6377 126.895 43.0984C125.876 44.4827 124.946 45.2234 123.438 46.0203C121.086 47.2678 117.913 46.5516 116.295 44.4187C115.364 43.1871 114.89 41.6253 114.732 40.0798C114.156 34.4775 114.874 28.8107 114.274 23.0876C114.148 21.9044 113.477 20.5527 112.317 20.4158C111.039 20.2629 110.171 21.7036 109.847 22.9753C109.555 24.1183 109.571 25.2375 109.516 26.4207C109.5 32.5863 109.5 38.7922 109.484 44.9578C109.476 47.0746 109.665 49.5621 111.417 50.697C111.717 50.8902 112.199 51.2604 111.797 51.6306C111.702 51.7111 111.591 51.7678 111.48 51.8162C109.791 52.6048 107.811 53.2321 105.933 53.1677C105.672 53.1597 105.395 53.1116 105.175 52.9587C104.946 52.8058 104.787 52.5646 104.669 52.3152C104.441 51.8322 104.472 50.5918 104.464 50.0525C104.448 49.5932 104.448 48.1525 104.448 46.8972C104.432 46.2132 104.425 45.5372 104.409 44.8533C102.522 46.6241 99.6411 47.195 97.25 46.2693C95.3165 45.5286 93.7931 43.919 92.8066 42.0759C91.8201 40.2327 91.3313 38.1476 91.0234 36.071C90.2263 30.7183 90.7077 24.8588 93.9277 20.5525C95.1195 18.9588 96.7295 17.5985 98.6396 17.1316ZM31.4707 21.5261C33.8701 17.4934 39.0401 15.5297 43.2705 17.8962C45.4094 19.0956 47.319 21.5262 46.9561 24.1501C46.6798 25.6876 45.3779 26.7822 44.0283 26.6775H43.9893C42.8764 26.5487 42.284 25.398 42.0156 24.3757C41.7631 23.418 41.5894 22.436 41.3447 21.4783C41.1237 20.6412 40.8474 19.6992 40.1924 19.0955C39.5689 18.5159 38.6217 18.4752 37.8877 18.8455C36.9565 19.3042 36.3643 20.3025 35.9775 21.2361C35.1962 23.1116 34.9675 25.2052 34.8018 27.2175C34.7307 28.1028 34.6832 28.9963 34.6201 29.8816C34.5333 31.2499 34.5964 32.6423 34.7148 34.0105C34.849 35.5076 35.0782 37.0048 35.4648 38.4617C35.82 39.7896 36.3011 41.1181 37.0586 42.2771C38.0846 43.8467 39.806 45.0623 41.7002 44.3621C42.5525 44.0481 43.2781 43.46 43.8779 42.7839C44.3672 42.2285 44.723 41.5765 45.0781 40.9246C45.37 40.3854 45.6458 39.8382 45.9062 39.283C46.0798 38.8967 46.2854 38.2612 46.7666 38.1804C47.3664 38.0839 47.3191 39.0893 47.248 39.4597C47.0508 40.4337 46.7278 41.3919 46.3174 42.3015C45.6386 43.7826 44.7145 45.111 43.4043 46.0769C43.1045 46.2941 42.797 46.4956 42.4736 46.6726C41.566 47.1637 40.5553 47.4451 39.5293 47.5095C32.7734 48.0004 29.3243 40.2645 29.0244 32.9558C28.8666 29.044 29.4504 24.9228 31.4707 21.5261ZM51.3291 21.5906C53.3969 17.8235 57.5722 15.9887 61.6289 17.196C67.3747 18.975 69.2293 25.6075 69.2451 31.8376V31.8943C69.245 37.8183 67.5326 44.4828 62.2686 46.8171C59.9797 47.7992 57.1459 47.6299 54.9912 46.3259C48.0301 42.2288 47.6196 28.046 51.3291 21.5906ZM72.5918 20.947C76.0566 16.1738 84.7306 15.7144 87.501 21.4373C88.8269 24.2867 88.4948 27.3782 88.5264 30.3162C88.5027 32.7712 88.4714 36.0878 88.5898 38.905C88.5899 39.404 88.6136 39.9193 88.6768 40.4343C88.8742 42.1165 89.4661 43.774 90.8076 44.6433H90.8311C91.131 44.8365 91.6124 45.2076 91.21 45.5779C91.1153 45.6581 91.0048 45.7142 90.8945 45.7625C89.2055 46.5512 87.2241 47.1794 85.3457 47.115C85.0853 47.1069 84.8088 47.0589 84.5879 46.906C84.359 46.753 84.2014 46.511 84.083 46.2615C83.8542 45.7707 83.7441 45.2396 83.6416 44.7166C83.5311 44.1854 83.4362 43.6619 83.3809 43.1228L83.4277 43.0906C82.6628 43.2712 80.6835 47.0828 76.916 47.2039H76.498C73.1438 47.2923 70.6344 44.9008 70.5791 41.5203C70.1375 34.9604 77.8717 33.648 82.0469 29.8328C83.633 28.3678 83.5382 26.1387 83.333 24.03C83.1041 22.0661 82.7256 19.4897 80.5869 19.1033C78.2586 18.725 76.3408 20.279 76.0566 22.6375C75.741 24.1748 75.9376 26.1386 75.1484 27.3943C74.4933 28.5129 72.8602 28.923 71.8027 28.2712C69.4981 26.6131 71.2579 22.7582 72.5918 20.947ZM138.227 20.947C141.691 16.1738 150.366 15.7145 153.137 21.4373C154.463 24.2867 154.131 27.3782 154.162 30.3162C154.138 32.7712 154.107 36.0878 154.226 38.905C154.226 39.404 154.249 39.9193 154.312 40.4343C154.51 42.1165 155.102 43.7741 156.443 44.6433H156.467C156.767 44.8365 157.248 45.2076 156.846 45.5779C156.751 45.6581 156.641 45.7143 156.53 45.7625C154.841 46.5512 152.86 47.1794 150.981 47.115C150.721 47.1069 150.444 47.0589 150.224 46.906C149.995 46.753 149.837 46.5109 149.719 46.2615C149.49 45.7706 149.379 45.2397 149.276 44.7166C149.166 44.1854 149.071 43.662 149.016 43.1228L149.063 43.0906C148.299 43.27 146.319 47.0828 142.552 47.2039H142.134C138.779 47.2923 136.27 44.9008 136.215 41.5203C135.773 34.9604 143.508 33.648 147.683 29.8328C149.269 28.3678 149.174 26.1386 148.969 24.03C148.74 22.066 148.361 19.4896 146.222 19.1033C143.893 18.7253 141.976 20.2791 141.691 22.6375C141.376 24.1748 141.573 26.1387 140.784 27.3943C140.129 28.5129 138.495 28.9232 137.438 28.2712C135.133 26.6131 136.893 22.7582 138.227 20.947ZM59.1035 18.2097C54.5653 18.4029 54.6677 26.4682 54.502 30.4929C54.4625 33.4229 54.526 36.6349 54.8574 39.2107C55.2757 42.5189 56.4044 47.1637 60.248 45.908C64.4862 44.0484 63.894 31.7487 63.5625 26.1384C63.231 23.128 62.6786 18.3393 59.127 18.2185H59.0957L59.1035 18.2097ZM102.08 18.9832C101.196 18.7096 100.21 19.0311 99.5 19.6267C98.7898 20.2222 98.3162 21.0592 97.9531 21.9285C97.0849 24.0293 96.8082 26.3321 96.6582 28.6101C96.4846 31.3145 96.4686 34.0268 96.6738 36.7312C96.8159 38.5905 97.0766 40.474 97.8184 42.1804C98.1341 42.9048 98.5609 43.622 99.208 44.0808C99.8709 44.5475 100.732 44.7 101.505 44.4988C101.544 44.4908 101.584 44.4826 101.623 44.4666C103.943 43.7582 104.227 40.6034 104.425 38.6394C104.622 36.6753 104.693 34.6945 104.74 32.7224L104.732 32.7312C104.756 31.7653 104.771 30.7987 104.787 29.8328C104.835 27.2893 104.937 24.6812 104.361 22.1941C104.045 20.8419 103.382 19.3775 102.08 18.9832ZM83.0332 31.4109C82.828 31.2903 82.5837 31.4674 82.4102 31.6365C81.6762 32.3527 80.9498 33.0686 80.2158 33.7849C79.1662 34.8151 78.1009 35.8619 77.2959 37.1013C76.4908 38.3409 75.9538 39.8224 76.0723 41.3035C76.1433 42.1244 76.4275 42.9692 77.043 43.5085C77.8243 44.2008 79.0001 44.2731 79.9551 43.8787C80.8547 43.5085 81.5176 42.8891 81.999 42.1326C83.0488 40.4744 83.2699 38.1721 83.333 36.2966C83.3567 35.2825 83.3645 34.2603 83.333 33.238C83.3251 32.7712 83.3014 32.3043 83.2383 31.8455C83.2147 31.6765 83.1753 31.4914 83.0332 31.4109ZM148.677 31.4109C148.471 31.2903 148.227 31.4674 148.054 31.6365C147.32 32.3527 146.593 33.0686 145.859 33.7849C144.809 34.8151 143.745 35.8618 142.939 37.1013C142.134 38.3409 141.597 39.8224 141.716 41.3035C141.787 42.1244 142.071 42.9693 142.687 43.5085C143.468 44.2008 144.643 44.2731 145.599 43.8787C146.498 43.5084 147.161 42.8891 147.643 42.1326C148.693 40.4744 148.913 38.1721 148.977 36.2966C149 35.2825 149.008 34.2603 148.977 33.238C148.969 32.7712 148.945 32.3042 148.882 31.8455C148.859 31.6765 148.819 31.4914 148.677 31.4109ZM154.232 38.9128C154.256 39.4441 154.288 39.9592 154.319 40.4421C154.256 39.927 154.232 39.4119 154.232 38.9128Z" fill="#8C8884"/>
</svg>
