<svg width="61" height="61" viewBox="0 0 61 61" fill="none" xmlns="http://www.w3.org/2000/svg">
<path d="M9.53418 28.7529C17.9956 33.7671 31.201 41.5925 31.201 41.5925M9.53418 28.7529L31.201 15.9133L52.8678 28.7529V42.0565M9.53418 28.7529V29.9431V43.2467L11.5404 44.4504" stroke="#161616" stroke-width="1.5" stroke-linecap="round"/>
<path d="M16.7725 45.7915V12.8798L37.6382 1.19271L40.8786 2.66519L44.5778 4.38906L47.8483 5.96427V38.8759L26.6149 51.0469L16.7725 45.7915Z" fill="#D6CFC7"/>
<path d="M16.7725 12.8798V45.7915L26.6149 51.0469M16.7725 12.8798L37.6382 1.19271L40.8786 2.66519M16.7725 12.8798L20.1012 14.465M26.6149 51.0469V17.6426M26.6149 51.0469L47.8483 38.8759V5.96427M26.6149 17.6426L47.8483 5.96427M26.6149 17.6426L23.4299 16.0501M47.8483 5.96427L44.5778 4.38906M23.4299 16.0501L44.5778 4.38906M23.4299 16.0501L20.1012 14.465M44.5778 4.38906L40.8786 2.66519M20.1012 14.465L40.8786 2.66519" stroke="#57534E" stroke-width="1.5"/>
<path d="M29.9336 34.5331L38.1572 29.7852" stroke="#57534E" stroke-width="1.5" stroke-linecap="round"/>
<path d="M29.9336 38.0939L36.1013 34.5329" stroke="#57534E" stroke-width="1.5" stroke-linecap="round"/>
<path fill-rule="evenodd" clip-rule="evenodd" d="M39.4981 25.5183C40.1169 25.5298 40.8305 25.3022 41.6389 24.8354C42.4473 24.3687 43.1609 23.7723 43.7797 23.0463C44.3985 22.3087 44.8776 21.502 45.2169 20.6261C45.5562 19.7503 45.7259 18.8629 45.7259 17.964V14.5066C45.7259 13.6307 45.5562 12.9566 45.2169 12.4841C44.8776 12 44.3985 11.7523 43.7797 11.7407C43.1609 11.7177 42.4473 11.9395 41.6389 12.4063C40.8305 12.873 40.1169 13.4752 39.4981 14.2127C38.8893 14.933 38.4152 15.7311 38.0759 16.6069C37.7365 17.4713 37.5669 18.3414 37.5669 19.2172V22.6746C37.5669 23.5735 37.7365 24.265 38.0759 24.749C38.4152 25.233 38.8893 25.4894 39.4981 25.5183ZM42.7916 21.1793C42.5022 21.7036 42.118 22.1041 41.6389 22.3807C41.1698 22.6515 40.7856 22.6948 40.4861 22.5104C40.1967 22.3202 40.052 21.9255 40.052 21.3262V17.7479C40.052 17.1601 40.1967 16.6041 40.4861 16.0797C40.7856 15.5381 41.1698 15.1318 41.6389 14.861C42.118 14.5844 42.5022 14.5469 42.7916 14.7486C43.0911 14.933 43.2408 15.3191 43.2408 15.9068V19.4852C43.2408 20.0845 43.0911 20.6492 42.7916 21.1793Z" fill="black"/>
<path fill-rule="evenodd" clip-rule="evenodd" d="M35.0419 16.8373C34.523 16.8143 33.9241 16.9987 33.2455 17.3905L28.9189 19.8885C28.869 19.9173 28.8241 19.9662 28.7842 20.0354C28.7542 20.0873 28.7393 20.142 28.7393 20.1996V31.8854C28.7393 31.9431 28.7542 31.9863 28.7842 32.0151C28.8241 32.0266 28.869 32.018 28.9189 31.9892L31.0448 30.7618C31.0947 30.733 31.1346 30.6927 31.1645 30.6408C31.2044 30.5717 31.2244 30.5083 31.2244 30.4506V26.2845C31.2244 26.2269 31.2494 26.1837 31.2993 26.1549L33.1257 25.1004C33.8343 24.6913 34.4581 24.1756 34.997 23.5532C35.536 22.9309 35.9502 22.2481 36.2396 21.5048C36.539 20.7557 36.6887 20.0066 36.6887 19.2575C36.6887 18.4969 36.544 17.912 36.2546 17.5029C35.9751 17.0765 35.5709 16.8546 35.0419 16.8373ZM33.8293 22.0147C33.5798 22.4238 33.2504 22.7465 32.8412 22.9828L31.2993 23.873C31.2494 23.9019 31.2244 23.8875 31.2244 23.8298V21.0985C31.2244 21.0409 31.2494 20.9977 31.2993 20.9689L32.8412 20.0786C33.2504 19.8424 33.5798 19.7905 33.8293 19.923C34.0888 20.0383 34.2186 20.3149 34.2186 20.7528C34.2186 21.1792 34.0888 21.5998 33.8293 22.0147Z" fill="black"/>
<path d="M9.76289 28.8886L31.201 41.5927L52.6364 28.8902C52.7386 28.8296 52.8678 28.9033 52.8678 29.022V42.0567V43.2469L31.201 56.0865L11.5404 44.4506L9.53418 43.2469V42.0567V29.022C9.53418 28.9033 9.66072 28.828 9.76289 28.8886Z" fill="#E0DCD8"/>
<path d="M31.201 41.5927C31.201 41.5927 18.2313 33.9069 9.76289 28.8886C9.66072 28.828 9.53418 28.9033 9.53418 29.022V42.0567V43.2469L11.5404 44.4506L31.201 56.0865M31.201 41.5927V56.0865M31.201 41.5927L52.6364 28.8902C52.7386 28.8296 52.8678 28.9033 52.8678 29.022V42.0567V43.2469L31.201 56.0865" stroke="#161616" stroke-width="1.5" stroke-linecap="round"/>
<path d="M39.7969 41.5685L45.7242 38.0941" stroke="#161616" stroke-width="1.5" stroke-linecap="round"/>
</svg>
