<svg width="61" height="62" viewBox="0 0 61 62" fill="none" xmlns="http://www.w3.org/2000/svg">
<path d="M9.4873 19.2163L31.1541 47.3832M9.4873 19.2163V44.093L31.1541 56.9326M9.4873 19.2163L31.1541 6.37671L52.821 34.5436M31.1541 47.3832V56.9326M31.1541 47.3832L52.821 34.5436M52.821 34.5436L52.821 44.093L31.1541 56.9326" stroke="#161616" stroke-width="1.5" stroke-linecap="round"/>
<path d="M43.1291 5.7647V35.9083L27.5547 45.1375L19.1807 39.9121L19.1807 10.8296L34.7551 1.60034L43.1291 5.7647Z" fill="#D6CFC7"/>
<path d="M19.1807 10.8296C25.2629 14.4339 27.5547 14.994 27.5547 14.994M19.1807 10.8296L19.1807 39.9121L27.5547 45.1375M19.1807 10.8296L34.7551 1.60034L43.1291 5.7647M27.5547 14.994V45.1375M27.5547 14.994L43.1291 5.7647M43.1291 5.7647V35.9083L27.5547 45.1375" stroke="#57534E" stroke-width="1.5"/>
<path d="M31.9131 35.4554L33.848 24.0737L36.5154 29.7305L38.6853 16.1486" stroke="black" stroke-width="1.5" stroke-linecap="round" stroke-linejoin="round"/>
<path d="M37.3291 16.0615L39.3253 14.4451L40.1165 17.1691" stroke="black" stroke-width="1.5" stroke-linecap="round" stroke-linejoin="round"/>
<path d="M10.0368 19.9307L31.1541 47.3832L52.3581 34.8179C52.5625 34.6968 52.821 34.8441 52.821 35.0816L52.821 43.9184C52.821 44.0266 52.7638 44.1269 52.6707 44.1821L31.1541 56.9326L9.63757 44.1821C9.54442 44.1269 9.4873 44.0266 9.4873 43.9184V20.1176C9.4873 19.8249 9.85836 19.6987 10.0368 19.9307Z" fill="#E0DCD8"/>
<path d="M31.1541 47.3832L10.0368 19.9307C9.85836 19.6987 9.4873 19.8249 9.4873 20.1176V43.9184C9.4873 44.0266 9.54442 44.1269 9.63757 44.1821L31.1541 56.9326M31.1541 47.3832V56.9326M31.1541 47.3832L52.3581 34.8179C52.5625 34.6968 52.821 34.8441 52.821 35.0816L52.821 43.9184C52.821 44.0266 52.7638 44.1269 52.6707 44.1821L31.1541 56.9326" stroke="#161616" stroke-width="1.5" stroke-linecap="round"/>
<path d="M30.0283 16.9971L30.0283 40.2533L39.4117 34.9171" stroke="#161616" stroke-width="1.5" stroke-linecap="round"/>
</svg>
