<svg width="1160" height="496" viewBox="0 0 1160 496" fill="none" xmlns="http://www.w3.org/2000/svg">
<g clip-path="url(#clip0_2511_50064)">
<g opacity="0.3">
<path d="M-58 496L1044.79 -143.395" stroke="#444444"/>
<path d="M144.5 508.605L1140.43 -66.3945" stroke="#444444"/>
<path d="M205.5 605.605L1218.75 20.6055" stroke="#444444"/>
<path d="M266.5 702.605L1163.7 184.605" stroke="#444444"/>
<path d="M327.5 799.605L1209.11 290.605" stroke="#444444"/>
<path d="M388.5 896.605L1167.92 446.605" stroke="#444444"/>
<path d="M-101.5 387.605L784.923 -126.395" stroke="#444444"/>
<path d="M-72.5 235.605L795.257 -265.395" stroke="#444444"/>
<path d="M-150.5 147.605L717.257 -353.395" stroke="#444444"/>
<path d="M-228.5 59.6055L639.257 -441.395" stroke="#444444"/>
<path d="M-83.5 -59.3945L963.922 553.106" stroke="#444444"/>
<path d="M-23.5 -149.395L1109.26 504.605" stroke="#444444"/>
<path d="M-7.5 -272.395L1302.8 484.105" stroke="#444444"/>
<path d="M146.5 -315.395L1183.13 283.105" stroke="#444444"/>
<path d="M231.5 -398.395L1166.81 141.605" stroke="#444444"/>
<path d="M316.5 -481.395L1251.81 58.6055" stroke="#444444"/>
<path d="M-113.5 63.6055L933.525 668.105" stroke="#444444"/>
<path d="M-230.5 128.605L816.525 733.105" stroke="#444444"/>
<path d="M-339.5 206.605L707.525 811.105" stroke="#444444"/>
</g>
<ellipse cx="586" cy="216.105" rx="399.5" ry="202.5" fill="url(#paint0_radial_2511_50064)"/>
<path d="M169.333 227.106C169.333 228.579 170.527 229.773 172 229.773C173.473 229.773 174.667 228.579 174.667 227.106C174.667 225.634 173.473 224.44 172 224.44C170.527 224.44 169.333 225.634 169.333 227.106ZM172 227.106H172.5V208.106H172H171.5V227.106H172Z" fill="#969593"/>
<path d="M171.972 198.813C171.972 198.537 171.748 198.314 171.472 198.313C171.196 198.313 170.972 198.537 170.972 198.813V199.637L170.244 199.206C170.007 199.066 169.7 199.144 169.56 199.382C169.419 199.619 169.497 199.926 169.734 200.066L171.471 201.096L171.726 200.945L173.07 200.149C173.308 200.009 173.387 199.702 173.246 199.464C173.105 199.227 172.799 199.149 172.562 199.289L171.972 199.638V198.813ZM177.898 195.301C177.898 195.025 177.675 194.801 177.398 194.801C177.122 194.801 176.899 195.025 176.898 195.301V196.743C176.893 196.749 176.888 196.756 176.883 196.762C176.83 196.773 176.778 196.791 176.729 196.82L176.596 196.901L175.25 197.697C175.013 197.838 174.935 198.144 175.075 198.382C175.216 198.619 175.522 198.698 175.76 198.558L177.104 197.762L177.106 197.761L177.244 197.678C177.292 197.649 177.332 197.612 177.366 197.571C177.418 197.56 177.47 197.543 177.519 197.514L177.655 197.431L177.898 197.285V195.301ZM166.044 195.301C166.044 195.025 165.82 194.801 165.544 194.801C165.268 194.801 165.044 195.025 165.044 195.301V197.287L166.771 198.311C167.008 198.451 167.315 198.373 167.456 198.136C167.597 197.898 167.518 197.591 167.28 197.45L166.044 196.717V195.301ZM171.972 195.411V193.994C172.021 193.965 172.077 193.932 172.139 193.896C172.4 193.741 172.77 193.521 173.207 193.262C173.444 193.121 173.523 192.815 173.383 192.577C173.242 192.34 172.935 192.261 172.697 192.401C172.26 192.661 171.89 192.881 171.629 193.035C171.571 193.069 171.518 193.1 171.472 193.128L170.244 192.401C170.007 192.261 169.7 192.339 169.56 192.576C169.419 192.814 169.497 193.121 169.734 193.262L170.972 193.994V195.411C170.972 195.687 171.196 195.911 171.472 195.911C171.747 195.911 171.971 195.687 171.972 195.411ZM177.898 191.898V189.912L176.172 188.889C175.934 188.748 175.627 188.827 175.486 189.064C175.346 189.302 175.425 189.608 175.662 189.749L176.418 190.196C176.172 190.342 175.919 190.492 175.662 190.645C175.425 190.785 175.346 191.093 175.486 191.33C175.627 191.568 175.934 191.646 176.172 191.505C176.418 191.359 176.662 191.214 176.898 191.074V191.898C176.899 192.175 177.122 192.398 177.398 192.398C177.675 192.398 177.898 192.175 177.898 191.898ZM171.217 186.255L169.92 187.022C169.682 187.163 169.603 187.47 169.744 187.708C169.885 187.946 170.192 188.024 170.43 187.883L171.472 187.265L172.698 187.993C172.936 188.134 173.242 188.055 173.383 187.817C173.524 187.58 173.445 187.274 173.208 187.133L171.472 186.104L171.217 186.255ZM165.044 191.898C165.044 192.175 165.268 192.398 165.544 192.398C165.82 192.398 166.044 192.175 166.044 191.898V191.074L166.771 191.505C167.008 191.646 167.315 191.568 167.456 191.33C167.597 191.093 167.518 190.785 167.28 190.645L166.525 190.196L166.54 190.188L167.836 189.42C168.074 189.279 168.152 188.972 168.012 188.734C167.871 188.497 167.564 188.419 167.326 188.56L166.03 189.328L165.845 189.438C165.778 189.477 165.726 189.531 165.686 189.591C165.613 189.597 165.541 189.618 165.475 189.657L165.289 189.767L165.044 189.912V191.898Z" fill="#8B8682"/>
<path d="M169.036 193.602C169.036 194.963 170.139 196.067 171.5 196.067C172.861 196.067 173.965 194.963 173.965 193.602C173.965 192.241 172.861 191.138 171.5 191.138C170.139 191.138 169.036 192.241 169.036 193.602Z" fill="#B3B0AD"/>
<path d="M169.339 180.333V180.335C168.74 180.326 168.157 180.521 167.685 180.89C167.212 181.26 166.882 181.786 166.763 182.375L166.367 184.278C166.148 184.392 165.932 184.511 165.721 184.639L163.815 184.013H163.813C163.466 183.9 163.099 183.859 162.736 183.896C162.373 183.932 162.021 184.044 161.703 184.223C161.359 184.417 161.067 184.686 160.847 185.003L160.757 185.142L160.756 185.143L158.583 188.73C158.263 189.24 158.137 189.847 158.228 190.441C158.32 191.04 158.627 191.584 159.09 191.975L159.089 191.976L160.594 193.257V193.947L159.103 195.274C158.654 195.656 158.354 196.185 158.257 196.767C158.158 197.353 158.274 197.954 158.579 198.464L158.578 198.465L160.677 202.052L160.68 202.056C160.91 202.444 161.239 202.764 161.633 202.984L161.635 202.985C162.026 203.202 162.466 203.318 162.914 203.32C163.192 203.322 163.468 203.281 163.733 203.197L163.743 203.193L165.639 202.567C165.854 202.695 166.072 202.815 166.295 202.929L166.687 204.829C166.81 205.418 167.139 205.944 167.613 206.314L167.612 206.315C168.084 206.684 168.667 206.879 169.265 206.87V206.872H173.612V206.87C174.135 206.878 174.646 206.73 175.081 206.446L175.265 206.315C175.738 205.945 176.065 205.419 176.187 204.83L176.585 202.926C176.803 202.812 177.017 202.691 177.228 202.564L179.132 203.193L179.142 203.197C179.407 203.28 179.683 203.322 179.961 203.32C180.408 203.317 180.847 203.202 181.238 202.985L181.24 202.984C181.632 202.766 181.96 202.448 182.19 202.063L184.36 198.483L184.472 198.285C184.71 197.813 184.794 197.276 184.707 196.75C184.613 196.183 184.326 195.667 183.897 195.287L182.357 193.341V193.256L183.847 191.931C184.295 191.549 184.596 191.02 184.693 190.438C184.792 189.849 184.677 189.243 184.368 188.731L184.367 188.729L182.192 185.144C181.962 184.758 181.635 184.44 181.243 184.221L181.24 184.22C180.898 184.03 180.519 183.919 180.131 183.892L179.964 183.885C179.771 183.876 179.578 183.887 179.389 183.919L179.186 183.961L179.153 183.97L179.12 183.981L177.267 184.633C177.055 184.507 176.839 184.388 176.62 184.275L176.224 182.375C176.102 181.786 175.775 181.26 175.302 180.89C174.83 180.521 174.247 180.326 173.648 180.335V180.333H169.339ZM173.664 181.833C173.922 181.828 174.174 181.911 174.377 182.07C174.571 182.222 174.706 182.439 174.756 182.681L175.302 185.307L175.64 185.466C176.031 185.65 176.409 185.858 176.773 186.091L177.081 186.288L179.573 185.412C179.684 185.387 179.797 185.377 179.911 185.384L179.932 185.385H179.953C180.149 185.386 180.342 185.437 180.514 185.532L180.515 185.531C180.676 185.622 180.811 185.755 180.906 185.915L180.91 185.922L180.911 185.921L183.085 189.506L183.084 189.507C183.207 189.712 183.253 189.954 183.214 190.19C183.179 190.397 183.081 190.587 182.933 190.734L182.868 190.795L182.858 190.802L182.849 190.811L180.857 192.584V193.863L182.758 196.266L182.808 196.329L182.872 196.381C183.061 196.535 183.187 196.753 183.226 196.994C183.266 197.235 183.217 197.482 183.088 197.688L183.082 197.697L180.908 201.286L180.905 201.291C180.81 201.451 180.674 201.582 180.512 201.673L180.38 201.736C180.244 201.791 180.099 201.818 179.952 201.819C179.891 201.82 179.83 201.816 179.769 201.807L179.592 201.766L177.366 201.031L177.027 200.92L176.726 201.112C176.454 201.287 176.174 201.449 175.887 201.598L175.598 201.742L175.265 201.903L174.72 204.524C174.67 204.766 174.535 204.982 174.341 205.134L174.34 205.135C174.137 205.293 173.885 205.377 173.628 205.372H169.25C168.992 205.377 168.74 205.294 168.537 205.135L168.536 205.133C168.341 204.981 168.206 204.766 168.156 204.524L167.612 201.898L167.272 201.739C166.881 201.555 166.504 201.347 166.141 201.114L165.841 200.922L165.502 201.033L163.284 201.766C163.168 201.802 163.046 201.821 162.924 201.82C162.727 201.819 162.533 201.768 162.361 201.673C162.199 201.582 162.064 201.45 161.97 201.29L159.872 197.707L159.867 197.698C159.743 197.493 159.697 197.251 159.736 197.015C159.776 196.778 159.899 196.564 160.083 196.41L160.092 196.403L160.101 196.395L162.094 194.621V192.564L160.061 190.834L160.057 190.83C159.871 190.674 159.748 190.454 159.711 190.214C159.674 189.973 159.726 189.728 159.857 189.522L159.861 189.515L159.866 189.507L162.039 185.919C162.137 185.757 162.275 185.622 162.439 185.528C162.576 185.451 162.728 185.404 162.885 185.389C163.041 185.373 163.199 185.389 163.348 185.438L163.348 185.438L165.585 186.174L165.926 186.285L166.226 186.092C166.587 185.859 166.961 185.649 167.349 185.464L167.685 185.304L167.762 184.939L168.231 182.681L168.232 182.676C168.279 182.443 168.411 182.226 168.61 182.07C168.813 181.911 169.065 181.828 169.323 181.833H173.664Z" fill="#B3B0AD"/>
<path d="M1 262.106L36.1766 282.954C48.7139 290.384 64.3 290.407 76.8596 283.015L171 227.606" stroke="#969593"/>
<path d="M920.667 393.106C920.667 394.579 919.473 395.773 918 395.773C916.527 395.773 915.333 394.579 915.333 393.106C915.333 391.634 916.527 390.44 918 390.44C919.473 390.44 920.667 391.634 920.667 393.106ZM918 393.106H917.5V374.106H918H918.5V393.106H918Z" fill="#969593"/>
<path d="M918.471 359.864L926.354 355.313V364.416L918.471 368.967V359.864Z" fill="#454545"/>
<path d="M918.903 366.441V368.217L920.441 367.329V368.329L918.037 369.717V366.941L918.903 366.441ZM926.786 361.89V364.666L924.383 366.053V365.053L925.92 364.166V362.39L926.786 361.89ZM920.441 358.227V359.227L918.903 360.114V361.89L918.037 362.39V359.614L920.441 358.227ZM926.786 354.563V357.338L925.92 357.838V356.063L924.383 356.951V355.951L926.786 354.563Z" fill="#8B8682"/>
<path d="M910.588 355.333L918.471 350.782L926.354 355.333L918.471 359.884L910.588 355.333Z" fill="#454545"/>
<path d="M916.932 358.497L918.47 359.384L920.007 358.497L920.873 358.997L918.47 360.384L916.066 358.997L916.932 358.497ZM924.815 353.945L927.219 355.333L924.815 356.721L923.949 356.221L925.487 355.333L923.949 354.445L924.815 353.945ZM912.124 353.945L912.99 354.445L911.453 355.333L912.99 356.221L912.124 356.721L909.721 355.333L912.124 353.945ZM918.47 350.282L920.873 351.669L920.007 352.169L918.47 351.282L916.932 352.169L916.066 351.669L918.47 350.282Z" fill="#8B8682"/>
<path d="M910.645 355.341L918.528 359.892V368.995L910.645 364.443V355.341Z" fill="#454545"/>
<path d="M911.077 362.418V364.193L912.614 365.081V366.081L910.211 364.693V361.918L911.077 362.418ZM918.96 366.969V369.745L916.556 368.357V367.357L918.094 368.245V366.469L918.96 366.969ZM912.614 355.979V356.979L911.077 356.091V357.866L910.211 357.366V354.591L912.614 355.979ZM918.96 359.642V362.417L918.094 361.917V360.142L916.556 359.254V358.254L918.96 359.642Z" fill="#8B8682"/>
<path d="M917.72 360.396V373.028L906.699 366.498V353.865L917.72 360.396ZM905.199 367.353L918.47 375.217L925.112 371.28C925.469 371.069 925.586 370.609 925.375 370.253C925.164 369.897 924.704 369.778 924.348 369.989L919.22 373.027V360.396C919.437 360.267 919.743 360.086 920.121 359.862C920.913 359.393 922.019 358.737 923.278 357.991C925.423 356.721 928.01 355.187 930.24 353.865V366.5L929.445 366.978C929.09 367.191 928.974 367.652 929.188 368.007C929.401 368.362 929.862 368.477 930.217 368.264L931.74 367.35V352.122L918.47 344.258L911.827 348.194C911.471 348.405 911.353 348.865 911.564 349.222C911.776 349.578 912.235 349.696 912.592 349.485L918.47 346.002L929.52 352.549C927.279 353.876 924.672 355.422 922.514 356.701C921.255 357.447 920.148 358.103 919.356 358.572C918.987 358.791 918.686 358.97 918.47 359.098L907.421 352.549L907.896 352.268C908.253 352.056 908.37 351.596 908.159 351.239C907.948 350.883 907.488 350.766 907.132 350.977L905.199 352.122V367.353Z" fill="#B3B0AD"/>
<path d="M924.294 369.836C924.294 370.861 925.125 371.691 926.149 371.691C927.173 371.691 928.004 370.861 928.004 369.836C928.004 368.812 927.173 367.981 926.149 367.981C925.125 367.981 924.294 368.812 924.294 369.836Z" fill="#B3B0AD"/>
<path d="M909.501 349.321C909.501 350.345 910.332 351.176 911.356 351.176C912.38 351.176 913.211 350.345 913.211 349.321C913.211 348.296 912.38 347.466 911.356 347.466C910.332 347.466 909.501 348.296 909.501 349.321Z" fill="#B3B0AD"/>
<path d="M1170 312.606L995.023 415.086C982.375 422.494 966.687 422.391 954.138 414.816L919 393.606" stroke="#969593"/>
</g>
<defs>
<radialGradient id="paint0_radial_2511_50064" cx="0" cy="0" r="1" gradientUnits="userSpaceOnUse" gradientTransform="translate(586 216.105) rotate(90) scale(348 686.548)">
<stop stop-color="#161616"/>
<stop offset="1" stop-color="#161616" stop-opacity="0"/>
</radialGradient>
<clipPath id="clip0_2511_50064">
<rect width="1172" height="496" fill="white"/>
</clipPath>
</defs>
</svg>
