<svg width="688" height="792" viewBox="0 0 688 792" fill="none" xmlns="http://www.w3.org/2000/svg">
<g clip-path="url(#clip0_2893_28552)">
<g opacity="0.3">
<path d="M-220 572L741.288 17" stroke="#444444"/>
<path d="M-159 669L836.929 94" stroke="#444444"/>
<path d="M-98 766L915.25 181" stroke="#444444"/>
<path d="M-37 863L860.202 345" stroke="#444444"/>
<path d="M24 960L905.614 451" stroke="#444444"/>
<path d="M85 1057L864.423 607" stroke="#444444"/>
<path d="M146 1154L925.423 704" stroke="#444444"/>
<path d="M-405 548L481.423 34" stroke="#444444"/>
<path d="M-376 396L491.757 -105" stroke="#444444"/>
<path d="M-454 308L413.757 -193" stroke="#444444"/>
<path d="M-532 220L335.757 -281" stroke="#444444"/>
<path d="M-610 132L257.757 -369" stroke="#444444"/>
<path d="M-387 101L660.422 713.5" stroke="#444444"/>
<path d="M-327 11L805.761 665" stroke="#444444"/>
<path d="M-311 -112L999.296 644.5" stroke="#444444"/>
<path d="M-157 -155L879.632 443.5" stroke="#444444"/>
<path d="M-72 -238L863.307 302" stroke="#444444"/>
<path d="M13 -321L948.307 219" stroke="#444444"/>
<path d="M-417 224L630.025 828.5" stroke="#444444"/>
<path d="M-534 289L513.025 893.5" stroke="#444444"/>
<path d="M-643 367L404.025 971.5" stroke="#444444"/>
</g>
<ellipse cx="343.5" cy="356.5" rx="304.5" ry="197.5" fill="url(#paint0_radial_2893_28552)"/>
<path d="M208.333 188.5C208.333 189.973 209.527 191.167 211 191.167C212.473 191.167 213.667 189.973 213.667 188.5C213.667 187.027 212.473 185.833 211 185.833C209.527 185.833 208.333 187.027 208.333 188.5ZM211 188.5H211.5V169.5H211H210.5V188.5H211Z" fill="#969593"/>
<path d="M210.971 160.207C210.971 159.931 210.747 159.707 210.471 159.707C210.195 159.707 209.971 159.931 209.971 160.207V161.03L209.243 160.6C209.006 160.459 208.699 160.538 208.559 160.775C208.418 161.013 208.496 161.319 208.733 161.46L210.47 162.489L210.725 162.339L212.069 161.543C212.307 161.402 212.386 161.095 212.245 160.857C212.104 160.62 211.798 160.542 211.561 160.683L210.971 161.031V160.207ZM216.897 156.694C216.897 156.418 216.674 156.194 216.397 156.194C216.121 156.194 215.898 156.418 215.897 156.694V158.137C215.892 158.143 215.887 158.149 215.882 158.155C215.829 158.166 215.777 158.185 215.729 158.214L215.595 158.295L214.249 159.091C214.012 159.232 213.934 159.538 214.074 159.775C214.215 160.013 214.521 160.092 214.759 159.951L216.104 159.155L216.105 159.154L216.243 159.071C216.291 159.042 216.331 159.005 216.365 158.965C216.417 158.954 216.469 158.936 216.518 158.907L216.654 158.824L216.897 158.679V156.694ZM205.043 156.694C205.043 156.418 204.819 156.194 204.543 156.194C204.267 156.194 204.043 156.418 204.043 156.694V158.681L205.77 159.704C206.007 159.845 206.314 159.767 206.455 159.529C206.596 159.292 206.517 158.985 206.279 158.844L205.043 158.11V156.694ZM210.971 156.805V155.388C211.02 155.359 211.076 155.326 211.138 155.289C211.399 155.134 211.769 154.914 212.206 154.655C212.443 154.515 212.522 154.208 212.382 153.971C212.241 153.733 211.934 153.654 211.696 153.795C211.259 154.054 210.889 154.274 210.628 154.429C210.57 154.463 210.517 154.494 210.471 154.521L209.243 153.795C209.006 153.654 208.699 153.732 208.559 153.97C208.418 154.207 208.496 154.514 208.733 154.655L209.971 155.388V156.805C209.971 157.081 210.195 157.305 210.471 157.305C210.747 157.304 210.97 157.08 210.971 156.805ZM216.897 153.292V151.306L215.171 150.282C214.933 150.141 214.626 150.22 214.485 150.458C214.345 150.696 214.424 151.002 214.661 151.143L215.417 151.59C215.171 151.736 214.918 151.886 214.661 152.038C214.424 152.179 214.345 152.486 214.485 152.724C214.626 152.961 214.933 153.039 215.171 152.898C215.417 152.752 215.661 152.608 215.897 152.468V153.292C215.898 153.568 216.121 153.792 216.397 153.792C216.674 153.792 216.897 153.568 216.897 153.292ZM210.216 147.648L208.919 148.416C208.681 148.557 208.602 148.864 208.743 149.102C208.884 149.339 209.191 149.417 209.429 149.276L210.471 148.658L211.697 149.387C211.935 149.527 212.241 149.448 212.382 149.211C212.523 148.973 212.444 148.667 212.207 148.526L210.471 147.497L210.216 147.648ZM204.043 153.292C204.043 153.568 204.267 153.792 204.543 153.792C204.819 153.792 205.043 153.568 205.043 153.292V152.468L205.77 152.898C206.007 153.039 206.314 152.961 206.455 152.724C206.596 152.486 206.517 152.179 206.279 152.038L205.524 151.59L205.539 151.582L206.835 150.813C207.073 150.673 207.152 150.365 207.011 150.128C206.87 149.891 206.563 149.812 206.325 149.953L205.029 150.722L204.844 150.831C204.777 150.87 204.725 150.924 204.685 150.984C204.612 150.991 204.54 151.011 204.474 151.051L204.288 151.16L204.043 151.306V153.292Z" fill="#8B8682"/>
<path d="M208.036 154.996C208.036 156.357 209.139 157.46 210.5 157.46C211.861 157.46 212.965 156.357 212.965 154.996C212.965 153.635 211.861 152.531 210.5 152.531C209.139 152.531 208.036 153.635 208.036 154.996Z" fill="#B3B0AD"/>
<path d="M208.339 141.727V141.729C207.74 141.72 207.157 141.914 206.685 142.283C206.212 142.654 205.882 143.179 205.763 143.769L205.367 145.672C205.148 145.785 204.932 145.905 204.721 146.032L202.815 145.406H202.813C202.466 145.293 202.099 145.253 201.736 145.289C201.373 145.325 201.021 145.437 200.703 145.616C200.359 145.811 200.067 146.08 199.847 146.396L199.757 146.535L199.756 146.536L197.583 150.124C197.263 150.633 197.137 151.24 197.228 151.835C197.32 152.434 197.627 152.978 198.09 153.368L198.089 153.369L199.594 154.65V155.341L198.103 156.668C197.654 157.05 197.354 157.578 197.257 158.16C197.158 158.746 197.274 159.347 197.579 159.857L197.578 159.858L199.677 163.445L199.68 163.449C199.91 163.837 200.239 164.158 200.633 164.378L200.635 164.379C201.026 164.596 201.466 164.711 201.914 164.714C202.192 164.716 202.468 164.674 202.733 164.591L202.743 164.587L204.639 163.961C204.854 164.089 205.072 164.209 205.295 164.322L205.687 166.223C205.81 166.812 206.139 167.338 206.613 167.708L206.612 167.709C207.084 168.078 207.667 168.273 208.265 168.264V168.266H212.612V168.264C213.135 168.271 213.646 168.124 214.081 167.84L214.265 167.709C214.738 167.339 215.065 166.812 215.187 166.224L215.585 164.319C215.803 164.206 216.017 164.084 216.228 163.958L218.132 164.587L218.142 164.591C218.407 164.674 218.683 164.716 218.961 164.714C219.408 164.711 219.847 164.595 220.238 164.379L220.24 164.378C220.632 164.16 220.96 163.842 221.19 163.457L223.36 159.877L223.472 159.679C223.71 159.207 223.794 158.669 223.707 158.144C223.613 157.576 223.326 157.061 222.897 156.681L221.357 154.734V154.649L222.847 153.324C223.295 152.942 223.596 152.414 223.693 151.832C223.792 151.242 223.677 150.637 223.368 150.125L223.367 150.123L221.192 146.537C220.962 146.152 220.635 145.833 220.243 145.614L220.24 145.613C219.898 145.424 219.519 145.312 219.131 145.285L218.964 145.278C218.771 145.269 218.578 145.28 218.389 145.312L218.186 145.354L218.153 145.363L218.12 145.375L216.267 146.026C216.055 145.9 215.839 145.781 215.62 145.669L215.224 143.769C215.102 143.18 214.775 142.654 214.302 142.283C213.83 141.914 213.247 141.72 212.648 141.729V141.727H208.339ZM212.664 143.227C212.922 143.221 213.174 143.305 213.377 143.464C213.571 143.616 213.706 143.833 213.756 144.074L214.302 146.7L214.64 146.859C215.031 147.043 215.409 147.251 215.773 147.484L216.081 147.682L218.573 146.806C218.684 146.78 218.797 146.77 218.911 146.777L218.932 146.778H218.953C219.149 146.78 219.342 146.831 219.514 146.926L219.515 146.925C219.676 147.016 219.811 147.149 219.906 147.309L219.91 147.315L219.911 147.314L222.085 150.899L222.084 150.9C222.207 151.105 222.253 151.348 222.214 151.584C222.179 151.791 222.081 151.981 221.933 152.128L221.868 152.188L221.858 152.195L221.849 152.204L219.857 153.978V155.257L221.758 157.659L221.808 157.723L221.872 157.774C222.061 157.929 222.187 158.147 222.226 158.388C222.266 158.628 222.217 158.875 222.088 159.082L222.082 159.091L219.908 162.68L219.905 162.685C219.81 162.844 219.674 162.976 219.512 163.066L219.38 163.13C219.244 163.184 219.099 163.212 218.952 163.213C218.891 163.213 218.83 163.209 218.769 163.2L218.592 163.159L216.366 162.425L216.027 162.313L215.726 162.506C215.454 162.68 215.174 162.842 214.887 162.991L214.598 163.136L214.265 163.297L213.72 165.918C213.67 166.159 213.535 166.376 213.341 166.527L213.34 166.528C213.137 166.687 212.885 166.771 212.628 166.766H208.25C207.992 166.771 207.74 166.687 207.537 166.528L207.536 166.526C207.341 166.375 207.206 166.159 207.156 165.918L206.612 163.292L206.272 163.133C205.881 162.949 205.504 162.74 205.141 162.508L204.841 162.315L204.502 162.427L202.284 163.159C202.168 163.196 202.046 163.215 201.924 163.214C201.727 163.213 201.533 163.162 201.361 163.066C201.199 162.975 201.064 162.843 200.97 162.684L198.872 159.101L198.867 159.092C198.743 158.887 198.697 158.644 198.736 158.408C198.776 158.172 198.899 157.957 199.083 157.804L199.092 157.797L199.101 157.788L201.094 156.015V153.958L199.061 152.228L199.057 152.224C198.871 152.067 198.748 151.848 198.711 151.607C198.674 151.367 198.726 151.121 198.857 150.916L198.861 150.908L198.866 150.9L201.039 147.312C201.137 147.151 201.275 147.015 201.439 146.922C201.576 146.845 201.728 146.798 201.885 146.782C202.041 146.767 202.199 146.783 202.348 146.831L202.348 146.832L204.585 147.567L204.926 147.679L205.226 147.485C205.587 147.252 205.961 147.043 206.349 146.857L206.685 146.697L206.762 146.333L207.231 144.074L207.232 144.069C207.279 143.836 207.411 143.62 207.61 143.464C207.813 143.305 208.065 143.221 208.323 143.227H212.664Z" fill="#B3B0AD"/>
<path d="M-16 189L75.0812 244.051C87.6599 251.653 103.395 251.745 116.062 244.29L210 189" stroke="#969593"/>
<path d="M502.167 618.5C502.167 619.973 500.973 621.167 499.5 621.167C498.027 621.167 496.833 619.973 496.833 618.5C496.833 617.027 498.027 615.833 499.5 615.833C500.973 615.833 502.167 617.027 502.167 618.5ZM499.5 618.5H499V599.5H499.5H500V618.5H499.5Z" fill="#969593"/>
<path d="M499.97 585.258L507.853 580.706V589.809L499.97 594.36V585.258Z" fill="#454545"/>
<path d="M500.402 591.835V593.61L501.94 592.723V593.723L499.536 595.11V592.335L500.402 591.835ZM508.285 587.284V590.059L505.882 591.447V590.447L507.419 589.559V587.784L508.285 587.284ZM501.94 583.62V584.62L500.402 585.508V587.283L499.536 587.783V585.008L501.94 583.62ZM508.285 579.957V582.732L507.419 583.232V581.457L505.882 582.344V581.344L508.285 579.957Z" fill="#8B8682"/>
<path d="M492.087 580.727L499.97 576.175L507.853 580.727L499.97 585.278L492.087 580.727Z" fill="#454545"/>
<path d="M498.432 583.89L499.97 584.778L501.507 583.89L502.373 584.39L499.97 585.778L497.566 584.39L498.432 583.89ZM506.315 579.339L508.719 580.727L506.315 582.114L505.449 581.614L506.987 580.727L505.449 579.839L506.315 579.339ZM493.624 579.339L494.49 579.839L492.953 580.727L494.49 581.614L493.624 582.114L491.221 580.727L493.624 579.339ZM499.97 575.675L502.373 577.063L501.507 577.563L499.97 576.675L498.432 577.563L497.566 577.063L499.97 575.675Z" fill="#8B8682"/>
<path d="M492.144 580.734L500.027 585.286V594.388L492.144 589.837V580.734Z" fill="#454545"/>
<path d="M492.576 587.812V589.587L494.114 590.475V591.475L491.71 590.087V587.312L492.576 587.812ZM500.459 592.363V595.138L498.055 593.75V592.75L499.593 593.638V591.863L500.459 592.363ZM494.114 581.372V582.372L492.576 581.484V583.26L491.71 582.76V579.984L494.114 581.372ZM500.459 585.036V587.811L499.593 587.311V585.536L498.055 584.648V583.648L500.459 585.036Z" fill="#8B8682"/>
<path d="M499.22 585.79V598.422L488.199 591.892V579.259L499.22 585.79ZM486.699 592.746L499.97 600.61L506.612 596.674C506.969 596.463 507.086 596.003 506.875 595.646C506.664 595.29 506.204 595.172 505.848 595.383L500.72 598.421V585.789C500.937 585.661 501.243 585.48 501.621 585.256C502.413 584.787 503.519 584.131 504.778 583.385C506.923 582.114 509.51 580.58 511.74 579.259V591.894L510.945 592.371C510.59 592.584 510.474 593.045 510.688 593.4C510.901 593.756 511.362 593.87 511.717 593.657L513.24 592.743V577.516L499.97 569.651L493.327 573.588C492.971 573.799 492.853 574.259 493.064 574.615C493.276 574.972 493.735 575.09 494.092 574.879L499.97 571.396L511.02 577.942C508.779 579.27 506.172 580.816 504.014 582.095C502.755 582.841 501.648 583.497 500.856 583.966C500.487 584.185 500.186 584.363 499.97 584.491L488.921 577.942L489.396 577.661C489.753 577.45 489.87 576.989 489.659 576.633C489.448 576.277 488.988 576.159 488.632 576.37L486.699 577.516V592.746Z" fill="#B3B0AD"/>
<path d="M505.794 595.23C505.794 596.254 506.625 597.085 507.649 597.085C508.673 597.085 509.504 596.254 509.504 595.23C509.504 594.205 508.673 593.375 507.649 593.375C506.625 593.375 505.794 594.205 505.794 595.23Z" fill="#B3B0AD"/>
<path d="M491 574.714C491 575.739 491.831 576.569 492.855 576.569C493.879 576.569 494.71 575.739 494.71 574.714C494.71 573.69 493.879 572.859 492.855 572.859C491.831 572.859 491 573.69 491 574.714Z" fill="#B3B0AD"/>
<path d="M751.5 538L576.523 640.48C563.875 647.888 548.187 647.784 535.638 640.209L500.5 619" stroke="#969593"/>
</g>
<defs>
<radialGradient id="paint0_radial_2893_28552" cx="0" cy="0" r="1" gradientUnits="userSpaceOnUse" gradientTransform="translate(343.5 356.5) rotate(90) scale(339.407 523.289)">
<stop stop-color="#161616"/>
<stop offset="1" stop-color="#161616" stop-opacity="0"/>
</radialGradient>
<clipPath id="clip0_2893_28552">
<rect width="688" height="792" fill="white"/>
</clipPath>
</defs>
</svg>
