<svg width="32" height="32" viewBox="0 0 32 32" fill="none" xmlns="http://www.w3.org/2000/svg">
<path d="M15.5303 21.2148C15.5303 20.9389 15.7543 20.7151 16.0303 20.7148C16.3064 20.7148 16.5303 20.9387 16.5303 21.2148V22.0381L17.2578 21.6074C17.4953 21.4669 17.8017 21.5458 17.9424 21.7832C18.0831 22.0207 18.0049 22.3269 17.7676 22.4678L16.0312 23.4971L15.7764 23.3467L14.4316 22.5508C14.194 22.4101 14.1152 22.1029 14.2559 21.8652C14.3966 21.6279 14.7029 21.5499 14.9404 21.6904L15.5303 22.0391V21.2148ZM9.60352 17.7021C9.60362 17.4261 9.82744 17.2021 10.1035 17.2021C10.3796 17.2021 10.6034 17.4261 10.6035 17.7021V19.1445C10.6091 19.1505 10.6139 19.1569 10.6191 19.1631C10.6717 19.1743 10.7238 19.1925 10.7725 19.2217L10.9062 19.3027L12.252 20.0986C12.4893 20.2394 12.5673 20.5457 12.4268 20.7832C12.2861 21.0208 11.9798 21.0996 11.7422 20.959L10.3975 20.1631L10.3955 20.1621L10.2578 20.0791C10.2098 20.0502 10.1701 20.0131 10.1357 19.9727C10.0836 19.9614 10.0317 19.944 9.9834 19.915L9.84668 19.832L9.60352 19.6865V17.7021ZM21.458 17.7021C21.4581 17.4261 21.6819 17.2021 21.958 17.2021C22.2341 17.2022 22.4579 17.4261 22.458 17.7021V19.6885L20.7314 20.7119C20.494 20.8526 20.1868 20.7745 20.0459 20.5371C19.9051 20.2995 19.9841 19.9923 20.2217 19.8516L21.458 19.1182V17.7021ZM15.5303 17.8125V16.3955C15.4812 16.3664 15.4253 16.3336 15.3633 16.2969C15.1024 16.1423 14.7323 15.9223 14.2949 15.6631C14.0575 15.5224 13.9787 15.216 14.1191 14.9785C14.2599 14.741 14.5671 14.662 14.8047 14.8027C15.2421 15.0619 15.6121 15.2819 15.873 15.4365C15.9309 15.4708 15.9836 15.5016 16.0303 15.5293L17.2578 14.8027C17.4953 14.6621 17.8015 14.7402 17.9424 14.9775C18.0832 15.2151 18.0051 15.5223 17.7676 15.6631L16.5303 16.3955V17.8125C16.5301 18.0885 16.3063 18.3125 16.0303 18.3125C15.7545 18.3123 15.5305 18.0883 15.5303 17.8125ZM9.60352 14.2998V12.3135L11.3301 11.29C11.5676 11.1493 11.8748 11.2283 12.0156 11.4658C12.1561 11.7033 12.0773 12.0097 11.8398 12.1504L11.084 12.5977C11.3298 12.7433 11.5832 12.8938 11.8398 13.0459C12.0774 13.1867 12.1564 13.4939 12.0156 13.7314C11.8748 13.969 11.5676 14.047 11.3301 13.9062C11.0836 13.7602 10.8402 13.6158 10.6035 13.4756V14.2998C10.6035 14.5759 10.3796 14.7998 10.1035 14.7998C9.82741 14.7998 9.60358 14.5759 9.60352 14.2998ZM16.2852 8.65625L17.582 9.42383C17.8196 9.5646 17.8986 9.87181 17.7578 10.1094C17.617 10.3469 17.3098 10.425 17.0723 10.2842L16.0303 9.66602L14.8037 10.3945C14.5662 10.5351 14.2599 10.4562 14.1191 10.2188C13.9784 9.98125 14.0565 9.67501 14.2939 9.53418L16.0303 8.50488L16.2852 8.65625ZM22.458 14.2998C22.4579 14.5759 22.2341 14.7998 21.958 14.7998C21.6819 14.7998 21.4581 14.5759 21.458 14.2998V13.4756L20.7314 13.9062C20.4939 14.047 20.1867 13.969 20.0459 13.7314C19.9051 13.4939 19.9841 13.1867 20.2217 13.0459L20.9766 12.5977L20.9619 12.5898L19.666 11.8213C19.4285 11.6805 19.3495 11.3733 19.4902 11.1357C19.6311 10.8983 19.9383 10.8202 20.1758 10.9609L21.4717 11.7295L21.6572 11.8389C21.7238 11.8783 21.7762 11.9319 21.8164 11.9922C21.8887 11.9985 21.9607 12.0192 22.0273 12.0586L22.2129 12.168L22.458 12.3135V14.2998Z" fill="#8B8682"/>
<path d="M18.464 15.9996C18.464 17.3606 17.3606 18.464 15.9996 18.464C14.6385 18.464 13.5352 17.3606 13.5352 15.9996C13.5352 14.6385 14.6385 13.5352 15.9996 13.5352C17.3606 13.5352 18.464 14.6385 18.464 15.9996Z" fill="#161616"/>
<path d="M18.1613 2.73047V2.73242C18.7595 2.72348 19.3432 2.91811 19.8146 3.28711C20.2881 3.65783 20.6178 4.18328 20.7375 4.77246L21.133 6.67578C21.3522 6.78927 21.568 6.90887 21.7794 7.03613L23.6847 6.41016H23.6867C24.0338 6.29725 24.4006 6.25683 24.7638 6.29297C25.127 6.32912 25.479 6.44106 25.797 6.62012C26.1411 6.81472 26.4328 7.08368 26.6535 7.40039L26.7433 7.53906L26.7443 7.54004L28.9171 11.1279C29.2373 11.637 29.3628 12.2441 29.2716 12.8389C29.1798 13.4376 28.8734 13.9817 28.4103 14.3721L28.4113 14.373L26.9064 15.6543V16.3447L28.3966 17.6719C28.8459 18.0539 29.1457 18.582 29.2433 19.1641C29.3416 19.7503 29.226 20.3513 28.921 20.8613L28.922 20.8623L26.8234 24.4492L26.8205 24.4531C26.5901 24.8411 26.2613 25.1618 25.8673 25.3818L25.8654 25.3828C25.4738 25.5995 25.0336 25.715 24.5861 25.7178C24.3084 25.7195 24.0317 25.678 23.7668 25.5947L23.757 25.5908L21.8605 24.9648C21.6464 25.0927 21.4276 25.2126 21.2052 25.3262L20.8126 27.2266C20.6899 27.8155 20.3612 28.3419 19.8869 28.7119L19.8878 28.7129C19.4165 29.0819 18.8328 29.2765 18.2345 29.2676V29.2695H13.8878V29.2676C13.3652 29.2753 12.8542 29.1276 12.4191 28.8438L12.2355 28.7129C11.7618 28.3425 11.4349 27.8163 11.3126 27.2275L10.9152 25.3232C10.6969 25.2097 10.4827 25.0884 10.2716 24.9619L8.36831 25.5908L8.35757 25.5947C8.09283 25.6779 7.81671 25.7194 7.53921 25.7178C7.09248 25.7146 6.65276 25.5991 6.26187 25.3828L6.25991 25.3818C5.86791 25.1634 5.54028 24.8458 5.30972 24.4609L3.1398 20.8809L3.02847 20.6826C2.79017 20.2105 2.70639 19.6731 2.79312 19.1475C2.88678 18.5802 3.17422 18.0648 3.60269 17.6846L5.14273 15.7383V15.6533L3.65347 14.3281C3.20466 13.9462 2.90434 13.4177 2.80679 12.8359C2.70793 12.2463 2.8231 11.6407 3.13198 11.1289L3.13296 11.127L5.30777 7.54102C5.53792 7.15564 5.86504 6.83712 6.25698 6.61816L6.25991 6.61719C6.60197 6.42791 6.98064 6.31617 7.36929 6.28906L7.53628 6.28223C7.72887 6.2731 7.92171 6.28414 8.11148 6.31641L8.31362 6.3584L8.34683 6.36719L8.38003 6.37891L10.2326 7.03027C10.4446 6.90406 10.6605 6.78516 10.88 6.67285L11.2755 4.77246C11.3977 4.1838 11.7248 3.65746 12.1984 3.28711C12.6697 2.91811 13.2535 2.72348 13.8517 2.73242V2.73047H18.1613ZM13.8361 4.23047C13.5784 4.22514 13.3262 4.30891 13.1232 4.46777C12.9289 4.61958 12.7943 4.83671 12.7443 5.07812L12.1984 7.7041L11.8595 7.86328C11.4689 8.04725 11.0912 8.25526 10.7267 8.48828L10.4191 8.68555L7.92691 7.80957C7.81617 7.78404 7.70251 7.7741 7.58902 7.78125L7.56753 7.78223H7.54702C7.35078 7.78363 7.15821 7.8347 6.98648 7.92969L6.9855 7.92871C6.82354 8.01982 6.68876 8.15267 6.5939 8.3125L6.58999 8.31934L6.58902 8.31836L4.41519 11.9033L4.41616 11.9043C4.29255 12.1093 4.2467 12.3518 4.28628 12.5879C4.32098 12.7947 4.41914 12.9847 4.56655 13.1318L4.63198 13.1924L4.64175 13.1992L4.65054 13.208L6.64273 14.9814V16.2607L4.74234 18.6631L4.69155 18.7266L4.62808 18.7783C4.43913 18.9327 4.31334 19.1509 4.27359 19.3916C4.23385 19.6323 4.28306 19.879 4.41226 20.0859L4.41812 20.0947L6.59195 23.6836L6.59487 23.6885C6.6901 23.8482 6.82617 23.9795 6.98843 24.0703L7.12027 24.1338C7.25591 24.1881 7.40105 24.2156 7.548 24.2168C7.60917 24.2172 7.67031 24.2132 7.73062 24.2041L7.90835 24.1631L10.1339 23.4287L10.4728 23.3174L10.7736 23.5098C11.0462 23.6841 11.3264 23.846 11.6134 23.9951L11.9025 24.1396L12.2355 24.3008L12.7804 26.9219C12.8305 27.1632 12.9651 27.3794 13.1593 27.5312L13.1603 27.5322C13.3632 27.6909 13.6147 27.7748 13.8722 27.7695H18.2501C18.5079 27.7749 18.76 27.6911 18.963 27.5322L18.964 27.5303C19.1586 27.3787 19.2935 27.1633 19.3439 26.9219L19.8878 24.2959L20.2277 24.1367C20.6191 23.9529 20.996 23.7443 21.3585 23.5117L21.6593 23.3193L21.9982 23.4307L24.216 24.1631C24.3323 24.1997 24.4544 24.2185 24.5763 24.2178C24.773 24.2166 24.9667 24.1656 25.1388 24.0703C25.3007 23.9792 25.4356 23.8472 25.5304 23.6875L27.6281 20.1045L27.633 20.0957C27.7567 19.8907 27.8034 19.6483 27.7638 19.4121C27.7242 19.1758 27.6011 18.9611 27.4171 18.8076L27.4084 18.8008L27.3986 18.792L25.4064 17.0186V14.9619L27.4386 13.2314L27.4425 13.2275C27.629 13.0711 27.7523 12.852 27.7892 12.6113C27.826 12.3708 27.7737 12.125 27.6427 11.9199L27.6388 11.9121L27.6339 11.9043L25.4611 8.31641C25.3628 8.15484 25.2253 8.01907 25.0607 7.92578C24.9236 7.8486 24.7719 7.80175 24.6154 7.78613C24.4592 7.77059 24.3009 7.78656 24.1515 7.83496L24.1525 7.83594L21.9152 8.57129L21.5744 8.68262L21.2736 8.48926C20.9129 8.25637 20.5388 8.04652 20.1505 7.86133L19.8146 7.70117L19.7384 7.33691L19.2687 5.07812L19.2677 5.07324C19.2209 4.84025 19.089 4.6237 18.8898 4.46777C18.6868 4.30892 18.4346 4.22514 18.1769 4.23047H13.8361Z" fill="black"/>
</svg>
