<svg width="32" height="32" viewBox="0 0 32 32" fill="none" xmlns="http://www.w3.org/2000/svg">
<path d="M15.9082 16.2637L8.02508 11.7124V20.815L15.9082 25.3663V16.2637Z" fill="#E0DCD8"/>
<path d="M15.4738 22.8408V24.6162L13.9363 23.7285V24.7285L16.3398 26.1162V23.3408L15.4738 22.8408ZM7.59079 18.2896V21.0649L9.99435 22.4526V21.4526L8.45681 20.5649V18.7896L7.59079 18.2896ZM13.9363 14.626V15.626L15.4738 16.5137V18.2891L16.3398 18.7891V16.0137L13.9363 14.626ZM7.59079 10.9624V13.7378L8.45681 14.2378V12.4624L9.99435 13.3501V12.3501L7.59079 10.9624Z" fill="#8B8682"/>
<path d="M23.791 11.7285L15.9079 7.17719L8.02478 11.7285L15.9079 16.2798L23.791 11.7285Z" fill="#E0DCD8"/>
<path d="M17.4447 14.8921L15.9072 15.7798L14.3697 14.8921L13.5036 15.3921L15.9072 16.7798L18.3108 15.3921L17.4447 14.8921ZM9.5617 10.3408L7.15814 11.7285L9.5617 13.1162L10.4277 12.6162L8.89019 11.7285L10.4277 10.8408L9.5617 10.3408ZM22.2527 10.3408L21.3867 10.8408L22.9242 11.7285L21.3867 12.6162L22.2527 13.1162L24.6562 11.7285L22.2527 10.3408ZM15.9072 6.67725L13.5036 8.06494L14.3697 8.56494L15.9072 7.67725L17.4447 8.56494L18.3108 8.06494L15.9072 6.67725Z" fill="#8B8682"/>
<path d="M23.7344 11.7402L15.8513 16.2916V25.3942L23.7344 20.8429V11.7402Z" fill="#E0DCD8"/>
<path d="M23.3 18.8174V20.5928L21.7625 21.4805V22.4805L24.166 21.0928V18.3174L23.3 18.8174ZM15.417 23.3687V26.144L17.8205 24.7563V23.7563L16.283 24.644V22.8687L15.417 23.3687ZM21.7625 12.3779V13.3779L23.3 12.4902V14.2656L24.166 13.7656V10.9902L21.7625 12.3779ZM15.417 16.0415V18.8169L16.283 18.3169V16.5415L17.8205 15.6538V14.6538L15.417 16.0415Z" fill="#8B8682"/>
<path d="M16.3027 0.754883L19.251 2.58496C19.603 2.80332 19.7115 3.26521 19.4932 3.61719C19.2749 3.96902 18.8129 4.07744 18.4609 3.85938L15.8984 2.26953L4.85254 8.81445C6.29568 9.67718 8.22033 10.8345 10.123 11.9814C12.5589 13.4497 14.9608 14.8979 16.29 15.6855L16.6572 15.9033V29.3115L21.4424 26.5645C21.8015 26.3584 22.2596 26.4828 22.4658 26.8418C22.672 27.2009 22.5484 27.6589 22.1895 27.8652L15.9014 31.4756L2.63672 23.6152V8.38477L15.916 0.515625L16.3027 0.754883ZM4.13672 22.7598L15.1572 29.29V16.7559C13.7751 15.9331 11.5718 14.6067 9.34863 13.2666C7.46715 12.1325 5.56945 10.9905 4.13672 10.1338V22.7598Z" fill="#161616"/>
<path d="M25.1278 1.72765L20.0023 14.0856C19.9309 14.2577 20.1128 14.4253 20.2785 14.3401L23.4096 12.73L23.492 21.7664C23.4934 21.9125 23.6458 22.0079 23.7778 21.9453L27.4584 20.197C27.5281 20.1639 27.5725 20.0936 27.5725 20.0163V10.5937L30.4638 9.15428C30.5735 9.09965 30.6087 8.96005 30.538 8.8599L25.4759 1.68893C25.3851 1.56028 25.1881 1.58219 25.1278 1.72765Z" fill="#E6E3E0"/>
<path d="M21.2691 12.9874L24.149 11.5069L24.2339 20.8976L26.8228 19.6681V10.129L29.5552 8.76768L25.438 2.93565L21.2691 12.9874ZM28.3228 20.0167C28.3227 20.3832 28.1117 20.7167 27.7808 20.8741L24.1001 22.6231C23.4732 22.9209 22.7492 22.4675 22.7427 21.7735L22.6704 13.9532L20.6216 15.0069C19.8348 15.4115 18.9711 14.6152 19.3101 13.798L24.4351 1.44053L24.4966 1.31748C24.8372 0.73927 25.6841 0.684138 26.0884 1.25694L31.1509 8.42783C31.4865 8.90345 31.3194 9.56575 30.7984 9.82529L28.3228 11.0567V20.0167Z" fill="#161616"/>
</svg>
