<svg width="186" height="66" viewBox="0 0 186 66" fill="none" xmlns="http://www.w3.org/2000/svg">
<mask id="mask0_4532_197397" style="mask-type:luminance" maskUnits="userSpaceOnUse" x="46" y="12" width="94" height="42">
<path d="M140 12.4788H46V53.521H140V12.4788Z" fill="white"/>
</mask>
<g mask="url(#mask0_4532_197397)">
<path d="M124.491 13.1274C125.355 13.061 126.219 13.1915 127.091 13.093C127.114 13.2095 127.131 13.3344 127.118 13.4532C127.066 13.9445 125.807 17.0125 125.482 17.284C125.497 17.3406 125.511 17.4047 125.502 17.4635C125.383 18.1944 124.387 20.2559 124.065 21.0463L121.988 26.1301C121.63 26.998 121.299 27.9168 120.878 28.7537C120.774 28.9617 120.623 29.1083 120.443 29.2503C120.451 29.2108 120.455 29.1715 120.452 29.1311C120.414 28.6581 117.11 21.2556 116.731 20.5119C116.659 20.3708 116.559 20.2543 116.442 20.1492C116.467 20.3205 116.453 20.4714 116.399 20.6362C115.889 22.2028 115.14 23.708 114.517 25.2322C114.06 26.349 113.69 27.7388 113.051 28.7526C112.951 28.9102 112.915 28.9769 112.732 29.0194C112.521 28.7868 112.389 28.4584 112.256 28.1758C111.656 26.8996 105.882 13.7709 105.856 13.3768C105.853 13.3335 105.918 13.2017 105.935 13.1537C106.708 13.1297 107.458 13.1502 108.228 13.2017C108.352 13.2742 108.447 13.3625 108.53 13.479C109.228 14.453 110.23 17.3271 110.742 18.5475C111.325 19.9377 112.052 21.3557 112.52 22.7856C112.577 22.9594 112.586 23.1144 112.558 23.2948C113.542 22.366 115.779 14.3819 116.609 14.0047L116.75 14.0734C117.127 15.9248 120.653 22.2387 120.379 23.3544C120.404 23.3313 120.428 23.3077 120.451 23.2825C120.807 22.8975 124.501 13.3881 124.491 13.1274Z" fill="#8C8884"/>
<path d="M79.0093 13.1503C79.4417 13.1568 79.8765 13.1069 80.3071 13.0713C80.3689 15.2868 80.3752 17.5626 80.2945 19.7766C81.6543 19.6365 85.1078 19.5992 86.402 19.8223C86.0778 18.2048 86.2701 14.9132 86.4363 13.1797C87.1836 13.148 87.9296 13.1475 88.6776 13.1491C88.7463 13.2692 88.7988 13.4212 88.8056 13.5596C88.8603 14.6385 88.8074 15.746 88.8067 16.8282L88.8042 23.4051C88.8045 24.6677 88.9879 27.5864 88.7784 28.6625C88.4582 28.7232 88.0393 28.6734 87.708 28.6748L86.407 28.674C86.3155 27.249 86.0246 23.2023 86.3434 22.0015C84.3322 22.0852 82.2442 22.0997 80.2344 21.9914C80.4996 23.6822 80.3178 26.8342 80.3414 28.6796C79.5158 28.6584 78.6824 28.6818 77.8562 28.6843C77.6095 25.5532 77.7416 22.3369 77.744 19.1959C77.7453 17.626 77.5727 14.8356 77.8966 13.3999C78.2202 13.1007 78.5921 13.1568 79.0093 13.1503Z" fill="#8C8884"/>
<path d="M99.1965 12.7021L99.5123 12.7181C99.5573 12.7494 99.6533 12.7976 99.6857 12.8379C99.8452 13.0408 105.753 27.3423 106.078 28.462L105.974 28.5045L106.068 28.6179L106.09 28.6193C105.236 28.7233 104.316 28.6943 103.457 28.6567C103.385 28.092 102.457 25.7319 102.067 25.339C101.263 25.4536 100.405 25.3848 99.593 25.3724C98.6345 25.3834 97.6839 25.3939 96.7267 25.3179C96.7371 25.3719 96.7456 25.4277 96.7449 25.4828C96.7407 25.8583 95.7567 28.3747 95.4704 28.6612C94.5139 28.7589 93.4806 28.6915 92.5156 28.6992C92.6926 28.5492 92.8555 28.386 92.967 28.1798C93.8016 26.6374 94.6766 24.0716 95.3843 22.3644L97.7951 16.5152C98.2505 15.4132 98.7642 14.3106 99.1555 13.1848C99.2157 13.0118 99.2515 12.884 99.1965 12.7021ZM97.5466 23.1856C98.191 23.1332 98.8582 23.0905 99.5037 23.1107C100.048 23.1193 100.671 23.0675 101.204 23.1546C101.322 22.6787 99.879 19.4277 99.5718 18.8889C99.4712 18.8441 99.3991 18.8114 99.2852 18.8231C99.3607 19.3306 98.1148 22.4388 97.7587 22.9317C97.6938 23.0208 97.6224 23.1056 97.5466 23.1856Z" fill="#8C8884"/>
<path d="M66.8272 12.616C66.9813 12.6679 67.119 12.7399 67.2086 12.8818C67.8447 13.8885 68.2617 15.3119 68.7225 16.4307L72.1619 24.7813C72.6971 26.0697 73.1406 27.4521 73.8105 28.6729L71.1189 28.6836C70.671 27.6033 70.137 26.5865 69.8166 25.4518C68.9612 25.3669 68.1024 25.3695 67.2437 25.3609C66.2763 25.39 65.3414 25.4364 64.3902 25.2263C63.9834 26.3808 63.4431 27.5004 63.086 28.6681C62.1662 28.6719 61.2414 28.6565 60.3242 28.7348C60.8709 27.1631 61.5639 25.6217 62.203 24.0851L65.0106 17.2848C65.6338 15.7802 66.4362 14.1974 66.8272 12.616ZM65.1474 23.2165C65.8192 23.1072 66.4774 23.1082 67.1552 23.1114C67.7613 23.1152 68.3927 23.0866 68.9924 23.1765C68.4309 22.3082 67.4709 19.0976 66.9363 18.7179C66.5145 20.1723 65.9193 21.9151 65.1474 23.2165Z" fill="#8C8884"/>
<path d="M79.6897 45.0943C78.9176 44.296 78.4764 43.2485 78.4883 42.1264C78.4991 41.1126 79.0058 40.0495 79.7218 39.341C80.6256 38.4465 81.9495 38.0274 83.1998 38.0437C84.4744 38.0602 85.7789 38.5431 86.6728 39.4752C87.4191 40.2429 87.8308 41.2789 87.8161 42.3534C87.7951 43.3819 87.3115 44.3997 86.6431 45.1632C87.6585 46.2203 88.3312 47.2994 88.3062 48.8147C88.2847 50.1162 87.734 51.2722 86.8104 52.1712C86.3032 52.6648 85.7049 53.0075 85.0512 53.2664C84.8643 53.3406 84.5819 53.4007 84.425 53.521H81.9464C80.4291 52.959 79.1036 52.1752 78.3987 50.6383C77.9109 49.5744 77.817 48.3421 78.2263 47.2369C78.5121 46.4654 79.0576 45.6217 79.6897 45.0943ZM83.5061 51.0217C84.2045 50.963 84.8093 50.77 85.2757 50.2059C85.6466 49.7494 85.82 49.1622 85.7571 48.5757C85.6988 47.9469 85.3918 47.368 84.9054 46.9694C84.4476 46.6003 83.6569 46.3738 83.0704 46.4267C83.0507 46.4284 83.0311 46.433 83.0114 46.4369C82.1872 46.5577 81.3725 46.8084 80.8521 47.5167C80.5275 47.9585 80.4084 48.5293 80.495 49.0682C80.5892 49.6547 80.922 50.1576 81.3977 50.5032C82.0404 50.9699 82.738 51.0519 83.5061 51.0217ZM81.822 43.7283C82.5232 43.9515 83.1183 44.0227 83.8524 43.9992C84.4068 43.7677 84.934 43.5027 85.1759 42.9062C85.3311 42.5237 85.2946 42.0283 85.1334 41.6538C85.0509 41.4621 84.9486 41.2761 84.8453 41.0952C84.0408 40.6235 83.5011 40.5139 82.5643 40.5693C81.9799 40.7856 81.3945 41.0098 81.1162 41.6227C80.9417 42.0073 80.9848 42.4316 81.1352 42.8163C81.2754 43.1745 81.5642 43.4524 81.822 43.7283Z" fill="#8C8884"/>
<path d="M93.921 53.5211C93.925 53.5143 93.9293 53.507 93.9332 53.5002C94.3739 52.7233 93.652 51.326 94.712 51.0132C95.191 50.8721 95.6856 50.9481 96.1649 50.8451C97.3015 50.6017 98.2596 49.207 98.7839 48.2652C98.9183 48.0225 99.052 47.7725 99.0891 47.4932L99.0169 47.4029C97.6758 47.9138 95.9476 47.8611 94.6359 47.2689C93.5536 46.7803 92.7473 45.8927 92.3266 44.7792C91.8473 43.5106 91.9381 42.1142 92.4882 40.8843C93.0114 39.7141 93.8889 38.8247 95.0873 38.3699C96.3397 37.8968 97.728 37.9491 98.9421 38.5152C100.302 39.1379 101.195 40.2979 101.708 41.6862C102.572 44.0198 102.204 46.7818 101.193 49.0046C100.455 50.628 99.0242 52.4511 97.3037 53.0927C96.9494 53.2248 96.3948 53.3015 96.0967 53.5211H93.921ZM97.5785 45.1896C98.2027 45.1021 98.7025 44.7382 99.0798 44.2337C99.2281 44.0358 99.5167 43.6462 99.4948 43.3879C99.5445 42.7753 99.1811 41.9155 98.7938 41.4623C98.3807 40.9783 97.7373 40.5973 97.0963 40.5558C96.7793 40.5352 96.4662 40.5601 96.1524 40.6048C95.4029 40.9917 94.91 41.4498 94.6431 42.2879C94.4504 42.8936 94.4826 43.6075 94.7749 44.1764C95.004 44.6285 95.4029 44.9698 95.8829 45.1246C96.2972 45.255 97.156 45.3361 97.5785 45.1896Z" fill="#8C8884"/>
<path d="M133.19 12.2981C133.286 12.3862 133.399 12.4907 133.458 12.6083C133.893 13.4637 134.237 14.4382 134.605 15.3289C135.316 17.0071 136.003 18.6954 136.667 20.393C137.704 23.0186 138.843 25.6107 139.898 28.2312C139.928 28.4054 139.913 28.5087 139.848 28.6721C139.306 28.6887 138.729 28.7407 138.19 28.6931C136.524 28.5456 136.865 26.4212 135.953 25.3504C135.947 25.3441 135.942 25.3379 135.937 25.3316C134.38 25.4952 132.768 25.2342 131.214 25.4246C131.028 25.4471 130.739 25.4783 130.619 25.6384C130.612 25.6478 130.605 25.6575 130.598 25.667C130.019 26.4566 130.092 27.7415 129.386 28.4556C128.951 28.8948 127.16 28.7006 126.52 28.6954C126.58 28.6382 126.639 28.5746 126.69 28.5076C127.161 27.8738 128.341 24.5424 128.744 23.5681L131.708 16.4137C132.19 15.2505 132.754 14.0711 133.166 12.884C133.233 12.6939 133.217 12.4944 133.19 12.2981ZM131.337 23.211C131.987 23.1509 132.626 23.1087 133.278 23.1112C133.877 23.1196 134.484 23.1066 135.08 23.142C135.153 22.7133 133.751 19.362 133.436 18.8689L133.203 18.8239C133.229 19.4028 131.931 22.5818 131.543 23.0102C131.478 23.0809 131.41 23.1479 131.337 23.211Z" fill="#8C8884"/>
<path d="M46 13.1385C46.823 13.1341 47.6618 13.163 48.4819 13.093C48.4932 15.2554 48.693 17.6715 48.2353 19.788C49.3653 18.2273 50.5195 16.6846 51.6975 15.1604C52.199 14.5118 52.6943 13.771 53.2677 13.1896C54.3561 13.1247 55.4438 13.2018 56.5282 13.1305C55.7895 13.8554 51.0148 20.0411 50.8021 20.6619C51.6249 21.7127 57.1698 28.0154 57.3247 28.5012C56.8884 28.8915 55.1548 28.663 54.5198 28.635C53.5488 27.8009 48.7428 21.9364 48.452 21.8418C48.4339 21.8764 48.5081 28.0548 48.5211 28.6857C47.6808 28.6737 46.8404 28.6672 46 28.6661V13.1385Z" fill="#8C8884"/>
<path d="M106.44 38.0743C108.292 38.0068 110.151 38.0392 112.004 38.0384C112.947 38.038 113.928 38.0933 114.863 37.9739C114.897 38.5334 112.763 42.239 112.293 42.7719C112.199 42.8781 112.098 42.9782 111.991 43.0715C113.457 43.3582 114.78 44.0694 115.63 45.3367C116.326 46.3843 116.578 47.6679 116.331 48.9031C116.053 50.3205 115.152 51.699 113.957 52.5029C113.432 52.8565 112.056 53.3533 111.842 53.5211H109.152C109.003 53.2586 108.2 53.0833 107.887 52.9475C106.993 52.5605 106.177 52.0428 105.297 51.6385C105.7 51.3159 106.646 50.0876 106.717 49.5655C108.286 50.3792 109.823 51.4909 111.69 50.8929C112.52 50.6265 113.226 49.9928 113.621 49.213C113.936 48.5884 114.036 47.8593 113.815 47.1867C113.615 46.5761 113.145 46.1225 112.583 45.839C111.237 45.1599 109.33 45.3561 107.87 45.4821C108.445 44.9464 110.593 41.1966 110.653 40.5071C109.398 40.6908 107.612 40.644 106.34 40.5218C106.561 40.0731 106.645 38.6702 106.48 38.1778C106.469 38.1424 106.455 38.1082 106.44 38.0743Z" fill="#8C8884"/>
<path d="M67.4727 42.4522C68.1231 41.8558 72.7263 38.2259 73.2312 38.095C73.2643 38.1502 73.3482 38.2545 73.3614 38.3122C73.4618 38.749 73.3465 41.2167 73.3464 41.8555L73.3479 49.6709C73.3479 50.9158 73.4583 52.2882 73.3151 53.5212H70.7774L70.7609 46.8398C70.758 45.6226 70.5894 44.0936 70.8815 42.9203C70.3557 43.318 69.5562 44.1592 68.8852 44.0936C68.3469 43.7679 67.8628 42.9483 67.4727 42.4522Z" fill="#8C8884"/>
</g>
</svg>
