<svg width="61" height="61" viewBox="0 0 61 61" fill="none" xmlns="http://www.w3.org/2000/svg">
<circle cx="3.06546" cy="3.06546" r="3.06546" transform="matrix(0.906308 0.422618 0 1 7.31445 43.3938)" fill="#161616"/>
<path d="M14.1952 48.4912C14.1952 50.1842 12.7187 50.7486 11.4169 51.0707C9.88254 50.3552 8.63867 47.5932 8.63867 45.9002C8.63867 44.2072 9.88254 43.4147 11.4169 44.1302C12.9513 44.8457 14.1952 46.7982 14.1952 48.4912Z" fill="#161616"/>
<path d="M28.3944 56.1948C28.3944 57.8878 26.9179 58.4522 25.6161 58.7743C24.0818 58.0588 22.8379 55.2968 22.8379 53.6038C22.8379 51.9108 24.0818 51.1184 25.6161 51.8339C27.1505 52.5493 28.3944 54.5018 28.3944 56.1948Z" fill="#161616"/>
<path d="M45.1034 47.5591C45.1034 49.2521 43.6269 49.8165 42.3251 50.1386C40.7907 49.4231 39.5469 46.6611 39.5469 44.9681C39.5469 43.275 40.7907 42.4826 42.3251 43.1981C43.8595 43.9136 45.1034 45.8661 45.1034 47.5591Z" fill="#161616"/>
<circle cx="3.06546" cy="3.06546" r="3.06546" transform="matrix(0.906308 0.422618 0 1 21.5049 51.1091)" fill="#161616"/>
<circle cx="3.06546" cy="3.06546" r="3.06546" transform="matrix(0.906308 0.422618 0 1 38.3262 42.45)" fill="#161616"/>
<path d="M10.2393 45.6072V39.2924" stroke="#161616" stroke-width="1.5" stroke-linecap="round"/>
<path d="M24.2832 53.9663V49.1477" stroke="#161616" stroke-width="1.5" stroke-linecap="round"/>
<path d="M34.9656 41.6017L9.17653 27.0781L7.8155 21.7585L29.7841 10.5371L31.8302 15.8248L53.5792 30.3092C53.6732 30.3718 53.6696 30.511 53.5725 30.5686L34.9656 41.6017Z" fill="#E0DCD8"/>
<path d="M9.17653 27.0781L34.9656 41.6017L53.5725 30.5686C53.6696 30.511 53.6732 30.3718 53.5792 30.3092L31.8302 15.8248M9.17653 27.0781L31.8302 15.8248M9.17653 27.0781L7.8155 21.7585M31.8302 15.8248L29.7841 10.5371L7.8155 21.7585M7.8155 21.7585L4.1546 19.1328" stroke="#161616" stroke-width="1.5" stroke-linecap="round"/>
<path d="M46.4621 10.1468V35.2247L31.7413 43.9481L17.0205 35.2247V10.1468L31.7413 1.42334L46.4621 10.1468Z" fill="#D6CFC7"/>
<path d="M17.0205 10.1468C22.7693 13.5535 31.7413 18.8702 31.7413 18.8702M17.0205 10.1468V35.2247L31.7413 43.9481M17.0205 10.1468L31.7413 1.42334L46.4621 10.1468M31.7413 18.8702V43.9481M31.7413 18.8702L46.4621 10.1468M46.4621 10.1468V35.2247L31.7413 43.9481" stroke="#57534E" stroke-width="1.5"/>
<path d="M39.5092 19.2371V33.0899M39.5092 33.0899L35.6523 31.1601M39.5092 33.0899L43.366 26.7066" stroke="black" stroke-width="1.5"/>
<path d="M9.17808 27.0782L34.5268 41.8858L52.8993 31.1883C53.0314 31.1114 53.1824 31.2542 53.113 31.3904L50.3472 36.818L47.2812 42.9486L30.5254 52.7645L9.17808 40.3688L9.17808 34.1209L9.17808 27.0782Z" fill="#E0DCD8"/>
<path d="M34.5268 41.8858L9.17808 27.0782L9.17808 34.1209M34.5268 41.8858L52.8993 31.1883C53.0314 31.1114 53.1824 31.2542 53.113 31.3904L50.3472 36.818M34.5268 41.8858L32.3386 47.6377M30.5254 52.7645L47.2812 42.9486L50.3472 36.818M30.5254 52.7645L9.17808 40.3688L9.17808 34.1209M30.5254 52.7645L32.3386 47.6377M9.17808 34.1209L32.3386 47.6377M32.3386 47.6377L50.3472 36.818" stroke="#161616" stroke-width="1.5" stroke-linecap="round"/>
</svg>
