<svg width="33" height="32" viewBox="0 0 33 32" fill="none" xmlns="http://www.w3.org/2000/svg">
<path d="M16.5293 16.2578L8.64618 11.7065V20.8091L16.5293 25.3605V16.2578Z" fill="#E0DCD8" stroke="#8B8682" stroke-dasharray="4 4"/>
<path d="M24.4121 11.7266L16.529 7.17524L8.64587 11.7266L16.529 16.2779L24.4121 11.7266Z" fill="#E0DCD8" stroke="#8B8682" stroke-dasharray="4 4"/>
<path d="M24.3555 11.7344L16.4723 16.2857V25.3883L24.3555 20.837V11.7344Z" fill="#E0DCD8" stroke="#8B8682" stroke-dasharray="4 4"/>
<path d="M4.00977 8.94308C8.89938 11.8406 16.5304 16.3627 16.5304 16.3627M4.00977 8.94308V23.3186L5.16908 24.0142M4.00977 8.94308L16.5304 1.52344L22.7907 5.23326M16.5304 16.3627L29.0511 8.94308M16.5304 16.3627V30.7383M29.0511 8.94308V23.3186L16.5304 30.7383M29.0511 8.94308L27.486 8.01563M16.5304 30.7383L10.2701 27.0285" stroke="#161616" stroke-width="1.5" stroke-linecap="round"/>
<circle cx="8.851" cy="26.2299" r="1.85491" fill="#161616"/>
<circle cx="23.644" cy="5.71429" r="1.85491" fill="#161616"/>
</svg>
