<svg width="61" height="61" viewBox="0 0 61 61" fill="none" xmlns="http://www.w3.org/2000/svg">
<path d="M9.53418 28.7524C17.9956 33.7666 31.201 41.592 31.201 41.592M9.53418 28.7524L31.201 15.9128L52.8678 28.7524V42.056M9.53418 28.7524V29.9426V43.2462L11.5404 44.45" stroke="#161616" stroke-width="1.5" stroke-linecap="round"/>
<path d="M41.3716 7.15535V38.3642L26.6508 47.0876L22.9209 44.8849V13.6761L37.6417 4.95264L41.3716 7.15535Z" fill="#D6CFC7"/>
<path d="M22.9209 13.6761L26.6508 15.8788M22.9209 13.6761V44.8849L26.6508 47.0876M22.9209 13.6761L37.6417 4.95264L41.3716 7.15535M26.6508 15.8788V47.0876M26.6508 15.8788L41.3716 7.15535M41.3716 7.15535V38.3642L26.6508 47.0876" stroke="#57534E" stroke-width="1.5"/>
<path d="M9.76289 28.888L31.201 41.592L52.6364 28.8896C52.7386 28.829 52.8678 28.9027 52.8678 29.0214V42.056V43.2462L31.201 56.0858L11.5404 44.45L9.53418 43.2462V42.056V29.0214C9.53418 28.9027 9.66072 28.8274 9.76289 28.888Z" fill="#E0DCD8"/>
<path d="M31.201 41.592C31.201 41.592 18.2313 33.9063 9.76289 28.888C9.66072 28.8274 9.53418 28.9027 9.53418 29.0214V42.056V43.2462L11.5404 44.45L31.201 56.0858M31.201 41.592V56.0858M31.201 41.592L52.6364 28.8896C52.7386 28.829 52.8678 28.9027 52.8678 29.0214V42.056V43.2462L31.201 56.0858" stroke="#161616" stroke-width="1.5" stroke-linecap="round"/>
<path d="M39.7969 41.5681L45.7242 38.0938" stroke="#161616" stroke-width="1.5" stroke-linecap="round"/>
<path d="M32.334 17.5081L38.486 13.9555" stroke="#161616" stroke-width="1.53273" stroke-linecap="round"/>
<path d="M32.334 23.0129L38.486 19.4604" stroke="#161616" stroke-width="1.53273" stroke-linecap="round"/>
<path d="M32.334 28.5178L38.486 24.9652" stroke="#161616" stroke-width="1.53273" stroke-linecap="round"/>
<path d="M32.334 34.0225L38.486 30.4699" stroke="#161616" stroke-width="1.53273" stroke-linecap="round"/>
<ellipse cx="29.7639" cy="18.8614" rx="0.854196" ry="1.02052" transform="rotate(10.6611 29.7639 18.8614)" fill="#161616"/>
<ellipse cx="29.7639" cy="24.366" rx="0.854196" ry="1.02052" transform="rotate(10.6611 29.7639 24.366)" fill="#161616"/>
<ellipse cx="29.7639" cy="29.8709" rx="0.854196" ry="1.02052" transform="rotate(10.6611 29.7639 29.8709)" fill="#161616"/>
<ellipse cx="29.7639" cy="35.3758" rx="0.854196" ry="1.02052" transform="rotate(10.6611 29.7639 35.3758)" fill="#161616"/>
<path d="M37.1402 5.87338V9.49304L30.2504 13.5836L26.5205 11.3809V7.76123L33.4103 3.67066L37.1402 5.87338Z" fill="#D6CFC7"/>
<path d="M26.5205 7.76123L30.2504 9.96394M26.5205 7.76123V11.3809L30.2504 13.5836M26.5205 7.76123L33.4103 3.67066L37.1402 5.87338M30.2504 9.96394V13.5836M30.2504 9.96394L37.1402 5.87338M37.1402 5.87338V9.49304L30.2504 13.5836" stroke="#57534E" stroke-width="1.53273"/>
</svg>
