<svg width="61" height="62" viewBox="0 0 61 62" fill="none" xmlns="http://www.w3.org/2000/svg">
<path d="M9.53418 29.7524C17.9956 34.7666 31.201 42.592 31.201 42.592M9.53418 29.7524L31.201 16.9128L52.8678 29.7524V43.056M9.53418 29.7524V30.9426V44.2462L11.5404 45.45" stroke="#161616" stroke-width="1.5" stroke-linecap="round"/>
<path d="M16.7725 46.3255V13.4139L37.6382 1.72677L40.8786 3.19925L44.5778 4.92312L47.8483 6.49833V39.41L26.6149 51.581L16.7725 46.3255Z" fill="#D6CFC7"/>
<path d="M16.7725 13.4139V46.3255L26.6149 51.581M16.7725 13.4139L37.6382 1.72677L40.8786 3.19925M16.7725 13.4139L20.1012 14.999M26.6149 51.581V18.1767M26.6149 51.581L47.8483 39.41V6.49833M26.6149 18.1767L47.8483 6.49833M26.6149 18.1767L23.4299 16.5842M47.8483 6.49833L44.5778 4.92312M23.4299 16.5842L44.5778 4.92312M23.4299 16.5842L20.1012 14.999M44.5778 4.92312L40.8786 3.19925M20.1012 14.999L40.8786 3.19925" stroke="#57534E" stroke-width="1.5"/>
<path d="M42.7616 30.3206V28.4873C42.7616 26.4622 41.3399 25.6414 39.5861 26.6539L34.8229 29.4039C33.0692 30.4165 31.6475 32.879 31.6475 34.904V36.7374" stroke="black" stroke-width="1.5" stroke-linecap="round" stroke-linejoin="round"/>
<path d="M37.572 25.7371C39.3257 24.7246 40.7474 22.2621 40.7474 20.2371C40.7474 18.212 39.3257 17.3912 37.572 18.4037C35.8182 19.4162 34.3965 21.8787 34.3965 23.9038C34.3965 25.9289 35.8182 26.7497 37.572 25.7371Z" stroke="black" stroke-width="1.5" stroke-linecap="round" stroke-linejoin="round"/>
<path d="M9.76289 29.8882L31.201 42.5923L52.6364 29.8898C52.7386 29.8293 52.8678 29.9029 52.8678 30.0217V43.0563V44.2465L31.201 57.0861L11.5404 45.4502L9.53418 44.2465V43.0563V30.0217C9.53418 29.9029 9.66072 29.8277 9.76289 29.8882Z" fill="#E0DCD8"/>
<path d="M31.201 42.5923C31.201 42.5923 18.2313 34.9066 9.76289 29.8882C9.66072 29.8277 9.53418 29.9029 9.53418 30.0217V43.0563V44.2465L11.5404 45.4502L31.201 57.0861M31.201 42.5923V57.0861M31.201 42.5923L52.6364 29.8898C52.7386 29.8293 52.8678 29.9029 52.8678 30.0217V43.0563V44.2465L31.201 57.0861" stroke="#161616" stroke-width="1.5" stroke-linecap="round"/>
<path d="M39.7969 42.5681L45.7242 39.0938" stroke="#161616" stroke-width="1.5" stroke-linecap="round"/>
</svg>
