<svg width="186" height="66" viewBox="0 0 186 66" fill="none" xmlns="http://www.w3.org/2000/svg">
<mask id="mask0_4532_197473" style="mask-type:luminance" maskUnits="userSpaceOnUse" x="59" y="12" width="68" height="42">
<path d="M127 12.3333H59V53.6666H127V12.3333Z" fill="white"/>
</mask>
<g mask="url(#mask0_4532_197473)">
<path d="M111.329 46.6354C112.521 46.5695 116.205 46.3075 117.085 46.9648C117.557 47.3179 117.781 47.9053 117.864 48.4755C118.011 49.4806 118.087 51.4102 117.481 52.2319C117.068 52.7919 116.562 52.9165 115.914 53.0073C114.392 53.2605 112.246 53.2929 110.787 52.7425C110.491 52.6309 110.214 52.4273 109.943 52.2611C109.979 51.9963 109.865 51.7809 109.841 51.5217C109.748 50.4962 109.445 48.5647 109.92 47.6327C110.233 47.0192 110.713 46.8312 111.329 46.6354ZM111.921 48.6471C111.924 48.6536 111.928 48.6595 111.932 48.666C112.335 49.3553 111.814 50.3517 112.079 50.9064C112.783 51.0143 113.492 50.9145 114.193 50.9832C114.647 50.9807 115.134 50.9443 115.583 50.9981C115.73 50.7302 115.599 49.2767 115.498 48.9249C115.449 48.7546 115.403 48.7297 115.271 48.6235C114.737 48.4957 113.955 48.6499 113.391 48.6555C112.897 48.6787 112.414 48.6738 111.921 48.6471Z" fill="#8C8884"/>
<path d="M92.5984 46.5988C93.6656 46.6044 94.7806 46.5438 95.8376 46.6967C96.9406 47.7446 97.9033 49.1291 98.848 50.3296C98.8326 49.4595 98.792 48.5803 98.8066 47.7107C98.812 47.4074 98.8606 47.0497 99.0933 46.834C99.516 46.4415 100.493 46.6112 101.031 46.6432C101.064 46.6951 101.092 46.7486 101.111 46.807C101.239 47.1914 101.274 52.5601 101.087 52.9324L101.03 53.0039C100.233 52.9896 99.4093 53.0511 98.618 52.9626C97.1134 52.7944 95.815 50.5786 94.9181 49.4306C94.7814 50.5475 94.7897 51.8348 94.8945 52.9548C94.1171 52.9958 93.3382 52.9961 92.5604 52.9554C92.4517 52.1406 92.3816 47.2309 92.5984 46.5988Z" fill="#8C8884"/>
<path d="M103.383 46.6349C104.622 46.6187 106.954 46.4005 108.109 46.7679C108.479 46.8857 108.873 47.1651 109.053 47.5225C109.171 47.7565 109.177 47.9989 109.1 48.2463C108.964 48.4542 108.794 48.5272 108.559 48.5633C108.097 48.6351 107.562 48.5461 107.094 48.5191C106.091 48.4613 104.97 48.4505 103.99 48.6888L103.999 48.7684L104.112 48.7892L104.045 48.6897C104.567 49.0658 106.154 48.8622 106.794 48.8423C107.491 48.8203 108.155 48.9293 108.679 49.4362C109.087 49.8309 109.26 50.367 109.265 50.9301C109.271 51.4901 109.121 52.0508 108.725 52.4561C108.283 52.9079 107.831 52.9797 107.226 52.9807C106.09 52.9775 103.571 53.1718 102.601 52.8889C102.273 52.7935 102.013 52.5449 101.851 52.2444C101.741 52.0402 101.649 51.7605 101.722 51.5296C101.783 51.3354 101.899 51.1918 102.099 51.1278C102.949 50.8559 106.172 51.3826 106.896 50.9973L106.904 50.9021C106.113 50.2977 103.36 51.1775 102.311 50.3577C101.915 50.0479 101.724 49.5556 101.667 49.0639C101.591 48.4094 101.698 47.7254 102.113 47.2027C102.465 46.7595 102.847 46.6902 103.383 46.6349Z" fill="#8C8884"/>
<path d="M89.498 50.8824C89.444 49.8792 89.2965 47.7315 89.6049 46.8343C89.9383 46.5207 90.5674 46.5906 90.9993 46.5844C91.2579 46.5807 91.5602 46.5803 91.7553 46.7827C92.1269 47.1674 91.9164 48.5103 91.9133 49.0439C91.9253 49.9728 92.1066 51.5627 91.5013 52.3033C91.1145 52.7766 90.3815 52.9783 89.8047 53.0345C88.582 53.1533 85.574 53.2683 84.593 52.4329C84.2045 52.1022 84.094 51.5683 84.0553 51.0782C83.9968 50.3398 84.0934 49.5859 84.0913 48.8453C84.0897 48.2365 83.9671 47.5941 84.0554 46.989C84.0826 46.8029 84.1304 46.7571 84.249 46.6151C84.9354 46.6027 85.6118 46.6226 86.297 46.6645C86.5847 47.9319 86.5307 49.5713 86.4796 50.8719C87.4692 50.8405 88.5134 50.7693 89.498 50.8824Z" fill="#8C8884"/>
<path d="M67.5054 46.6133C67.5828 46.6437 67.6504 46.7043 67.7168 46.7544C68.1075 47.4853 67.9095 51.2041 67.9058 52.2673C69.3892 52.2725 70.9275 52.2722 72.4048 52.3947C72.6139 52.4121 72.7351 52.418 72.8727 52.5833L72.821 52.7701L72.6215 52.8714C71.5388 52.8471 68.018 53.2139 67.2453 52.8257C67.0493 52.0211 67.195 47.2653 67.5054 46.6133Z" fill="#8C8884"/>
<path d="M79.6698 12.3333H106.191C106.238 12.4057 106.273 12.4927 106.296 12.5762C106.454 13.1501 106.337 18.2917 106.337 19.2744C106.337 25.5311 106.44 31.8065 106.34 38.0611C106.336 38.2946 106.339 38.4783 106.219 38.6856C105.354 38.9021 101.265 38.7411 100.031 38.7394L84.305 38.7413C83.506 38.7418 80.3054 38.9141 79.7753 38.6411C79.4726 37.5347 79.6399 35.7555 79.6398 34.5757L79.6401 28.6083L79.6424 18.1639C79.6424 16.2248 79.5796 14.2697 79.6698 12.3333Z" fill="#8C8884"/>
<path d="M82.5959 14.6009C82.7484 14.6284 82.8526 14.6708 82.9587 14.7888C84.1343 16.0971 85.2763 17.9175 86.3388 19.3803L93.0064 28.5212C94.1036 26.8445 103.065 15.0692 103.161 14.4084C103.241 14.529 103.357 14.6785 103.395 14.8189C103.56 15.4285 103.438 19.8913 103.438 20.7829C103.437 25.5773 103.553 30.3953 103.437 35.1853C103.432 35.4071 103.419 35.5928 103.311 35.7921C102.707 35.8385 102.088 35.8174 101.481 35.8226C100.604 35.8215 99.7266 35.815 98.8493 35.8032C98.8426 33.3706 98.9026 30.9257 98.824 28.4945C98.8173 28.2969 98.816 28.1797 98.6713 28.0425C98.226 28.2043 93.7204 34.8577 92.9834 35.831C90.9927 33.2082 89.2548 30.302 87.1128 27.8094C87.0516 30.4715 87.0896 33.1392 87.0779 35.8023C85.5904 35.8673 84.0659 35.8411 82.578 35.7916C82.5098 34.5941 82.5512 33.374 82.5508 32.1741L82.5495 25.7973C82.549 22.1247 82.403 18.2484 82.5959 14.6009Z" fill="#666666"/>
<path d="M92.9739 16.2644C93.3924 16.5228 95.4027 19.6147 95.8768 20.246L93.0539 24.1798C92.6303 23.9708 90.5177 20.8118 90.1562 20.2178C91.1079 18.9093 92.0474 17.5914 92.9739 16.2644Z" fill="#666666"/>
<path d="M74.1628 45.3108C75.482 46.4843 76.4926 47.9797 77.569 49.3767C77.9558 49.8792 78.3382 50.4498 78.8018 50.8799C79.4576 49.9672 82.4898 45.7844 83.1623 45.5128L83.3213 45.5597C83.4408 45.8221 83.5934 53.033 83.4576 53.6667H81.1136C80.932 52.9062 81.0758 51.9462 81.1994 51.1842C80.6399 52.0441 79.9301 52.785 79.3925 53.6667H78.1658C77.573 52.8779 76.9808 52.0926 76.4341 51.2697C76.465 52.0671 76.4536 52.8686 76.4573 53.6667H74.0951C74.0118 51.0462 73.9034 47.8918 74.1628 45.3108Z" fill="#8C8884"/>
<path d="M120.672 53.0039C120.082 53.0125 119.352 53.0853 118.783 52.9271C118.654 52.8911 118.537 52.8618 118.472 52.7338C118.362 52.5156 118.34 47.1569 118.434 46.8228C118.567 46.6795 118.633 46.6211 118.839 46.6043C119.486 46.5521 121.457 46.5049 121.914 46.9089C122.364 47.3073 124.516 49.7973 124.548 50.2817C124.923 49.4467 124.617 48.3779 124.666 47.4888C124.68 47.2433 124.734 46.9627 124.929 46.797C125.368 46.4235 126.35 46.6249 126.87 46.6649C127.065 46.9894 127.102 52.1847 126.974 52.7195C126.953 52.8049 126.918 52.8861 126.87 52.9597C125.808 52.9893 124.751 52.9799 123.689 52.9579C123.616 52.7487 121.324 50.0567 121.029 49.7547C120.88 49.6021 120.71 49.4825 120.524 49.3808C120.598 49.4971 120.672 49.6248 120.71 49.7587C120.836 50.2209 120.906 52.5787 120.672 53.0039Z" fill="#8C8884"/>
<path d="M59.5287 47.067C61.0131 46.5237 63.7361 46.2773 65.1978 46.9653C65.4697 47.0934 65.5989 47.3013 65.6973 47.5807C65.7935 47.8542 65.8417 48.1711 65.7661 48.4546L65.6923 48.5379C65.4362 48.4397 65.3224 48.2141 65.2129 47.9663C65.1678 47.8641 65.1241 47.7613 65.0817 47.6575C64.8346 47.5372 64.5676 47.3983 64.2981 47.3417C63.3998 47.1537 61.2716 47.1387 60.418 47.4374C60.2227 47.5055 59.9902 47.6214 59.8924 47.8165C59.7517 48.0972 59.7142 48.4788 59.8132 48.7784C59.8847 48.995 60.0524 49.1594 60.2541 49.2545C61.5817 49.8786 65.4149 48.7361 66.0142 50.3814C66.2363 50.9909 65.9917 51.8103 65.7765 52.3899C65.4871 52.5537 65.1868 52.7349 64.8625 52.8133C63.738 53.0858 60.9584 53.0625 59.8495 52.7427C59.3973 52.6125 59.2325 52.3222 59 51.9371V50.9135C59.027 50.9197 59.0539 50.9265 59.0808 50.9333C59.5698 51.0611 59.7103 51.5593 59.95 51.9698C60.0573 52.0223 60.1692 52.0693 60.2811 52.1112C61.2612 52.4791 63.8126 52.5745 64.7679 52.1199C65.0073 52.0059 65.2193 51.8088 65.3045 51.5496C65.4032 51.25 65.342 50.8457 65.1981 50.5701C64.7935 49.7947 61.5595 50.1343 60.6662 50.0887C60.2711 50.0687 59.9031 49.978 59.524 49.8677C59.3366 49.6613 59.1713 49.4245 59 49.2039V47.9141C59.1753 47.6326 59.3436 47.342 59.5287 47.067Z" fill="#8C8884"/>
</g>
</svg>
