<svg width="186" height="66" viewBox="0 0 186 66" fill="none" xmlns="http://www.w3.org/2000/svg">
<mask id="mask0_4532_197361" style="mask-type:luminance" maskUnits="userSpaceOnUse" x="55" y="9" width="76" height="46">
<path d="M131 9.77368H55V54.2265H131V9.77368Z" fill="white"/>
</mask>
<g mask="url(#mask0_4532_197361)">
<path d="M118.704 10.2822L118.866 10.2922C120.027 10.8262 120.068 17.0285 120.438 18.2562C120.71 19.1608 121.61 20.2522 122.077 21.1096C122.403 21.7067 123.67 23.9389 123.514 24.5132C123.717 24.6228 123.946 24.7832 124.126 24.9321C124.274 25.0548 124.312 25.1401 124.328 25.3262C123.847 25.9801 119.406 25.3258 118.542 25.139C117.442 24.9014 116.4 24.4479 115.274 24.3395C114.277 24.2436 113.354 24.3217 112.409 24.6836C111.292 25.1115 110.492 25.7612 109.51 26.407C109.13 26.6568 108.348 27.006 108.162 27.4251C108.538 27.876 109.334 27.1479 109.799 27.2286C109.854 27.2381 109.899 27.335 109.931 27.3838C109.969 28.2512 108.665 30.064 108.201 30.8575C107.754 31.6232 107.883 32.6737 107.456 33.1748C107.125 33.3578 106.76 33.3211 106.412 33.214C105.309 32.8748 104.303 31.8923 103.163 31.7463C102.914 31.7145 102.682 31.7404 102.444 31.8201C101.744 32.0552 101.075 32.4812 100.394 32.7809C98.5459 33.5947 95.7388 34.6181 93.7236 34.5423C93.8196 35.7617 94.3212 36.9296 94.4328 38.1265C94.3884 38.1518 94.3449 38.1697 94.2948 38.179C93.3053 38.3625 89.5326 36.2157 88.6121 35.5034C88.3166 35.2748 88.1008 34.7565 87.7889 34.6094C87.6068 34.5235 86.5708 34.6773 86.268 34.6481C84.1221 34.4409 80.9352 33.5598 79.1686 32.2502C78.5625 33.6155 77.9755 34.3493 78.1671 35.9317C76.7731 35.0739 75.8396 33.3055 75.3471 31.7533C75.2587 31.4748 75.1772 30.8314 75.0306 30.6189C74.9384 30.4854 74.1891 30.6109 73.9839 30.5832C72.4173 30.372 70.9001 29.3623 69.6317 28.449C68.1151 27.337 66.736 26.0865 65.2975 24.8747C64.3325 24.0617 62.8642 23.2055 62.2102 22.0929C61.7765 21.3553 61.4589 20.1653 61.6751 19.3095C61.727 19.104 61.8191 18.8723 62.0055 18.7636C62.1128 18.7011 62.1726 18.7403 62.2839 18.7704C62.6009 19.0929 62.7773 19.8265 62.9551 20.2638C64.2862 21.3517 65.85 21.4981 67.3912 22.0713C67.0793 20.4245 67.2424 18.2052 65.9201 16.9907C65.5636 16.6632 64.8576 16.203 64.6794 15.7451C64.6425 15.6503 64.6982 15.5778 64.7351 15.4877C65.0202 15.2607 65.4491 15.2924 65.7885 15.34C67.2566 15.5461 68.6867 15.9628 70.1137 16.3595L75.6693 17.9635C77.6225 18.5408 79.6213 18.9873 81.5939 19.4905C83.3787 19.9459 85.1867 20.4422 87.0216 20.6104C87.5484 20.2823 88.0445 19.836 88.5468 19.4641C89.4505 18.795 90.4021 18.1532 91.3681 17.5826C92.4909 19.2394 93.0952 19.6282 94.7374 20.6068C95.2873 20.9346 94.7921 20.9622 94.89 21.3385C95.4913 21.5628 98.8542 21.4086 99.6759 21.3293C100.724 21.228 101.927 21.0765 102.95 20.8127C103.984 20.5456 105.35 19.4423 106.406 19.652C106.5 19.7267 106.572 19.7576 106.59 19.8871C106.63 20.1557 106.409 20.4882 106.265 20.6958C107.213 20.6582 108.236 20.3987 109.132 20.0861C110.069 19.7594 111.128 19.2636 111.864 18.5722C112.633 17.8501 113.179 16.8142 113.793 15.9518C114.507 14.9487 115.292 13.978 116.099 13.0524C116.52 12.5696 118.598 10.503 118.704 10.2822Z" fill="#8C8884"/>
<path d="M79.5114 51.4897C79.9129 50.5396 80.392 47.7021 80.9677 47.1095C81.2556 46.8134 82.31 46.9414 82.7047 46.9458C82.4908 47.4911 82.3455 48.0853 82.1762 48.6481C81.8161 49.5479 80.9777 53.2549 80.5171 53.6914C80.2749 53.9208 79.1628 53.8006 78.8053 53.7918C78.4343 52.4783 77.9026 51.1973 77.7945 49.823C77.1615 51.074 76.9387 52.5027 76.3535 53.7781L74.6295 53.779C74.0201 51.5206 73.1957 49.2477 72.7188 46.9614C73.2594 46.9486 73.9675 46.8478 74.4618 47.1111C74.9575 47.8959 75.3879 50.5121 75.6139 51.5523C75.8249 50.6795 76.4993 47.8351 76.9373 47.2056C77.0467 47.0485 77.171 46.9821 77.3527 46.9518C77.6349 46.9045 77.9166 46.9032 78.1549 47.0904C78.8494 47.636 79.3994 50.5358 79.5114 51.4897Z" fill="#8C8884"/>
<path d="M83.0414 46.926C83.6006 46.9414 84.1593 46.9751 84.7165 47.0268C85.5724 47.7954 86.4175 49.1581 87.1152 50.1188C87.3264 50.4093 87.4897 50.7436 87.7499 50.9909L87.8684 50.9737C87.9931 49.6774 87.7265 48.355 87.9019 47.0334C88.4847 46.9589 89.086 46.9705 89.67 47.0218C89.6706 47.9466 89.7809 53.4199 89.6384 53.8334C89.0477 53.8222 88.4573 53.7959 87.8679 53.7542C86.8725 52.5634 85.7794 50.6635 84.6779 49.7009C85.0011 50.933 84.8552 52.5402 84.8766 53.829C84.2655 53.8043 83.654 53.7924 83.0424 53.7933C83.005 51.51 82.8978 49.206 83.0414 46.926Z" fill="#8C8884"/>
<path d="M124.655 46.9871C125.113 46.9029 125.712 46.9451 126.175 47.0037C126.546 47.7725 126.083 49.0207 126.238 49.4689C126.545 49.7992 128.054 49.6574 128.524 49.6721C128.527 49.6665 128.531 49.6606 128.533 49.6549C128.779 49.159 128.702 47.5058 128.539 46.9965C129.139 46.9593 129.742 46.9545 130.342 46.9821C130.563 47.3706 130.508 52.9666 130.439 53.7061C130.238 53.8466 130.116 53.8112 129.88 53.8044C129.474 53.7374 128.944 53.7959 128.528 53.7965C128.534 53.7833 128.541 53.7702 128.547 53.7567C128.707 53.3967 128.665 51.3294 128.528 50.9353C127.72 51.0724 126.945 51.0201 126.133 50.9399C126.185 51.0195 126.231 51.1162 126.256 51.2089C126.394 51.7235 126.413 53.3507 126.166 53.8012C125.653 53.7837 125.105 53.852 124.602 53.7492C124.58 53.7235 124.558 53.6939 124.546 53.6619C124.383 53.2086 124.424 48.2966 124.5 47.4992C124.518 47.3161 124.574 47.1505 124.655 46.9871Z" fill="#8C8884"/>
<path d="M68.639 46.9358C69.1363 46.9699 69.7672 46.8597 70.2333 47.0479C70.8156 47.2833 72.6148 52.874 72.9976 53.8436C72.3582 53.8019 71.7188 53.7863 71.0784 53.7709C70.9768 53.4685 70.8853 53.0415 70.7108 52.7816C70.5977 52.6132 70.5568 52.6042 70.371 52.5716C69.7193 52.6868 69.0289 52.5951 68.3758 52.5325C68.2798 52.8543 68.1559 53.4563 67.9187 53.6867C67.9114 53.6936 67.9038 53.7005 67.8965 53.7073C67.876 53.7271 67.8571 53.7465 67.8336 53.7628C67.5952 53.9274 66.5352 53.7797 66.2284 53.7245C66.2152 53.6792 66.1822 53.6022 66.1798 53.5568C66.1617 53.2199 68.3103 47.6101 68.639 46.9358ZM69.3452 51.2791C69.5482 51.2734 70.0267 51.3119 70.1732 51.1767C70.1494 50.8755 69.969 50.6401 69.8811 50.3575C69.7799 50.0325 69.7253 49.6603 69.6787 49.3228L69.5558 49.2514C69.2475 49.813 68.9836 50.4849 68.902 51.1275L68.9693 51.2712C69.0985 51.285 69.2156 51.2919 69.3452 51.2791Z" fill="#8C8884"/>
<path d="M61.021 46.9401C62.2945 46.9652 64.4182 46.7557 65.3961 47.704C65.7872 48.0834 65.9648 48.608 65.9739 49.154C65.9847 49.8008 65.8122 50.4481 65.3616 50.9167C64.8304 51.4696 64.1852 51.5904 63.4561 51.5898C63.3268 51.5776 63.1951 51.5629 63.0653 51.562C62.9962 51.5613 62.8983 51.5814 62.849 51.6333C62.542 51.9586 62.7474 53.3094 62.753 53.7774C62.1346 53.8037 61.5058 53.7759 60.8864 53.7721C60.932 52.5697 60.6909 47.7421 61.021 46.9401ZM63.8926 49.9579C64.0567 49.6977 64.1793 49.4081 64.1098 49.0901C64.0653 48.8866 63.9226 48.7429 63.7542 48.6384C63.4491 48.4487 63.0448 48.4287 62.6968 48.4258C62.7417 48.896 62.5944 49.7644 62.9242 50.059C63.2253 50.1504 63.5913 50.0249 63.8926 49.9579Z" fill="#8C8884"/>
<path d="M120.766 46.9089C121.472 46.8435 122.67 46.8425 123.261 47.2745C123.33 47.3926 123.392 47.4602 123.384 47.6035C123.366 47.8913 122.957 48.57 122.746 48.7618C122.494 48.7634 122.046 48.3837 121.781 48.255C121.687 48.2985 121.594 48.3461 121.499 48.3837C121.411 48.4178 121.317 48.4494 121.241 48.5054C121.069 48.6313 121.018 48.7891 120.98 48.9897C121.19 49.5122 122.574 49.7573 123.072 50.0967C123.309 50.2579 123.609 50.5092 123.67 50.8079C123.749 50.9766 123.8 51.1836 123.818 51.3701C123.88 51.9831 123.708 52.5566 123.327 53.0309C122.827 53.6532 122.197 53.8945 121.438 53.9731C121.396 53.9747 121.353 53.976 121.312 53.9763C120.767 53.9804 119.661 53.8877 119.268 53.4701C118.732 52.9003 119.456 52.3929 119.45 51.8272C119.45 51.8125 119.449 51.7981 119.448 51.7834C119.998 51.9537 120.568 52.5259 121.142 52.4489C121.407 52.4133 121.786 52.2661 121.946 52.0354C122.042 51.898 122.016 51.8441 121.989 51.6888C121.576 51.219 120.957 51.0806 120.408 50.8451C119.92 50.6357 119.431 50.3831 119.223 49.8484C119.033 49.3601 119.087 48.6767 119.285 48.1996C119.556 47.5485 120.153 47.1637 120.766 46.9089Z" fill="#8C8884"/>
<path d="M57.2004 46.8934C57.3898 46.8881 57.5793 46.8874 57.7688 46.8919C58.3582 46.9094 59.4076 46.9426 59.8225 47.3933C59.8531 47.6989 59.6026 48.2383 59.4132 48.4765C59.0223 48.9686 58.2705 48.2981 57.7855 48.3525C57.6641 48.3663 57.556 48.417 57.4853 48.5247C57.4071 48.644 57.3417 48.8443 57.3685 48.9865C57.4486 49.4113 59.0535 49.7882 59.4282 50.0677C59.8264 50.3648 60.1398 50.7909 60.222 51.2971C60.3127 51.8549 60.1437 52.4431 59.8255 52.897C59.3496 53.5757 58.7115 53.8431 57.9359 53.9752C57.2624 54.0103 56.47 53.8809 55.8577 53.5754C55.6499 53.4715 55.5084 53.3663 55.4297 53.1343C55.4361 52.7233 55.8261 52.166 56.0191 51.796C56.3711 52.013 56.9888 52.4763 57.4033 52.4528C57.484 52.4485 57.565 52.446 57.6452 52.4359C57.9249 52.4006 58.1853 52.2907 58.3611 52.0569C58.3857 51.935 58.4119 51.8734 58.3696 51.7531C58.2232 51.3384 57.1081 51.0038 56.7156 50.8153C56.1977 50.5667 55.7492 50.1478 55.5544 49.5841C55.4066 49.1567 55.4619 48.7294 55.6486 48.3243C55.9816 47.6018 56.4805 47.1598 57.2004 46.8934Z" fill="#8C8884"/>
<path d="M106.299 46.9728C106.664 46.97 108.067 46.8372 108.289 47.0413C108.156 47.6521 106.653 49.7577 106.171 50.1749C106.176 50.7431 106.028 51.5031 106.005 52.1121C105.988 52.5716 106.106 53.173 106.039 53.6031C106.031 53.6554 105.97 53.7477 105.946 53.7991C105.416 53.9265 104.698 53.8044 104.15 53.7747C104.176 53.7277 104.198 53.6801 104.212 53.6276C104.307 53.2738 104.28 50.8404 104.141 50.5785C104.176 49.7992 102.176 48.0215 101.996 46.9856C102.244 46.9565 102.507 46.9721 102.758 46.9762C104.401 47.0025 104.146 47.6971 105.025 48.6009C105.072 48.6488 105.158 48.6313 105.223 48.6313C105.55 48.3686 106.189 47.3863 106.299 46.9728Z" fill="#8C8884"/>
<path d="M111.806 46.987C111.956 46.9634 115.291 46.9785 115.373 47.0007C115.431 47.0524 115.532 47.119 115.561 47.1907C115.662 47.4474 115.607 48.0697 115.495 48.3208C115.263 48.8433 114.161 48.3916 113.734 48.5756C113.596 48.6354 113.543 49.4569 113.452 49.6738C114.053 49.676 114.627 49.5971 115.231 49.6632C115.276 49.7198 115.313 49.7781 115.333 49.8492C115.448 50.2742 115.457 50.6681 115.231 51.0459C115.011 51.1833 114.893 51.1611 114.641 51.1627C114.229 51.167 113.801 51.122 113.389 51.1007C113.43 51.1658 113.467 51.2391 113.488 51.3142C113.619 51.8003 113.648 53.4069 113.419 53.8126C112.891 53.8374 112.351 53.8167 111.824 53.7794C111.799 53.7447 111.777 53.7087 111.767 53.6658C111.636 53.1114 111.611 47.3278 111.806 46.987Z" fill="#8C8884"/>
<path d="M93.788 46.9507C94.9164 47.1476 96.2556 47.0067 97.4059 46.9855C97.4089 47.0255 97.4119 47.0653 97.4144 47.1053C97.4372 47.4919 97.5269 48.0379 97.2442 48.3453C96.9009 48.7188 95.822 48.5952 95.3515 48.6005C95.4035 48.946 95.4162 49.3004 95.4399 49.6495C95.8813 49.6573 96.6291 49.4889 97.0086 49.7402C97.1648 49.8436 97.2697 50.0345 97.304 50.2195C97.3618 50.5319 97.256 50.7642 97.0955 51.0165C96.8399 51.174 96.6915 51.1527 96.3978 51.164C96.0549 51.149 95.7117 51.1414 95.3688 51.1308C95.4126 52.0418 95.428 52.954 95.415 53.8659C94.8195 53.8267 94.2215 53.8139 93.6251 53.793C93.5484 52.836 93.408 47.4606 93.788 46.9507Z" fill="#8C8884"/>
<path d="M98.5351 46.9835C98.905 46.9318 99.5116 46.878 99.8557 47.0571C99.9662 47.1147 99.9991 47.1507 100.035 47.2737C100.193 47.8124 100.112 51.1542 100.019 51.8126C99.9963 51.9785 99.9203 52.1372 99.8436 52.2834C100.566 52.2433 101.267 52.1973 101.992 52.1942C102.054 52.2934 102.09 52.3851 102.107 52.5016C102.152 52.8059 102.242 53.4811 102.05 53.7241C101.988 53.8036 101.854 53.7913 101.758 53.8032C100.583 53.8765 99.3474 53.7794 98.168 53.7569C98.515 52.6735 98.1888 49.4913 98.2583 48.1699C98.2777 47.8053 98.2533 47.2443 98.5351 46.9835Z" fill="#8C8884"/>
<path d="M116.62 46.9872C117.09 46.9606 117.554 46.9575 118.024 46.9681C118.041 46.9953 118.038 46.9887 118.051 47.0132C118.056 47.0219 118.06 47.031 118.064 47.0398C118.228 47.3409 118.23 53.0563 118.163 53.6582C118.011 53.8107 117.922 53.7857 117.719 53.7973C117.296 53.7102 116.72 53.7747 116.281 53.771C116.808 52.7977 115.918 47.8359 116.62 46.9872Z" fill="#8C8884"/>
</g>
</svg>
