<svg width="61" height="62" viewBox="0 0 61 62" fill="none" xmlns="http://www.w3.org/2000/svg">
<path d="M8.773 34.1333L8.77301 44.5033L31.1546 57.7665L53.5361 44.5033V34.1333L31.1546 20.8701L8.773 34.1333Z" fill="#E0DCD8"/>
<path d="M53.5361 34.1333C44.7956 39.3129 31.1546 47.3964 31.1546 47.3964M53.5361 34.1333V44.5033L31.1546 57.7665M53.5361 34.1333L31.1546 20.8701L8.773 34.1333M31.1546 47.3964V57.7665M31.1546 47.3964L8.773 34.1333M8.773 34.1333L8.77301 44.5033L31.1546 57.7665" stroke="#161616" stroke-width="1.5" stroke-linecap="round"/>
<path d="M43.4402 8.88942L43.4402 15.8208L31.1552 23.1008L18.8701 15.8208V8.88942L31.1552 1.60938L43.4402 8.88942Z" fill="#D6CFC7"/>
<path d="M18.8701 8.88942C23.6677 11.7324 31.1552 16.1695 31.1552 16.1695M18.8701 8.88942V15.8208L31.1552 23.1008M18.8701 8.88942L31.1552 1.60938L43.4402 8.88942M31.1552 16.1695V23.1008M31.1552 16.1695L43.4402 8.88942M43.4402 8.88942L43.4402 15.8208L31.1552 23.1008" stroke="#57534E" stroke-width="1.5"/>
<path d="M31.1548 31.2133L31.1548 36.6522L21.5149 42.3648L11.875 36.6522V31.2133L21.5149 25.5007L31.1548 31.2133Z" fill="#D6CFC7"/>
<path d="M11.875 31.2133C15.6396 33.4442 21.5149 36.9258 21.5149 36.9258M11.875 31.2133V36.6522L21.5149 42.3648M11.875 31.2133L21.5149 25.5007L31.1548 31.2133M21.5149 36.9258V42.3648M21.5149 36.9258L31.1548 31.2133M31.1548 31.2133L31.1548 36.6522L21.5149 42.3648" stroke="#57534E" stroke-width="1.5"/>
<path d="M50.4351 31.2133L50.4351 36.6522L40.7952 42.3648L31.1553 36.6522V31.2133L40.7952 25.5007L50.4351 31.2133Z" fill="#D6CFC7"/>
<path d="M31.1553 31.2133C34.9199 33.4442 40.7952 36.9258 40.7952 36.9258M31.1553 31.2133V36.6522L40.7952 42.3648M31.1553 31.2133L40.7952 25.5007L50.4351 31.2133M40.7952 36.9258V42.3648M40.7952 36.9258L50.4351 31.2133M50.4351 31.2133L50.4351 36.6522L40.7952 42.3648" stroke="#57534E" stroke-width="1.5"/>
<path d="M53.0766 34.4056L31.1546 47.3965L9.23583 34.4076C9.03148 34.2865 8.773 34.4338 8.773 34.6713L8.77301 44.5033L31.1546 57.7665L53.5361 44.5033V34.6713C53.5361 34.4338 53.281 34.2845 53.0766 34.4056Z" fill="#E0DCD8"/>
<path d="M31.1546 47.3965C31.1546 47.3965 44.3261 39.5911 53.0766 34.4056C53.281 34.2845 53.5361 34.4338 53.5361 34.6713V44.5033L31.1546 57.7665M31.1546 47.3965V57.7665M31.1546 47.3965L9.23583 34.4076C9.03148 34.2865 8.773 34.4338 8.773 34.6713L8.77301 44.5033L31.1546 57.7665" stroke="#161616" stroke-width="1.5" stroke-linecap="round"/>
<path d="M25.5425 16.717L24.3192 17.4511C22.8694 18.321 21.9824 19.8877 21.9824 21.5783V30.0495" stroke="#161616" stroke-width="1.5" stroke-linecap="round"/>
<path d="M37.2339 16.717L38.4572 17.4511C39.9069 18.321 40.7939 19.8877 40.7939 21.5783V30.0495" stroke="#161616" stroke-width="1.5" stroke-linecap="round"/>
</svg>
