<svg xmlns="http://www.w3.org/2000/svg" fill="none" viewBox="0 0 186 66" height="66" width="186">
<path fill="#8C8884" d="M58.9985 26.7923C60.3418 26.7454 61.3888 26.8934 62.6971 26.9259C65.3338 26.9913 68.1272 27.0893 70.6809 27.8287C71.6093 29.6918 71.563 34.0766 71.2263 36.1356C70.6036 40.0019 68.7724 43.5714 65.9952 46.3318C65.5257 46.7993 64.9767 47.3468 64.4424 47.7306C62.9095 49.0542 60.357 50.3907 58.4185 50.9735C57.6016 51.2191 56.5718 51.4475 55.7227 51.6605C55.8504 50.3716 55.8848 49.034 55.9818 47.7668L57.0289 33.2769C57.108 32.2657 57.1602 31.1676 57.2458 30.1548C57.3794 28.57 56.9924 27.262 58.9985 26.7923Z"></path>
<path fill="#8C8884" d="M44.107 26.796C45.094 26.6993 46.5868 26.6619 47.3415 27.3939C47.5942 27.639 47.706 28.3469 47.7366 28.6991C48.0969 32.8689 48.3424 37.0612 48.6169 41.2392L49.0573 47.487C49.1607 48.9837 49.2799 49.9685 49.2913 51.5179C46.4932 50.9277 44.5593 50.2199 42.1478 48.586C39.3143 46.7965 36.8287 43.6108 35.4972 40.5587C34.0784 37.342 33.6117 33.786 34.1522 30.3121C34.29 29.3698 34.3688 28.7044 34.7202 27.8084C36.6727 27.2706 38.7422 27.0424 40.7641 26.9831C41.8117 26.9524 43.0857 26.9778 44.107 26.796Z"></path>
<path fill="#8C8884" d="M106.673 21.8382C108.282 21.8058 109.961 21.8035 111.585 21.8296C113.036 21.924 116.197 21.258 116.28 23.5597C116.34 25.2114 116.347 27.211 116.227 28.8683C116.179 29.5462 115.33 30.0834 114.796 30.4007C115.258 31.3089 115.856 32.1666 116.316 33.0761C116.454 33.3491 116.468 33.459 116.668 33.7177L116.683 33.736L116.664 33.8258C116.288 33.9108 114.419 33.8833 113.948 33.8856C113.829 33.8843 113.694 33.8903 113.578 33.8658C113.277 33.8028 111.776 30.828 111.494 30.3316C110.742 30.3055 109.93 30.3113 109.175 30.3066C109.186 31.1023 109.37 33.0933 108.93 33.7412C108.764 33.9876 106.432 33.9277 106.244 33.7362C106.066 33.0579 106.03 22.5417 106.2 22.0028C106.388 21.8327 106.376 21.8822 106.673 21.8382ZM109.079 27.8074C109.944 27.9316 111.835 27.8755 112.802 27.8695C113.046 27.8578 113.103 27.9014 113.239 27.7724C113.312 27.0613 113.272 25.2911 113.252 24.5189C112.041 24.5129 110.775 24.4882 109.568 24.5234C109.352 24.5344 109.256 24.5026 109.1 24.611C109.012 25.2146 109.071 27.117 109.079 27.8074Z"></path>
<path fill="#8C8884" d="M50.4792 14.3738C51.1925 14.3182 51.9442 14.3653 52.6614 14.3461C58.1006 14.2011 63.1565 16.5673 66.7789 20.6513C63.6887 19.7274 60.3818 19.226 57.1815 18.8607C56.5306 18.7864 55.8826 18.7949 55.2283 18.7455C54.1826 18.4406 51.9064 18.6334 50.8026 18.6818C47.7939 18.8019 44.8353 19.2684 41.8839 19.8434C41.4249 19.9328 39.119 20.6373 38.8555 20.4759C39.0173 20.3099 39.1002 20.1537 39.2275 20.0136C41.5834 17.4225 44.9533 15.578 48.3607 14.792C49.1032 14.6207 49.7715 14.5306 50.4792 14.3738Z"></path>
<path fill="#8C8884" d="M137.594 21.8801C138.284 21.7985 139.8 21.8141 140.476 21.8796C140.556 22.9113 140.52 24.1871 140.517 25.239L140.523 29.632C140.524 30.5212 140.572 31.5982 140.426 32.4671C140.305 33.1838 139.79 33.4861 139.231 33.853C138.832 33.8831 138.375 33.8814 137.973 33.8736C135.875 33.8331 133.718 33.9483 131.628 33.8556C131.489 33.7599 131.351 33.6615 131.216 33.5606C130.838 33.2754 130.416 32.7419 130.4 32.2897C130.361 31.1664 130.175 22.3694 130.461 21.993C130.637 21.8674 130.809 21.8664 131.024 21.8422C131.586 21.8312 132.656 21.7668 133.157 21.9385C133.493 22.2998 133.383 24.8639 133.383 25.5112L133.377 31.2193C133.924 31.2356 136.983 31.2792 137.379 31.1884C137.699 30.8646 137.541 23.0101 137.594 21.8801Z"></path>
<path fill="#8C8884" d="M96.6451 21.8323C98.2386 21.7984 99.8537 21.8494 101.45 21.8293C102.242 21.8193 103.084 21.8217 103.871 21.8738C103.943 22.3987 104.024 23.8579 103.808 24.3193C103.564 24.4705 98.4392 24.4199 97.6819 24.468C97.6334 25.1121 97.6537 25.8477 97.6564 26.4999C99.1675 26.6504 101.389 26.5203 103.006 26.5838C103.108 27.3396 103.06 28.4285 102.945 29.1728C101.237 29.2689 99.4179 29.1536 97.6651 29.246L97.651 30.3586L97.6753 31.2193C99.2991 31.2698 101.004 31.1924 102.633 31.2219C102.844 31.2257 103.688 31.2201 103.781 31.3741C104.059 31.8378 103.918 33.3385 103.88 33.8685L96.0095 33.8738C94.8304 33.1317 94.7072 32.7281 94.7199 31.3181C94.7435 28.696 94.6327 26.0195 94.7864 23.4047C94.8467 22.3805 95.7031 21.919 96.6451 21.8323Z"></path>
<path fill="#8C8884" d="M144.642 21.8324C145.567 21.7971 151.033 21.7658 151.5 21.9534C151.742 22.2474 151.714 23.9743 151.552 24.3239C151.259 24.4753 146.339 24.4159 145.548 24.4693C145.419 25.2245 145.422 25.7325 145.553 26.4815C147.067 26.6995 148.766 26.4365 150.302 26.5748C151.128 26.6493 151.962 27.281 152.017 28.1529C152.088 29.4649 152.077 30.8296 152.032 32.143C152.005 32.9265 151.362 33.438 150.804 33.8551L149.901 33.8747C149.071 33.8674 143.281 33.9418 142.928 33.797C142.648 33.4468 142.68 31.7374 142.978 31.3271C143.651 30.9411 148.319 31.5185 149.318 31.1029C149.38 31.0774 149.658 29.3516 149.109 29.2358C147.285 28.8514 142.911 30.2689 142.818 27.2447C142.762 25.429 142.147 22.149 144.642 21.8324Z"></path>
<path fill="#8C8884" d="M119.032 22.9165C119.281 22.6163 119.771 21.9773 120.164 21.9361C122.143 21.728 124.356 21.829 126.347 21.8382L126.397 21.8505C126.687 21.9192 127.256 21.8829 127.358 22.0784C127.573 22.4886 127.478 23.7644 127.415 24.1961C127.025 24.1949 126.304 24.1866 125.931 24.2405C124.939 24.3841 122.296 24.0399 121.486 24.3735L121.474 24.4588L121.58 24.5249C121.564 24.5843 121.551 24.6442 121.539 24.7045C121.435 25.2507 121.289 26.5221 122.124 26.5639C123.555 26.6353 125.059 26.4484 126.482 26.5915C127.693 26.7134 128.192 27.7723 128.1 28.8683C128.032 29.9921 128.159 31.1582 128.057 32.2766C127.987 33.0463 127.451 33.4548 126.881 33.8603C126.074 33.9091 124.906 33.8732 124.077 33.8725L118.965 33.882C118.906 33.1023 118.923 32.0313 118.967 31.2491C119.516 31.1966 120.621 31.2271 121.211 31.228L125.461 31.2268C125.437 30.6293 125.464 29.8422 125.466 29.2297C123.906 29.0959 122.245 29.3112 120.679 29.1927C119.865 29.131 119.005 28.3884 118.973 27.5616C118.916 26.0941 118.814 24.359 119.032 22.9165Z"></path>
<path fill="#8C8884" d="M84.3282 21.8362L89.6663 21.8294C90.6791 21.8285 92.0006 21.7923 92.9873 21.8808C93.111 22.6063 93.0979 23.684 92.9663 24.4022C92.1898 24.4504 90.7622 24.2981 90.1425 24.6043C89.6934 25.1387 89.9056 30.42 89.9082 31.4298C89.9154 32.2196 89.9406 33.0898 89.8823 33.8701C88.9267 33.8753 87.9783 33.8648 87.0219 33.8868C87.1679 31.3256 86.9377 28.5416 87.0372 25.9598C87.0515 25.5894 87.023 24.9346 86.8692 24.5946C86.293 24.2535 84.7792 24.5128 83.9293 24.3529L83.8987 24.3469C83.8467 23.8676 83.7314 22.4793 83.9429 21.9981C83.9958 21.8777 84.1808 21.87 84.3282 21.8362Z"></path>
<path fill="#8C8884" d="M132.354 40.7058C134.893 40.6806 134.828 40.3445 134.724 43.1421C134.715 43.3917 134.557 43.71 134.453 43.9315C134.027 43.9806 132.669 44.1 132.318 43.7756C131.802 43.2975 132.023 42.1604 132.003 41.5105C131.993 41.1835 132.147 40.9593 132.354 40.7058ZM132.633 43.3051C132.974 43.297 133.754 43.2517 134.048 43.3296C134.076 42.6493 134.07 41.9769 134.068 41.2964C133.455 41.3411 133.236 41.381 132.637 41.2249C132.679 41.7178 132.684 42.8047 132.633 43.3051Z"></path>
<path fill="#8C8884" d="M92.6677 40.7175C92.9552 40.6908 94.6808 40.6363 94.7937 40.7542C95.1972 41.1755 95.1926 43.4046 94.8347 43.8353C94.4426 43.9704 93.002 44.0962 92.7062 43.8084C92.1646 43.2815 92.1694 41.2332 92.6677 40.7175ZM93.0151 43.2982C93.4618 43.2474 93.9695 43.2844 94.4231 43.3039C94.4611 42.9399 94.4258 41.7009 94.3898 41.3225C94.0173 41.2769 93.4994 41.312 93.0437 41.2712C93.0032 41.9491 93.0128 42.6194 93.0151 43.2982Z"></path>
<path fill="#8C8884" d="M84.4242 40.7125C84.9798 40.6851 85.7155 40.6021 86.223 40.8011L86.2467 40.8882C85.8913 41.1245 84.8228 41.0273 84.3838 41.0075L84.387 42.0767L85.8809 42.1255C86.0742 42.3231 86.1753 42.4188 86.395 42.5854C86.4037 43.2087 86.5599 43.7488 85.8431 43.9231C85.3184 43.9497 84.6712 44.0227 84.1843 43.8449L84.1523 43.7537C84.519 43.4778 85.5925 43.5919 86.0744 43.6173C86.0755 42.0713 85.8764 42.3996 84.3842 42.3694C84.2957 42.2627 84.1674 42.1324 84.0708 42.0286C84.0595 41.4099 83.9285 41.139 84.4242 40.7125Z"></path>
<path fill="#8C8884" d="M111.001 43.4299C110.987 42.83 110.88 41.2507 111.096 40.7909L111.225 40.7031L111.383 40.7337C111.578 41.109 111.479 43.0664 111.469 43.6055L111.039 43.9417C110.455 43.9477 109.86 43.9635 109.278 43.9247C109.309 43.7742 109.28 43.5784 109.266 43.4217L111.001 43.4299Z"></path>
<path fill="#8C8884" d="M140.738 40.7497C140.989 40.6293 142.747 40.6205 143.089 40.7669C143.144 40.7905 143.335 40.9861 143.38 41.0437C143.389 41.6021 143.493 43.6213 143.209 43.9744L143.11 43.9317C142.873 43.2997 142.955 41.7584 142.961 41.0155C142.607 41.023 141.501 41.0811 141.232 40.9531C141.088 40.7832 140.989 40.8076 140.738 40.7497Z"></path>
<path fill="#8C8884" d="M101.137 40.6729C101.323 40.7492 101.276 40.6034 101.533 40.6979C101.442 41.2201 101.549 42.6512 101.438 43.4197C101.869 43.4391 102.675 43.3236 103.022 43.5204C103.1 43.5646 103.093 43.7365 103.107 43.8514L103.083 43.9365C102.589 43.9818 101.697 43.9526 101.172 43.9479C101.178 43.3519 101.225 41.0827 101.137 40.6729Z"></path>
<path fill="#8C8884" d="M149.662 42.3777C149.63 42.3392 149.599 42.2998 149.57 42.26C149.341 41.9512 149.368 41.5898 149.388 41.2164C149.425 40.4985 151.327 40.5208 151.553 40.8968C151.283 41.1236 150.234 41.0283 149.849 41.0138L149.83 42.0985C150.581 42.0915 151.135 41.9575 151.745 42.4485L151.531 42.5092C151.391 42.8487 151.535 43.0897 151.432 43.4738C151.399 43.194 151.402 42.6618 151.394 42.3627C150.824 42.3958 150.234 42.3821 149.662 42.3777Z"></path>
<path fill="#8C8884" d="M126.345 21.8378C127.573 21.8034 127.866 21.8483 127.717 23.2487C127.678 23.6115 127.688 24.0177 127.651 24.385C126.399 24.4758 125.021 24.393 123.759 24.4143C123.085 24.4255 122.225 24.3719 121.578 24.5245L121.473 24.4584L121.484 24.3731C122.295 24.0395 124.937 24.3837 125.93 24.2401C126.302 24.1863 127.023 24.1945 127.413 24.1957C127.476 23.764 127.571 22.4882 127.357 22.078C127.254 21.8825 126.685 21.9188 126.396 21.8501L126.345 21.8378Z"></path>
<path fill="#8C8884" d="M118.298 41.0096C117.975 41.039 117.654 41.0648 117.356 40.9184L117.328 40.8194L117.481 40.7539C117.84 40.7887 118.522 40.7503 118.746 40.8227L118.798 40.9472C118.677 41.7613 118.906 43.0618 118.666 43.8474C118.639 43.9364 118.516 43.9425 118.405 43.9719C118.276 43.7454 118.309 41.4833 118.298 41.0096Z"></path>
<path fill="#8C8884" d="M125.624 40.6768L125.995 40.7051C126.191 40.9852 126.07 43.1309 126.027 43.5685C126.021 43.6283 125.881 43.7979 125.829 43.8527L125.794 43.8972L125.685 43.9007C125.513 43.6474 125.593 41.1172 125.624 40.6768Z"></path>
<path fill="#8C8884" d="M140.741 40.75C140.992 40.8078 141.09 40.7835 141.234 40.9534C141.108 41.5736 141.324 43.6179 141.003 43.9341L140.837 43.9211C140.638 43.6781 140.743 41.2277 140.741 40.75Z"></path>
<path fill="#8C8884" d="M151.433 43.4726C151.536 43.0884 151.391 42.8475 151.532 42.508L151.745 42.4473C151.911 42.9036 151.937 43.7367 151.355 43.9054C150.75 44.0808 150.054 43.8852 149.443 43.9184L149.395 43.7895C149.648 43.2494 151.1 43.868 151.433 43.4726Z"></path>
<path fill="#8C8884" d="M109.279 43.9254L109.249 43.9262C109.182 43.803 109.039 43.6861 109.009 43.5699C108.82 42.8469 109.075 41.3416 108.887 40.7193L108.875 40.6821C109.063 40.6454 109.119 40.6241 109.306 40.6733C109.284 40.9974 109.199 43.2492 109.266 43.4224C109.281 43.5791 109.31 43.7749 109.279 43.9254Z"></path>
<path fill="#8C8884" d="M117.48 40.7536C117.892 40.6589 119.285 40.5954 119.649 40.8043L119.676 40.909C119.56 41.04 119.535 41.0181 119.305 41.0341C119.131 41.0479 118.957 41.0178 118.798 40.9469L118.745 40.8225C118.521 40.75 117.839 40.7884 117.48 40.7536Z"></path>
</svg>
