<svg xmlns="http://www.w3.org/2000/svg" fill="none" viewBox="0 0 186 66" height="66" width="186">
<g clip-path="url(#clip0_4532_199114)">
<path fill="#8C8884" d="M42.9054 42.3906C42.6278 42.4179 42.37 42.5445 42.1809 42.7462C41.9917 42.948 41.8843 43.211 41.8791 43.4853C41.8739 43.7598 41.9711 44.0264 42.1524 44.2352C42.3337 44.4438 42.5865 44.5798 42.863 44.6173H42.8891C43.0321 44.6133 43.1725 44.5809 43.3025 44.5221C43.4323 44.4634 43.5487 44.3794 43.6448 44.2752C43.7409 44.1712 43.8145 44.0491 43.8613 43.9161C43.9084 43.7834 43.9274 43.6426 43.9177 43.5022C43.9319 43.3626 43.9162 43.2217 43.8718 43.0881C43.8276 42.9548 43.7556 42.832 43.6603 42.7274C43.5652 42.6228 43.4489 42.5388 43.319 42.4809C43.189 42.4228 43.0482 42.3921 42.9054 42.3906Z"></path>
<path fill="#8C8884" d="M30.1714 21.6254C30.1714 21.4722 30.1098 21.3251 29.9999 21.2164C29.89 21.1077 29.7409 21.0463 29.5851 21.0454H29.1527C28.9965 21.0463 28.8471 21.1076 28.7367 21.2162C28.6263 21.3248 28.5639 21.4719 28.563 21.6254V31.0991H28.4975C27.7932 29.7135 26.0177 28.2957 23.2365 28.2957C19.2761 28.2957 15.9675 31.5921 16.0002 36.8639C16.0002 41.5782 18.9485 44.8456 22.9352 44.8456C25.9162 44.8456 27.8259 43.2344 28.6646 41.4847H28.7333L28.8415 43.9304C28.849 44.079 28.9146 44.2188 29.0245 44.3209C29.1343 44.423 29.28 44.4794 29.4311 44.4782H29.6768C29.7555 44.4778 29.8333 44.462 29.9056 44.4314C29.9779 44.4009 30.0432 44.3563 30.0976 44.3003C30.152 44.2443 30.1944 44.1782 30.2223 44.1058C30.2502 44.0334 30.263 43.9563 30.2599 43.879C30.1944 42.8929 30.1714 41.7845 30.1714 40.8338V21.6254ZM28.563 38.0787C28.58 38.524 28.5236 38.9691 28.3959 39.3966C27.7408 42.0003 25.5492 43.5148 23.2365 43.5148C19.4169 43.5148 17.6087 40.2538 17.6087 36.6931C17.6087 32.6072 19.8198 29.6039 23.3381 29.6039C24.5012 29.5918 25.6342 29.9674 26.5526 30.6696C27.471 31.3717 28.1208 32.359 28.3959 33.4708C28.5159 33.9448 28.5721 34.4324 28.563 34.9208V38.0787Z"></path>
<path fill="#8C8884" d="M35.832 31.8563H35.7305L35.6747 29.2269C35.6713 29.0753 35.6077 28.9311 35.4975 28.8251C35.3873 28.7191 35.2393 28.6597 35.0851 28.6598H34.8099C34.7303 28.6592 34.6513 28.6747 34.578 28.7053C34.5046 28.736 34.4384 28.781 34.3834 28.8378C34.3285 28.8946 34.286 28.9618 34.2585 29.0354C34.231 29.109 34.2191 29.1873 34.2236 29.2656C34.2989 30.6286 34.3218 32.0271 34.3218 33.4031V43.8982C34.3227 44.0519 34.3851 44.1989 34.4955 44.3075C34.6059 44.4161 34.7554 44.4774 34.9115 44.4782H35.3439C35.4996 44.4774 35.6488 44.4159 35.7588 44.3073C35.8686 44.1986 35.9302 44.0515 35.9302 43.8982V35.7457C35.9231 35.2366 35.9682 34.7282 36.0647 34.228C36.5003 31.692 38.076 29.8134 40.2872 29.8134H40.4673C40.5448 29.8138 40.6217 29.7991 40.6934 29.7701C40.7653 29.7411 40.8304 29.6984 40.8852 29.6444C40.94 29.5905 40.9834 29.5264 41.013 29.4558C41.0425 29.3853 41.0574 29.3096 41.057 29.2333V28.3633C40.841 28.3224 40.6217 28.2997 40.4019 28.2957C38.2102 28.2957 36.5331 29.8456 35.832 31.8563Z"></path>
<path fill="#8C8884" d="M55.5663 28.2957C52.9456 28.2957 50.9082 29.7135 50.0367 31.4922H49.9712L49.9385 29.2011C49.9342 29.051 49.8707 28.9084 49.761 28.8037C49.6516 28.6989 49.5047 28.6404 49.3521 28.6404H49.0441C48.9641 28.6416 48.8853 28.6587 48.812 28.6905C48.7388 28.7224 48.6729 28.7684 48.6183 28.8258C48.5635 28.8832 48.5211 28.9509 48.4936 29.0248C48.4661 29.0987 48.4539 29.1773 48.4577 29.2559C48.4808 30.2645 48.4971 31.2409 48.4971 32.4493V43.8982C48.4971 44.0515 48.5589 44.1986 48.6687 44.3073C48.7785 44.4159 48.9277 44.4774 49.0834 44.4782H49.516C49.6721 44.4774 49.8215 44.4161 49.9319 44.3075C50.0423 44.1989 50.1047 44.0519 50.1056 43.8982V34.6566C50.1126 34.1893 50.1796 33.7248 50.3053 33.2742C50.6099 32.2389 51.2419 31.3259 52.1096 30.6677C52.9772 30.0095 54.0352 29.6403 55.1307 29.6136C58.4458 29.6136 59.5858 32.2172 59.5858 35.1173V43.8982C59.5858 44.0521 59.6478 44.1995 59.7584 44.3085C59.869 44.4172 60.019 44.4782 60.1755 44.4782H60.6046C60.7607 44.4774 60.9102 44.4161 61.0206 44.3075C61.1309 44.1989 61.1934 44.0519 61.1942 43.8982V34.9852C61.2074 29.0561 57.1059 28.2957 55.5663 28.2957Z"></path>
<path fill="#8C8884" d="M93.1967 43.1922H83.3333V43.1278C83.9359 42.4029 84.4733 41.6778 85.0432 40.9528L93.6062 29.8615C93.6771 29.7679 93.7181 29.6558 93.7241 29.5392V29.2653C93.7263 29.1878 93.7127 29.1107 93.684 29.0384C93.6554 28.9662 93.6124 28.9003 93.5573 28.8447C93.5023 28.7892 93.4367 28.745 93.364 28.7148C93.2914 28.6847 93.2133 28.6692 93.1345 28.6692H82.583C82.5058 28.6688 82.4292 28.6834 82.3576 28.7122C82.2861 28.741 82.2212 28.7834 82.1664 28.837C82.1116 28.8906 82.068 28.9543 82.0383 29.0245C82.0087 29.0947 81.9934 29.17 81.9934 29.246V29.3781C81.9934 29.5319 82.0556 29.6795 82.1662 29.7882C82.2768 29.897 82.4267 29.9581 82.583 29.9581H91.811V30.0226C91.1559 30.7798 90.5695 31.5371 89.9667 32.2976L81.4103 43.3663C81.3317 43.4671 81.2891 43.5905 81.2891 43.7176V43.8979C81.29 44.0515 81.3524 44.1985 81.4628 44.3073C81.5732 44.4158 81.7226 44.4772 81.8787 44.4779H93.1967C93.3532 44.4779 93.5031 44.417 93.6137 44.308C93.7243 44.1993 93.7863 44.0518 93.7863 43.8979V43.7722C93.7869 43.696 93.7718 43.6204 93.7423 43.5499C93.7129 43.4793 93.6695 43.4151 93.6147 43.3612C93.5599 43.3073 93.4946 43.2646 93.4229 43.2357C93.3512 43.2065 93.2743 43.1918 93.1967 43.1922Z"></path>
<path fill="#8C8884" d="M102.599 28.2957C98.4419 28.2957 95.3594 31.5921 95.3594 36.8639C95.3594 41.5106 98.242 44.8069 102.864 44.8069C104.432 44.8507 105.992 44.581 107.45 44.0142C107.585 43.9576 107.694 43.8536 107.754 43.7224C107.815 43.5911 107.823 43.4424 107.778 43.3054L107.735 43.1765C107.711 43.1012 107.67 43.0317 107.617 42.9725C107.564 42.9132 107.499 42.8652 107.426 42.8317C107.353 42.7982 107.274 42.7797 107.194 42.7774C107.114 42.7751 107.034 42.7892 106.959 42.8187C105.722 43.2873 104.402 43.5066 103.077 43.4631C99.8996 43.4631 97.1806 41.6168 96.9612 37.0185C96.9567 36.9398 96.9685 36.861 96.996 36.7869C97.0234 36.7128 97.0658 36.645 97.1206 36.5874C97.1754 36.5299 97.2415 36.4839 97.3149 36.4522C97.3883 36.4205 97.4673 36.4038 97.5475 36.4031H108.282C108.434 36.404 108.581 36.3466 108.69 36.2431C108.8 36.1396 108.864 35.9981 108.869 35.8488C108.869 35.7328 108.869 35.6039 108.869 35.4493C108.862 33.1743 107.857 28.2957 102.599 28.2957ZM106.739 35.1528H97.5344C97.4704 35.1525 97.4073 35.1383 97.3496 35.1113C97.2916 35.0843 97.2407 35.0451 97.2 34.9965C97.1593 34.9479 97.1301 34.8911 97.1144 34.8301C97.0985 34.7691 97.0966 34.7055 97.1086 34.6437C97.5475 32.3042 99.074 29.6136 102.389 29.6136C106.022 29.6136 107.077 32.5137 107.175 34.7017C107.178 34.7597 107.169 34.8177 107.148 34.8721C107.127 34.9265 107.096 34.9763 107.055 35.0184C107.014 35.0605 106.965 35.0941 106.911 35.1172C106.857 35.1403 106.799 35.1524 106.739 35.1528Z"></path>
<path fill="#8C8884" d="M121.256 28.0666C118.812 28.0666 117.037 29.0881 116.031 30.6445H115.962V21.9441C115.963 21.8205 115.939 21.6978 115.891 21.5833C115.844 21.4688 115.774 21.3647 115.685 21.2769C115.596 21.1892 115.491 21.1195 115.375 21.072C115.259 21.0245 115.134 21 115.009 21H112.798C112.545 21 112.302 21.0988 112.123 21.2746C111.945 21.4505 111.844 21.689 111.844 21.9377V40.0118C111.844 41.2137 111.805 42.5059 111.759 43.5371C111.752 43.6617 111.772 43.7863 111.816 43.9034C111.86 44.0204 111.927 44.1274 112.015 44.2179C112.102 44.3084 112.207 44.3804 112.324 44.4295C112.44 44.4787 112.566 44.504 112.693 44.5038H114.364C114.598 44.5038 114.825 44.417 114.998 44.2606C115.171 44.1042 115.277 43.8897 115.297 43.6594L115.428 42.0968H115.494C116.666 44.0493 118.534 44.8453 120.653 44.8453C124.338 44.8453 128.06 41.9806 128.06 36.2127C128.092 31.3276 125.246 28.0666 121.256 28.0666ZM119.716 41.6423C118.873 41.641 118.054 41.3611 117.392 40.8474C116.73 40.3339 116.262 39.6163 116.064 38.8099C115.995 38.4921 115.961 38.168 115.962 37.8432V35.2492C115.968 34.8942 116.013 34.5409 116.096 34.1955C116.279 33.3697 116.738 32.6282 117.401 32.09C118.063 31.5518 118.89 31.2481 119.749 31.2277C122.497 31.2277 123.87 33.5349 123.87 36.3835C123.87 39.6316 122.298 41.6423 119.716 41.6423Z"></path>
<path fill="#8C8884" d="M137.774 28.0664C132.533 28.0664 129.801 32.2555 129.801 36.6991C129.801 41.6099 132.916 44.8065 138.21 44.8065C139.986 44.8328 141.754 44.5514 143.431 43.9751C143.566 43.9276 143.679 43.8341 143.749 43.7116C143.819 43.5891 143.843 43.4459 143.815 43.308L143.431 41.6421C143.414 41.564 143.381 41.4901 143.334 41.4251C143.287 41.3604 143.226 41.3057 143.156 41.265C143.086 41.224 143.009 41.1977 142.928 41.1878C142.848 41.1779 142.766 41.1846 142.688 41.2071C141.418 41.5794 140.098 41.7598 138.773 41.7421C136.369 41.7421 134.223 40.6851 133.814 38.2619C133.8 38.1789 133.806 38.0941 133.829 38.0132C133.852 37.9324 133.893 37.8575 133.948 37.7935C134.003 37.7295 134.072 37.6781 134.15 37.6427C134.227 37.6073 134.311 37.5888 134.397 37.5884H144.155C144.301 37.5892 144.441 37.5369 144.55 37.4417C144.658 37.3464 144.726 37.215 144.742 37.0728C144.784 36.6747 144.805 36.2745 144.804 35.8741C144.81 32.3489 143.068 28.0664 137.774 28.0664ZM140.611 34.756H134.105C134.061 34.7528 134.018 34.7408 133.978 34.7207C133.939 34.7007 133.904 34.6729 133.876 34.6391C133.848 34.6054 133.827 34.5663 133.814 34.5244C133.802 34.4824 133.798 34.4384 133.804 34.3951C134.079 32.7839 135.173 30.8505 137.538 30.8505C140.097 30.8505 140.853 32.9611 140.919 34.4499C140.915 34.5293 140.881 34.6044 140.824 34.661C140.768 34.7175 140.692 34.7513 140.611 34.756Z"></path>
<path fill="#8C8884" d="M154.024 34.8888C151.947 34.1283 151.177 33.6675 151.177 32.6332C151.177 31.5988 151.98 30.9189 153.47 30.9189C154.453 30.9328 155.423 31.1444 156.32 31.5408C156.397 31.5744 156.479 31.5915 156.563 31.5908C156.647 31.5902 156.729 31.5718 156.805 31.5369C156.881 31.5021 156.948 31.4516 157.002 31.3888C157.057 31.3261 157.097 31.2527 157.119 31.1734L157.621 29.4785C157.661 29.3436 157.65 29.1987 157.59 29.0711C157.53 28.9435 157.424 28.842 157.293 28.7857C156.06 28.2869 154.738 28.0381 153.405 28.0542C149.618 28.0542 147.239 30.2293 147.239 33.0617C147.239 34.9726 148.55 36.6869 151.727 37.7438C153.739 38.4656 154.41 38.994 154.41 40.0832C154.41 41.1723 153.604 41.8942 151.789 41.8942C150.563 41.85 149.359 41.5584 148.252 41.0371C148.174 41.0011 148.09 40.9822 148.005 40.9816C147.919 40.9813 147.835 40.999 147.757 41.034C147.679 41.0691 147.61 41.1203 147.555 41.1843C147.499 41.2483 147.459 41.3234 147.436 41.4043L146.915 43.2346C146.878 43.3687 146.891 43.5112 146.951 43.6369C147.011 43.7626 147.114 43.8634 147.243 43.9211C148.663 44.5276 150.198 44.8317 151.747 44.8136C156.068 44.8136 158.38 42.7062 158.38 39.7706C158.344 37.3926 157.005 35.9103 154.024 34.8888Z"></path>
<path fill="#8C8884" d="M166.475 31.4605H169.22C169.297 31.4605 169.374 31.4455 169.445 31.4163C169.516 31.3871 169.581 31.3443 169.636 31.2904C169.69 31.2365 169.733 31.1726 169.763 31.1022C169.792 31.0318 169.807 30.9565 169.806 30.8805V29.0083C169.806 28.855 169.745 28.708 169.635 28.5993C169.525 28.4906 169.376 28.4291 169.22 28.4283H166.475C166.397 28.4283 166.321 28.4133 166.25 28.3841C166.178 28.3549 166.113 28.3121 166.059 28.2582C166.004 28.2043 165.961 28.1403 165.932 28.07C165.903 27.9996 165.888 27.9243 165.888 27.8482V21.6452C165.888 21.5559 165.866 21.4679 165.825 21.3882C165.785 21.3084 165.725 21.239 165.653 21.1853C165.58 21.1317 165.496 21.0953 165.407 21.0789C165.318 21.0625 165.226 21.0667 165.138 21.091L162.262 21.8869C162.138 21.9208 162.029 21.9937 161.952 22.0944C161.874 22.1951 161.832 22.3181 161.833 22.4444V27.8482C161.833 27.9243 161.819 27.9996 161.789 28.07C161.76 28.1403 161.717 28.2043 161.662 28.2582C161.608 28.3121 161.543 28.3549 161.472 28.3841C161.4 28.4133 161.324 28.4283 161.246 28.4283H160.11C159.954 28.4291 159.805 28.4906 159.695 28.5993C159.585 28.708 159.523 28.855 159.523 29.0083V30.8805C159.523 30.9565 159.538 31.0318 159.567 31.1022C159.596 31.1726 159.639 31.2365 159.694 31.2904C159.749 31.3443 159.813 31.3871 159.885 31.4163C159.956 31.4455 160.033 31.4605 160.11 31.4605H161.246C161.324 31.4605 161.4 31.4755 161.472 31.5047C161.543 31.5339 161.608 31.5767 161.662 31.6306C161.717 31.6845 161.76 31.7484 161.789 31.8188C161.819 31.8891 161.833 31.9645 161.833 32.0405V38.975C161.833 41.0825 162.236 42.5678 163.143 43.4863C163.913 44.3113 165.155 44.8042 166.694 44.8042C167.553 44.8114 168.409 44.7141 169.243 44.5141C169.368 44.4787 169.477 44.4034 169.554 44.3004C169.631 44.1972 169.672 44.0718 169.669 43.9438L169.626 42.0105C169.624 41.9301 169.605 41.8513 169.57 41.7787C169.535 41.7059 169.485 41.6414 169.424 41.5886C169.362 41.5358 169.29 41.4964 169.212 41.4724C169.134 41.4486 169.052 41.4408 168.971 41.4497C168.65 41.4798 168.327 41.4928 168.004 41.4884C166.429 41.4884 165.895 40.4993 165.895 38.5239V32.0405C165.894 31.8881 165.955 31.7415 166.063 31.6328C166.172 31.5242 166.32 31.4622 166.475 31.4605Z"></path>
<path fill="#8C8884" d="M80.1036 30.3771C79.039 29.0592 77.542 28.4888 76.4707 28.5211C75.6215 28.547 74.7922 28.7803 74.0573 29.1999C73.3226 29.6195 72.7054 30.2123 72.2614 30.9249C71.7992 30.2137 71.1685 29.6234 70.4233 29.2046C69.6781 28.786 68.8407 28.5514 67.9831 28.5211C67.3028 28.5414 66.6357 28.7103 66.0299 29.0158C65.4242 29.3212 64.8952 29.7554 64.4812 30.2869C63.5969 31.3567 62.6993 33.3191 63.4658 36.6027C64.265 40.0184 71.7831 44.6908 72.1041 44.8874L72.2843 45.0001L72.4644 44.8841C72.7757 44.6908 80.1135 40.0506 81.0144 36.6091C81.8431 33.4061 80.9718 31.4534 80.1036 30.3771ZM80.3461 36.4448C79.5862 39.3675 73.408 43.4727 72.268 44.2009C71.1115 43.463 64.7826 39.3191 64.1112 36.4448C63.4069 33.4222 64.2029 31.65 64.9924 30.6962C65.3434 30.255 65.7853 29.8916 66.2887 29.6295C66.7922 29.3674 67.346 29.2126 67.9144 29.1752H67.9668C70.7251 29.2429 71.9141 31.6242 71.9666 31.7241L72.2941 32.3686L72.5923 31.7241C72.5923 31.7015 73.7388 29.2525 76.5035 29.1849C77.1042 29.2228 77.6898 29.386 78.2213 29.6638C78.7529 29.9417 79.2179 30.3276 79.5862 30.796C80.3494 31.7498 81.1126 33.506 80.3461 36.4448Z"></path>
</g>
<defs>
<clipPath id="clip0_4532_199114">
<rect transform="translate(16 21)" fill="white" height="24" width="154"></rect>
</clipPath>
</defs>
</svg>
