<svg xmlns="http://www.w3.org/2000/svg" fill="none" viewBox="0 0 61 61" height="61" width="61">
<path fill="#D6CFC7" d="M45.8327 22.7017V39.5616L31.1483 48.2635L16.4639 39.5616V22.7017L31.1483 13.9999L45.8327 22.7017Z"></path>
<path stroke-dasharray="10 10" stroke-width="1.5" stroke="#57534E" d="M16.4639 22.7017C22.1985 26.1 31.1483 31.4036 31.1483 31.4036M16.4639 22.7017V39.5616L31.1483 48.2635M16.4639 22.7017L31.1483 13.9999L45.8327 22.7017M31.1483 31.4036V48.2635M31.1483 31.4036L45.8327 22.7017M45.8327 22.7017V39.5616L31.1483 48.2635"></path>
<path stroke-linecap="round" stroke-width="1.5" stroke="#161616" d="M9.53418 18.4168C17.9956 23.4309 31.201 31.2564 31.201 31.2564M9.53418 18.4168V43.2935L11.5404 44.4972L31.201 56.1331M9.53418 18.4168L20.3676 11.9969M31.201 31.2564V56.1331M31.201 31.2564L42.0344 24.8366M52.8678 18.4168L52.8678 43.2935L31.201 56.1331M52.8678 18.4168L42.0344 11.9969L31.201 5.57715L20.3676 11.9969M52.8678 18.4168L42.0344 24.8366M20.3676 11.9969L42.0344 24.8366"></path>
<path stroke-linecap="round" stroke-width="1.5" stroke="#161616" fill="#E6E3E0" d="M37.0176 35.8322V32.5692C37.0176 32.3497 37.1375 32.1476 37.3303 32.0425L46.9465 26.7976C47.3463 26.5795 47.8338 26.8689 47.8338 27.3243V30.4999C47.8338 30.718 47.7154 30.9189 47.5247 31.0247L37.9085 36.357C37.5086 36.5787 37.0176 36.2895 37.0176 35.8322Z"></path>
</svg>
