<svg xmlns="http://www.w3.org/2000/svg" fill="none" viewBox="0 0 60 61" height="61" width="60">
<path fill="#E0DCD8" d="M8.273 33.396L8.27301 43.766L30.6546 57.0292L53.0361 43.766V33.396L30.6546 20.1328L8.273 33.396Z"></path>
<path fill="#161616" d="M52.2861 43.3379L31.4043 55.7129V47.0869L52.2861 34.7119V43.3379ZM29.9043 47.0859V55.7119L9.02344 43.3389V34.7119L29.9043 47.0859ZM51.5654 33.3955L30.6553 45.7871L9.74414 33.3955L30.6553 21.0039L51.5654 33.3955ZM7.52344 44.1934L30.6543 57.9014L53.7861 44.1934V32.9688L30.6543 19.2607L7.52344 32.9688V44.1934Z"></path>
<path fill="#D6CFC7" d="M42.9405 8.15211L42.9405 15.0835L30.6554 22.3635L18.3704 15.0835V8.15211L30.6554 0.87207L42.9405 8.15211Z"></path>
<path fill="#57534E" d="M19.1204 14.6553L29.9055 21.0479V15.8594L19.1204 9.46777V14.6553ZM31.4055 15.8584V21.0469L42.1907 14.6553V9.4668L31.4055 15.8584ZM19.8411 8.15137L30.6545 14.5596L41.469 8.15137L30.6545 1.74316L19.8411 8.15137ZM43.6907 15.5107L30.6555 23.2354L17.6204 15.5107V7.72461L30.6555 0L43.6907 7.72461V15.5107Z"></path>
<path fill="#D6CFC7" d="M30.6548 30.4762L30.6548 35.9152L21.0149 41.6277L11.375 35.9152V30.4762L21.0149 24.7637L30.6548 30.4762Z"></path>
<path fill="#57534E" d="M21.7646 36.6162V40.3115L29.9053 35.4863V31.791L21.7646 36.6162ZM12.125 35.4863L20.2646 40.3105V36.6152L12.125 31.792V35.4863ZM12.8457 30.4756L21.0146 35.3164L29.1836 30.4756L21.0146 25.6348L12.8457 30.4756ZM31.4053 36.3428L21.0146 42.499L10.625 36.3428V30.0488L21.0146 23.8916L31.4053 30.0488V36.3428Z"></path>
<path fill="#D6CFC7" d="M49.9351 30.4762L49.9351 35.9152L40.2952 41.6277L30.6553 35.9152V30.4762L40.2952 24.7637L49.9351 30.4762Z"></path>
<path fill="#57534E" d="M41.0449 36.6162V40.3115L49.1855 35.4863V31.791L41.0449 36.6162ZM31.4053 35.4863L39.5449 40.3105V36.6152L31.4053 31.792V35.4863ZM32.126 30.4756L40.2949 35.3164L48.4639 30.4756L40.2949 25.6348L32.126 30.4756ZM50.6855 36.3428L40.2949 42.499L29.9053 36.3428V30.0488L40.2949 23.8916L50.6855 30.0488V36.3428Z"></path>
<path fill="#E0DCD8" d="M52.5766 33.6685L30.6546 46.6593L8.73583 33.6705C8.53148 33.5494 8.273 33.6966 8.273 33.9342L8.27301 43.7662L30.6546 57.0294L53.0361 43.7662V33.9342C53.0361 33.6966 52.781 33.5474 52.5766 33.6685Z"></path>
<path fill="#161616" d="M53.7861 33.9342C53.7861 33.182 53.0181 32.6651 52.3301 32.9547L52.1943 33.0231L30.6553 45.7867L9.11816 33.025L8.98438 32.9576C8.30614 32.6724 7.52344 33.1666 7.52344 33.9342V44.194L30.6543 57.901L53.7861 44.194V33.9342ZM52.2861 43.3375L31.4043 55.7135V47.0865L52.2861 34.7125V43.3375ZM29.9043 47.0856V55.7125L9.02344 43.3385V34.7125L29.9043 47.0856Z"></path>
<path fill="#161616" d="M20.7324 29.3119V20.8412C20.7324 18.8871 21.758 17.0761 23.4336 16.0707L24.6562 15.3363C25.0114 15.1232 25.4724 15.239 25.6855 15.5941C25.8986 15.9493 25.7838 16.4103 25.4287 16.6234L24.2051 17.3568C22.9813 18.0912 22.2324 19.414 22.2324 20.8412V29.3119C22.2324 29.7261 21.8966 30.0619 21.4824 30.0619C21.0682 30.0619 20.7324 29.7261 20.7324 29.3119Z"></path>
<path fill="#161616" d="M41.0442 29.3114V20.8407C41.0442 18.8866 40.0186 17.0756 38.343 16.0702L37.1204 15.3358C36.7652 15.1227 36.3042 15.2385 36.0911 15.5937C35.878 15.9488 35.9928 16.4098 36.3479 16.623L37.5715 17.3564C38.7953 18.0907 39.5442 19.4135 39.5442 20.8407V29.3114C39.5442 29.7256 39.88 30.0614 40.2942 30.0614C40.7084 30.0614 41.0442 29.7256 41.0442 29.3114Z"></path>
</svg>
