<svg xmlns="http://www.w3.org/2000/svg" fill="none" viewBox="0 0 186 66" height="66" width="186">
<path fill="#8C8884" d="M49.539 44.837C50.8211 44.7879 56.0723 44.5989 56.9521 44.9874C57.175 45.0858 57.4112 45.2592 57.5029 45.5088C57.6077 45.7946 57.5175 46.1304 57.4043 46.3985C57.2605 46.7384 57.0284 46.8364 56.7226 46.959C55.5803 47.0753 50.0561 47.2549 49.248 46.8721C49.0611 46.7834 48.9067 46.5867 48.8378 46.3829C48.7396 46.0918 48.7909 45.7208 48.9121 45.4463C49.052 45.1295 49.2339 44.9547 49.539 44.837ZM119.419 32.4219C120.323 32.3909 123.398 32.1721 124.113 32.5196C124.43 32.6738 124.574 33.8067 124.659 34.1856C125.059 35.9626 125.825 37.4338 127.069 38.6934C128.729 40.3752 130.912 41.0299 133.156 40.9581C133.621 40.9431 134.099 40.7577 134.539 40.6084C136.838 39.8281 138.806 38.1068 139.712 35.6709C140.024 34.8311 140.076 33.2153 140.619 32.5909C140.704 32.4934 140.781 32.4566 140.902 32.4288C141.292 32.3397 144.642 32.3269 145.207 32.4024C145.453 32.4354 145.657 32.5059 145.866 32.6534C145.946 32.7917 146.003 32.8549 146.003 33.0225C146.007 34.1355 145.707 37.0997 144.981 37.8799C144.985 37.9002 144.987 37.9209 144.988 37.9415C145.025 38.8813 142.904 41.7864 142.277 42.4913C139.845 45.2282 136.343 46.9373 132.809 47.0274C129.182 47.1219 125.666 45.6757 123.033 43.0059C120.818 40.7443 118.882 36.9051 118.815 33.5879C118.806 33.1422 118.798 32.7995 119.104 32.4581C119.208 32.4409 119.314 32.4255 119.419 32.4219ZM83.4277 18.4043C85.9141 18.4006 88.4937 18.2293 90.9648 18.4483C91.278 18.476 91.5342 18.5306 91.7959 18.7315C92.0572 18.9323 92.2855 19.2188 92.2216 19.5792C92.017 20.7328 90.2531 23.4557 89.5947 24.6221L84.0937 34.3897C83.1555 36.0528 82.1232 37.6974 81.2685 39.4083C81.1687 39.6081 80.9784 39.9403 81.0195 40.1729C81.2304 41.3511 90.0235 39.8431 91.5576 40.9678C91.7679 41.1222 91.9048 41.3255 91.9501 41.5948C92.1029 42.5053 92.1909 45.5288 91.7158 46.2471C91.5213 46.5415 91.2608 46.5695 90.9511 46.6241C89.7281 46.8541 86.6215 46.6538 85.2294 46.6534C80.9728 46.6521 76.693 46.7655 72.4394 46.6319C72.2903 46.3121 71.8315 46.1995 71.7324 45.7911C71.6536 45.4655 71.8321 45.0852 71.9628 44.7979C72.8136 42.9293 73.9669 41.1341 74.9716 39.3506C77.4041 35.0324 79.9572 30.7505 82.2763 26.3653C82.4802 25.9794 82.9027 25.3397 82.7861 24.8907C82.6774 24.7371 82.6298 24.6575 82.4453 24.6084C81.8301 24.4447 81.0297 24.5229 80.3974 24.5235C78.9925 24.5253 77.5875 24.5349 76.1826 24.5528C75.2927 24.5628 74.3424 24.6375 73.4609 24.4961C73.1288 24.4429 72.7538 24.3637 72.5459 24.0538C72.1846 23.5149 72.1269 20.4076 72.2304 19.7286C72.3278 19.0903 72.5722 18.7717 73.0517 18.4004C76.5023 18.3061 79.9747 18.4095 83.4277 18.4043ZM100.768 18.4004C101.728 18.392 104.647 18.168 105.305 18.6944C105.616 18.9438 105.721 19.7146 105.762 20.0987C105.928 21.7117 105.799 23.4597 105.797 25.0889L105.78 35.0772C105.774 36.5051 105.635 38.1109 105.811 39.5215C105.845 39.794 105.921 40.2936 106.133 40.4708C106.827 41.0491 114.444 40.0851 115.412 40.8985C115.701 41.1407 115.741 41.6555 115.785 42.0206C115.864 42.6745 115.986 45.6682 115.646 46.1319C115.41 46.4549 115.051 46.5331 114.691 46.5792C113.824 46.8389 112.174 46.6612 111.244 46.6612L104.266 46.6719C103.47 46.6759 100.554 46.8539 100.064 46.336C99.9011 45.7726 99.834 45.2086 99.8115 44.6211C99.6588 40.6589 99.7946 36.6389 99.7939 32.6709C99.7926 28.5433 99.6618 24.3752 99.7793 20.253C99.7899 19.8871 99.7817 19.4257 99.9316 19.0889C100.09 18.7328 100.435 18.5256 100.768 18.4004ZM44.1611 41.2725C46.0416 41.1734 61.7895 41.1302 62.4443 41.3721C62.6917 41.4636 62.9356 41.641 63.0488 41.9014C63.1585 42.1541 63.1334 42.4413 63.0439 42.6963C62.8965 43.1159 62.6248 43.2562 62.2695 43.4327C61.6657 43.5296 60.9684 43.4643 60.3554 43.4629L56.5839 43.4542C52.7588 43.4454 48.9237 43.5295 45.1005 43.4581C44.7702 43.452 44.3871 43.4656 44.0722 43.3555C43.8559 43.2799 43.6515 43.0844 43.5488 42.8682C43.4283 42.6142 43.4314 42.283 43.5146 42.0167C43.6291 41.6501 43.8456 41.4408 44.1611 41.2725ZM59.6035 37.6426C60.9181 37.6277 63.5348 37.3794 64.6767 37.7999C64.9582 37.9036 65.2549 38.0729 65.3867 38.3741C65.4876 38.6053 65.4547 38.9398 65.371 39.1729C65.2306 39.5636 64.9402 39.6987 64.6084 39.8594C63.6492 39.972 60.6284 40.0573 59.7949 39.8487C59.4399 39.7597 59.0675 39.5986 58.871 39.2491C58.7548 39.042 58.7284 38.7805 58.7851 38.5479C58.8952 38.0961 59.2548 37.8647 59.6035 37.6426ZM41.9277 37.6475C43.1757 37.6405 45.748 37.3924 46.8183 37.7823C47.1644 37.9084 47.588 38.1586 47.75 38.5254C47.8093 38.6601 47.8157 38.8348 47.7675 38.9727C47.6111 39.4192 47.1693 39.7181 46.7851 39.9073C45.9034 39.9403 42.3991 40.0216 41.7441 39.7422C41.4399 39.6124 41.1135 39.3719 40.9834 39.0391C40.9134 38.8601 40.915 38.6848 40.9873 38.5069C41.155 38.0939 41.5542 37.8116 41.9277 37.6475ZM40.625 34.1036C41.9029 34.082 44.0368 33.822 45.2148 34.2686C45.4439 34.3554 45.7199 34.5099 45.8261 34.7569C45.9322 35.0034 45.8992 35.24 45.8095 35.4893C45.6389 35.9633 45.3856 36.1127 44.9726 36.3086C43.8739 36.3327 41.5198 36.5971 40.5468 36.209C40.2672 36.0975 40.0164 35.9132 39.8916 35.6143C39.7926 35.377 39.77 35.0335 39.8632 34.7891C39.9862 34.4667 40.3413 34.2319 40.625 34.1036ZM61.3779 34.1124C62.5305 34.0887 64.9415 33.8342 65.9414 34.2295C66.2197 34.3396 66.4906 34.5185 66.6162 34.8184C66.7133 35.0504 66.7274 35.3359 66.6406 35.5743C66.4937 35.9772 66.0717 36.139 65.7314 36.3038C64.9497 36.3908 62.2114 36.4812 61.4912 36.2364C61.1429 36.1178 60.7634 35.8797 60.5957 35.5196C60.5137 35.3437 60.5024 35.1234 60.5625 34.9375C60.6862 34.556 61.0537 34.2789 61.3779 34.1124ZM52.0097 18.0977C55.5896 17.8258 59.2841 18.9654 62.0175 21.5049C64.7495 24.0432 66.6315 27.6271 66.875 31.5372C66.8994 31.9307 66.8625 32.2683 66.6123 32.5743C66.414 32.6876 66.2167 32.7346 65.9951 32.7549C65.6799 32.7835 62.1241 32.8015 61.9306 32.751C61.6432 32.676 61.402 32.5079 61.2568 32.2266C61.0706 31.8656 61.0703 31.3448 60.9863 30.9434C60.7893 30.0016 60.4784 29.0923 60.0087 28.2657C58.7686 26.0833 56.8918 24.8423 54.6132 24.2481C53.7683 24.1361 52.938 24.1074 52.0918 24.2334C49.2983 24.6495 46.5973 26.8978 45.7714 29.8331C45.5607 30.5823 45.5262 31.8439 45.0908 32.4483C44.9423 32.6541 44.7076 32.7245 44.4736 32.7559C43.9831 32.8213 40.1175 32.8117 39.8662 32.5967C39.721 32.4725 39.6565 32.2077 39.6367 32.0186C39.3659 29.4385 41.1633 25.4242 42.6406 23.4395C44.8882 20.42 48.3409 18.5376 51.9091 18.1065C51.9427 18.1034 51.9761 18.1002 52.0097 18.0977ZM140.556 28.8272C141.607 28.7407 144.776 28.5331 145.515 29.1084C145.694 29.2479 145.819 29.4553 145.853 29.6905C145.898 29.9978 145.784 30.3367 145.612 30.5801C145.394 30.8884 145.145 30.934 144.81 30.9825C144.083 31.0588 141.277 31.1271 140.685 30.9375C140.329 30.824 139.957 30.5965 139.781 30.2344C139.693 30.0549 139.677 29.844 139.736 29.6514C139.853 29.2807 140.246 28.998 140.556 28.8272ZM119.735 28.8272C121.018 28.7376 123.783 28.4807 124.815 29.1905C124.973 29.2992 125.114 29.4691 125.151 29.668C125.206 29.9547 125.068 30.1968 124.926 30.4278C124.695 30.8034 124.516 30.8805 124.115 30.9678C123.785 31.1196 119.907 30.999 119.525 30.8389C119.306 30.7472 119.108 30.5997 119.013 30.3624C118.912 30.1106 118.971 29.7703 119.063 29.5254C119.196 29.1723 119.415 28.9738 119.735 28.8272ZM139.918 25.1963C141.186 25.1301 142.526 25.2176 143.795 25.2969C144.058 25.4235 144.311 25.5943 144.512 25.8204C144.667 25.9955 144.74 26.1778 144.732 26.417C144.726 26.6254 144.574 26.8048 144.437 26.9366C143.841 27.5098 143.256 27.5003 142.508 27.4639C141.388 27.4653 139.183 27.813 138.309 27.044C138.102 26.8624 137.916 26.5971 137.894 26.3038C137.878 26.1055 137.949 25.9223 138.068 25.7735C138.544 25.182 139.26 25.2455 139.918 25.1963ZM122.183 25.1963C123.468 25.2026 124.773 25.1771 126.053 25.2959C126.298 25.4117 126.553 25.5644 126.743 25.7715C126.898 25.9398 126.97 26.1307 126.966 26.3633C126.962 26.5708 126.833 26.7546 126.698 26.8926C126.114 27.4931 125.514 27.4988 124.758 27.4805C123.884 27.5029 121.235 27.6978 120.601 27.1602C120.383 26.9756 120.257 26.7088 120.229 26.4151C120.205 26.1412 120.284 25.8792 120.447 25.667C120.835 25.1636 121.629 25.252 122.183 25.1963ZM137.894 21.6221C138.766 21.6211 139.666 21.5355 140.534 21.5938C140.939 21.621 141.36 21.7123 141.712 21.9375C141.935 22.0805 142.196 22.3281 142.256 22.6124C142.294 22.7992 142.261 22.9952 142.163 23.1553C141.964 23.4844 141.589 23.7509 141.235 23.835C139.834 23.9614 123.635 23.9077 123.192 23.7559C122.967 23.6784 122.754 23.501 122.645 23.2735C122.52 23.0087 122.52 22.6781 122.609 22.4004C122.734 22.0183 122.983 21.825 123.309 21.6592C124.254 21.5424 125.28 21.6165 126.233 21.6163L131.722 21.6192L137.894 21.6221ZM128.687 18.1211C129.561 17.9542 135.886 17.9239 136.412 18.2637C136.638 18.4098 136.79 18.6864 136.847 18.9571C136.901 19.2158 136.875 19.4794 136.739 19.7051C136.558 20.007 136.328 20.0941 136.013 20.169C135.682 20.4292 130.55 20.3078 129.758 20.292C128.098 20.2589 128.776 20.0918 127.944 19.1661C128.208 18.9699 128.458 18.407 128.687 18.1211Z"></path>
</svg>
