<svg xmlns="http://www.w3.org/2000/svg" fill="none" viewBox="0 0 186 66" height="66" width="186">
<path fill="#8C8884" d="M88.8438 46.0139C89.8474 45.9401 90.9855 45.9271 91.9043 46.4026C92.2726 46.5931 92.7723 47.0817 92.9053 47.4885C92.9318 47.53 92.9564 47.5718 92.9775 47.6165C93.379 48.4617 93.1785 51.7403 93.2568 52.884C93.2975 53.472 93.6344 54.5048 93.4463 55.0334C92.9526 55.028 92.4529 55.0336 91.96 55.0071C91.5372 54.9842 91.5248 54.7731 91.2725 54.5042C90.9439 54.1545 89.0648 55.2108 88.2061 55.1594C87.3864 55.1105 86.7313 54.7763 86.1953 54.1555C85.9344 53.8028 85.8091 53.5019 85.7217 53.0706C85.5266 52.1068 85.8155 51.4101 86.3232 50.6272C86.692 50.4393 87.0771 50.2419 87.4756 50.1282C88.3713 49.8722 90.2886 49.778 90.8086 48.9485C90.9598 48.7069 90.9086 48.5353 90.8506 48.2776C90.4757 47.8172 89.6513 47.8416 89.1104 47.7844C88.6833 48.2152 88.1453 48.5029 87.708 48.9583C87.3198 48.7857 86.9127 48.7393 86.5176 48.6008C86.2445 48.505 86.1693 48.404 86.0488 48.1467C86.0642 47.7321 86.3316 47.3503 86.5283 46.9983C87.249 46.536 88.035 46.2686 88.8438 46.0139ZM106.856 46.0422C107.501 45.965 108.194 45.9136 108.826 46.0911C109.841 46.3798 110.698 47.0709 111.207 48.0081C111.574 48.6696 112.072 49.9602 111.852 50.7073C111.785 50.9313 111.664 51.1212 111.439 51.2092C110.611 51.5344 107.355 51.0267 106.431 51.5471C106.316 51.711 106.238 51.7739 106.248 51.9817C106.264 52.3112 106.545 52.5997 106.771 52.8088C108.47 54.3805 108.887 52.2789 110.413 52.1975C110.833 52.211 111.106 52.2622 111.408 52.5764C111.468 52.8293 111.487 52.9244 111.398 53.1692C111.148 53.8645 110.283 54.5164 109.631 54.8157C108.658 55.2609 107.3 55.209 106.31 54.8274C105.324 54.4478 104.564 53.6977 104.132 52.7239C103.578 51.4741 103.606 49.9666 104.08 48.6965C104.64 47.1971 105.48 46.6677 106.856 46.0422ZM59.126 45.9153C59.9731 45.9787 61.0766 46.041 61.7764 46.5959C62.7481 47.3667 63.3801 48.9892 63.5293 50.1956C63.5829 50.629 63.5506 50.8619 63.2891 51.2024C62.6347 51.4432 58.869 51.3749 57.9561 51.3547C58.0456 51.8297 58.1253 52.5417 58.4482 52.9104C58.8655 53.3865 59.5296 53.3448 60.1064 53.3801C60.4821 52.9655 60.8643 52.6241 61.3105 52.2903C61.9029 52.2326 62.4367 52.2111 63.0273 52.2961C63.0752 52.3676 63.1176 52.4421 63.1396 52.5266C63.2066 52.7826 62.9974 53.1301 62.875 53.343C62.4779 54.0328 61.8908 54.7125 61.1006 54.9133C59.9098 55.2155 58.332 55.1926 57.2607 54.5364C56.3267 53.964 55.7598 53.0272 55.5078 51.968C55.1896 50.6301 55.351 48.9966 56.0732 47.8137C56.7577 46.6927 57.9125 46.2037 59.126 45.9153ZM75.8555 45.9973C76.1235 45.9878 76.4008 45.9767 76.668 46.0081C77.5764 46.1147 78.0651 46.6235 78.6045 47.3088C78.7779 47.18 78.9438 47.0403 79.1143 46.9075C79.8665 46.3214 80.8675 45.8846 81.834 46.0217C82.473 46.1125 82.9969 46.4615 83.3809 46.9817C84.3617 48.3107 84.3087 52.429 84.0664 54.1086C84.008 54.5128 83.9782 54.673 83.6572 54.9172C83.3945 54.9831 82.3339 54.7973 82.0811 54.6799C81.2592 54.2969 81.9484 49.4557 81.5566 48.4553C81.4565 48.2 81.261 47.9731 81.0068 47.8704C80.5034 47.667 79.9721 47.9946 79.5127 48.1956C78.7721 49.9061 78.9537 51.7006 78.8252 53.5217C78.8268 53.8509 78.8847 54.4533 78.6895 54.7336C78.5493 54.9343 78.1559 55.0356 77.9219 55.0706C77.6253 55.1146 77.3327 55.0965 77.0869 54.9055C76.1778 54.1988 76.6418 49.8558 76.4619 48.5706C76.4332 48.3657 76.3597 48.0853 76.1846 47.9602C75.7712 47.6651 74.7911 47.9363 74.3242 48.01C73.5316 50.3108 74.2552 53.3231 73.7256 54.885C73.6472 54.9123 73.567 54.9332 73.4854 54.9475C72.96 55.0406 72.1682 54.9237 71.7246 54.6096C71.1293 53.5218 71.3833 47.8709 71.3643 46.2893C71.8762 46.2025 72.5275 46.1177 73.0381 46.2141C73.5487 46.3105 73.6127 46.663 73.877 47.0549C74.2055 46.9898 74.2822 46.6397 74.5479 46.4573C74.8572 46.245 75.4887 46.1143 75.8555 45.9973ZM135.087 46.0413C136.059 45.9371 137.192 45.9052 138.119 46.2708C138.738 46.5145 139.219 46.9423 139.488 47.5647C140.131 49.0524 139.618 50.9235 139.712 52.4915C139.747 53.0667 140.113 54.636 139.965 55.0247C139.508 55.017 138.979 55.1258 138.536 55.0715C138.057 55.013 137.875 54.5034 137.623 54.1633C136.207 55.0169 135.267 55.0657 133.675 55.0295C133.527 54.7484 132.891 54.4333 132.61 54.302C132.601 53.9939 132.31 53.5604 132.213 53.2512C132.036 52.6842 132.139 51.8787 132.407 51.3577C133.27 49.6811 135.573 49.8303 137.104 49.3391C137.308 49.2733 137.311 49.2519 137.409 49.0598C137.387 48.8626 137.352 48.3409 137.21 48.1985C136.782 47.768 135.931 47.888 135.377 47.8909C135.172 48.2511 134.321 48.6232 133.955 48.8127C133.409 48.6059 132.606 48.5432 132.018 48.4172C133.418 47.1379 132.893 46.714 135.087 46.0413ZM45.5352 42.8713C47.032 42.834 48.6682 42.7686 50.1494 42.9661C51.3214 43.1223 52.2948 43.6363 53.0176 44.5979C54.1828 46.148 54.4329 48.4481 54.1807 50.3284C54.002 51.6605 53.4149 53.1137 52.3379 53.9446C51.9225 54.1786 51.5034 54.4325 51.0664 54.6223C50.0985 55.0423 45.4183 55.2444 44.5195 54.8713C44.4813 54.7729 44.4518 54.6705 44.4326 54.5667C44.2552 53.5653 44.1835 43.61 44.5 43.1516C44.7875 42.8999 45.1744 42.9035 45.5352 42.8713ZM97.3584 46.0413C98.3536 45.9053 99.6026 45.8765 100.504 46.3596C101.074 46.6655 102.217 47.4006 102.404 48.053C102.472 48.2877 102.425 48.3658 102.312 48.5686L100.282 48.7375C100.192 48.4661 99.6745 48.0308 99.4199 47.9016C98.868 47.6206 98.069 47.6952 97.5029 47.8918C97.194 47.9992 97.0424 48.1161 96.9004 48.4084C97.2472 49.1682 100.053 49.478 100.965 49.8674C101.384 50.0468 101.826 50.3688 102.162 50.676C102.167 50.6802 102.173 50.6843 102.178 50.6887C102.428 50.9106 102.659 51.8433 102.67 52.1711C102.694 52.8357 102.376 53.4765 101.934 53.9504C101.268 54.6631 100.477 54.9906 99.5264 55.0188C98.6259 55.0432 97.5359 55.1984 96.707 54.7805C96.0868 54.4681 95.0083 53.8584 94.7871 53.1526C94.7287 52.9666 94.7542 52.783 94.8457 52.6155C94.9811 52.3681 95.2567 52.2311 95.5176 52.1633C95.9674 52.0461 96.5551 52.0897 96.957 52.342C97.2101 52.5011 97.3863 52.8208 97.4521 53.1086L97.4561 53.1301C98.036 53.3213 98.5982 53.486 99.2168 53.427C99.5015 53.3997 99.8165 53.3054 100 53.0657C100.187 52.8208 100.224 52.5121 100.189 52.2141C99.3445 51.6052 97.804 51.4244 96.8076 51.0852C96.2923 50.9098 95.8105 50.6565 95.3291 50.4026C95.3515 50.1988 95.07 49.804 94.9854 49.5959C94.7675 49.0579 94.7275 48.2566 94.959 47.717C95.3612 46.7798 96.498 46.3914 97.3584 46.0413ZM125.805 46.0422C126.992 45.9034 128.174 46.0407 129.226 46.6506C129.729 46.9425 130.411 47.408 130.571 47.9983C130.542 48.1626 130.542 48.246 130.423 48.3704C130.055 48.7524 129.207 48.6634 128.719 48.677C128.342 48.3678 127.965 48.0482 127.509 47.8684C126.962 47.6532 126.208 47.7033 125.677 47.9524C125.432 48.0671 125.367 48.1382 125.272 48.3909C125.679 49.5483 129.465 49.2427 130.453 50.7698C130.489 50.7991 130.525 50.829 130.557 50.8635C130.842 51.1705 130.995 51.7494 130.982 52.1633C130.96 52.9083 130.49 53.5642 129.975 54.0588C129.109 54.8897 128.344 55.0691 127.18 55.0354C125.934 55.067 125.09 54.9794 124.038 54.2542C123.653 53.9886 123.152 53.61 123.066 53.1194C123.04 52.9688 123.105 52.7559 123.193 52.6292C123.498 52.1926 124.09 52.1588 124.568 52.0715C125.546 52.3844 126.02 53.447 127.161 53.4661C127.595 53.4736 128.042 53.3021 128.348 52.9827C128.527 52.7966 128.564 52.6592 128.567 52.4075C128.475 52.2376 128.361 52.1379 128.19 52.0579C126.675 51.3533 125.117 51.2317 123.492 50.3401C123.533 49.9472 123.179 49.5081 123.076 49.1252C122.943 48.6304 122.994 48.0503 123.247 47.6038C123.77 46.6791 124.855 46.3087 125.805 46.0422ZM69.1963 45.9934C69.4631 45.9505 70.0438 46.109 70.291 46.2288C70.4089 46.286 70.5105 46.3847 70.5547 46.509C70.759 47.0841 70.2278 47.9433 69.9863 48.469C69.5704 48.3216 69.089 48.0904 68.6436 48.1829C66.7379 48.5787 68.1472 53.4381 67.2295 54.8303C66.9277 55.0294 66.4964 55.015 66.1455 55.0403C65.896 55.0364 65.7287 55.0129 65.498 54.9065C64.7998 54.2044 65.1347 47.6813 65.0986 46.3C65.5603 46.2492 66.0969 46.1463 66.5576 46.2112C67.0425 46.2794 67.2911 46.4629 67.5859 46.8508C67.9246 46.826 68.5936 46.144 69.1963 45.9934ZM118.029 46.0413C118.658 45.9429 119.277 46.0259 119.866 46.2659C120.223 46.4112 120.778 46.7668 120.934 47.134C120.996 47.1869 121.05 47.2478 121.095 47.3167C121.646 48.1705 121.648 53.2999 121.409 54.4358C121.354 54.7036 121.319 54.7409 121.094 54.8918C120.67 54.9579 120.249 54.8996 119.845 54.7561C119.615 54.6745 119.443 54.6141 119.313 54.3918C118.616 53.2003 119.48 49.844 118.788 48.4055C118.661 48.141 118.364 47.9093 118.092 47.8186C117.545 47.6363 116.961 48.0164 116.486 48.2571C115.725 49.859 116.461 53.9335 115.709 54.8616C115.108 55.0709 114.349 55.0293 113.724 55.0305C113.796 54.7966 113.466 49.081 113.542 47.969C113.578 47.4448 113.678 46.76 114.095 46.4016C114.299 46.2261 114.619 46.1353 114.884 46.1584C115.351 46.1993 115.621 46.5698 115.9 46.9075C116.614 46.7758 117.326 46.2849 118.029 46.0413ZM137.293 50.97C137.064 50.8249 136.985 50.859 136.724 50.8821C136.04 51.0421 135.062 51.264 134.659 51.9065C134.531 52.1131 134.501 52.3531 134.555 52.5891C134.632 52.9263 134.823 53.1606 135.092 53.3665C135.604 53.4695 136.119 53.5214 136.574 53.2083C136.989 52.9237 137.309 52.4322 137.397 51.9319C137.457 51.5955 137.429 51.2816 137.293 50.97ZM90.2949 50.8821C89.5312 51.0568 88.4456 51.3712 88.0039 52.095C87.9219 52.2292 87.8939 52.3793 87.8848 52.5354C87.951 52.7605 88.2062 53.0967 88.417 53.2043C88.4419 53.2169 88.4676 53.2272 88.4941 53.2356C89.019 53.3931 89.5278 53.5574 90.0439 53.2649C90.4386 53.0413 90.7248 52.6398 90.8428 52.2004C90.9583 51.7701 90.9236 51.3808 90.7588 50.9719C90.5802 50.8569 90.507 50.8759 90.2949 50.8821ZM46.8994 45.1682C46.9157 46.4487 46.8261 47.7286 46.8105 49.009C46.7956 50.2454 46.9653 51.6231 46.7217 52.8284C47.798 52.8272 49.6668 53.0285 50.6074 52.425C51.2989 51.868 51.5117 51.1523 51.6084 50.2903C51.7606 48.9327 51.6912 46.9271 50.8115 45.8C50.6419 45.5829 50.4308 45.3871 50.2314 45.1985C49.1764 45.0206 48.1519 45.025 47.0889 44.9827L46.8994 45.1682ZM108.833 48.2375C108.337 47.8874 108.022 47.7328 107.414 47.8303C106.941 48.136 106.461 48.6408 106.283 49.1936C106.305 49.4269 106.294 49.4891 106.483 49.6458C106.846 49.9455 107.747 49.7979 108.212 49.8313C108.643 49.8375 109.22 49.9193 109.632 49.8079C109.562 49.3319 109.253 48.5384 108.849 48.2473C108.844 48.2438 108.838 48.241 108.833 48.2375ZM59.4697 47.8098C58.7996 48.0278 58.305 48.4062 57.9688 49.05C57.8573 49.2635 57.869 49.3611 57.9141 49.5901C58.3708 49.9734 59.2093 49.8076 59.7832 49.7883C60.1836 49.8311 60.6648 49.9404 61.0352 49.7444C61.2214 49.5131 61.2197 49.4605 61.2344 49.175C61.0668 48.7056 60.5968 48.1653 60.1475 47.9534C59.9434 47.8571 59.6921 47.8324 59.4697 47.8098ZM96.8994 10.4739C100.178 10.2429 104.09 10.3565 106.907 12.2415C108.993 13.6379 110.118 15.9997 110.604 18.4319C110.684 18.8296 110.729 19.1923 110.499 19.5452C109.956 20.0151 105.599 20.0021 104.662 20.0022C104.667 19.9451 104.663 19.8935 104.653 19.8372C104.593 19.4892 104.347 19.1977 104.188 18.8899C103.67 17.8918 103.458 17.1038 102.463 16.4124C101.009 15.4018 98.6756 15.4488 97.0195 15.7717C95.9714 15.9761 94.8948 16.4935 94.2842 17.4192C93.9931 17.8603 93.8511 18.3891 93.9561 18.9153C94.5 21.6368 101.291 22.4291 103.602 23.1301C105.064 23.5737 106.817 24.3118 108.082 25.1809C109.898 26.4286 110.973 28.6928 111.376 30.8245C111.836 33.2617 111.332 35.6877 109.96 37.7415C108.405 40.0713 106.169 41.2119 103.51 41.7268C103.155 41.8891 102.495 41.8917 102.099 41.9426C98.9633 42.3459 95.963 42.0429 92.9844 40.9495C92.1941 40.6594 91.5682 40.0458 90.7617 39.802C90.4187 40.2605 89.0503 40.878 88.5088 41.1057C87.1129 41.6927 85.5864 41.9146 84.0918 42.0735C82.6291 42.229 73.5404 42.3962 72.6143 42.0081C72.4282 41.675 72.4154 41.2371 72.3994 40.8616C72.3244 39.0984 72.3802 37.3085 72.3799 35.5432L72.3828 24.9495L72.375 16.8499C72.3786 15.0048 72.3237 13.0982 72.5391 11.2649C74.48 11.1859 76.4518 11.2549 78.3955 11.2542C82.1778 11.2527 87.2038 10.711 90.4297 13.1135C90.847 12.8404 91.2138 12.4866 91.6406 12.2141C93.2827 11.1655 95.0192 10.8009 96.8994 10.4739ZM88.2529 13.4329C85.7871 12.2432 79.6286 12.6408 76.8164 12.678C75.8152 12.6912 74.7889 12.7641 73.7949 12.6331C73.6032 15.4331 73.7016 18.3156 73.6982 21.1233L73.6885 34.5823C73.6974 36.6241 73.8515 38.7144 73.7402 40.7493C76.2986 40.5362 78.9027 40.7087 81.4697 40.7209C85.3266 40.7396 88.2565 40.6588 90.9521 37.4319C92.8382 35.1739 93.6085 32.4461 93.9834 29.5676C94.0675 28.9243 94.2012 28.1657 94.1631 27.5208C94.156 27.3979 94.1063 27.2796 94.0459 27.1741C93.9204 27.0257 89.9746 24.619 89.665 24.5022C90.5227 25.5673 90.2688 27.8542 90.1396 29.1809C90.0853 29.7367 90.0116 30.2929 89.7568 30.7971C89.7585 30.8031 89.76 30.8096 89.7617 30.8157C90.0001 31.7238 89.2332 33.4961 88.7705 34.2874C88.0128 35.5834 86.8286 36.445 85.3945 36.8108C84.2894 37.0923 78.6831 37.4082 77.751 36.9172C77.5962 36.7091 77.6219 36.3641 77.6162 36.1096C77.5262 32.1613 77.6481 28.1713 77.6387 24.218C77.6337 22.1572 77.4461 18.4195 77.6904 16.5471C77.6992 16.48 77.7207 16.4224 77.752 16.3625C78.8827 15.9018 84.721 16.2641 85.9639 16.8049C86.7282 17.1378 87.4302 17.5978 87.9824 18.2336C88.0052 17.8563 88.0258 17.4496 88.1396 17.0881C88.348 16.4266 89.352 14.854 89.3203 14.3069C89.1903 13.9371 88.5905 13.5958 88.2529 13.4329ZM101.754 29.262C100.693 28.9642 96.075 27.5361 95.3496 27.7288C95.3529 27.737 95.3571 27.7449 95.3604 27.7532C96.0931 29.5779 94.1144 33.6059 94.5518 34.7502C94.7986 35.3954 95.5078 35.7541 96.0986 36.0129C97.8687 36.7884 100.576 37.0612 102.396 36.3303C102.623 36.2395 102.948 36.0788 103.052 35.8401C103.056 35.8302 103.06 35.8198 103.064 35.8098C103.721 35.6553 104.299 35.095 104.644 34.5325C105.235 33.5677 105.275 32.6673 105.025 31.5891C104.996 31.4643 104.973 31.3835 104.882 31.2913C104.235 30.1346 102.962 29.601 101.754 29.262ZM86.0293 18.3459C84.3796 17.3762 80.8548 17.5943 78.9492 17.7034C78.802 21.8852 78.9099 26.1036 78.9248 30.2883C78.9312 32.0737 79.1047 34.048 78.8633 35.8137C81.0996 35.753 84.0724 36.1421 86.1309 35.1272C86.4963 34.947 86.8278 34.6433 87.1406 34.3811C89.1917 30.817 89.0283 25.4232 88.0254 21.5354C87.6965 20.2598 87.2099 19.0402 86.0293 18.3459Z"></path>
</svg>
