<svg xmlns="http://www.w3.org/2000/svg" fill="none" viewBox="0 0 186 66" height="66" width="186">
<mask height="38" width="77" y="14" x="54" maskUnits="userSpaceOnUse" style="mask-type:luminance" id="mask0_4532_197489">
<path fill="white" d="M131 14.7422H54V51.2577H131V14.7422Z"></path>
</mask>
<g mask="url(#mask0_4532_197489)">
<path fill="#8C8884" d="M80.4129 14.7422H82.1445C84.7587 15.5327 86.5794 16.1703 87.9531 18.7399C88.6763 20.0927 89.125 21.558 89.3581 23.07C89.8212 26.0753 89.6482 29.2267 89.6454 32.2598L89.65 46.4861C89.6544 47.11 89.5193 48.3086 90.2789 48.5411C90.9788 48.7555 92.266 48.0004 92.6986 48.764C92.9562 49.2187 92.957 50.1758 92.8152 50.6687C92.7452 50.9119 92.5578 51.0814 92.3748 51.2447C92.3698 51.2492 92.3646 51.2534 92.3595 51.2577H82.9889C82.732 50.6986 82.5556 49.6584 82.7179 49.0568C83.0468 47.8371 84.7505 48.8695 85.5795 48.3715C85.6523 48.3278 85.799 48.2002 85.8316 48.12C86.053 47.5741 85.9002 46.4232 85.899 45.8157L85.8843 38.1692C85.8816 36.8474 85.692 35.2433 85.9942 33.9667C84.4923 34.0799 82.9629 34.0101 81.4569 34.0199C79.8744 34.0303 78.2506 34.1317 76.6742 33.9815C76.892 36.184 76.4562 47.3684 76.8074 48.1804C77.485 48.7562 78.6812 48.3103 79.4916 48.6382C79.7222 48.7316 79.8912 48.878 79.9844 49.1125C80.2155 49.6934 79.9169 50.6988 79.6814 51.2577H70.0822C70.0555 51.2105 70.031 51.162 70.009 51.1125C69.7722 50.5831 69.6435 49.5263 69.8626 48.9738C70.2353 48.034 71.849 48.7668 72.5729 48.4229C72.6356 48.3932 72.6954 48.352 72.7485 48.3074C72.9612 48.1288 72.9787 47.7799 72.9979 47.5193C73.1025 46.0982 72.9812 44.5925 72.9889 43.1575L72.9805 31.4906C72.9787 29.3056 72.8983 27.0851 73.0605 24.906C73.1745 23.3733 73.4544 21.7026 73.9882 20.2602C74.7673 18.1551 76.1509 16.2306 78.3008 15.4153C78.989 15.1543 79.748 15.0471 80.4129 14.7422ZM76.677 30.6196C78.5154 30.4863 80.3638 30.6111 82.2051 30.5878C83.4704 30.5941 84.7357 30.5916 86.0008 30.5801C85.8475 29.7434 85.9033 28.8598 85.902 28.0116C85.8977 25.0786 86.1367 20.6934 83.4156 18.8179C82.7481 18.3579 81.7773 18.0644 80.9642 18.2001C80.9244 18.2068 80.885 18.2197 80.8472 18.2337C79.7407 18.4147 78.8846 18.911 78.224 19.829C76.1308 22.7379 77.0279 27.2691 76.677 30.6196Z"></path>
<path fill="#8C8884" d="M89.9507 14.7422H90.5099C90.6364 14.8225 90.7713 14.8806 90.9218 14.8935C92.139 14.9975 93.4415 14.8872 94.6676 14.8718C95.8806 14.8566 97.0867 14.9169 98.298 14.9221C98.3775 14.8585 98.4228 14.8433 98.4454 14.7422H99.2138C99.6448 15.1466 99.7433 15.6421 99.7647 16.2166C99.7766 16.5532 99.6583 16.9322 99.4249 17.1812C99.1757 17.4481 98.824 17.524 98.4732 17.5297C97.8349 17.5403 97.1904 17.4201 96.6383 17.8175C96.4663 18.0244 96.4731 18.265 96.4608 18.5199C96.3934 19.9332 96.4553 21.3776 96.46 22.7935L96.4676 30.4127C96.4672 34.0122 96.2592 38.4899 96.5827 42.0003C96.7446 43.7594 97.0689 45.8384 98.5065 47.0349C99.2781 47.6675 100.269 47.9687 101.262 47.8725C102.334 47.7692 103.284 47.1356 103.955 46.3174C104.734 45.3681 105.134 44.0896 105.323 42.8929C105.671 40.6883 105.598 38.4133 105.599 36.188L105.602 28.2659V21.6239C105.603 20.5562 105.688 19.411 105.588 18.3504C105.571 18.1676 105.549 18.0015 105.448 17.8435C105.444 17.8391 105.438 17.8346 105.433 17.8302C104.517 17.1078 102.593 18.055 102.414 16.6263C102.354 16.1544 102.592 14.7845 102.58 14.7422H103.399C103.552 14.8371 103.713 14.9049 103.895 14.915C105.472 15.0026 107.096 14.8432 108.682 14.861C109.358 14.8686 110.415 15.0788 111.044 14.9314C111.104 14.9175 111.16 14.8926 111.214 14.8641L111.249 14.7422H112.101C112.551 15.2363 112.617 15.8111 112.588 16.4641C112.576 16.7344 112.488 17.0192 112.284 17.2067C111.391 18.0279 109.492 16.7865 109.394 18.5274C109.283 20.4702 109.358 22.4544 109.36 24.4011L109.371 34.9885C109.372 37.9644 109.518 40.9732 108.877 43.9007C108.446 45.8691 107.61 47.9535 106.08 49.3273C105.321 50.0097 104.309 50.5432 103.35 50.8926C103.03 51.0085 102.572 51.0563 102.311 51.2577H99.5266C99.4011 51.0281 98.0628 50.6224 97.723 50.4499C97.1368 50.1524 96.5851 49.8097 96.0877 49.378C95.1292 48.5453 94.4199 47.4143 93.9202 46.2568C93.379 45.0029 93.0689 43.5355 92.9105 42.179C92.6033 39.5478 92.7154 36.8386 92.7155 34.1936L92.7188 22.0962C92.719 21.033 92.9422 18.5967 92.4656 17.7466C91.7211 17.2487 90.6457 17.7985 89.9405 17.3531C89.783 17.2537 89.6686 17.0197 89.6293 16.8433C89.4786 16.1669 89.5817 15.324 89.9507 14.7422Z"></path>
<path fill="#8C8884" d="M114.506 14.7422H115.461C116.109 14.9871 122.353 15.059 122.941 14.9252C124.23 14.9481 125.752 15.115 127.014 14.9266C127.558 14.9418 129.533 15.1188 129.87 14.834C130.071 14.8649 130.347 14.8696 130.495 15.0192C130.633 15.1105 130.785 15.1633 130.82 15.3348C130.894 15.6946 130.607 16.3087 130.477 16.644C129.839 18.2852 129.12 19.9021 128.465 21.5384L121.513 38.8792L118.936 45.2929C118.597 46.1292 118.278 47.2822 117.769 48.0211C117.709 48.1095 117.641 48.192 117.565 48.2675C119.517 48.1538 121.481 48.1941 123.437 48.2047C124.357 48.2098 125.311 48.278 126.225 48.1783C126.489 48.1496 126.817 48.1123 126.997 47.908C128.33 46.3928 127.667 40.9647 129.377 40.8503C129.72 40.8274 130.6 41.0488 130.875 41.2495C131.051 41.6877 131.051 42.0682 130.884 42.509L130.218 47.8612C130.099 48.8018 130.076 49.9391 129.731 50.8284C129.658 51.0163 129.523 51.1359 129.368 51.2577H113.223C113.298 51.0338 113.037 50.0329 113.079 49.6273C113.146 48.9786 113.558 48.1818 113.796 47.5736C114.8 45.0171 125.774 18.28 125.769 17.7303C124.523 18.1086 120.029 17.6156 118.219 17.8614C117.914 17.9028 117.445 17.9767 117.257 18.2447C116.401 19.4653 117.143 23.3694 116.481 24.2078C116.348 24.3766 116.13 24.4543 115.923 24.4776C115.51 24.524 114.764 24.5439 114.434 24.2719C114.239 24.1112 114.171 23.7902 114.142 23.5501C113.996 22.3764 114.159 21.0761 114.206 19.8972C114.255 18.6412 114.244 17.3801 114.33 16.126C114.359 15.6962 114.549 15.1661 114.508 14.7616L114.506 14.7422Z"></path>
<path fill="#8C8884" d="M60.2863 14.7422H61.9206C63.5393 15.2182 64.7334 15.7648 65.9199 17.0033C65.9015 16.5333 65.7955 15.8019 66.1439 15.4255C66.3568 15.1956 66.6794 15.1357 66.9797 15.1312C67.3294 15.1259 67.8005 15.2092 68.0578 15.4663C68.1093 15.5177 68.1932 15.5993 68.2248 15.6648C68.3582 15.9408 68.6741 25.6988 68.666 26.5216C68.6634 26.7786 68.7107 27.192 68.5124 27.3846C68.2373 27.6515 67.8114 27.7873 67.4306 27.7776C67.1644 27.7709 66.8939 27.6787 66.7109 27.4797C65.7604 26.4459 66.4903 21.6174 63.6256 18.8762C62.9695 18.2485 62.1259 17.8061 61.2085 17.7569C60.432 17.7152 59.6898 17.9629 59.1118 18.4861C57.9836 19.5071 57.6479 21.1868 57.583 22.6469C57.4909 24.7209 58.8976 26.8627 60.2448 28.3286C61.6744 29.8843 63.3339 31.2131 64.8404 32.6904C67.6404 35.4364 69.4541 38.7998 69.2887 42.8214C69.189 45.2471 68.4154 47.6981 66.5845 49.3778C65.8894 50.0155 65.1133 50.5585 64.2142 50.8565C63.8668 50.9716 63.4277 51.0546 63.1209 51.2577H60.9726C59.1326 50.5383 57.8427 49.6764 56.4177 48.3241C56.3784 48.8345 56.3918 49.5148 56.1951 49.9843C56.0868 50.2426 55.9304 50.4927 55.6603 50.6015C55.1214 50.8187 54.4999 50.5508 54 50.3423V37.215C54.0503 37.1905 54.1015 37.1678 54.1534 37.1469C54.605 36.963 55.2276 36.7498 55.7035 36.9561C56.0187 37.0927 56.1865 37.3874 56.2824 37.705C56.4886 38.3877 56.45 39.1923 56.5149 39.9012C56.6513 41.391 56.9821 42.8844 57.548 44.2715C58.1464 45.738 59.225 47.3607 60.7418 47.994C61.5362 48.3259 62.4569 48.3662 63.2565 48.0289C64.2174 47.6235 64.8876 46.6537 65.2651 45.717C65.7246 44.5769 65.8893 43.2617 65.7614 42.0418C65.1023 35.7491 57.4151 32.9382 54.9997 27.2336C53.9839 24.8341 53.8183 21.5795 54.8068 19.1444C55.5335 17.3548 56.7655 15.9813 58.5827 15.2909C59.1426 15.0781 59.7346 14.9751 60.2863 14.7422Z"></path>
<path fill="#8C8884" d="M103.398 14.7422H111.248L111.214 14.8641C111.16 14.8926 111.103 14.9175 111.044 14.9314C110.415 15.0788 109.358 14.8686 108.681 14.861C107.096 14.8432 105.472 15.0026 103.895 14.915C103.713 14.9049 103.552 14.8371 103.398 14.7422Z"></path>
<path fill="#8C8884" d="M90.5117 14.7422H98.4472C98.4245 14.8433 98.3793 14.8585 98.2999 14.9221C97.0885 14.9169 95.8823 14.8566 94.6694 14.8718C93.4433 14.8872 92.1408 14.9975 90.9235 14.8935C90.7731 14.8806 90.6382 14.8225 90.5117 14.7422Z"></path>
<path fill="#8C8884" d="M115.457 14.7422H118.966C119.729 14.9525 122.585 14.6577 122.937 14.9252C122.349 15.059 116.105 14.9871 115.457 14.7422Z"></path>
<path fill="#8C8884" d="M118.965 14.7422H123.028C123.773 14.9402 126.692 14.6677 127.009 14.9266C125.746 15.115 124.225 14.9481 122.936 14.9252C122.583 14.6577 119.727 14.9525 118.965 14.7422Z"></path>
<path fill="#8C8884" d="M123.031 14.7422H127.08C127.859 14.9113 129.087 14.9591 129.868 14.834C129.53 15.1188 127.555 14.9418 127.011 14.9266C126.695 14.6677 123.776 14.9402 123.031 14.7422Z"></path>
<path fill="#8C8884" d="M127.078 14.7422H130.368L130.49 15.0192C130.341 14.8696 130.066 14.8649 129.865 14.834C129.085 14.9591 127.856 14.9113 127.078 14.7422Z"></path>
</g>
</svg>
