<svg xmlns="http://www.w3.org/2000/svg" fill="none" viewBox="0 0 60 60" height="60" width="60">
<path fill="#161616" d="M51.6182 42.0566V29.1797L30.7002 16.7842L10.5049 28.752C14.5485 31.1482 19.4294 34.0408 23.4229 36.4072C25.6024 37.6988 27.5175 38.8345 28.8877 39.6465C29.5724 40.0523 30.1215 40.3768 30.499 40.6006C30.6878 40.7124 30.8338 40.7999 30.9326 40.8584C30.982 40.8876 31.0197 40.9098 31.0449 40.9248C31.0576 40.9323 31.0678 40.9376 31.0742 40.9414C31.0772 40.9432 31.0795 40.9444 31.0811 40.9453L31.083 40.9463C31.4393 41.1574 31.5577 41.6183 31.3467 41.9746C31.1487 42.3086 30.7316 42.4331 30.3867 42.2734L30.3184 42.2373L30.3164 42.2363C30.3148 42.2354 30.3118 42.2333 30.3086 42.2314C30.3022 42.2277 30.2925 42.2221 30.2803 42.2148C30.255 42.1999 30.2172 42.1776 30.168 42.1484C30.0692 42.0899 29.923 42.0034 29.7344 41.8916C29.3568 41.6678 28.808 41.3424 28.123 40.9365C26.7528 40.1245 24.8377 38.9898 22.6582 37.6982C18.6792 35.3403 13.8192 32.4595 9.78418 30.0684V42.8213L11.4258 43.8066C11.7809 44.0197 11.8966 44.4808 11.6836 44.8359C11.4705 45.1911 11.0095 45.3068 10.6543 45.0938L8.28418 43.6709V28.3252L30.7012 15.041L53.1182 28.3252V42.0566C53.118 42.4706 52.7821 42.8065 52.3682 42.8066C51.9541 42.8066 51.6184 42.4707 51.6182 42.0566Z"></path>
<path fill="#D6CFC7" d="M16.2725 45.7911V12.8795L37.1382 1.19238L40.3786 2.66486L44.0778 4.38873L47.3483 5.96394V38.8755L26.1149 51.0466L16.2725 45.7911Z"></path>
<path fill="#57534E" d="M17.0225 45.3408L25.3652 49.7959V18.1055L22.5947 16.7207L17.0225 14.0664V45.3408ZM26.8652 18.0859V49.751L46.5986 38.4404V7.23145L26.8652 18.0859ZM24.541 16.0166L26.0977 16.7949L45.7109 6.00781L44.1006 5.23242L24.541 16.0166ZM21.2227 14.4062L22.9033 15.207L42.4219 4.44434L40.4121 3.50781L21.2227 14.4062ZM17.9033 12.8252L19.5703 13.6182L38.7285 2.73828L37.1729 2.03125L17.9033 12.8252ZM48.0986 39.3105L26.4883 51.6973L26.1279 51.9033L15.5225 46.2412V12.4395L15.9062 12.2256L37.1025 0.352539L40.6885 1.98242L40.6953 1.98535L44.3945 3.70898L44.4033 3.71289L48.0986 5.49316V39.3105Z"></path>
<path fill="#57534E" d="M37.6576 29.0347C38.0162 28.8278 38.3071 28.9955 38.3071 29.4097C38.3071 29.8238 38.0162 30.3275 37.6576 30.5347L29.4337 35.2827C29.075 35.4898 28.7842 35.3219 28.7842 34.9077C28.7842 34.4935 29.075 33.9898 29.4337 33.7827L37.6576 29.0347Z"></path>
<path fill="#57534E" d="M35.6016 33.7827C35.9602 33.5758 36.2511 33.7436 36.2511 34.1577C36.2511 34.5719 35.9602 35.0755 35.6016 35.2827L29.4337 38.8438C29.075 39.0509 28.7842 38.883 28.7842 38.4688C28.7842 38.0545 29.075 37.5509 29.4337 37.3438L35.6016 33.7827Z"></path>
<path fill="black" d="M38.9981 25.5179C39.6169 25.5294 40.3305 25.3018 41.1389 24.8351C41.9473 24.3683 42.6609 23.7719 43.2797 23.0459C43.8985 22.3083 44.3776 21.5016 44.7169 20.6257C45.0562 19.7499 45.2259 18.8625 45.2259 17.9636V14.5062C45.2259 13.6304 45.0562 12.9562 44.7169 12.4837C44.3776 11.9997 43.8985 11.7519 43.2797 11.7404C42.6609 11.7173 41.9473 11.9392 41.1389 12.4059C40.3305 12.8726 39.6169 13.4748 38.9981 14.2124C38.3893 14.9326 37.9152 15.7307 37.5759 16.6066C37.2365 17.4709 37.0669 18.341 37.0669 19.2169V22.6742C37.0669 23.5731 37.2365 24.2646 37.5759 24.7486C37.9152 25.2327 38.3893 25.4891 38.9981 25.5179ZM42.2916 21.1789C42.0022 21.7033 41.618 22.1038 41.1389 22.3803C40.6698 22.6512 40.2856 22.6944 39.9861 22.51C39.6967 22.3198 39.552 21.9251 39.552 21.3259V17.7475C39.552 17.1598 39.6967 16.6037 39.9861 16.0793C40.2856 15.5377 40.6698 15.1314 41.1389 14.8606C41.618 14.584 42.0022 14.5466 42.2916 14.7483C42.5911 14.9326 42.7408 15.3187 42.7408 15.9065V19.4848C42.7408 20.0841 42.5911 20.6488 42.2916 21.1789Z" clip-rule="evenodd" fill-rule="evenodd"></path>
<path fill="black" d="M34.5419 16.837C34.023 16.8139 33.4241 16.9983 32.7455 17.3902L28.4189 19.8881C28.369 19.9169 28.3241 19.9659 28.2842 20.035C28.2542 20.0869 28.2393 20.1416 28.2393 20.1993V31.8851C28.2393 31.9427 28.2542 31.9859 28.2842 32.0147C28.3241 32.0263 28.369 32.0176 28.4189 31.9888L30.5448 30.7614C30.5947 30.7326 30.6346 30.6923 30.6645 30.6404C30.7044 30.5713 30.7244 30.5079 30.7244 30.4503V26.2842C30.7244 26.2266 30.7494 26.1833 30.7993 26.1545L32.6257 25.1C33.3343 24.6909 33.9581 24.1752 34.497 23.5529C35.036 22.9306 35.4502 22.2477 35.7396 21.5044C36.039 20.7553 36.1887 20.0062 36.1887 19.2571C36.1887 18.4965 36.044 17.9116 35.7546 17.5025C35.4751 17.0761 35.0709 16.8543 34.5419 16.837ZM33.3293 22.0144C33.0798 22.4235 32.7504 22.7462 32.3412 22.9824L30.7993 23.8727C30.7494 23.9015 30.7244 23.8871 30.7244 23.8295V21.0982C30.7244 21.0405 30.7494 20.9973 30.7993 20.9685L32.3412 20.0782C32.7504 19.842 33.0798 19.7901 33.3293 19.9227C33.5888 20.0379 33.7186 20.3145 33.7186 20.7524C33.7186 21.1788 33.5888 21.5995 33.3293 22.0144Z" clip-rule="evenodd" fill-rule="evenodd"></path>
<path fill="#E0DCD8" d="M9.26289 28.8881L30.701 41.5922L52.1364 28.8897C52.2386 28.8292 52.3678 28.9028 52.3678 29.0216V42.0562V43.2464L30.701 56.086L11.0404 44.4501L9.03418 43.2464V42.0562V29.0216C9.03418 28.9028 9.16072 28.8276 9.26289 28.8881Z"></path>
<path fill="#161616" d="M51.6182 30.0679L31.4512 42.0181V54.7691L51.6182 42.8179V30.0679ZM9.78418 42.8208L11.4209 43.8042L29.9512 54.77V42.0191L9.78418 30.0679V42.8208ZM53.1182 43.6734L30.7012 56.9575L30.3193 56.731L10.6582 45.0952L10.6543 45.0933L8.28418 43.6704V29.021C8.28448 28.3901 8.93151 27.9324 9.52734 28.1831L9.64551 28.2427L30.7002 40.7202L51.7539 28.2447C52.3559 27.8879 53.1178 28.3214 53.1182 29.021V43.6734Z"></path>
<path fill="#161616" d="M44.8447 37.4461C45.2021 37.2367 45.6616 37.3573 45.8711 37.7147C46.0804 38.072 45.9608 38.5316 45.6035 38.7411L39.6758 42.2147C39.3184 42.4241 38.8588 42.3044 38.6494 41.9471C38.4402 41.5898 38.5607 41.1302 38.9179 40.9207L44.8447 37.4461Z"></path>
</svg>
