<svg xmlns="http://www.w3.org/2000/svg" fill="none" viewBox="0 0 61 61" height="61" width="61">
<path stroke-linecap="round" stroke-width="1.5" stroke="#161616" d="M9.4873 33.8591L31.1541 46.3831M9.4873 33.8591V43.093L31.1541 55.9326M9.4873 33.8591L31.1541 21.0195L52.821 33.5435M31.1541 46.3831V55.9326M31.1541 46.3831L52.821 33.5435M52.821 33.5435L52.821 43.093L31.1541 55.9326"></path>
<path fill="#D6CFC7" d="M46.4992 11.8842L46.4992 41.5217L31.1549 50.6146L15.8105 41.5217V16.9751L31.1549 2.79126L46.4992 11.8842Z"></path>
<path stroke-width="1.53273" stroke="#57534E" d="M15.8105 16.9751C21.8029 20.5261 31.1549 26.068 31.1549 26.068M15.8105 16.9751C15.8105 25.364 15.8105 41.5217 15.8105 41.5217L31.1549 50.6146M15.8105 16.9751C21.8029 11.436 31.1549 2.79126 31.1549 2.79126L46.4992 11.8842M31.1549 26.068V50.6146M31.1549 26.068L46.4992 11.8842M46.4992 11.8842L46.4992 41.5217L31.1549 50.6146"></path>
<path stroke-width="1.53273" stroke="black" d="M42.9376 25.5981V42.6938L35.1053 47.2158V30.1201L42.9376 25.5981Z"></path>
<path fill="#E0DCD8" d="M9.94726 34.1249L31.1541 46.3831L52.3581 33.8177C52.5625 33.6966 52.821 33.8439 52.821 34.0814L52.821 42.9182C52.821 43.0265 52.7638 43.1267 52.6707 43.1819L31.1541 55.9325L9.63757 43.1819C9.54442 43.1267 9.4873 43.0265 9.4873 42.9182V34.3903C9.4873 34.1543 9.74289 34.0068 9.94726 34.1249Z"></path>
<path stroke-linecap="round" stroke-width="1.5" stroke="#161616" d="M31.1541 46.3831L9.94726 34.1249C9.74289 34.0068 9.4873 34.1543 9.4873 34.3903V42.9182C9.4873 43.0265 9.54442 43.1267 9.63757 43.1819L31.1541 55.9325M31.1541 46.3831V55.9325M31.1541 46.3831L52.3581 33.8177C52.5625 33.6966 52.821 33.8439 52.821 34.0814L52.821 42.9182C52.821 43.0265 52.7638 43.1267 52.6707 43.1819L31.1541 55.9325"></path>
</svg>
