<svg xmlns="http://www.w3.org/2000/svg" fill="none" viewBox="0 0 248 80" height="80" width="248">
<g clip-path="url(#clip0_439_3019)">
<path fill="#8C8884" d="M122.293 32.4401C125.97 32.1703 129.604 33.3503 132.393 35.7192C138.999 41.2963 139.741 51.0137 134.06 57.4892C131.566 60.3616 127.998 62.1242 124.163 62.3783C124.097 62.3846 124.032 62.3898 123.965 62.3939C115.559 62.9062 108.751 56.0862 108.452 47.9969C108.158 40.0281 114.023 32.8979 122.293 32.4401ZM123.867 56.1756C126.041 55.9185 128.017 54.8108 129.348 53.1031C130.961 51.074 131.531 48.5655 131.209 46.0334C130.902 43.7323 129.681 41.6439 127.813 40.2233C126.343 39.0881 124.491 38.5384 122.627 38.6833C120.581 38.7896 118.702 39.8036 117.325 41.293C112.746 46.249 115.297 55.4536 122.49 56.1671C122.932 56.2109 123.419 56.1879 123.867 56.1756Z"></path>
<path fill="#8C8884" d="M92.6247 33.0433C93.3715 33.0373 94.388 33.075 95.1046 33.0263C98.622 32.787 98.0901 34.3168 98.0866 37.0912L98.0821 42.9632L98.0853 54.488C98.0862 56.4176 98.093 58.3639 98.0787 60.2936C98.0769 60.5397 97.9956 60.8567 97.8535 61.0573C97.5215 61.5256 97.1801 61.6183 96.6524 61.7398C96.6255 61.7417 96.5987 61.7434 96.5718 61.7447C95.308 61.8087 92.2405 62.0054 91.3474 61.2045C90.9939 60.4187 91.1131 56.3389 91.113 55.2181L91.1151 45.9486L91.1128 38.3482C91.1122 36.9793 91.0661 35.2262 91.1561 33.8852C91.2368 33.7783 91.3211 33.6742 91.4092 33.5731C91.7644 33.1709 92.1092 33.0794 92.6247 33.0433Z"></path>
<path fill="#8C8884" d="M93.5599 19.0484C95.8809 18.5263 98.1912 19.959 98.71 22.2422C99.2288 24.5254 97.7581 26.7875 95.4315 27.2849C93.1226 27.7785 90.8416 26.347 90.3267 24.0812C89.8119 21.8154 91.2566 19.5665 93.5599 19.0484Z"></path>
<path fill="#8C8884" d="M53.75 17.5H59.7758C60.1732 17.7282 60.7043 18.0738 60.7479 18.5457C60.8761 19.9328 60.8272 21.7754 60.8199 23.1727C60.8011 26.7496 60.8547 30.3399 60.8171 33.908C68.7311 30.545 77.2338 32.9338 80.7699 40.9877C82.5035 44.9966 82.5608 49.5151 80.9293 53.5651C79.487 57.1118 76.9901 59.9468 73.3802 61.4608C70.3522 62.7186 66.9421 62.755 63.8871 61.5621C62.4117 60.9779 60.3034 59.6895 59.2552 58.5219C58.6304 61.331 58.3614 62.1566 55.0979 61.708C54.437 61.6171 54.0912 61.2622 53.75 60.7324V17.5ZM60.7233 40.2935L60.7234 48.202C60.7225 49.2754 60.6595 50.858 60.7998 51.8881C60.8787 52.4674 61.7705 53.5656 62.2262 54.0098C63.6689 55.4219 65.6266 56.2083 67.6631 56.1938C68.323 56.1893 69.062 56.112 69.6806 55.8833C74.3585 54.4452 76.1924 48.7338 74.7845 44.4817C73.4507 40.4532 70.2982 38.4728 66.0674 38.69C64.1942 38.797 62.3572 39.4053 60.7233 40.2935Z"></path>
<path fill="#8C8884" d="M171.262 36.8881C171.608 36.4894 172.043 36.167 172.447 35.8329C179.224 30.2312 191.065 31.1412 193.185 40.813C193.385 41.7244 193.541 42.7238 193.749 43.6491V60.8784C193.181 61.7281 192.29 61.8408 191.316 61.7585C189.994 61.6467 186.902 62.3499 186.858 60.3364C186.827 58.9555 186.855 57.4723 186.855 56.0721L186.855 45.5569C186.837 43.667 186.375 41.4577 184.949 40.0958C182.908 38.1473 179.466 38.4051 177.052 39.5048C175.585 40.1732 174.585 41.0633 173.467 42.1858C173.536 42.5513 173.586 42.9201 173.615 43.2908C173.73 44.7526 173.699 46.316 173.699 47.7891L173.697 54.1148C173.687 55.3462 173.684 56.5776 173.69 57.8091C173.706 59.0345 174.18 61.8864 172.021 61.7513C170.586 61.6616 167.019 62.4126 166.971 60.3103C166.94 58.9724 166.944 57.5372 166.945 56.1735L166.95 49.153C166.95 47.7968 166.957 46.3787 166.925 45.0657C166.831 41.122 164.667 38.4185 160.382 38.6726C157.799 38.7713 154.985 40.4903 153.817 42.7584C153.622 43.1378 153.687 45.8199 153.688 46.412L153.695 55.7146C153.695 57.2042 153.723 58.7021 153.675 60.1909C153.644 61.1445 153.178 61.6746 152.198 61.7395C151.066 61.8061 149.932 61.7246 148.795 61.7668C147.776 61.8047 146.827 61.4033 146.797 60.2666C146.771 59.2819 146.796 58.2898 146.796 57.3056V50.9564V40.1599C146.796 38.1422 146.762 36.0388 146.815 34.0318C147.225 33.3235 147.569 33.1053 148.376 33.0384C151.805 32.7538 151.364 33.7465 152.336 36.3004C155.041 33.2748 159.524 32.0608 163.491 32.4826C167.154 32.8721 168.98 34.2117 171.262 36.8881Z"></path>
</g>
<defs>
<clipPath id="clip0_439_3019">
<rect transform="translate(53.75 17.5)" fill="white" height="45" width="140"></rect>
</clipPath>
</defs>
</svg>
