<svg xmlns="http://www.w3.org/2000/svg" fill="none" viewBox="0 0 60 60" height="60" width="60">
<path fill="#D6CFC7" d="M45.3327 22.7019V39.5617L30.6483 48.2636L15.9639 39.5617V22.7019L30.6483 14L45.3327 22.7019Z"></path>
<path fill="#57534E" d="M31.3984 44.0488V46.9463L33.9375 45.4434L34.7021 46.7334L30.6484 49.1357L26.5947 46.7334L27.3594 45.4434L29.8984 46.9473V44.0488H31.3984ZM16.7139 35.3467V39.1338L20.0176 41.0918L19.6348 41.7373L19.2529 42.3828L15.2139 39.9893V35.3467H16.7139ZM46.083 35.3467V39.9893L42.0439 42.3828L41.6611 41.7373L41.2793 41.0918L44.583 39.1338V35.3467H46.083ZM34.3193 29.2285L34.7021 29.873L31.3984 31.8301V35.6191H29.8984V31.8311L26.5947 29.873L26.9775 29.2285L27.3594 28.583L30.6475 30.5312L33.9375 28.583L34.3193 29.2285ZM19.6348 20.5264L20.0176 21.1719L17.4346 22.7012L20.0176 24.2324L19.6348 24.877L19.2529 25.5225L16.7139 24.0176V26.917H15.2139V22.2744L19.2529 19.8809L19.6348 20.5264ZM34.7021 15.5303L33.9375 16.8203L30.6475 14.8711L27.3594 16.8203L26.5947 15.5303L30.6484 13.1279L34.7021 15.5303ZM46.083 26.917H44.583V24.0166L42.0439 25.5225L41.2793 24.2324L43.8613 22.7012L41.2793 21.1719L41.6611 20.5264L42.0439 19.8809L46.083 22.2744V26.917Z"></path>
<path fill="#161616" d="M9.78418 42.8682L11.4209 43.8516L29.9512 54.8174V31.6836C29.8869 31.6455 29.8143 31.603 29.7344 31.5557C29.3568 31.3319 28.808 31.0065 28.123 30.6006C26.7528 29.7886 24.8377 28.6539 22.6582 27.3623C18.6792 25.0044 13.8192 22.1236 9.78418 19.7324V42.8682ZM31.4512 31.6826V54.8164L51.6182 42.8652V19.7314L31.4512 31.6826ZM10.5049 18.416C14.5485 20.8122 19.4294 23.7048 23.4229 26.0713C25.6024 27.3629 27.5175 28.4986 28.8877 29.3105C29.5725 29.7163 30.1215 30.0409 30.499 30.2646C30.5725 30.3082 30.64 30.3481 30.7002 30.3838L40.0635 24.8359L19.8672 12.8682L10.5049 18.416ZM21.3389 11.9961L41.5342 23.9639L50.8965 18.416L30.7002 6.44922L21.3389 11.9961ZM53.1182 43.7207L30.7012 57.0049L30.3193 56.7783L10.6582 45.1426L10.6543 45.1406L8.28418 43.7178V17.9893L30.7012 4.70508L53.1182 17.9893V43.7207Z"></path>
<path fill="#E6E3E0" d="M36.5176 35.8319V32.5689C36.5176 32.3493 36.6375 32.1473 36.8303 32.0422L46.4465 26.7972C46.8463 26.5792 47.3338 26.8686 47.3338 27.324V30.4996C47.3338 30.7177 47.2154 30.9186 47.0247 31.0244L37.4085 36.3567C37.0086 36.5784 36.5176 36.2892 36.5176 35.8319Z"></path>
<path fill="#161616" d="M37.2676 32.6584V35.5773L46.584 30.4103V27.5763L37.2676 32.6584ZM48.084 30.5002C48.0839 30.9907 47.8177 31.4429 47.3887 31.6808L37.7725 37.0129C36.8727 37.5118 35.7676 36.8611 35.7676 35.8322V32.5695C35.7676 32.0756 36.0372 31.6206 36.4707 31.3839L46.0869 26.1388L46.2578 26.0607C47.1196 25.7315 48.084 26.3636 48.084 27.3244V30.5002Z"></path>
</svg>
