<svg xmlns="http://www.w3.org/2000/svg" fill="none" viewBox="0 0 112 30" height="30" width="112">
<path fill="white" d="M31.3386 9.34912H35.3841L38.2051 21.3102H36.1824L35.5082 18.9801H31.1579L30.5457 21.3102H28.5176L31.3386 9.34912ZM31.522 17.0301H35.082L33.7335 11.264H32.9244L31.522 17.0301Z"></path>
<path fill="white" d="M45.2011 12.8443L45.1391 14.5623C45.1391 14.5623 43.7906 14.3789 43.1163 14.3789C41.3363 14.3789 40.9588 15.0532 40.9588 16.8925C40.9588 18.98 41.3255 19.6542 43.1703 19.6542C43.8445 19.6542 45.193 19.4708 45.193 19.4708L45.255 21.1861C44.3634 21.345 43.4626 21.4477 42.5581 21.4936C39.9204 21.4936 38.9414 20.1451 38.9414 16.8925C38.9414 13.826 39.9824 12.4775 42.6201 12.4775C43.4871 12.5307 44.3484 12.6534 45.1957 12.8443"></path>
<path fill="white" d="M53.8493 12.7148V21.302H51.8859V20.8732C51.169 21.2016 50.4025 21.4085 49.6177 21.4854C47.1041 21.4854 46.6133 20.1963 46.6133 17.1918V12.7148H48.574V17.1918C48.574 19.0312 48.698 19.7054 49.9845 19.7054C50.6261 19.6583 51.2598 19.5352 51.8724 19.3386V12.7148H53.8358"></path>
<path fill="white" d="M55.3809 21.3102V12.7149H57.3443V13.2058C57.8355 12.9729 58.3499 12.7921 58.8788 12.6664C59.1803 12.5937 59.4885 12.553 59.7985 12.545C60.158 12.5319 60.5165 12.5899 60.8534 12.7158C61.1904 12.8417 61.4991 13.033 61.7619 13.2786C62.7138 12.8634 63.7302 12.6152 64.7664 12.545C67.1586 12.545 67.7708 13.8315 67.7708 16.8386V21.3156H65.8101V17.5695C65.8101 15.2393 65.7481 14.3331 64.3996 14.3331C63.7515 14.3749 63.1142 14.5196 62.5117 14.762C62.606 15.4536 62.6466 16.1515 62.633 16.8494V21.3264H60.6723V16.8926C60.6723 15.0505 60.4862 14.3763 59.2618 14.3763C58.6348 14.422 58.0159 14.5461 57.4198 14.7458V21.3102H55.3916"></path>
<path fill="white" d="M75.9925 18.918C75.9925 19.5302 76.1759 19.7271 76.7288 19.7756L76.6668 21.4342C75.3183 21.4342 74.8274 21.2508 74.3366 20.822C73.4375 21.1839 72.4837 21.3909 71.5155 21.4342C69.8569 21.4342 69.002 20.3932 69.002 18.6752C69.002 16.8359 70.043 16.221 71.885 16.0376L74.0426 15.8542V15.3633C74.0596 15.1027 73.9727 14.846 73.8008 14.6494C73.629 14.4527 73.3862 14.3322 73.1256 14.3142C73.0628 14.3088 72.9997 14.3088 72.9369 14.3142C71.6477 14.3142 69.5629 14.4976 69.5629 14.4976L69.5009 12.839C70.6784 12.6466 71.8662 12.5241 73.0582 12.4722C74.9461 12.4722 76.0033 13.2678 76.0033 15.3552V18.918M72.1385 17.5695C71.4023 17.6315 70.9734 17.939 70.9734 18.6752C70.9734 19.4115 71.2782 19.781 71.8311 19.781C72.5623 19.745 73.2866 19.6219 73.9887 19.4142V17.4481L72.1385 17.5695Z"></path>
<path fill="white" d="M80.2242 14.4381V17.9442C80.2242 19.1093 80.2862 19.6028 81.1466 19.6028C81.6347 19.6028 82.5544 19.5408 82.5544 19.5408L82.6164 21.2588C82.0308 21.3837 81.4367 21.4658 80.8391 21.5042C78.8137 21.5042 78.2015 20.7679 78.2015 18.2678V14.4462H77.0957V12.7147H78.2015V10.2065H80.1703V12.7147H82.5005V14.492H80.2323"></path>
<path fill="white" d="M83.9043 9.22485H85.8677V11.3123H83.9043V9.22485ZM83.9043 12.7309H85.8677V21.3181H83.9043V12.7309Z"></path>
<path fill="white" d="M93.4733 12.8443L93.4113 14.5623C93.4113 14.5623 92.0628 14.3789 91.3859 14.3789C89.6086 14.3789 89.2283 15.0532 89.2283 16.8925C89.2283 18.98 89.5978 19.6542 91.4398 19.6542C92.1141 19.6542 93.4652 19.4708 93.4652 19.4708L93.5273 21.1861C92.6356 21.3449 91.7348 21.4476 90.8303 21.4936C88.1926 21.4936 87.2109 20.1451 87.2109 16.8925C87.2109 13.826 88.2547 12.4775 90.8923 12.4775C91.7587 12.5364 92.6196 12.659 93.4679 12.8443"></path>
<path fill="white" d="M101.262 18.918C101.262 19.5302 101.448 19.7271 101.998 19.7756L101.939 21.4342C100.591 21.4342 100.097 21.2508 99.6061 20.822C98.7071 21.1839 97.7532 21.3909 96.7851 21.4342C95.1264 21.4342 94.2715 20.3932 94.2715 18.6752C94.2715 16.8359 95.3125 16.221 97.1546 16.0376L99.3121 15.8542V15.3633C99.3292 15.1027 99.2422 14.846 99.0704 14.6494C98.8985 14.4527 98.6557 14.3322 98.3952 14.3142C98.3324 14.3088 98.2692 14.3088 98.2064 14.3142C96.9172 14.3142 94.8325 14.4976 94.8325 14.4976L94.7704 12.839C95.9479 12.6467 97.1358 12.5243 98.3277 12.4722C100.216 12.4722 101.273 13.2678 101.273 15.3552V18.918M97.4081 17.5695C96.6718 17.6315 96.243 17.939 96.243 18.6752C96.243 19.4115 96.5504 19.781 97.1006 19.781C97.8318 19.745 98.5562 19.6219 99.2582 19.4142V17.4481L97.4081 17.5695Z"></path>
<path fill="url(#paint0_linear_6536_101841)" d="M16.7425 8.00053C15.8678 7.98948 14.9995 8.15089 14.1872 8.47553C13.3749 8.80017 12.6345 9.28168 12.0084 9.89254C11.3822 10.5034 10.8826 11.2317 10.538 12.0357C10.1934 12.8397 10.0106 13.7038 10 14.5785V14.6243C10.0049 15.4991 10.1822 16.3644 10.5215 17.1707C10.8609 17.9771 11.3557 18.7086 11.9778 19.3237C12.5999 19.9388 13.337 20.4253 14.1472 20.7555C14.9573 21.0857 15.8245 21.2531 16.6993 21.2481H23.4876V14.6243C23.4565 12.8568 22.7324 11.1721 21.4713 9.93321C20.2102 8.69431 18.513 8.00026 16.7452 8.00053M19.3801 17.2593H16.7425C16.2207 17.2598 15.7104 17.1056 15.2763 16.8161C14.8422 16.5266 14.5037 16.1148 14.3037 15.6329C14.1036 15.151 14.051 14.6205 14.1525 14.1087C14.2539 13.5969 14.5049 13.1266 14.8737 12.7575C15.2425 12.3883 15.7125 12.1369 16.2242 12.0349C16.7359 11.9329 17.2664 11.9849 17.7485 12.1845C18.2306 12.3841 18.6428 12.7221 18.9327 13.1559C19.2226 13.5898 19.3774 14.0998 19.3774 14.6216L19.3801 17.2593Z"></path>
<defs>
<linearGradient gradientUnits="userSpaceOnUse" y2="21.323" x2="17.4019" y1="9.68957" x1="10.8987" id="paint0_linear_6536_101841">
<stop stop-color="#33CCFF"></stop>
<stop stop-color="#33CCFF" offset="1"></stop>
</linearGradient>
</defs>
</svg>
