<svg xmlns="http://www.w3.org/2000/svg" fill="none" viewBox="0 0 248 80" height="80" width="248">
<g clip-path="url(#clip0_439_2961)">
<path fill="#8C8884" d="M143.223 25.0801C145.607 24.968 149.058 25.0574 151.459 25.0808C149.737 27.3904 150.134 30.7044 150.133 33.4574L150.134 41.4108L150.135 47.52C150.134 49.9505 149.893 51.8058 150.968 54.0534L151.48 54.7989C148.742 54.8304 145.956 54.8058 143.215 54.8072C143.191 53.5089 143.187 52.1779 143.203 50.8791C143.305 42.2978 143.052 33.6555 143.223 25.0801Z"></path>
<path fill="#8C8884" d="M125.119 25.0861C127.57 25.0043 130.287 25.0623 132.758 25.0657C133.417 26.7904 134.051 28.7763 134.678 30.5451L140.158 46.0457L137.288 51.7404L135.687 54.7844C134.723 52.4134 133.839 49.6423 132.97 47.2048C131.473 43.1056 130.009 38.9951 128.576 34.8739C127.548 31.8924 125.946 28.0026 125.119 25.0861Z"></path>
<path fill="#8C8884" d="M181.93 25.3771C182.007 25.6948 181.993 27.73 181.992 28.1597L181.981 34.1988L185.386 34.2152L185.387 36.2796L181.982 36.2966L181.979 44.9589C181.978 47.4388 181.833 50.0313 182.452 52.4537C182.751 53.6311 183.209 53.9155 184.188 54.5858L180.885 54.6022C179.375 54.5957 177.067 54.96 175.909 53.8688C175.659 53.6339 175.321 53.074 175.299 52.7378C175.175 50.8374 175.248 48.9016 175.247 46.9918L175.249 34.2053C177.503 31.4223 179.643 28.234 181.93 25.3771Z"></path>
<path fill="#8C8884" d="M193.434 25.4669C193.662 25.9729 193.55 33.1572 193.539 34.2009L197.048 34.2151L197.039 36.2793L193.545 36.2936C193.61 41.3438 193.304 46.7268 193.874 51.7483C194.031 53.1412 194.671 53.8192 195.823 54.5843L193.098 54.6019C191.565 54.585 188.772 54.9913 187.593 53.922C187.342 53.6944 186.992 53.1627 186.966 52.8264C186.806 50.7733 186.87 48.668 186.871 46.6042C186.858 42.4801 186.867 38.3559 186.897 34.2319C189.019 31.2912 191.263 28.3847 193.434 25.4669Z"></path>
<path fill="#8C8884" d="M78.2607 33.7251C83.869 33.4317 83.868 37.6291 83.8546 41.7843L83.8385 47.8002C83.834 50.3063 83.5652 52.5363 85.1207 54.6986L79.8048 54.706L77.155 54.7063L77.158 44.8171C77.1581 43.0153 77.6117 39.0718 76.1551 37.7454C75.0702 36.7576 73.9513 38.1191 73.6758 38.1508C73.8326 35.5475 75.7479 34.0483 78.2607 33.7251Z"></path>
<path fill="#8C8884" d="M89.1397 33.7213C94.3551 33.4423 94.5825 37.1537 94.5755 41.1015L94.5576 47.237C94.5519 50.0545 94.2482 52.2085 95.8957 54.6944C94.2154 54.7241 92.463 54.7026 90.7768 54.706L87.9701 54.7136C87.8792 50.0035 88.0386 45.2625 87.9512 40.5457C87.9149 38.5837 86.7661 36.1362 84.6038 38.0877L84.5137 38.0475C84.5831 35.4694 86.6957 33.9981 89.1397 33.7213Z"></path>
<path fill="#8C8884" d="M103.62 34.0049L103.754 34.0273C103.63 34.4246 102.856 35.653 102.718 36.4146C102.106 40.0039 102.232 44.3374 104.039 47.6012C105.83 50.8382 109.654 51.9704 112.936 50.1729C112.844 50.4246 112.739 50.672 112.624 50.9142C111.711 52.8262 109.795 54.0533 107.83 54.7511L107.812 54.7553C94.8214 57.7963 92.0828 36.864 103.62 34.0049Z"></path>
<path fill="#8C8884" d="M203.584 34.1025C203.624 34.099 203.781 34.127 203.832 34.1348C203.514 34.7005 202.875 36.0125 202.773 36.6302C201.969 41.5379 202.456 49.7016 208.621 50.9576C210.304 51.3003 211.611 51.155 213.019 50.204C212.933 50.4695 212.832 50.73 212.716 50.984C211.77 53.0131 209.926 54.096 207.885 54.8438C195.022 57.8413 192.181 37.1791 203.584 34.1025Z"></path>
<path fill="#8C8884" d="M160.272 33.819C160.34 33.8096 160.407 33.8026 160.475 33.7978C160.888 33.768 162.08 33.8338 162.418 34.1177C162.318 34.3046 162.315 34.3706 162.123 34.4289C161.371 34.6578 160.81 35.9593 160.592 36.7346C159.547 40.6886 159.371 45.6089 161.12 49.3926C161.815 50.8972 163.003 51.4083 164.532 50.6187C163.9 52.9603 162.801 54.1537 160.478 54.9493L160.412 54.9589C155.408 55.6491 153.401 50.4918 153.108 46.4766C152.734 41.3418 154.021 34.6794 160.272 33.819Z"></path>
<path fill="#8C8884" d="M54.7773 34.2321C57.3786 34.1684 60.0987 34.2105 62.7087 34.2159C62.849 40.6868 62.762 48.0898 62.7098 54.5762C60.6077 54.6512 58.1774 54.5912 56.0512 54.5875C55.9779 49.6457 56.0929 44.6807 56.0457 39.7357C56.0222 37.2699 56.0973 36.4138 54.7773 34.2321Z"></path>
<path fill="#8C8884" d="M38.1299 34.2677C40.3102 34.2288 42.5865 34.2642 44.774 34.2679C44.8379 37.1832 44.7887 40.2787 44.7894 43.2137C44.8046 47.0179 44.7962 50.8222 44.7641 54.6265L43.6144 54.6315C41.3451 54.6426 39.0758 54.6359 36.8066 54.6113C38.5385 52.3996 38.1274 48.3271 38.1258 45.5915L38.1299 34.2677Z"></path>
<path fill="#8C8884" d="M64.8301 34.2346C67.4202 34.1602 70.1912 34.2105 72.7945 34.215L72.79 54.589L66.1465 54.5879C66.1075 50.736 66.211 46.8675 66.1497 43.0186C66.1007 39.9491 66.6384 36.9036 64.8301 34.2346Z"></path>
<path fill="#8C8884" d="M215.914 34.298L222.522 34.2998C222.625 40.9976 222.538 47.9624 222.524 54.6789L221.31 54.6802C219.15 54.6836 216.743 54.7337 214.605 54.639C215.825 52.9683 215.879 51.6605 215.9 49.6864C215.953 44.5646 215.806 39.4165 215.914 34.298Z"></path>
<path fill="#8C8884" d="M164.49 34.2448C166.554 34.0945 170.113 34.2107 172.276 34.2166L172.274 54.6022L165.677 54.6021C165.615 50.7067 165.739 46.791 165.676 42.8974C165.628 39.8952 166.12 36.9223 164.49 34.2448Z"></path>
<path fill="#8C8884" d="M26.6861 24.8862C30.1099 25.1111 33.9952 26.0229 35.5235 29.3171C37.6024 33.7978 36.7163 39.0903 32.0826 41.4457C29.7566 42.5207 27.8233 42.56 25.3223 42.7193C26.3726 42.4415 27.3224 42.1142 27.8854 41.0968C29.5954 38.0066 29.9749 26.7565 26.6861 24.8862Z"></path>
<path fill="#8C8884" d="M105.42 33.7866C106.536 33.8514 107.579 33.9113 108.653 34.249C113.135 35.6583 114.898 39.4853 113.518 43.7997L110.085 43.7928C108.248 43.7972 105.882 43.6964 104.092 43.8089C104.413 43.6927 104.729 43.5643 105.04 43.424C106.299 42.851 107.068 42.1172 107.532 40.8129C108.373 38.4463 108.231 34.7797 105.42 33.7866Z"></path>
<path fill="#8C8884" d="M205.806 33.896C211.796 34.2316 215.289 37.8809 213.638 43.8325L210.429 43.8359L204.242 43.8291C204.256 43.8256 204.271 43.822 204.284 43.8184C208.782 42.6539 209.385 35.9255 205.806 33.896Z"></path>
<path fill="#8C8884" d="M49.4976 33.1047C50.3938 33.0429 51.1681 33.0788 52.0008 33.4562C52.8258 33.821 53.4651 34.498 53.7731 35.3331C54.0987 36.2001 54.0552 37.1593 53.6523 37.9945C52.9101 39.5444 51.195 40.4406 49.537 39.6686C47.6785 38.3586 47.688 37.6119 45.6452 39.4823C45.5947 36.5992 46.2553 33.755 49.4976 33.1047Z"></path>
<path fill="#8C8884" d="M126.078 37.1545C126.408 37.8166 126.463 41.3049 126.614 42.2359C127.154 45.5761 126.791 52.8338 130.042 54.7824C128.793 54.8157 127.484 54.8027 126.229 54.8088C124.924 54.8114 123.618 54.8037 122.312 54.7855C123.014 54.1969 123.61 53.6205 123.922 52.7434C125.545 48.1576 125.515 41.9895 126.078 37.1545Z"></path>
<path fill="#8C8884" d="M58.7704 25.3558C60.6567 25.0214 62.4603 26.256 62.7922 28.1087C63.1241 29.9614 61.8577 31.7257 59.9684 32.0427C58.0916 32.3577 56.3083 31.1248 55.9786 29.2844C55.6489 27.4439 56.8968 25.688 58.7704 25.3558Z"></path>
<path fill="#8C8884" d="M15.707 24.8869C18.8394 24.8872 22.0982 24.8481 25.2202 24.9029C24.1644 25.6009 23.5965 26.2568 23.3884 27.5268C22.8991 30.5129 23.1111 33.8481 23.0655 36.8705C22.9769 42.745 23.184 48.7823 23.0561 54.6364L15.707 54.6308V24.8869Z"></path>
<path fill="#8C8884" d="M223.453 39.5686C223.538 36.1162 224.596 32.0427 229.449 33.3477C230.633 33.666 231.312 34.7063 231.794 35.7637V37.2699C231.549 37.9495 231.22 38.6652 230.643 39.1404C226.904 42.2213 226.791 36.1228 223.453 39.5686Z"></path>
</g>
<defs>
<clipPath id="clip0_439_2961">
<rect transform="translate(15.707 22.5)" fill="white" height="35" width="216.087"></rect>
</clipPath>
</defs>
</svg>
