<svg xmlns="http://www.w3.org/2000/svg" fill="none" viewBox="0 0 112 30" height="30" width="112">
<g clip-path="url(#clip0_6536_101811)">
<path fill="white" d="M52.6251 6.63843C56.2722 6.63843 58.3209 8.84915 58.7935 11.6688H54.4261C54.1785 10.9244 53.5482 10.4507 52.6251 10.4507C51.0493 10.4507 50.1713 11.8718 50.1713 13.7892C50.1713 15.6841 51.0493 17.1277 52.6251 17.1277C53.5482 17.1277 54.1785 16.6541 54.4261 15.8871H58.7935C58.3209 18.7293 56.2722 20.9401 52.6251 20.9401C48.5953 20.9401 45.7812 17.9399 45.7812 13.7892C45.7812 9.63867 48.5953 6.63843 52.6251 6.63843Z" clip-rule="evenodd" fill-rule="evenodd"></path>
<path fill="white" d="M62.1016 20.7145H66.4691V6.86401H62.1016V20.7145Z" clip-rule="evenodd" fill-rule="evenodd"></path>
<path fill="white" d="M82.7191 20.7145H79.1395L74.0966 13.7892V20.7145H69.8867V6.86401H73.9615L78.5092 13.3156V6.86401H82.7191V20.7145Z" clip-rule="evenodd" fill-rule="evenodd"></path>
<path fill="white" d="M92.106 20.7145H87.716L91.318 10.586H85.9375V6.86401H95.9777V9.68369L92.106 20.7145Z" clip-rule="evenodd" fill-rule="evenodd"></path>
<path fill-opacity="0.5" fill="white" d="M24.1051 24.9666L26.302 26.0267L26.9414 26.3351L23.5749 11.5576H21.0508L24.1051 24.9666Z" clip-rule="evenodd" fill-rule="evenodd"></path>
<path fill-opacity="0.5" fill="white" d="M18.431 22.2295L21.2673 23.5981L18.5247 11.5576H16.0001L18.431 22.2295Z" clip-rule="evenodd" fill-rule="evenodd"></path>
<path fill-opacity="0.5" fill="white" d="M30.2041 18.5032L28.6218 11.5576H26.0977L28.9419 24.0442L30.2041 18.5032Z" clip-rule="evenodd" fill-rule="evenodd"></path>
<path fill="white" d="M33.1944 24.6046L30.7344 25.7917L35.4387 5.1394L37.1412 7.27772L33.1944 24.6046Z" clip-rule="evenodd" fill-rule="evenodd"></path>
<path fill="white" d="M38.1145 22.2296L35.6523 23.4177L38.8415 9.41699L40.5455 11.5579L38.1145 22.2296Z" clip-rule="evenodd" fill-rule="evenodd"></path>
<path fill="white" d="M22.8112 3L21.1084 5.13936H31.058L30.5707 7.27872H19.4057L17.703 9.41824H30.0834L29.5961 11.5576H16L16.4873 13.697H29.1087L26.3002 26.0266L28.2731 26.9786L33.7352 3H22.8112Z" clip-rule="evenodd" fill-rule="evenodd"></path>
</g>
<defs>
<clipPath id="clip0_6536_101811">
<rect transform="translate(16 3)" fill="white" height="24" width="80"></rect>
</clipPath>
</defs>
</svg>
