<svg xmlns="http://www.w3.org/2000/svg" fill="none" viewBox="0 0 248 80" height="80" width="248">
<path fill="#8C8884" d="M116.452 26.2713C116.52 26.2526 116.589 26.2366 116.659 26.2325C124.228 25.7931 124.711 38.5966 117.502 39.0426C117.464 39.0506 117.414 39.063 117.375 39.0662C111.624 39.5512 109.674 32.373 112.545 28.3908C113.55 26.9967 114.863 26.4944 116.452 26.2713ZM117.5 37.724C122.432 37.1621 122.232 27.019 116.543 27.63C113.488 28.042 112.612 31.0693 112.966 33.753C113.319 36.428 114.783 37.7872 117.5 37.724Z"></path>
<path fill="#8C8884" d="M40.1334 45.6916C42.8219 45.6248 45.6478 45.6918 48.3462 45.6641C49.5101 45.6522 52.5285 45.596 53.5449 45.791C53.7531 46.0382 54.1034 46.5244 54.1327 46.8347C54.2598 48.1812 54.2081 49.7678 54.2069 51.1236L54.2135 60.0375C53.2588 59.9793 52.5574 59.942 51.5926 59.9799C51.6178 59.4874 51.6313 58.9629 51.6187 58.47C51.5491 55.7335 51.7361 52.8827 51.543 50.1557C51.3508 50.3824 51.1578 50.5603 50.9435 50.7643C49.0903 52.6331 47.3645 54.9866 45.2282 56.6488C45.0982 56.75 44.8837 56.8785 44.7172 56.8629C44.2626 56.8204 43.2386 55.7379 42.9987 55.3914C42.99 55.3319 42.9795 55.2605 42.9674 55.1772C44.2198 53.3086 48.5065 49.8347 49.6227 48.2743C46.5245 48.3481 42.9495 48.3397 39.8294 48.308C39.8293 47.7588 39.6974 45.9863 40.1334 45.6916Z"></path>
<path fill="#8C8884" d="M65.4931 45.7712C66.9342 45.6869 68.866 45.7438 70.3359 45.745L78.9668 45.7575C79.0573 46.638 79.0554 47.4548 79.0515 48.3386C75.7953 48.3087 72.539 48.2989 69.2828 48.3092C70.8338 50.1677 74.1735 53.3462 76.0003 55.1608C75.5035 55.9462 75.1647 56.1917 74.5332 56.8565L74.4128 56.955L74.2218 56.9357C73.6022 56.5334 67.8004 50.6813 67.3636 50.0285C67.366 53.4034 67.1293 56.5027 67.3956 59.9352C66.521 59.8702 65.4999 59.8999 64.5812 59.8508C64.5558 59.3926 64.569 57.4681 64.6272 57.056C64.9212 54.9743 63.8482 46.5963 65.4931 45.7712Z"></path>
<path fill="#8C8884" d="M65.0187 21.0646C65.815 21.0536 66.5789 21.0403 67.376 21.0757C67.2166 21.9672 67.2602 23.4134 67.2614 24.3643L67.3284 30.7327C67.7545 30.783 72.8899 25.1033 73.7593 24.4314C73.9552 24.2799 74.0866 24.202 74.3356 24.1936C74.8384 24.4657 75.5882 25.2963 76.0188 25.732C75.3806 26.936 73.3017 28.6344 72.2609 29.7202C71.5075 30.5063 70.3525 31.7646 69.5561 32.4716L69.4133 32.5989C69.7334 33.101 77.8353 32.4728 78.8209 32.8404C79.2636 33.0055 79.1094 34.9372 78.9751 35.2543C78.3076 35.6308 67.9781 35.2573 66.4068 35.3303C66.1015 35.3445 65.2269 35.115 64.9579 34.8598C64.602 33.8055 64.8803 26.4067 64.7996 24.8874C64.7576 24.0961 64.8615 22.4235 64.7864 21.5293C64.7633 21.2545 64.8558 21.2115 65.0187 21.0646Z"></path>
<path fill="#8C8884" d="M51.6868 21.1255C52.515 21.1278 53.3648 21.1089 54.1948 21.1003L54.2056 29.432C54.2065 30.8563 54.2463 32.3059 54.1704 33.7264C54.0469 35.0239 53.7641 35.1859 52.5435 35.2135C48.3212 35.3091 44.0644 35.0962 39.8494 35.2765C39.8048 34.5546 39.85 33.4836 39.8597 32.7367C40.5079 32.7039 41.6486 32.7697 42.3516 32.773L47.9342 32.7743C48.6409 32.8183 49.001 32.7772 49.7057 32.7025C48.2885 31.1893 46.6834 29.7043 45.234 28.2047C44.4092 27.3511 43.6003 26.6636 42.8742 25.7144C43.3902 25.2172 43.9916 24.3377 44.6058 24.1931C45.0743 24.3091 50.8142 30.1278 51.6117 30.9352C51.6813 28.7598 51.5874 26.5062 51.6121 24.3242C51.6217 23.4783 51.5619 21.9271 51.6868 21.1255Z"></path>
<path fill="#8C8884" d="M129.727 26.2727C131.684 25.7878 133.271 27.1429 134.246 28.6562C135.779 26.6713 137.149 25.8832 139.831 26.3572C140.797 26.5278 141.622 27.2281 142.132 28.0322C142.495 28.6051 142.675 29.3703 142.765 30.0446C142.876 31.2481 142.987 37.9905 142.8 38.758C142.429 39.075 141.756 38.9424 141.239 38.9084C140.943 35.9176 141.538 32.5222 140.992 29.5412C140.564 27.2073 137.303 27.0755 135.894 28.5885C134.302 30.3006 134.514 32.9263 134.528 35.0813C134.531 35.755 134.636 38.6199 134.363 38.9188C133.975 39.0245 133.412 38.9504 132.998 38.9197C132.87 36.4867 133.019 34.0361 132.945 31.6006C132.917 30.7104 132.755 29.5556 132.345 28.7664C131.87 27.8525 130.82 27.5454 129.846 27.5918C128.481 27.6622 127.273 28.4999 126.733 29.7525C125.952 31.5847 126.394 38.5263 126.047 38.9049C125.639 39.0113 125.065 38.9455 124.632 38.9188C124.525 35.811 124.635 32.6455 124.598 29.5326C124.586 28.539 124.598 27.4905 124.654 26.5011C125.184 26.4814 125.688 26.4887 126.217 26.4957C126.268 27.1788 126.183 27.8754 126.123 28.5587C126.253 28.3631 126.387 28.1697 126.524 27.9784C127.343 26.8414 128.427 26.4864 129.727 26.2727Z"></path>
<path fill="#8C8884" d="M202.715 26.2756C203.66 26.0051 205.214 26.4986 205.983 27.0782C207.238 28.0236 207.943 29.397 208.141 30.9371C208.211 31.4756 208.382 32.2888 208.05 32.7436C207.628 32.974 200.456 32.878 199.275 32.8914C199.308 35.7012 200.718 38.1625 203.959 37.7159C205.018 37.57 205.806 36.8422 206.273 35.906L206.296 35.8618C206.925 34.6734 209.184 35.1369 207.359 37.234C204.172 40.8968 198.126 39.0097 197.715 34.0149C197.404 30.2176 198.326 26.7765 202.715 26.2756ZM199.25 31.4305L203.346 31.4084C204.18 31.4022 205.803 31.4319 206.578 31.3629C206.12 29.1768 205.401 27.2579 202.667 27.6257C200.276 28.0032 199.761 29.2742 199.25 31.4305Z"></path>
<path fill="#8C8884" d="M150.638 26.2722C151.064 26.1195 152.267 26.2686 152.711 26.4624C153.955 27.0047 154.454 27.494 154.978 28.6559C155.364 28.2753 155.7 27.8263 156.104 27.4448C157.751 25.8891 160.977 25.7103 162.552 27.4681C163.235 28.2203 163.734 29.5723 163.719 30.5996C163.679 33.3177 163.845 36.2182 163.706 38.9185C163.271 38.9661 162.62 38.9432 162.167 38.9403C162.057 36.1097 162.286 33.2538 162.021 30.4402C161.865 28.7901 160.959 27.5642 159.194 27.5685C158.269 27.5618 157.38 27.9275 156.729 28.5829C155.121 30.2054 155.358 33.0204 155.37 35.123L155.37 38.9425C154.894 38.9587 154.293 38.9413 153.807 38.9396C153.737 37.1601 153.808 35.3884 153.783 33.605C153.76 31.9545 153.988 29.5729 152.792 28.2739C151.733 27.1225 149.454 27.4918 148.45 28.55C146.844 30.241 147.074 32.925 147.08 35.0771L147.094 38.9356C146.594 38.967 145.985 38.9384 145.477 38.9276C145.351 36.6528 145.489 33.9098 145.436 31.5969C145.415 30.6549 145.377 27.4558 145.507 26.709C145.898 26.3585 146.538 26.4709 147.091 26.4876C147.112 27.0948 147.085 27.7028 147.01 28.3059C148.452 27.0476 148.399 26.5699 150.638 26.2722Z"></path>
<path fill="#8C8884" d="M171.027 26.2704C172.353 25.9184 174.185 26.6764 175.068 27.6801C176.459 29.2629 176.639 30.9045 176.575 32.8747C175.612 32.9157 174.273 32.8654 173.284 32.8624C171.419 32.862 169.555 32.8717 167.69 32.8916C167.814 34.5775 168.01 36.2455 169.616 37.1975C171.235 38.1575 173.506 37.9329 174.522 36.2407C175 35.1257 175.522 35.3101 176.61 35.3096C176.43 35.9331 176.119 36.6817 175.749 37.2066C175.067 38.163 174.029 38.8073 172.867 38.9958C169.496 39.5691 166.68 37.7653 166.192 34.3239C165.652 30.5163 166.689 26.9228 171.027 26.2704ZM167.758 31.4589C169.146 31.3922 170.49 31.408 171.879 31.4168C172.781 31.4157 174.094 31.4528 174.965 31.3814C174.857 30.6011 174.752 30.1013 174.423 29.3586C173.903 28.1856 172.462 27.2998 171.148 27.6318C168.7 27.9889 168.177 29.2137 167.758 31.4589Z"></path>
<path fill="#8C8884" d="M171.184 46.8859C175.441 46.7496 176.644 49.8456 176.616 53.5044C175.656 53.5323 174.429 53.4667 173.428 53.4553C171.507 53.4277 169.586 53.4427 167.665 53.5006C167.863 55.2297 168.051 57.024 169.808 57.9345C171.323 58.7191 173.699 58.4475 174.538 56.7992C174.96 55.6629 175.58 55.8661 176.581 55.9755C175.976 58.1169 174.733 59.368 172.461 59.6392C168.888 60.0652 166.444 57.8813 166.132 54.3654C165.804 50.672 166.985 47.3345 171.184 46.8859ZM167.754 52.0573C169.107 52.0427 170.461 52.0382 171.815 52.0438L174.998 52.041C174.605 49.9879 173.682 47.7283 171.081 48.2484C168.871 48.5027 168.015 50.0254 167.754 52.0573Z"></path>
<path fill="#8C8884" d="M116.241 46.8914C116.406 46.8872 116.57 46.8868 116.735 46.8902C120.67 46.979 121.707 50.1749 121.627 53.4963C118.775 53.446 115.581 53.3801 112.747 53.4826C112.898 56.4124 114.031 58.8629 117.631 58.2331C118.608 58.0622 119.187 57.4338 119.675 56.6179C120.036 55.6874 120.728 55.8806 121.569 55.9119C120.329 61.7102 111.517 60.604 111.178 54.54C110.964 50.7036 111.762 47.3868 116.241 46.8914ZM112.748 52.031C114.076 52.048 115.404 52.0521 116.731 52.043L120.054 52.0351C119.668 49.7683 118.758 47.8462 116.056 48.2456C113.761 48.6217 113.204 49.9483 112.748 52.031Z"></path>
<path fill="#8C8884" d="M102.77 21.3421C102.793 21.338 102.817 21.3339 102.84 21.3298C105.771 21.1943 108.499 22.833 109.388 25.6882C109.541 26.1813 109.634 26.5059 109.269 26.9118C108.872 27.0347 108.253 26.9797 107.821 26.965C107.312 23.928 105.064 22.6541 102.108 22.926C96.8289 23.4116 95.5454 30.1332 97.4674 34.1812C98.8685 37.132 102.45 38.3904 105.352 36.9436C106.792 36.4993 107.471 34.8854 107.885 33.6006C108.308 33.5709 108.92 33.4984 109.317 33.589C109.959 34.3278 108.623 36.4461 108.067 37.0435C105.46 39.8465 100.333 39.7305 97.5922 37.1801C94.0284 33.864 93.9931 26.9738 97.3076 23.478C98.8586 21.8489 100.61 21.4093 102.77 21.3421Z"></path>
<path fill="#8C8884" d="M94.3424 42.1286C94.7003 42.115 95.9691 41.977 96.1485 42.342C98.2745 46.669 100.079 51.1806 102.144 55.5419C102.327 55.9279 102.725 57.0278 102.913 57.2856C103.333 57.0432 104.589 53.8271 104.858 53.1966L108.197 45.2839C108.334 44.9581 108.474 44.6045 108.614 44.2801C109.551 42.1078 109.178 42.016 111.577 42.134C111.397 42.6226 111.11 43.2369 110.896 43.7261C110.421 44.661 109.859 46.0564 109.426 47.0461L106.334 54.194C105.597 55.9179 104.809 57.8605 103.96 59.5158C103.384 59.5392 102.673 59.5201 102.086 59.5199C101.438 58.5524 94.3223 42.7231 94.301 42.3367C94.2981 42.2834 94.3315 42.1836 94.3424 42.1286Z"></path>
<path fill="#8C8884" d="M145.528 47.1332C146.154 47.0838 146.501 47.0883 147.126 47.1157C147.212 49.0151 147.156 51.0227 147.158 52.9339C147.161 55.1969 146.688 58.068 149.81 58.3429C151.731 58.6216 153.61 57.0614 153.905 55.1513C154.294 52.6363 154.009 49.7292 154.152 47.1402C154.651 47.0804 155.283 47.1022 155.794 47.1048L155.792 50.6468L155.805 55.9536C155.809 56.781 155.869 58.6578 155.722 59.3757C155.406 59.6607 154.56 59.5505 154.104 59.5319C154.044 58.7769 154.079 58.0957 154.123 57.3421C152.317 59.7014 150.841 60.0991 148.163 59.4512C144.819 58.6422 145.451 54.0532 145.453 51.5597C145.455 50.4938 145.333 47.7153 145.528 47.1332Z"></path>
<path fill="#8C8884" d="M130.05 46.8854C134.484 46.6385 135.189 49.9856 134.976 53.5778C134.866 55.4393 135.179 57.7061 134.915 59.5267C134.471 59.5558 133.748 59.5381 133.282 59.5395C133.063 57.2122 133.698 51.3982 132.811 49.6541C132.496 49.0345 132.002 48.5504 131.331 48.3353C130.478 48.062 129.236 48.2008 128.444 48.6059C128.105 48.7927 127.929 48.9405 127.648 49.2106C127.169 49.6628 126.811 50.2271 126.607 50.8522C126.01 52.6628 126.249 57.3494 126.21 59.5138C125.703 59.5697 125.135 59.5371 124.621 59.5222C124.593 56.9278 124.583 54.3333 124.589 51.7388C124.589 50.5795 124.53 48.1749 124.714 47.1478C126.617 46.9598 126.292 47.5479 126.175 49.2055C127.167 47.5788 128.193 47.1062 130.05 46.8854Z"></path>
<path fill="#8C8884" d="M182.614 46.8878C183.735 46.8141 184.435 46.9221 185.504 47.2836C186.51 47.6238 188.164 49.8286 187.708 50.8003C187.434 50.923 186.744 50.8557 186.41 50.8428C186.046 50.2231 185.591 49.2646 185.055 48.821C183.504 47.535 180.148 48.218 180.35 50.6539C180.469 52.0908 182.695 52.3066 183.77 52.5786C185.725 52.9622 187.514 53.5726 187.722 55.856C187.813 56.8502 187.467 57.6494 186.8 58.4014C185.871 59.4514 184.741 59.599 183.416 59.6844C182.112 59.6716 180.898 59.5966 179.79 58.8154C178.564 57.9514 178.432 57.1641 178.184 55.8287C178.658 55.7973 179.148 55.7416 179.622 55.6943C179.993 56.368 180.206 57.2495 180.891 57.7449C181.744 58.3491 182.835 58.3862 183.798 58.3277C185.064 58.2507 186.241 57.1658 185.983 55.8314C185.551 53.5908 181.255 54.3776 179.802 52.9288C179.191 52.3199 178.774 51.9266 178.672 50.9979C178.432 48.3274 180.274 47.1781 182.614 46.8878Z"></path>
<path fill="#8C8884" d="M38.5974 39.2083C41.3087 39.0939 44.7532 39.2404 47.556 39.2056C49.3966 39.1828 53.1757 39.1001 54.8429 39.2421C55.7492 40.0973 55.9654 41.6363 54.3882 41.7451C52.4659 41.7454 38.4987 41.9497 37.7626 41.5789C37.5238 41.4587 37.3532 41.2233 37.2724 40.9735C37.1585 40.6215 37.177 40.132 37.3586 39.8042C37.5817 39.4019 38.1848 39.3165 38.5974 39.2083Z"></path>
<path fill="#8C8884" d="M58.7716 44.3968C60.1215 44.2367 60.6555 44.5182 60.6702 45.9275C60.726 51.272 60.8277 56.6793 60.605 62.0082C60.5932 62.2915 60.037 62.6424 59.7964 62.7447C58.0932 62.5688 58.1396 61.8073 58.1596 60.2421C58.2229 55.2859 58.1061 50.3229 58.2519 45.3711C58.2616 45.0408 58.5509 44.6274 58.7716 44.3968Z"></path>
<path fill="#8C8884" d="M64.6482 39.2258C65.4596 39.1853 66.2959 39.196 67.1096 39.203C71.5024 39.2407 75.9007 39.1525 80.2915 39.2287C81.5085 39.2499 81.8628 40.3627 81.4163 41.3321C81.2262 41.7447 80.8297 41.7191 80.4345 41.7459L70.1879 41.7529C68.2047 41.7534 65.9496 41.8016 63.9914 41.7241C63.077 40.7167 63.0704 39.3796 64.6482 39.2258Z"></path>
<path fill="#8C8884" d="M59.0226 18.4287L59.1583 18.4209C60.5075 18.3468 60.6877 18.8305 60.6995 20.0706C60.7282 23.1088 60.7048 26.1485 60.7101 29.1874L60.715 33.3303C60.7149 34.6126 61.1264 36.5796 59.3838 36.6472C58.6454 36.4447 58.1717 36.1714 58.1711 35.332C58.1727 30.592 58.2166 25.8492 58.1586 21.108C58.1467 20.1273 57.9717 18.8337 59.0226 18.4287Z"></path>
<path fill="#8C8884" d="M190.962 26.2743C191.928 26.0089 193.509 26.4267 194.311 27.0047C195.698 28.0053 196 28.9508 196.276 30.5325C195.832 30.5592 195.225 30.5402 194.769 30.5394C194.646 30.1548 194.481 29.7397 194.318 29.3801C193.029 26.54 188.69 27.2427 187.858 30.1159C187.287 32.0881 187.109 33.7439 188.014 35.6361C188.97 37.6319 191.103 38.3265 193.057 37.3398C193.264 37.1974 193.817 36.758 193.925 36.5591C194.73 35.0703 194.422 34.8226 196.254 34.9576C196.032 35.9103 195.864 36.6024 195.255 37.417C193.65 39.5759 189.975 39.5679 187.981 38.0014C186.142 36.5522 185.539 34.0082 185.8 31.7677C186.177 28.5305 187.633 26.6665 190.962 26.2743Z"></path>
<path fill="#8C8884" d="M139.107 43.0682C139.468 43.0466 139.887 42.9863 140.206 43.1341C140.427 43.4104 140.344 46.4988 140.349 47.0969C141.204 47.1279 142.202 47.0894 143.068 47.0758C143.19 49.1728 142.182 48.3572 140.345 48.435C140.484 50.5273 140.012 56.4511 140.586 58.0929C141.318 58.1365 143.086 57.9313 143.51 58.4347C143.667 58.7852 143.545 59.1876 143.414 59.5334C141.507 59.5292 138.792 60.0103 138.718 57.4383C138.652 55.1567 138.647 52.883 138.646 50.6C138.646 49.8876 138.609 49.1216 138.689 48.418C137.942 48.372 136.914 48.4076 136.145 48.4123C136.132 47.9493 136.17 47.5745 136.213 47.1176L138.675 47.11C138.663 46.2621 138.549 44.0518 138.791 43.1931C138.817 43.1001 138.989 43.0923 139.107 43.0682Z"></path>
<path fill="#8C8884" d="M184.084 26.3628L185.408 26.3727C185.733 28.3549 185.124 27.7013 183.688 27.9705C183.365 28.034 183.054 28.142 182.76 28.2912C179.664 29.874 181.208 35.8026 180.751 38.6647C180.69 39.0442 179.427 38.9997 179.18 38.9015C178.993 38.6538 179.047 38.6205 179.028 38.2752C178.941 35.8809 179.054 33.4291 178.996 31.0266C178.961 29.5506 178.961 27.9688 179.061 26.5032C179.451 26.4673 180.147 26.4877 180.558 26.4872C180.618 27.2744 180.537 27.813 180.654 28.6458L180.729 28.6994C181.757 27.1912 182.145 26.5974 184.084 26.3628Z"></path>
<path fill="#8C8884" d="M164.272 46.9756L165.426 46.9348L165.452 48.3975C161.916 48.386 160.885 50.068 160.645 53.3506C160.497 55.3874 160.643 57.4898 160.6 59.5342C160.144 59.5686 159.555 59.5421 159.088 59.5336L159.054 58.4628C159.047 57.2559 158.911 47.5087 159.233 47.1335C159.588 47.0206 160.071 47.0662 160.453 47.0808C160.578 47.8994 160.553 48.9227 160.557 49.766C161.46 47.8579 162.058 47.1711 164.272 46.9756Z"></path>
<path fill="#8C8884" d="M59.1902 39.1897C60.876 39.114 61.203 41.2758 59.8615 41.7433C59.1503 41.7857 58.588 41.7614 58.304 41.0123C57.9764 40.1485 58.4071 39.5068 59.1902 39.1897Z"></path>
<path fill="#8C8884" d="M191.017 50.6717C190.515 50.4495 190.164 50.2279 189.909 49.7236C189.623 49.169 189.58 48.5211 189.789 47.9334C190.009 47.2976 190.705 46.7833 191.38 47.0177C191.307 47.1707 191.083 47.2168 190.928 47.3075C189.089 48.3811 189.901 50.0581 191.61 50.5629L191.017 50.6717Z"></path>
<path fill="#8C8884" d="M192.134 50.3817C193.764 49.1282 193.613 48.2209 191.949 47.1335C192.899 46.5238 194.664 49.1187 192.398 50.4825C192.361 50.5043 192.324 50.5257 192.288 50.5465L192.134 50.3817Z"></path>
<path fill="#8C8884" d="M190.889 47.9535C191.513 47.9158 191.714 47.8228 192.204 48.1875C192.298 48.4585 192.295 48.3505 192.201 48.6258C192.059 48.7299 192.032 48.7597 191.853 48.7695C191.894 48.4927 191.925 48.3854 191.812 48.1248L191.669 48.0698C191.458 48.1491 191.216 48.3131 191.02 48.4345L190.919 48.3776L190.889 47.9535Z"></path>
<path fill="#8C8884" d="M192.135 50.3826L192.288 50.5474C191.838 50.731 191.504 50.7314 191.02 50.6724L191.613 50.5637C191.791 50.5275 191.965 50.4507 192.135 50.3826Z"></path>
</svg>
