<svg xmlns="http://www.w3.org/2000/svg" fill="none" viewBox="0 0 248 80" height="80" width="248">
<g clip-path="url(#clip0_439_3091)">
<path fill="#8D8985" d="M93.1583 31.3854C97.886 30.7468 102.234 34.0613 102.857 38.7788C103.48 43.4964 100.141 47.821 95.4093 48.4254C90.7011 49.0268 86.392 45.7173 85.7721 41.0238C85.152 36.3303 88.4547 32.0207 93.1583 31.3854ZM95.0854 46.6399C96.7795 46.3503 98.0646 45.5445 99.061 44.1339C100.18 42.5246 100.617 40.5401 100.278 38.6113C99.6874 35.2304 97.1317 32.8808 93.6128 33.1585C91.8422 33.4876 90.5789 34.2006 89.5368 35.7102C88.4307 37.3456 88.0153 39.3499 88.3804 41.2887C89.0254 44.7617 91.542 46.8534 95.0854 46.6399Z"></path>
<path fill="#8D8985" d="M156.266 31.2301C157.432 31.1465 163 31.1356 163.993 31.291C164.637 31.3861 165.26 31.5978 165.829 31.9159C167.1 32.6338 168.013 33.8825 168.396 35.2807C168.799 36.7489 168.605 38.3165 167.858 39.6433C167.164 40.8524 166.229 41.5264 164.902 41.8888C165.874 43.5982 167.433 45.4215 168.152 47.19C168.643 48.3979 167.198 49.3096 166.033 47.7724C164.88 45.9463 163.706 44.1324 162.515 42.3312C160.963 42.3112 159.411 42.3126 157.86 42.3356C157.873 43.7909 157.895 45.2409 157.876 46.7026C157.867 47.3483 157.677 48.6433 156.785 48.6205C156.472 48.6125 156.032 48.3532 155.81 48.1333C155.608 47.9325 155.596 47.5503 155.569 47.2829C155.498 44.5914 155.536 41.8887 155.532 39.1917C155.528 36.9291 155.513 34.6181 155.576 32.3572C155.592 31.7672 155.841 31.5792 156.266 31.2301ZM165.371 39.3551C166.594 37.5817 166.689 35.1085 164.817 33.799C163.398 32.8069 159.663 33.1611 157.845 33.1854L157.874 40.3654C159.136 40.3695 160.403 40.3782 161.665 40.3845C163.2 40.392 164.223 40.4762 165.371 39.3551Z"></path>
<path fill="#8D8985" d="M199.764 31.2252C201.86 31.0891 207.331 30.9169 209.054 31.784C210.354 32.4501 211.335 33.6022 211.785 34.9882C212.768 37.9687 211.39 40.9249 208.364 41.9081C209.066 43.0783 212.439 47.1604 211.439 48.3459C210.535 48.9374 209.927 48.3745 209.434 47.6579C208.284 45.8919 207.148 44.1165 206.026 42.3317C204.516 42.2908 202.839 42.3234 201.316 42.3241C201.305 43.83 201.373 45.4747 201.338 46.9846C201.285 49.2488 199.057 48.8488 199.053 47.3632C199.041 42.2973 199.001 37.2149 199.074 32.1502C199.08 31.7272 199.461 31.4577 199.764 31.2252ZM201.335 40.3677C202.592 40.3694 203.857 40.3769 205.113 40.3864C206.662 40.3979 207.529 40.4638 208.754 39.4674C209.177 38.8771 209.583 38.2654 209.678 37.5446C210.401 32.0898 204.292 33.1473 201.303 33.1847C201.313 35.5094 201.264 38.068 201.335 40.3677Z"></path>
<path fill="#8D8985" d="M111.589 31.2162C112.084 31.1712 112.537 31.1963 112.894 31.5906C114.135 32.9647 115.288 34.4397 116.459 35.8775L123.642 44.6868C123.54 40.7275 123.73 36.7057 123.606 32.7416C123.595 32.3925 123.873 31.7433 124.108 31.4966C124.862 30.7065 125.726 31.3144 125.864 32.2385C125.967 33.7802 125.925 35.3848 125.927 36.945L125.92 46.4546C125.914 47.5851 126.051 47.7171 125.325 48.4332C124.704 48.6518 124.094 48.6192 123.627 48.1166C122.372 46.7679 121.241 45.2842 120.072 43.8576L113.105 35.3472C113.179 39.1904 113.017 43.0515 113.163 46.8965C113.233 48.7311 110.838 49.822 110.845 46.6926C110.856 41.8812 110.803 37.0702 110.872 32.2599C110.879 31.759 111.24 31.4984 111.589 31.2162Z"></path>
<path fill="#8D8985" d="M182.97 31.221C183.977 31.1196 184.53 31.443 184.91 32.3578C186.847 37.0232 188.818 41.6742 190.767 46.3348C190.962 46.8031 191.25 47.3648 191.052 47.8627C190.95 48.3415 190.128 48.7841 189.683 48.4955C188.51 47.7351 187.632 44.7535 187.123 43.5009L183.776 43.4766C182.431 43.4849 181.086 43.4859 179.741 43.4798C179.056 44.937 178.643 46.4664 177.846 47.8739C177.063 49.2534 175.438 48.2677 175.766 47.3426C176.619 44.9381 177.697 42.5348 178.686 40.1738L180.94 34.8022C181.447 33.5987 181.892 31.948 182.97 31.221ZM180.166 41.7573L183.616 41.7523L186.626 41.7536C186.286 40.9539 183.535 33.9249 183.443 33.8593C182.337 36.486 181.244 39.1187 180.166 41.7573Z"></path>
<path fill="#8D8985" d="M71.491 31.1525C74.0495 30.836 76.6977 31.6731 78.3634 33.674C78.8497 34.2581 78.9585 34.9523 78.3193 35.4701C77.2099 35.8954 76.0817 34.3198 75.1316 33.8142C71.7453 32.012 67.9436 33.7689 66.7347 37.4466C66.0973 39.3584 66.2473 41.4445 67.1516 43.2461C68.7942 46.4603 72.1663 47.5907 75.3946 45.9405C76.4304 45.2725 77.3589 43.597 78.6587 44.1298C79.2314 44.6874 79.0159 45.6419 78.5226 46.1237C73.0271 51.4895 65.0681 47.9682 64.0935 40.9784C63.7746 38.6196 64.3958 36.23 65.8238 34.3229C67.2874 32.394 69.1326 31.4791 71.491 31.1525Z"></path>
<path fill="#8D8985" d="M134.066 31.2274L134.125 31.2233C138.257 30.9621 142.953 31.3119 147.125 31.2419C147.272 31.2395 147.623 31.364 147.708 31.4799C149.266 33.6173 145.232 33.1514 144.19 33.1786C143.346 33.1877 142.652 33.1813 141.884 33.195C141.942 36.3944 141.889 39.7659 141.89 42.9791C141.885 44.2017 142.187 47.5531 141.475 48.3565C140.466 48.9389 139.59 48.345 139.601 47.1759C139.647 42.5194 139.544 37.8472 139.615 33.192C138.408 33.1139 134.234 33.4937 133.556 32.6777C133.442 32.544 133.387 32.3706 133.403 32.1963C133.443 31.7746 133.764 31.4809 134.066 31.2274Z"></path>
<path fill="#8D8985" d="M45.1088 40.7582C45.441 40.7404 45.5044 40.7555 45.8166 40.8719C47.2681 42.1088 44.5097 47.8392 43.5649 49.2414C40.9903 53.0619 37.4551 55.8083 32.8924 56.7472C32.5589 56.7846 32.4822 56.7949 32.1871 56.6404C31.9834 56.425 31.9416 56.3781 31.9082 56.0854C32.074 55.2445 34.0974 54.7618 34.8329 54.4768C36.6924 53.7532 38.3781 52.6467 39.7799 51.2296C41.6151 49.4079 42.5311 48.0204 43.5949 45.6873C44.1108 44.5557 44.5321 41.314 45.1088 40.7582Z"></path>
<path fill="#8D8985" d="M19.4073 44.2322C21.7472 44.3959 22.4719 46.7058 24.8133 47.642C27.9709 48.9044 31.2708 48.5382 33.9754 46.4122C34.7407 45.8106 35.5406 44.1319 36.6301 44.6745C37.33 45.6965 35.7784 47.1055 35.0366 47.6393C34.4339 48.2492 32.8277 49.0316 31.9669 49.3285C28.5674 50.5008 24.8166 49.8737 21.9549 47.7173C21.3098 47.2311 20.4166 46.0965 19.7425 45.7708C19.0145 45.6686 18.635 46.3769 17.8771 46.7926C16.5988 46.8654 16.5923 44.6181 19.4073 44.2322Z"></path>
<path fill="#8D8985" d="M27.9372 26.1658C27.977 26.1596 28.017 26.1549 28.0571 26.1518C31.19 25.9254 35.1072 27.423 37.5523 29.3575C38.9252 30.4435 37.6347 31.4727 37.012 30.9614C34.3745 28.7959 31.8313 27.7801 28.429 27.6649C23.9451 27.792 22.5167 29.3169 19.0264 31.4326C18.638 31.4277 18.2579 31.0888 18.2781 30.702C18.3364 29.8919 19.4633 29.2054 20.0772 28.7813C22.6131 27.0295 24.898 26.3708 27.9372 26.1658Z"></path>
<path fill="#8D8985" d="M39.3658 32.4728C40.8517 32.3529 41.4423 34.4148 41.8271 35.5857C42.4618 37.5176 42.6521 39.7345 42.3864 41.7515C41.9251 45.266 40.0792 48.4523 37.2568 50.6061C36.8674 50.6495 36.7359 50.6754 36.3825 50.4944C35.6196 49.604 36.8672 48.7627 37.466 48.1798C38.0505 47.615 38.5755 46.9921 39.0327 46.3206C40.9774 43.4208 41.397 39.342 40.3155 36.0159C40.0382 35.163 39.2944 34.0759 39.0558 33.1737C39.004 32.9775 39.2488 32.6439 39.3658 32.4728Z"></path>
<path fill="#8D8985" d="M33.8649 23.3311C36.2464 23.7059 39.7289 26.157 41.3996 27.8866C43.5501 30.0962 45.0811 32.8304 45.8391 35.8156C46.0843 36.7657 46.534 37.882 45.7344 38.6404C45.1819 38.606 44.761 38.5142 44.6522 37.8585C43.7795 32.5982 40.6339 28.0736 35.7921 25.7155C34.9346 25.2978 33.4111 25.058 33.3125 24.0029C33.4267 23.6417 33.5703 23.5553 33.8649 23.3311Z"></path>
<path fill="#8D8985" d="M28.0252 29.8817C28.153 29.8769 28.2808 29.8745 28.4086 29.8747C31.198 29.8576 33.8756 30.9673 35.8313 32.9511C37.7912 34.9182 38.7587 37.3324 38.7114 40.0687C38.6934 41.1039 38.4749 43.9405 36.8894 42.1585C37.0735 40.8458 37.2253 39.8113 36.982 38.4515C36.2812 34.5348 33.133 31.8902 29.241 31.4069C28.6719 31.2615 26.3235 31.8063 25.973 31.3891C24.7078 29.883 27.6913 29.9059 28.0252 29.8817Z"></path>
<path fill="#8D8985" d="M19.0005 48.3245C19.565 48.4882 20.5076 49.2946 21.0077 49.671C23.9627 51.8967 27.8002 52.6002 31.376 51.7086C32.1779 51.5086 33.523 50.9472 34.2155 51.3261C34.536 51.9122 34.3587 52.2538 33.8394 52.6405C28.4432 54.4333 22.7059 53.7888 18.5086 49.6236C18 49.1189 18.5834 48.5857 19.0005 48.3245Z"></path>
<path fill="#8D8985" d="M22.8106 31.5305C22.8612 31.5303 22.9117 31.5338 22.9618 31.5409C23.2726 31.5857 23.538 31.7206 23.7258 31.9719C23.8863 32.8387 22.7072 33.6447 22.0353 34.0228C21.9642 34.0297 21.8926 34.028 21.8219 34.0178C21.5168 33.9734 21.2562 33.8581 21.0735 33.6097C20.8236 32.7366 22.1702 31.8797 22.8106 31.5305Z"></path>
<path fill="#8D8985" d="M225.843 40.224L229.198 34.5835C229.752 33.654 230.274 32.7265 230.898 31.841C231.576 30.8774 232.193 31.0267 232.973 31.772V32.5439C230.964 35.762 228.978 38.9939 227.013 42.2395C226.976 43.5514 227.718 49.1678 225.549 48.5425C223.809 48.0403 225.133 43.5201 224.647 42.4525C223.339 39.5807 221.234 36.8113 219.642 34.0517C219.238 33.3604 218.122 31.9343 219.225 31.3263C220.66 30.5347 221.762 33.3707 222.348 34.3678L225.843 40.224Z"></path>
<path fill="#8D8985" d="M26.7472 22.5H29.9563C30.6977 22.6416 32.8907 22.9019 31.4168 24.1055C30.5269 24.3764 28.2956 23.8817 26.9741 24.0535C23.1369 24.5523 18.9038 26.3234 16.3783 29.3299C15.8028 30.015 17.2144 31.4096 16.2749 31.8548C15.337 32.1916 14.7784 30.9929 14.586 30.3368C14.5638 30.2607 14.5436 30.184 14.5254 30.1069V29.6624C15.0132 27.6321 17.0025 26.3942 18.6303 25.3135C21.1901 23.614 23.7794 23.0335 26.7472 22.5Z"></path>
<path fill="#8D8985" d="M14.5254 50.1665C14.8085 49.9845 15.0457 49.7898 15.3833 49.8225C15.9105 49.9721 17.0372 51.2492 17.5073 51.6679C18.9584 52.9603 20.7428 54.1384 22.5893 54.7633C23.9774 55.2382 25.4155 55.5526 26.8754 55.7003C27.83 55.798 29.8387 55.5109 29.6469 56.8033C29.5352 57.0104 29.3322 57.1959 29.1091 57.2243C26.0459 57.6134 22.1119 56.4397 19.5555 55.0478C17.6088 54.0017 15.8971 52.5698 14.5254 50.84L14.5254 50.1665Z"></path>
</g>
<defs>
<clipPath id="clip0_439_3091">
<rect transform="translate(14.5254 22.5)" fill="white" height="35" width="218.448"></rect>
</clipPath>
</defs>
</svg>
