<svg xmlns="http://www.w3.org/2000/svg" fill="none" viewBox="0 0 60 61" height="61" width="60">
<path fill="#161616" d="M9.73706 42.918L29.9041 54.8701V46.8916L9.73706 20.6748V42.918ZM31.4041 47.0625V54.8691L51.571 42.918V35.1123L31.4041 47.0625ZM10.0974 18.6826L30.8435 45.6514L51.2097 33.582L30.4646 6.61328L10.0974 18.6826ZM53.071 43.7734L30.6541 57.0576L8.23706 43.7734V18.042L30.8435 4.64551L52.9148 33.3398L53.071 33.542V43.7734Z"></path>
<path fill="#D6CFC7" d="M42.6289 5.01787V35.1614L27.0545 44.3907L18.6804 39.1653L18.6805 10.0828L34.2548 0.853516L42.6289 5.01787Z"></path>
<path fill="#57534E" d="M27.8044 14.6748V43.0742L41.8787 34.7344V6.33398L27.8044 14.6748ZM19.4304 38.749L26.3044 43.0381V14.792C25.9747 14.6746 25.4943 14.49 24.8445 14.2021C23.6544 13.675 21.8912 12.8048 19.4304 11.3887V38.749ZM20.1589 10.0771C22.5923 11.4783 24.3144 12.3272 25.4519 12.8311C26.102 13.119 26.56 13.2939 26.8494 13.3955C26.8886 13.4093 26.9257 13.4205 26.9587 13.4316L41.0603 5.0752L34.2859 1.70703L20.1589 10.0771ZM43.3787 35.5889L27.0447 45.2686L26.657 45.0273L18.283 39.8018L17.9304 39.5811V9.65527L34.2234 0L42.9626 4.34668L43.3787 4.55273V35.5889Z"></path>
<path fill="black" d="M37.4441 15.5788C37.5156 15.1316 37.8589 14.6709 38.2104 14.5505C38.5617 14.4302 38.7884 14.6957 38.717 15.1427L36.5536 28.6867C36.497 29.041 36.2654 29.4163 35.9827 29.613C35.7 29.8096 35.4315 29.7817 35.3197 29.5446L33.4582 25.5988L31.9613 34.4074C31.885 34.8561 31.5396 35.3121 31.1891 35.4264C30.8387 35.5407 30.6165 35.2701 30.6927 34.8215L32.6218 23.4714L32.6523 23.3376C32.7408 23.0272 32.9492 22.7215 33.1952 22.5524C33.4764 22.3593 33.7429 22.3885 33.854 22.6242L35.6943 26.5275L37.4441 15.5788Z"></path>
<path fill="black" d="M38.7147 12.914C39.0007 12.7465 39.2614 12.8129 39.343 13.0942L40.1321 15.8105C40.2311 16.1513 40.0319 16.6816 39.6873 16.995C39.3425 17.3084 38.9828 17.2862 38.8838 16.9452L38.2597 14.7978L36.8566 15.935C36.5049 16.2197 36.162 16.1542 36.0912 15.789C36.0206 15.4239 36.2481 14.8975 36.5995 14.6127L38.5903 13.0004L38.7147 12.914Z"></path>
<path fill="#E0DCD8" d="M9.53658 19.1842L30.6539 46.6367L51.8579 34.0714C52.0622 33.9503 52.3207 34.0976 52.3207 34.3351L52.3207 43.1719C52.3207 43.2802 52.2636 43.3804 52.1704 43.4356L30.6539 56.1862L9.13733 43.4356C9.04418 43.3804 8.98706 43.2802 8.98706 43.1719V19.3711C8.98706 19.0784 9.35812 18.9522 9.53658 19.1842Z"></path>
<path fill="#161616" d="M9.73706 42.9189L29.9041 54.8701V46.8916L9.73706 20.6748V42.9189ZM31.4041 47.0635V54.8691L51.571 42.918V35.1123L31.4041 47.0635ZM53.071 43.1719C53.071 43.545 52.8735 43.8908 52.5525 44.0811L30.6541 57.0576L8.75464 44.0811C8.43368 43.8908 8.23709 43.545 8.23706 43.1719V19.3711C8.23706 18.3624 9.5154 17.9274 10.1306 18.7266L30.8425 45.6514L51.4753 33.4258C52.1796 33.0084 53.071 33.5163 53.071 34.335V43.1719Z"></path>
<path fill="#161616" d="M28.7783 16.2505C28.7783 15.8363 29.1141 15.5005 29.5283 15.5005C29.9425 15.5005 30.2783 15.8363 30.2783 16.2505V38.2173L38.541 33.519C38.9009 33.3144 39.3586 33.4396 39.5635 33.7993C39.7682 34.1594 39.6423 34.618 39.2822 34.8228L28.7783 40.7964V16.2505Z"></path>
</svg>
