<svg xmlns="http://www.w3.org/2000/svg" fill="none" viewBox="0 0 186 66">
<g clip-path="url(#clip0_1307_29089)">
<path fill="#8C8884" d="M128.854 2.70947L129.08 2.72336C130.7 3.46817 130.756 12.1188 131.272 13.8311C131.652 15.0927 132.907 16.615 133.559 17.8108C134.013 18.6436 135.781 21.757 135.563 22.558C135.846 22.7108 136.166 22.9345 136.416 23.1422C136.623 23.3133 136.676 23.4323 136.698 23.6918C136.028 24.6039 129.833 23.6913 128.628 23.4308C127.094 23.0994 125.641 22.4668 124.07 22.3157C122.68 22.1819 121.393 22.2909 120.075 22.7956C118.516 23.3924 117.4 24.2985 116.031 25.1993C115.501 25.5477 114.411 26.0347 114.151 26.6193C114.676 27.2481 115.785 26.2327 116.434 26.3452C116.511 26.3585 116.573 26.4936 116.618 26.5617C116.671 27.7715 114.852 30.2998 114.205 31.4066C113.582 32.4745 113.762 33.9397 113.166 34.6386C112.705 34.8938 112.195 34.8427 111.71 34.6932C110.172 34.2201 108.768 32.8498 107.178 32.6462C106.832 32.6019 106.508 32.638 106.176 32.7492C105.199 33.077 104.267 33.6712 103.317 34.0892C100.739 35.2243 96.8238 36.6516 94.0131 36.5459C94.1471 38.2466 94.8467 39.8755 95.0023 41.5449C94.9404 41.5802 94.8797 41.6051 94.8098 41.6181C93.4297 41.874 88.1678 38.8799 86.8839 37.8864C86.4718 37.5676 86.1708 36.8447 85.7358 36.6395C85.4818 36.5196 84.0368 36.7342 83.6145 36.6934C80.6216 36.4044 76.1767 35.1756 73.7127 33.349C72.8674 35.2532 72.0487 36.2767 72.3159 38.4838C70.3716 37.2874 69.0696 34.8209 68.3827 32.656C68.2595 32.2675 68.1458 31.3702 67.9413 31.0738C67.8128 30.8876 66.7676 31.0626 66.4814 31.024C64.2964 30.7294 62.1804 29.3211 60.4113 28.0473C58.296 26.4964 56.3726 24.7523 54.3662 23.0621C53.0203 21.9282 50.9724 20.7341 50.0602 19.1823C49.4554 18.1535 49.0124 16.4937 49.3139 15.3002C49.3863 15.0135 49.5147 14.6903 49.7748 14.5388C49.9244 14.4516 50.0078 14.5062 50.163 14.5483C50.6051 14.9981 50.8512 16.0212 51.0992 16.6311C52.9557 18.1485 55.1368 18.3526 57.2864 19.1521C56.8514 16.8553 57.0788 13.7599 55.2346 12.066C54.7374 11.6092 53.7526 10.9674 53.5041 10.3287C53.4526 10.1965 53.5304 10.0954 53.5818 9.96972C53.9794 9.65308 54.5776 9.69731 55.051 9.76377C57.0986 10.0512 59.0932 10.6324 61.0835 11.1857L68.8321 13.4228C71.5563 14.228 74.3441 14.8507 77.0954 15.5526C79.5847 16.1878 82.1064 16.88 84.6656 17.1145C85.4004 16.657 86.0923 16.0344 86.7928 15.5158C88.0533 14.5826 89.3805 13.6874 90.7279 12.8916C92.2938 15.2024 93.1367 15.7447 95.4271 17.1096C96.1941 17.5667 95.5034 17.6052 95.64 18.1301C96.4786 18.4429 101.169 18.2279 102.315 18.1172C103.777 17.976 105.455 17.7647 106.881 17.3967C108.324 17.0242 110.229 15.4854 111.702 15.7778C111.833 15.882 111.933 15.9251 111.959 16.1057C112.014 16.4804 111.706 16.9441 111.505 17.2336C112.827 17.1812 114.254 16.8193 115.504 16.3833C116.811 15.9277 118.287 15.2361 119.314 14.2718C120.387 13.2646 121.148 11.8199 122.004 10.6171C123.001 9.21791 124.096 7.86412 125.221 6.57317C125.808 5.8997 128.706 3.01745 128.854 2.70947Z"></path>
<path fill="#8C8884" d="M74.1908 60.1831C74.7507 58.858 75.4189 54.9005 76.2219 54.0739C76.6234 53.6609 78.094 53.8395 78.6446 53.8456C78.3462 54.6062 78.1436 55.4349 77.9074 56.2199C77.4052 57.4748 76.2359 62.6452 75.5935 63.2539C75.2556 63.5739 73.7045 63.4062 73.206 63.394C72.6885 61.562 71.9469 59.7753 71.7961 57.8586C70.9133 59.6033 70.6025 61.596 69.7863 63.3748L67.3818 63.3761C66.5319 60.2263 65.382 57.0561 64.7168 53.8674C65.4708 53.8495 66.4585 53.7089 67.1479 54.0761C67.8392 55.1707 68.4395 58.8196 68.7548 60.2704C69.0491 59.0531 69.9896 55.086 70.6005 54.208C70.7531 53.9888 70.9265 53.8962 71.1799 53.8539C71.5735 53.788 71.9664 53.7862 72.2988 54.0473C73.2675 54.8083 74.0345 58.8527 74.1908 60.1831Z"></path>
<path fill="#8C8884" d="M79.1091 53.8179C79.8891 53.8393 80.6683 53.8864 81.4455 53.9585C82.6392 55.0304 83.8179 56.931 84.791 58.271C85.0856 58.6761 85.3133 59.1424 85.6763 59.4874L85.8416 59.4634C86.0155 57.6553 85.6436 55.811 85.8883 53.9676C86.7011 53.8637 87.5398 53.8799 88.3543 53.9515C88.3551 55.2413 88.509 62.8751 88.3102 63.4519C87.4863 63.4362 86.6629 63.3995 85.8408 63.3414C84.4526 61.6805 82.9279 59.0307 81.3916 57.6881C81.8424 59.4066 81.639 61.6482 81.6688 63.4458C80.8165 63.4113 79.9636 63.3947 79.1106 63.396C79.0584 60.2113 78.9089 56.9978 79.1091 53.8179Z"></path>
<path fill="#8C8884" d="M137.148 53.903C137.787 53.7856 138.623 53.8445 139.268 53.9262C139.786 54.9985 139.14 56.7393 139.356 57.3645C139.785 57.8252 141.889 57.6274 142.545 57.6479C142.549 57.6401 142.554 57.6318 142.558 57.6239C142.9 56.9323 142.793 54.6265 142.565 53.9161C143.402 53.8642 144.243 53.8576 145.081 53.896C145.388 54.4379 145.312 62.2429 145.216 63.2742C144.935 63.4702 144.765 63.4209 144.436 63.4113C143.87 63.3179 143.131 63.3995 142.551 63.4004C142.559 63.382 142.569 63.3637 142.577 63.3449C142.8 62.8428 142.741 59.9594 142.551 59.4097C141.423 59.6009 140.342 59.528 139.21 59.4162C139.282 59.5271 139.347 59.662 139.382 59.7913C139.574 60.5091 139.601 62.7786 139.256 63.4069C138.541 63.3825 137.776 63.4777 137.075 63.3344C137.044 63.2986 137.013 63.2572 136.997 63.2126C136.769 62.5804 136.827 55.7294 136.933 54.6173C136.957 54.3619 137.035 54.1309 137.148 53.903Z"></path>
<path fill="#8C8884" d="M59.0219 53.8315C59.7155 53.8791 60.5955 53.7254 61.2456 53.9878C62.0577 54.3162 64.5671 62.1137 65.1011 63.466C64.2092 63.4079 63.3175 63.3861 62.4242 63.3647C62.2826 62.9429 62.1549 62.3473 61.9115 61.9849C61.7538 61.75 61.6968 61.7374 61.4376 61.692C60.5287 61.8526 59.5657 61.7247 58.6548 61.6374C58.5209 62.0862 58.3482 62.9259 58.0173 63.2472C58.0071 63.2568 57.9965 63.2664 57.9863 63.276C57.9577 63.3035 57.9314 63.3306 57.8986 63.3533C57.5661 63.583 56.0877 63.3769 55.6598 63.3C55.6414 63.2367 55.5953 63.1293 55.592 63.066C55.5667 62.5962 58.5635 54.772 59.0219 53.8315ZM60.0069 59.8892C60.29 59.8813 60.9574 59.935 61.1617 59.7464C61.1286 59.3264 60.8769 58.998 60.7543 58.6038C60.6132 58.1506 60.5371 57.6314 60.4721 57.1607L60.3006 57.0612C59.8707 57.8445 59.5025 58.7815 59.3887 59.6778L59.4826 59.8783C59.6628 59.8975 59.8261 59.9071 60.0069 59.8892Z"></path>
<path fill="#8C8884" d="M48.3956 53.8375C50.1719 53.8725 53.1338 53.5804 54.4978 54.9029C55.0433 55.4321 55.2909 56.1638 55.3036 56.9253C55.3187 57.8274 55.0782 58.7303 54.4497 59.3839C53.7088 60.155 52.8089 60.3235 51.792 60.3226C51.6116 60.3056 51.428 60.2851 51.2469 60.2838C51.1505 60.2829 51.014 60.3109 50.9453 60.3833C50.5171 60.837 50.8035 62.721 50.8113 63.3737C49.9489 63.4104 49.0718 63.3716 48.208 63.3663C48.2715 61.6893 47.9352 54.9561 48.3956 53.8375ZM52.4008 58.0465C52.6297 57.6837 52.8007 57.2798 52.7037 56.8362C52.6416 56.5524 52.4426 56.352 52.2077 56.2062C51.7822 55.9416 51.2184 55.9137 50.7329 55.9097C50.7956 56.5655 50.5901 57.7767 51.0501 58.1876C51.4701 58.3151 51.9806 58.14 52.4008 58.0465Z"></path>
<path fill="#8C8884" d="M131.73 53.794C132.715 53.7027 134.386 53.7014 135.21 54.3039C135.306 54.4686 135.393 54.5629 135.381 54.7628C135.357 55.1641 134.786 56.1107 134.492 56.3783C134.14 56.3805 133.515 55.8509 133.145 55.6714C133.015 55.7321 132.885 55.7985 132.752 55.8509C132.63 55.8985 132.499 55.9426 132.392 56.0207C132.153 56.1963 132.082 56.4163 132.028 56.6962C132.321 57.4249 134.251 57.7668 134.946 58.2401C135.277 58.4649 135.695 58.8155 135.78 59.2321C135.891 59.4674 135.962 59.756 135.987 60.0162C136.073 60.8711 135.834 61.671 135.302 62.3325C134.604 63.2005 133.726 63.5371 132.667 63.6467C132.608 63.6489 132.549 63.6507 132.491 63.6511C131.732 63.6568 130.189 63.5275 129.641 62.9451C128.893 62.1504 129.903 61.4427 129.895 60.6537C129.895 60.6332 129.893 60.6131 129.892 60.5926C130.659 60.8301 131.454 61.6282 132.255 61.5208C132.624 61.4711 133.152 61.2659 133.376 60.9441C133.509 60.7524 133.473 60.6773 133.436 60.4607C132.86 59.8054 131.996 59.6124 131.231 59.284C130.55 58.9919 129.868 58.6396 129.578 57.8938C129.313 57.2127 129.388 56.2596 129.665 55.5942C130.043 54.686 130.875 54.1494 131.73 53.794Z"></path>
<path fill="#8C8884" d="M43.0713 53.7723C43.3355 53.7649 43.5998 53.764 43.8641 53.7702C44.6861 53.7946 46.1497 53.8409 46.7284 54.4696C46.7711 54.8958 46.4217 55.6481 46.1576 55.9803C45.6124 56.6667 44.5638 55.7315 43.8873 55.8074C43.718 55.8266 43.5673 55.8974 43.4687 56.0476C43.3596 56.2139 43.2684 56.4934 43.3058 56.6916C43.4174 57.2841 45.6558 57.8098 46.1785 58.1997C46.7339 58.614 47.1709 59.2083 47.2856 59.9143C47.4121 60.6923 47.1764 61.5127 46.7326 62.1458C46.0689 63.0924 45.1788 63.4653 44.0971 63.6496C43.1578 63.6985 42.0526 63.5181 41.1986 63.092C40.9088 62.947 40.7114 62.8003 40.6016 62.4768C40.6106 61.9035 41.1545 61.1263 41.4237 60.6102C41.9146 60.9128 42.7762 61.559 43.3543 61.5263C43.4668 61.5202 43.5798 61.5167 43.6917 61.5027C44.0817 61.4534 44.4449 61.3001 44.6901 60.974C44.7244 60.8041 44.761 60.7181 44.702 60.5504C44.4978 59.9719 42.9426 59.5052 42.3951 59.2423C41.6728 58.8956 41.0473 58.3114 40.7755 57.5251C40.5694 56.9291 40.6465 56.3331 40.9069 55.7681C41.3714 54.7604 42.0672 54.1439 43.0713 53.7723Z"></path>
<path fill="#8C8884" d="M111.549 53.8831C112.058 53.8792 114.015 53.694 114.324 53.9787C114.139 54.8306 112.042 57.7673 111.37 58.3493C111.377 59.1417 111.17 60.2018 111.138 61.0511C111.114 61.692 111.279 62.5308 111.186 63.1307C111.175 63.2036 111.09 63.3324 111.056 63.404C110.317 63.5817 109.316 63.4114 108.551 63.37C108.588 63.3045 108.618 63.2381 108.638 63.1648C108.77 62.6714 108.732 59.2775 108.539 58.9121C108.587 57.8253 105.798 55.3458 105.547 53.901C105.893 53.8604 106.26 53.8822 106.609 53.8879C108.901 53.9246 108.545 54.8934 109.772 56.1539C109.837 56.2208 109.957 56.1963 110.048 56.1963C110.504 55.83 111.395 54.4599 111.549 53.8831Z"></path>
<path fill="#8C8884" d="M119.23 53.9028C119.438 53.87 124.09 53.891 124.205 53.922C124.285 53.994 124.426 54.087 124.466 54.187C124.607 54.545 124.531 55.413 124.375 55.7632C124.051 56.4919 122.514 55.8619 121.919 56.1186C121.726 56.202 121.652 57.3477 121.525 57.6503C122.364 57.6533 123.164 57.5433 124.007 57.6354C124.069 57.7144 124.121 57.7957 124.148 57.8948C124.309 58.4877 124.322 59.037 124.006 59.564C123.699 59.7556 123.535 59.7246 123.183 59.7268C122.609 59.7329 122.012 59.6701 121.437 59.6404C121.494 59.7312 121.546 59.8334 121.575 59.9382C121.758 60.6162 121.799 62.8569 121.479 63.4228C120.743 63.4573 119.99 63.4285 119.255 63.3765C119.219 63.3281 119.189 63.2779 119.175 63.218C118.992 62.4448 118.957 54.3782 119.23 53.9028Z"></path>
<path fill="#8C8884" d="M94.1006 53.8523C95.6745 54.1269 97.5423 53.9304 99.1467 53.9008C99.1509 53.9566 99.1551 54.0121 99.1585 54.068C99.1903 54.6072 99.3154 55.3687 98.9211 55.7974C98.4424 56.3183 96.9376 56.1459 96.2813 56.1533C96.3538 56.6353 96.3716 57.1296 96.4047 57.6164C97.0203 57.6273 98.0633 57.3924 98.5925 57.743C98.8104 57.8871 98.9567 58.1534 99.0046 58.4115C99.0852 58.8472 98.9376 59.1712 98.7138 59.5231C98.3572 59.7427 98.1503 59.713 97.7407 59.7288C97.2624 59.7078 96.7837 59.6973 96.3054 59.6825C96.3665 60.953 96.3881 62.2254 96.3699 63.4972C95.5393 63.4426 94.7053 63.4247 93.8734 63.3955C93.7665 62.0607 93.5706 54.5635 94.1006 53.8523Z"></path>
<path fill="#8C8884" d="M100.719 53.898C101.235 53.8259 102.081 53.7508 102.561 54.0006C102.715 54.0809 102.761 54.1311 102.811 54.3027C103.031 55.0541 102.918 59.715 102.789 60.6333C102.757 60.8647 102.651 61.086 102.544 61.2899C103.551 61.234 104.529 61.1699 105.54 61.1655C105.627 61.3039 105.677 61.4318 105.701 61.5943C105.764 62.0187 105.889 62.9604 105.622 63.2993C105.535 63.4102 105.348 63.3931 105.214 63.4097C103.575 63.5119 101.852 63.3765 100.207 63.3451C100.691 61.834 100.236 57.3957 100.333 55.5527C100.36 55.0441 100.326 54.2617 100.719 53.898Z"></path>
<path fill="#8C8884" d="M125.943 53.9032C126.599 53.8661 127.246 53.8618 127.902 53.8766C127.926 53.9146 127.921 53.9054 127.939 53.9395C127.946 53.9517 127.952 53.9644 127.958 53.9766C128.186 54.3966 128.189 62.368 128.096 63.2076C127.884 63.4202 127.759 63.3853 127.476 63.4015C126.887 63.2801 126.083 63.37 125.471 63.3648C126.206 62.0073 124.964 55.0869 125.943 53.9032Z"></path>
</g>
<defs>
<clipPath id="clip0_1307_29089">
<rect transform="translate(40 2)" fill="white" height="62" width="106"></rect>
</clipPath>
</defs>
</svg>
