<svg xmlns="http://www.w3.org/2000/svg" viewBox="0 0 1200 800">
  
  <rect fill="#0a0a0a" height="800" width="1200"></rect>
  
  
  <defs>
    <pattern patternUnits="userSpaceOnUse" height="20" width="20" y="0" x="0" id="dots">
      <circle fill="#1a1a1a" r="0.5" cy="10" cx="10"></circle>
    </pattern>
  </defs>
  
  <rect opacity="0.3" fill="url(#dots)" height="800" width="1200"></rect>
  
  
  
  
  <g id="inputs">
    
    <rect stroke-width="1.5" stroke="#ffffff" fill="none" height="40" width="60" y="250" x="150"></rect>
    <path stroke-width="1.5" stroke="#ffffff" fill="none" d="M 150 250 L 180 275 L 210 250"></path>
    
    
    <rect stroke-width="1.5" stroke="#ffffff" fill="none" height="65" width="50" y="350" x="150"></rect>
    <line opacity="0.5" stroke-width="1" stroke="#ffffff" y2="365" x2="190" y1="365" x1="160"></line>
    <line opacity="0.5" stroke-width="1" stroke="#ffffff" y2="375" x2="190" y1="375" x1="160"></line>
    <line opacity="0.5" stroke-width="1" stroke="#ffffff" y2="385" x2="190" y1="385" x1="160"></line>
    <line opacity="0.5" stroke-width="1" stroke="#ffffff" y2="395" x2="180" y1="395" x1="160"></line>
    
    
    <rect stroke-width="1.5" stroke="#ffffff" fill="none" height="50" width="60" y="480" x="150"></rect>
    <circle stroke-width="1.5" stroke="#ffffff" fill="none" r="12" cy="505" cx="180"></circle>
    <circle opacity="0.3" fill="#ffffff" r="6" cy="505" cx="180"></circle>
  </g>
  
  
  <path marker-end="url(#arrowhead)" opacity="0.7" stroke-width="1" stroke="#ffffff" fill="none" d="M 210 270 L 380 340"></path>
  <line marker-end="url(#arrowhead)" opacity="0.7" stroke-width="1" stroke="#ffffff" y2="380" x2="380" y1="382" x1="200"></line>
  <path marker-end="url(#arrowhead)" opacity="0.7" stroke-width="1" stroke="#ffffff" fill="none" d="M 210 505 L 380 420"></path>
  
  
  <defs>
    <marker orient="auto" refY="3" refX="9" markerHeight="10" markerWidth="10" id="arrowhead">
      <polygon opacity="0.7" fill="#ffffff" points="0 0, 10 3, 0 6"></polygon>
    </marker>
  </defs>
  
  
  <g id="processor">
    
    <rect stroke-width="2" stroke="#ffffff" fill="none" height="120" width="180" y="320" x="380"></rect>
    
    
    <circle opacity="0.6" stroke-width="1" stroke="#ffffff" fill="none" r="15" cy="360" cx="430"></circle>
    <circle opacity="0.6" stroke-width="1" stroke="#ffffff" fill="none" r="8" cy="360" cx="430"></circle>
    
    <rect opacity="0.6" stroke-width="1" stroke="#ffffff" fill="none" height="30" width="70" y="345" x="465"></rect>
    <line opacity="0.5" stroke-width="0.5" stroke="#ffffff" y2="352" x2="525" y1="352" x1="475"></line>
    <line opacity="0.5" stroke-width="0.5" stroke="#ffffff" y2="360" x2="525" y1="360" x1="475"></line>
    <line opacity="0.5" stroke-width="0.5" stroke="#ffffff" y2="368" x2="515" y1="368" x1="475"></line>
    
    
    <circle opacity="0.6" stroke-width="1" stroke="#ffffff" fill="none" r="6" cy="400" cx="410"></circle>
    <circle opacity="0.6" stroke-width="1" stroke="#ffffff" fill="none" r="6" cy="410" cx="450"></circle>
    <circle opacity="0.6" stroke-width="1" stroke="#ffffff" fill="none" r="6" cy="405" cx="490"></circle>
    <circle opacity="0.6" stroke-width="1" stroke="#ffffff" fill="none" r="6" cy="415" cx="530"></circle>
    
    
    <line opacity="0.4" stroke-width="0.5" stroke="#ffffff" y2="410" x2="444" y1="400" x1="416"></line>
    <line opacity="0.4" stroke-width="0.5" stroke="#ffffff" y2="405" x2="484" y1="410" x1="456"></line>
    <line opacity="0.4" stroke-width="0.5" stroke="#ffffff" y2="415" x2="524" y1="405" x1="496"></line>
    
    
    <path opacity="0.3" stroke-width="0.5" stroke="#ffffff" fill="none" d="M 445 360 L 465 355"></path>
    <path opacity="0.3" stroke-width="0.5" stroke="#ffffff" fill="none" d="M 445 365 L 465 365"></path>
  </g>
  
  
  <g opacity="0.5" id="stages">
    <line stroke-dasharray="3,3" stroke-width="1" stroke="#ffffff" y2="340" x2="680" y1="340" x1="600"></line>
    <circle stroke-width="1" stroke="#ffffff" fill="none" r="8" cy="340" cx="700"></circle>
    
    <line stroke-dasharray="3,3" stroke-width="1" stroke="#ffffff" y2="380" x2="680" y1="380" x1="600"></line>
    <circle stroke-width="1" stroke="#ffffff" fill="none" r="8" cy="380" cx="700"></circle>
    
    <line stroke-dasharray="3,3" stroke-width="1" stroke="#ffffff" y2="420" x2="680" y1="420" x1="600"></line>
    <circle stroke-width="1" stroke="#ffffff" fill="none" r="8" cy="420" cx="700"></circle>
  </g>
  
  
  <g id="validation">
    <path stroke-width="1.5" stroke="#ffffff" fill="none" d="M 770 380 L 820 350 L 870 380 L 820 410 Z"></path>
    <line opacity="0.5" stroke-width="1" stroke="#ffffff" y2="395" x2="820" y1="365" x1="820"></line>
    <line opacity="0.5" stroke-width="1" stroke="#ffffff" y2="380" x2="835" y1="380" x1="805"></line>
  </g>
  
  
  <line marker-end="url(#arrowhead)" opacity="0.7" stroke-width="1" stroke="#ffffff" y2="380" x2="770" y1="380" x1="560"></line>
  
  
  
  <line marker-end="url(#arrowhead)" opacity="0.7" stroke-width="1" stroke="#ffffff" y2="340" x2="950" y1="365" x1="870"></line>
  
  
  <path stroke-dasharray="4,4" marker-end="url(#arrowhead)" opacity="0.7" stroke-width="1" stroke="#ffffff" fill="none" d="M 820 410 L 820 480 L 950 480"></path>
  
  
  <g id="outputs">
    
    <rect stroke-width="1.5" stroke="#ffffff" fill="none" height="60" width="70" y="310" x="950"></rect>
    <path stroke-linecap="round" stroke-width="1.5" stroke="#ffffff" fill="none" d="M 965 345 L 978 358 L 1005 328"></path>
    
    
    <rect stroke-width="1.5" stroke="#ffffff" fill="none" height="50" width="70" y="455" x="950"></rect>
    <circle stroke-width="1" stroke="#ffffff" fill="none" r="8" cy="475" cx="972"></circle>
    <circle stroke-width="1" stroke="#ffffff" fill="none" r="8" cy="475" cx="998"></circle>
    <circle stroke-width="1" stroke="#ffffff" fill="none" r="8" cy="490" cx="985"></circle>
  </g>
  
  
  <g opacity="0.4" id="analytics">
    
    <rect stroke-width="1" stroke="#ffffff" fill="none" height="70" width="100" y="550" x="450"></rect>
    <line stroke-width="0.5" stroke="#ffffff" y2="570" x2="540" y1="570" x1="460"></line>
    <rect stroke-width="0.5" stroke="#ffffff" fill="none" height="35" width="25" y="575" x="465"></rect>
    <rect stroke-width="0.5" stroke="#ffffff" fill="none" height="25" width="20" y="585" x="495"></rect>
    <rect stroke-width="0.5" stroke="#ffffff" fill="none" height="30" width="15" y="580" x="520"></rect>
    
    
    <path stroke-dasharray="2,2" stroke-width="0.5" stroke="#ffffff" fill="none" d="M 985 505 Q 985 540, 820 560 Q 600 580, 500 550"></path>
  </g>
  
  
  <g opacity="0.3">
    
    <line stroke-width="0.5" stroke="#ffffff" y2="360" x2="370" y1="360" x1="350"></line>
    <line stroke-width="0.5" stroke="#ffffff" y2="370" x2="370" y1="370" x1="350"></line>
    <line stroke-width="0.5" stroke="#ffffff" y2="380" x2="370" y1="380" x1="350"></line>
    
    <line stroke-width="0.5" stroke="#ffffff" y2="390" x2="370" y1="390" x1="350"></line>
    <line stroke-width="0.5" stroke="#ffffff" y2="400" x2="370" y1="400" x1="350"></line>
  </g>
  
  
  <g opacity="0.05">
    <line stroke-width="0.5" stroke="#ffffff" y2="200" x2="1100" y1="200" x1="100"></line>
    <line stroke-width="0.5" stroke="#ffffff" y2="300" x2="1100" y1="300" x1="100"></line>
    <line stroke-width="0.5" stroke="#ffffff" y2="400" x2="1100" y1="400" x1="100"></line>
    <line stroke-width="0.5" stroke="#ffffff" y2="500" x2="1100" y1="500" x1="100"></line>
    <line stroke-width="0.5" stroke="#ffffff" y2="600" x2="1100" y1="600" x1="100"></line>
    
    <line stroke-width="0.5" stroke="#ffffff" y2="650" x2="300" y1="200" x1="300"></line>
    <line stroke-width="0.5" stroke="#ffffff" y2="650" x2="500" y1="200" x1="500"></line>
    <line stroke-width="0.5" stroke="#ffffff" y2="650" x2="700" y1="200" x1="700"></line>
    <line stroke-width="0.5" stroke="#ffffff" y2="650" x2="900" y1="200" x1="900"></line>
  </g>
</svg>