<svg xmlns="http://www.w3.org/2000/svg" fill="none" viewBox="0 0 172 28" height="28" width="172">
<path fill="#E6E3E0" d="M17.999 22.2139C17.9988 22.6469 17.6478 22.9988 17.2148 22.999H7.15332V21.6143H16.6143V12.1533H17.999V22.2139ZM40.832 7.29102C44.09 7.29103 45.5479 9.28908 45.5479 13.7891C45.5478 18.289 44.09 20.2871 40.832 20.2871C37.574 20.2871 36.1162 18.289 36.1162 13.7891C36.1162 9.28906 37.574 7.29102 40.832 7.29102ZM51.2285 7.29102C53.8025 7.29102 55.4408 8.58734 55.5488 10.8193H53.335C53.209 9.84734 52.3988 9.30664 51.1748 9.30664C50.0049 9.30668 49.2666 9.81111 49.2666 10.7471C49.2666 11.449 49.6812 11.8632 50.4912 12.1152L52.7588 12.8174C54.8287 13.4474 55.8369 14.419 55.8369 16.3809C55.8369 19.0268 54.019 20.2871 51.2471 20.2871C48.3311 20.2871 46.7292 18.9007 46.6572 16.3447H48.9609C49.0149 17.5687 49.8252 18.2168 51.2832 18.2168C52.6151 18.2167 53.4434 17.6589 53.4434 16.543C53.4433 15.769 53.011 15.2646 52.0391 14.9766L49.7354 14.2568C47.8455 13.6629 46.9454 12.6731 46.9453 10.9453C46.9453 8.58745 48.6728 7.29117 51.2285 7.29102ZM61.6621 7.29102C64.236 7.29108 65.8734 8.58739 65.9814 10.8193H63.7676C63.6416 9.84746 62.8321 9.30678 61.6084 9.30664C60.4384 9.30664 59.7002 9.81107 59.7002 10.7471C59.7002 11.449 60.1139 11.8632 60.9238 12.1152L63.1924 12.8174C65.262 13.4474 66.2695 14.4191 66.2695 16.3809C66.2695 19.0269 64.4517 20.2871 61.6797 20.2871C58.7638 20.287 57.1618 18.9007 57.0898 16.3447H59.3936C59.4476 17.5687 60.2579 18.2168 61.7158 18.2168C63.0478 18.2168 63.876 17.659 63.876 16.543C63.876 15.769 63.4437 15.2646 62.4717 14.9766L60.168 14.2568C58.2781 13.6629 57.378 12.6731 57.3779 10.9453C57.3779 8.58731 59.1061 7.29102 61.6621 7.29102ZM82.5635 7.29102C85.8215 7.29102 87.2803 9.28906 87.2803 13.7891C87.2803 18.289 85.8215 20.2871 82.5635 20.2871C79.3058 20.2869 77.8477 18.2889 77.8477 13.7891C77.8477 9.28924 79.3058 7.29118 82.5635 7.29102ZM30.0391 7.5791C33.621 7.57911 35.1152 9.36108 35.1152 13.7891C35.1152 18.217 33.621 19.999 30.0391 19.999H26.1689V7.5791H30.0391ZM71.9512 7.5791C74.831 7.57917 76.2705 8.6594 76.2705 10.8193C76.2704 11.8812 75.929 12.7815 74.7412 13.2314V13.7529C76.199 14.185 76.667 15.2832 76.667 16.5791C76.667 18.847 75.2086 19.999 72.3467 19.999H67.9365V7.5791H71.9512ZM97.5146 9.66699H94.1484V19.999H91.8447V9.66699H88.4785V7.5791H97.5146V9.66699ZM40.832 9.41504C39.212 9.41504 38.5459 10.6571 38.5459 13.7891C38.5459 17.011 39.176 18.1631 40.832 18.1631C42.488 18.1631 43.1357 17.011 43.1357 13.7891C43.1357 10.6571 42.452 9.41506 40.832 9.41504ZM82.5635 9.41504C80.9438 9.41524 80.2783 10.6573 80.2783 13.7891C80.2783 17.0108 80.9078 18.1629 82.5635 18.1631C84.2195 18.1631 84.8682 17.011 84.8682 13.7891C84.8682 10.6571 84.1835 9.41504 82.5635 9.41504ZM70.2227 18.0547H72.2393C73.697 18.0546 74.291 17.551 74.291 16.3271C74.291 15.1032 73.679 14.5987 72.2393 14.5986H70.2227V18.0547ZM28.4912 17.9111H30.0391C32.037 17.9111 32.7031 16.885 32.7031 13.7891C32.7031 10.7471 32.001 9.66701 30.0391 9.66699H28.4912V17.9111ZM10.8457 6.38379H1.38477V15.8447H0V5.78418C0.000193831 5.35117 0.351175 5.00021 0.78418 5H10.8457V6.38379ZM6.92285 12.1533C7.05022 12.1534 7.15332 12.2564 7.15332 12.3838V15.6143C7.15332 15.7417 7.05022 15.8446 6.92285 15.8447H3.69238C3.56494 15.8447 3.46094 15.7417 3.46094 15.6143V12.3838C3.46094 12.2563 3.56494 12.1533 3.69238 12.1533H6.92285ZM14.3066 12.1533C14.4341 12.1533 14.5381 12.2563 14.5381 12.3838V15.6143C14.5381 15.7417 14.4341 15.8447 14.3066 15.8447H11.0762C10.9488 15.8446 10.8457 15.7417 10.8457 15.6143V12.3838C10.8457 12.2564 10.9488 12.1534 11.0762 12.1533H14.3066ZM70.2227 12.7627H71.8965C73.3545 12.7627 73.9492 12.295 73.9492 11.125C73.9492 9.97302 73.3545 9.50488 71.8965 9.50488H70.2227V12.7627Z" clip-rule="evenodd" fill-rule="evenodd"></path>
</svg>
