<svg xmlns="http://www.w3.org/2000/svg" fill="none" viewBox="0 0 60 60" height="60" width="60">
<path fill="#D6CFC7" d="M21.25 45.5627V41.7314L27.5333 45.1865V49.182L21.25 45.5627Z"></path>
<path fill="black" d="M28.2832 44.7432V50.4795L20.5 45.9961V40.4629L28.2832 44.7432ZM22 45.1289L26.7832 47.8848V45.6299L22 42.999V45.1289Z"></path>
<path fill="#161616" d="M17.3738 36.1367C19.584 36.7183 25.4002 44.8998 16.3657 48.1181C14.5219 49.0213 11.4437 46.9267 9.89568 43.7668C8.34768 40.607 8.58742 37.3132 10.4312 36.4099C12.2749 35.5067 14.7498 35.4462 17.3738 36.1367Z"></path>
<path fill="#161616" d="M6.8877 39.8138V36.4436L10.7518 34.2402V37.7847L6.8877 39.8138Z"></path>
<path fill="#161616" d="M34.1834 45.3364C36.3935 45.918 42.2098 54.0995 33.1752 57.3178C31.3315 58.221 28.2532 56.1264 26.7052 52.9665C25.1572 49.8067 25.397 46.5129 27.2407 45.6096C29.0845 44.7064 31.5594 44.6459 34.1834 45.3364Z"></path>
<path fill="#161616" d="M46.9148 38.2563C49.125 38.8379 54.9412 47.0194 45.9067 50.2377C44.0629 51.141 40.9847 49.0463 39.4367 45.8864C37.8887 42.7266 38.1284 39.4328 39.9722 38.5296C41.8159 37.6263 44.2908 37.5658 46.9148 38.2563Z"></path>
<path fill="#D6CFC7" d="M41.138 14.8094L41.138 34.9193L24.9579 44.5075L7.83081 34.0204V13.9105L24.0109 4.32227L41.138 14.8094Z"></path>
<path fill="#57534E" d="M25.7078 24.8252V43.1914L40.3884 34.4912V16.125L25.7078 24.8252ZM8.58081 33.5996L24.2078 43.1689V24.8135C24.1697 24.7898 24.1285 24.7646 24.0847 24.7373C23.7771 24.5458 23.3307 24.2679 22.7751 23.9229C21.6636 23.2325 20.115 22.2727 18.3699 21.1963C15.2814 19.2914 11.5769 17.0251 8.58081 15.2334V33.5996ZM9.29663 13.9131C12.3125 15.7159 16.0505 18.0033 19.158 19.9199C20.9046 20.9972 22.4537 21.9575 23.5662 22.6484C24.1224 22.9939 24.5696 23.2721 24.8777 23.4639C24.9088 23.4832 24.9383 23.5019 24.9666 23.5195L39.6843 14.7979L24.0037 5.19727L9.29663 13.9131ZM41.8884 35.3467L24.9519 45.3828L24.5662 45.1475L7.08081 34.4404V13.4834L24.0173 3.44629L24.4021 3.68262L41.8884 14.3896V35.3467Z"></path>
<path fill="black" d="M21.4474 25.5918V29.6816L20.1484 28.9316V26.3418L17.9055 25.0469V23.5469L21.4474 25.5918Z"></path>
<path fill="black" d="M21.4474 37.6562V33.5664L20.1484 32.8164V35.4062L17.9055 34.1113V35.6113L21.4474 37.6562Z"></path>
<path fill="black" d="M10.9969 19.5591V23.6489L12.2959 24.3989V21.8091L14.5388 23.104V21.604L10.9969 19.5591Z"></path>
<path fill="black" d="M10.9998 31.6235V27.5337L12.2989 28.2837V30.8735L14.5417 32.1685V33.6685L10.9998 31.6235Z"></path>
<path fill="#161616" d="M15.3759 41.0307C14.7816 39.8176 13.9628 38.9228 13.1814 38.4313C12.3809 37.9279 11.8047 37.9411 11.4795 38.1004C10.8595 38.4041 10.1107 38.1478 9.80701 37.5278C9.50329 36.9078 9.75966 36.1591 10.3796 35.8553C11.7702 35.1741 13.2984 35.551 14.5132 36.3152C15.7472 37.0915 16.8557 38.3687 17.621 39.9309C18.3774 41.4748 18.7061 43.0345 18.5341 44.4075C18.3593 45.803 17.6471 47.0505 16.3338 47.6941C15.7138 47.9978 14.965 47.7414 14.6613 47.1215C14.3577 46.5015 14.614 45.7527 15.2339 45.449C15.6359 45.2519 15.9603 44.8422 16.0538 44.0969C16.15 43.3284 15.9791 42.262 15.3759 41.0307Z"></path>
<path fill="#E0DCD8" d="M43.2055 19.4951L50.6331 23.929L53.0366 34.9238V40.8615V45.3705L37.9637 54.0562L27.8525 48.3161V38.3645V28.1381L43.2055 19.4951Z"></path>
<path fill="#161616" d="M37.2139 44.2725L28.6025 39.6211V47.8789L37.2139 52.7676V44.2725ZM36.3896 32.7979L38.4805 42.6484L52.1875 34.5537L50.1162 25.0791L36.3896 32.7979ZM28.6025 37.916L36.8926 42.3936L34.8779 32.9043L28.6025 29.4131V37.916ZM29.3887 28.1338L35.5391 31.5547L49.1367 23.9092L43.1943 20.3613L29.3887 28.1338ZM38.7139 52.7578L52.2861 44.9365V36.2373L38.7139 44.252V52.7578ZM53.7861 45.8037L53.4111 46.0205L37.9668 54.9199L27.1025 48.7529V27.6992L42.8379 18.8418L43.2168 18.6279L43.5898 18.8516L51.0176 23.2852L51.2969 23.4512L53.7695 34.7637L53.7861 34.8428V45.8037Z"></path>
<path fill="#E0DCD8" d="M15.8508 40.9917C16.842 43.0151 16.6802 45.1284 15.4892 45.7118C14.2983 46.2953 12.5292 45.128 11.538 43.1046C10.5467 41.0812 10.7086 38.9679 11.8996 38.3845C13.0905 37.8011 14.8595 38.9684 15.8508 40.9917Z"></path>
<path fill="#161616" d="M32.1052 49.8355C31.4956 48.5912 30.5431 47.5091 29.7605 47.0716C29.374 46.8555 29.2051 46.8909 29.1902 46.8953C29.1864 46.8964 29.1578 46.903 29.1045 46.9601C29.0442 47.0248 28.9485 47.1598 28.8497 47.4166C28.6019 48.0609 27.8787 48.3827 27.2345 48.1351C26.5902 47.8873 26.2684 47.1641 26.516 46.5198C26.8853 45.5598 27.5196 44.7818 28.4821 44.4975C29.4005 44.2262 30.2927 44.5049 30.9806 44.8894C32.3466 45.6532 33.5996 47.2033 34.3503 48.7357C35.1017 50.2695 35.4486 51.8095 35.3154 53.1586C35.1804 54.5255 34.5268 55.7851 33.2301 56.4203C32.6102 56.724 31.8614 56.4677 31.5577 55.8477C31.2541 55.2278 31.5104 54.479 32.1303 54.1753C32.4539 54.0167 32.7538 53.659 32.8275 52.9126C32.903 52.1483 32.7141 51.0785 32.1052 49.8355Z"></path>
<path fill="#161616" d="M27.9219 46.5957H31.845V51.8782H27.9219V46.5957Z"></path>
<path fill="#E0DCD8" d="M32.6513 50.2529C33.6408 52.2726 33.4914 54.376 32.3177 54.951C31.1439 55.526 29.3904 54.3549 28.4009 52.3352C27.4115 50.3155 27.5609 48.2121 28.7346 47.6371C29.9083 47.0621 31.6619 48.2332 32.6513 50.2529Z"></path>
</svg>
