<svg xmlns="http://www.w3.org/2000/svg" fill="none" viewBox="0 0 61 61" height="61" width="61">
<path stroke-width="1.5" stroke="black" fill="#D6CFC7" d="M21.75 45.5625V41.7312L28.0333 45.1863V49.1818L21.75 45.5625Z"></path>
<path fill="#161616" d="M17.8738 36.1362C20.084 36.7178 25.9002 44.8993 16.8657 48.1176C15.0219 49.0208 11.9437 46.9262 10.3957 43.7663C8.84768 40.6065 9.08742 37.3127 10.9312 36.4095C12.7749 35.5062 15.2498 35.4457 17.8738 36.1362Z"></path>
<path fill="#161616" d="M7.3877 39.8138V36.4436L11.2518 34.2402V37.7847L7.3877 39.8138Z"></path>
<path fill="#161616" d="M34.6834 45.3359C36.8935 45.9175 42.7098 54.099 33.6752 57.3173C31.8315 58.2206 28.7532 56.1259 27.2052 52.966C25.6572 49.8062 25.897 46.5124 27.7407 45.6092C29.5845 44.7059 32.0594 44.6454 34.6834 45.3359Z"></path>
<path fill="#161616" d="M47.4148 38.2561C49.625 38.8377 55.4412 47.0192 46.4067 50.2375C44.5629 51.1407 41.4847 49.0461 39.9367 45.8862C38.3887 42.7264 38.6284 39.4326 40.4722 38.5293C42.3159 37.6261 44.7908 37.5655 47.4148 38.2561Z"></path>
<path fill="#D6CFC7" d="M41.6383 14.8091L41.6383 34.919L25.4582 44.5073L8.33105 34.0202V13.9102L24.5112 4.32202L41.6383 14.8091Z"></path>
<path stroke-width="1.5" stroke="#57534E" d="M8.33105 13.9102C14.6498 17.6547 25.4582 24.3974 25.4582 24.3974M8.33105 13.9102V34.0202L25.4582 44.5073M8.33105 13.9102L24.5112 4.32202L41.6383 14.8091M25.4582 24.3974V44.5073M25.4582 24.3974L41.6383 14.8091M41.6383 14.8091L41.6383 34.919L25.4582 44.5073"></path>
<path stroke-width="1.5" stroke="black" d="M18.4551 24.3635L21.3552 26.0379V29.3867"></path>
<path stroke-width="1.5" stroke="black" d="M18.4551 34.9568L21.3552 36.6312V33.2824"></path>
<path stroke-width="1.5" stroke="black" d="M15.0791 22.4153L12.1789 20.7409V24.0897"></path>
<path stroke-width="1.5" stroke="black" d="M15.082 33.0088L12.1819 31.3344V27.9856"></path>
<path stroke-linecap="round" stroke-width="2.5" stroke="#161616" d="M16.2837 46.5718C17.9995 45.7312 18.3579 43.2561 16.9983 40.4808C15.6387 37.7056 13.1455 36.1372 11.4297 36.9778"></path>
<path fill="#E0DCD8" d="M43.7055 19.4951L51.1331 23.929L53.5366 34.9238V40.8615V45.3705L38.4637 54.0562L28.3525 48.3161V38.3645V28.1381L43.7055 19.4951Z"></path>
<path stroke-linecap="round" stroke-width="1.5" stroke="#161616" d="M28.3525 28.1381L36.0414 32.4147M28.3525 28.1381L43.7055 19.4951L51.1331 23.929M28.3525 28.1381V38.3645M36.0414 32.4147L38.4637 43.8253M36.0414 32.4147L51.1331 23.929M51.1331 23.929L53.5366 34.9238M53.5366 34.9238L38.4637 43.8253M53.5366 34.9238V40.8615V45.3705L38.4637 54.0562M38.4637 43.8253L28.3525 38.3645M38.4637 43.8253V49.6551V54.0562M38.4637 54.0562L28.3525 48.3161V38.3645"></path>
<ellipse fill="#E0DCD8" transform="rotate(-26.1001 14.1944 42.0479)" ry="4.07968" rx="2.40127" cy="42.0479" cx="14.1944"></ellipse>
<path stroke-linecap="round" stroke-width="2.5" stroke="#161616" d="M33.1803 55.2978C34.8007 54.5039 35.0881 52.0623 33.7276 49.2853C32.3672 46.5084 29.3166 44.021 28.183 46.9682"></path>
<rect fill="#161616" height="5.28252" width="3.92314" y="46.5957" x="28.4219"></rect>
<ellipse fill="#E0DCD8" transform="rotate(-26.1001 31.0261 51.2938)" ry="4.07223" rx="2.36653" cy="51.2938" cx="31.0261"></ellipse>
</svg>
