<svg xmlns="http://www.w3.org/2000/svg" fill="none" viewBox="0 0 60 60" height="60" width="60">
<path fill="#161616" d="M9.73706 42.6641L29.9041 54.6162V46.8154L9.73706 35.1582V42.6641ZM31.4041 46.8096V54.6152L51.571 42.6641V34.8584L31.4041 46.8096ZM10.4705 33.8506L30.6492 45.5137L50.8357 33.5508L30.658 21.8887L10.4705 33.8506ZM53.071 43.5205L30.6541 56.8047L8.23706 43.5205V33.4316L30.6492 20.1504L52.696 32.8945L53.071 33.1104V43.5205Z"></path>
<path fill="#D6CFC7" d="M45.9989 11.8839L45.9989 41.5214L30.6546 50.6143L15.3103 41.5214V16.9749L30.6546 2.79102L45.9989 11.8839Z"></path>
<path fill="#57534E" d="M31.4207 26.4033V49.2695L45.2322 41.085V13.6357L31.4207 26.4033ZM16.0769 41.085L29.8884 49.2686V26.5039L16.0769 18.3193V41.085ZM16.5857 16.8398L30.5535 25.1162L44.7234 12.0186L30.7546 3.74023L16.5857 16.8398ZM46.7654 41.958L30.655 51.5049L14.5437 41.958V16.6396L30.5535 1.84082L46.7654 11.4473V41.958Z"></path>
<path fill="black" d="M42.9831 24.3813V42.9585L33.8484 48.2324V29.6553L42.9831 24.3813ZM35.1762 45.9336L41.6561 42.1924V32.8857L35.1762 36.627V45.9336ZM35.1762 35.0938L41.6561 31.3525V29.9375L35.1762 33.6787V35.0938ZM35.1762 32.1455L41.6561 28.4043V26.6807L35.1762 30.4219V32.1455Z"></path>
<path fill="#E0DCD8" d="M9.44701 34.1249L30.6539 46.383L51.8579 33.8177C52.0622 33.6966 52.3207 33.8439 52.3207 34.0814L52.3207 42.9182C52.3207 43.0265 52.2636 43.1267 52.1704 43.1819L30.6539 55.9325L9.13733 43.1819C9.04418 43.1267 8.98706 43.0265 8.98706 42.9182V34.3903C8.98706 34.1543 9.24265 34.0068 9.44701 34.1249Z"></path>
<path fill="#161616" d="M9.73706 42.6658L29.9041 54.6169V46.8162L9.73706 35.158V42.6658ZM31.4041 46.8093V54.616L51.571 42.6648V34.8591L31.4041 46.8093ZM53.071 42.9187C53.071 43.2918 52.8734 43.6367 52.5525 43.8269L30.6541 56.8044L8.75464 43.8269C8.43394 43.6366 8.23715 43.2916 8.23706 42.9187V34.3904C8.23719 33.5769 9.11772 33.0692 9.82202 33.4763L30.6482 45.5134L51.4753 33.1726L51.6091 33.1052C52.2874 32.8198 53.071 33.3142 53.071 34.0818V42.9187Z"></path>
</svg>
