<svg xmlns="http://www.w3.org/2000/svg" fill="none" viewBox="0 0 186 66" height="66" width="186">
<path fill="#8C8884" d="M60.8619 46.7306H63.1906V47.2872H60.8619V46.7306ZM60.7409 48.4513H60.0234L61.6373 44.0566H62.4185L64.0297 48.4513H63.3123L62.0443 44.8564H62.0095L60.7416 48.4513H60.7409Z"></path>
<path fill="#8C8884" d="M65.1504 46.4928V48.4483H64.4961V45.1532H65.1241V45.6905H65.1643C65.2419 45.5151 65.3629 45.377 65.5273 45.2693C65.6917 45.1649 65.9021 45.1113 66.1527 45.1113C66.3802 45.1113 66.5821 45.1591 66.7551 45.2526C66.928 45.3461 67.0602 45.4841 67.1556 45.6711C67.2509 45.8549 67.297 46.0839 67.297 46.3548V48.4515H66.6426V46.4335C66.6426 46.1961 66.5795 46.0065 66.4526 45.8711C66.3256 45.7356 66.1527 45.6679 65.9311 45.6679C65.7785 45.6679 65.6456 45.6989 65.5279 45.764C65.4095 45.8291 65.3175 45.922 65.2511 46.0465C65.182 46.171 65.1504 46.318 65.1504 46.4928Z"></path>
<path fill="#8C8884" d="M70.1139 46.7306H72.4426V47.2872H70.1139V46.7306ZM69.9929 48.4513H69.2754L70.8892 44.0566H71.6705L73.2817 48.4513H72.5642L71.2963 44.8564H71.2614L69.9935 48.4513H69.9929Z"></path>
<path fill="#8C8884" d="M74.3899 46.8056C74.3899 47.0372 74.4247 47.241 74.4938 47.4164C74.5628 47.5918 74.6608 47.7273 74.7904 47.8259C74.9199 47.9246 75.0784 47.973 75.2658 47.973C75.4533 47.973 75.6262 47.922 75.7558 47.8201C75.8886 47.7182 75.9866 47.5802 76.0557 47.4016C76.1247 47.2261 76.1563 47.0288 76.1563 46.8082C76.1563 46.5876 76.1214 46.3954 76.0557 46.2232C75.9892 46.051 75.8913 45.9124 75.7591 45.8137C75.6262 45.715 75.4625 45.6641 75.2665 45.6641C75.0705 45.6641 74.918 45.7118 74.7851 45.8079C74.6556 45.904 74.5543 46.0369 74.4885 46.2091C74.4221 46.3813 74.3879 46.5818 74.3879 46.8108L74.3905 46.805L74.3899 46.8056ZM73.75 49.6879V45.1578H74.3899V45.6918H74.4445C74.4819 45.6241 74.5365 45.5448 74.6089 45.4545C74.6812 45.3642 74.7792 45.2849 74.9055 45.2171C75.0324 45.1494 75.1994 45.1152 75.4099 45.1152C75.6808 45.1152 75.9228 45.183 76.1359 45.3158C76.349 45.4512 76.516 45.6434 76.637 45.8982C76.758 46.1523 76.8185 46.4548 76.8185 46.8108C76.8185 47.1668 76.758 47.4719 76.637 47.7266C76.516 47.9807 76.349 48.1761 76.1385 48.3116C75.9281 48.447 75.6861 48.5154 75.4151 48.5154C75.2106 48.5154 75.0436 48.4812 74.9166 48.4135C74.7871 48.3458 74.6858 48.2664 74.6141 48.1787C74.5418 48.0884 74.4846 48.0091 74.4471 47.9388H74.407V49.6879H73.75Z"></path>
<path fill="#8C8884" d="M78.0696 46.8056C78.0696 47.0372 78.1044 47.241 78.1735 47.4164C78.2425 47.5918 78.3405 47.7273 78.4701 47.8259C78.5996 47.9246 78.7581 47.973 78.9455 47.973C79.133 47.973 79.3059 47.922 79.4355 47.8201C79.5683 47.7182 79.6663 47.5802 79.7354 47.4016C79.8044 47.2261 79.836 47.0288 79.836 46.8082C79.836 46.5876 79.8011 46.3954 79.7354 46.2232C79.6689 46.051 79.5709 45.9124 79.4388 45.8137C79.3059 45.715 79.1422 45.6641 78.9462 45.6641C78.7502 45.6641 78.5976 45.7118 78.4648 45.8079C78.3352 45.904 78.234 46.0369 78.1682 46.2091C78.1018 46.3813 78.0676 46.5818 78.0676 46.8108L78.0702 46.805L78.0696 46.8056ZM77.4297 49.6879V45.1578H78.0696V45.6918H78.1241C78.1616 45.6241 78.2162 45.5448 78.2886 45.4545C78.3609 45.3642 78.4589 45.2849 78.5852 45.2171C78.7121 45.1494 78.8791 45.1152 79.0896 45.1152C79.3605 45.1152 79.6025 45.183 79.8156 45.3158C80.0287 45.4512 80.1957 45.6434 80.3167 45.8982C80.4377 46.1523 80.4982 46.4548 80.4982 46.8108C80.4982 47.1668 80.4377 47.4719 80.3167 47.7266C80.1957 47.9807 80.0287 48.1761 79.8182 48.3116C79.6078 48.447 79.3658 48.5154 79.0948 48.5154C78.8903 48.5154 78.7233 48.4812 78.5963 48.4135C78.4668 48.3458 78.3655 48.2664 78.2938 48.1787C78.2215 48.0884 78.1643 48.0091 78.1268 47.9388H78.0867V49.6879H77.4297Z"></path>
<path fill="#8C8884" d="M81.8362 47.8721H82.574C82.914 47.8721 83.1995 47.8102 83.4244 47.6825C83.6493 47.5555 83.8189 47.3716 83.9314 47.1317C84.0439 46.8918 84.0984 46.5977 84.0984 46.2501C84.0984 45.9025 84.0439 45.6142 83.9314 45.3743C83.8189 45.1343 83.6545 44.9505 83.4329 44.8261C83.2139 44.7016 82.9403 44.6397 82.6115 44.6397H81.8336V47.8753L81.8362 47.8728V47.8721ZM82.6115 48.4513H81.1621V44.0566H82.6576C83.0956 44.0566 83.473 44.1444 83.7874 44.3198C84.1017 44.4952 84.3437 44.7467 84.5134 45.0718C84.6804 45.3994 84.7673 45.7896 84.7673 46.2475C84.7673 46.7054 84.6837 47.0982 84.5134 47.429C84.3431 47.7567 84.0984 48.0114 83.7788 48.1862C83.4592 48.3616 83.0699 48.4519 82.6148 48.4519H82.6122L82.6115 48.4513Z"></path>
<path fill="#8C8884" d="M85.4305 48.4522V45.1572H86.0848V48.4522H85.4305ZM85.7619 44.6484C85.6495 44.6484 85.5515 44.6116 85.4706 44.5355C85.3897 44.4594 85.3496 44.3717 85.3496 44.2672C85.3496 44.1627 85.3897 44.0692 85.4706 43.9957C85.5515 43.9196 85.6495 43.8828 85.7619 43.8828C85.8744 43.8828 85.9724 43.9196 86.0533 43.9957C86.1342 44.0718 86.1743 44.1627 86.1743 44.2672C86.1743 44.3717 86.1342 44.462 86.0533 44.5355C85.9724 44.609 85.8744 44.6484 85.7619 44.6484Z"></path>
<path fill="#8C8884" d="M86.8431 48.4508V45.1558H87.4745V45.6788H87.5093C87.5698 45.5008 87.6796 45.3622 87.8348 45.2603C87.9907 45.1584 88.1663 45.1074 88.3623 45.1074C88.4024 45.1074 88.4517 45.1074 88.5063 45.11C88.5642 45.1126 88.6069 45.1158 88.6391 45.1216V45.735C88.6135 45.7266 88.5668 45.7208 88.4977 45.7098C88.4313 45.7014 88.3623 45.6956 88.2958 45.6956C88.14 45.6956 88.0045 45.7266 87.8835 45.7917C87.7625 45.8536 87.6671 45.9446 87.5981 46.0548C87.529 46.1651 87.4942 46.2948 87.4942 46.4367V48.4489H86.8398L86.8425 48.4515L86.8431 48.4508Z"></path>
<path fill="#8C8884" d="M90.4092 48.5166C90.0778 48.5166 89.7924 48.4457 89.5563 48.3077C89.3202 48.169 89.1354 47.9716 89.0058 47.7169C88.8763 47.4628 88.8125 47.1661 88.8125 46.8237C88.8125 46.4812 88.8756 46.1877 89.0058 45.9304C89.1354 45.6731 89.3169 45.4725 89.5477 45.3287C89.7812 45.1849 90.0521 45.1113 90.3632 45.1113C90.5533 45.1113 90.7381 45.1423 90.9136 45.2048C91.0925 45.2668 91.251 45.3629 91.3917 45.4957C91.5331 45.6286 91.6456 45.7982 91.7258 46.0072C91.8067 46.2161 91.8468 46.4709 91.8468 46.7701V46.9965H89.1755V46.516H91.2043C91.2043 46.3464 91.1695 46.1968 91.1004 46.0665C91.0314 45.9362 90.9334 45.8317 90.8064 45.7556C90.6795 45.6795 90.5329 45.6428 90.3625 45.6428C90.1784 45.6428 90.0199 45.6879 89.8812 45.7756C89.7457 45.8633 89.6391 45.9794 89.5668 46.1174C89.4918 46.2587 89.457 46.4115 89.457 46.5753V46.9513C89.457 47.1719 89.4971 47.3583 89.5754 47.5137C89.6562 47.6692 89.7654 47.7853 89.9094 47.8672C90.0535 47.9491 90.2205 47.9884 90.4106 47.9884C90.5342 47.9884 90.6466 47.9716 90.7505 47.9349C90.8512 47.9007 90.9406 47.8472 91.0156 47.7769C91.0905 47.7059 91.1484 47.6214 91.1859 47.517L91.8054 47.6272C91.7567 47.8053 91.6673 47.9633 91.5404 48.0961C91.4134 48.229 91.2523 48.3335 91.0623 48.407C90.8689 48.4805 90.6532 48.5173 90.4079 48.5173L90.4092 48.5166Z"></path>
<path fill="#8C8884" d="M93.8731 48.5179C93.5476 48.5179 93.2681 48.4444 93.0346 48.3006C92.8012 48.1568 92.6197 47.9555 92.496 47.6989C92.3691 47.4415 92.3086 47.1507 92.3086 46.8198C92.3086 46.4889 92.3717 46.1897 92.5019 45.9324C92.6315 45.675 92.8104 45.4744 93.0438 45.3306C93.2773 45.1868 93.5509 45.1133 93.8678 45.1133C94.1243 45.1133 94.3492 45.1584 94.5511 45.2519C94.7497 45.3455 94.9115 45.4725 95.0351 45.6389C95.1588 45.8059 95.2311 45.9981 95.2541 46.2213H94.6175C94.5827 46.0659 94.5025 45.933 94.3782 45.8227C94.2545 45.7099 94.0868 45.6557 93.8797 45.6557C93.6982 45.6557 93.5371 45.7034 93.4016 45.7969C93.2661 45.8904 93.1596 46.0233 93.0846 46.1955C93.0096 46.3677 92.9721 46.5715 92.9721 46.8063C92.9721 47.041 93.0096 47.2526 93.0846 47.428C93.1596 47.6034 93.2635 47.7388 93.4016 47.8324C93.5371 47.9285 93.6982 47.9762 93.883 47.9762C94.0066 47.9762 94.1191 47.9536 94.2203 47.9085C94.3209 47.8633 94.4078 47.7982 94.4768 47.7137C94.5459 47.6292 94.5952 47.5273 94.6208 47.4086H95.2574C95.2344 47.6208 95.1621 47.813 95.0443 47.9794C94.926 48.1464 94.7675 48.2787 94.5715 48.3748C94.3755 48.4709 94.1421 48.5186 93.877 48.5186H93.8744L93.8731 48.5179Z"></path>
<path fill="#8C8884" d="M96.059 44.3652H96.7133V47.4822C96.7133 47.6067 96.7337 47.6996 96.7712 47.7621C96.8087 47.8241 96.8573 47.8666 96.9178 47.8892C96.9783 47.9118 97.0448 47.9234 97.1164 47.9234C97.1684 47.9234 97.2144 47.9208 97.2545 47.9118C97.2947 47.9034 97.3236 47.8976 97.3466 47.895L97.465 48.4264C97.4275 48.4406 97.3729 48.4548 97.3039 48.4716C97.2348 48.4858 97.1454 48.4942 97.0415 48.4967C96.8685 48.4993 96.71 48.4684 96.5601 48.4064C96.4101 48.3445 96.2918 48.2452 96.1997 48.1156C96.1076 47.9827 96.0616 47.8189 96.0616 47.6209V44.371L96.059 44.3652ZM97.4019 45.1566V45.6712H95.5664V45.1566H97.4019Z"></path>
<path fill="#8C8884" d="M103.282 45.4878H102.599C102.573 45.344 102.524 45.2195 102.452 45.1092C102.38 44.999 102.294 44.9087 102.19 44.8326C102.086 44.7565 101.971 44.6997 101.844 44.6604C101.717 44.621 101.582 44.601 101.438 44.601C101.178 44.601 100.948 44.6662 100.746 44.7932C100.541 44.9203 100.383 45.1067 100.264 45.353C100.146 45.5988 100.089 45.8987 100.089 46.2547C100.089 46.6107 100.147 46.9132 100.264 47.1589C100.383 47.4046 100.544 47.591 100.746 47.7155C100.95 47.8425 101.181 47.9051 101.434 47.9051C101.576 47.9051 101.711 47.8851 101.837 47.8483C101.964 47.8116 102.079 47.7548 102.183 47.6787C102.287 47.6052 102.377 47.5117 102.448 47.4046C102.521 47.2969 102.569 47.1731 102.598 47.0318H103.282C103.244 47.2492 103.175 47.4472 103.071 47.6284C102.967 47.809 102.832 47.9644 102.671 48.0973C102.51 48.2301 102.322 48.3288 102.114 48.3997C101.906 48.4707 101.679 48.5074 101.431 48.5074C101.042 48.5074 100.696 48.4172 100.394 48.2359C100.091 48.0553 99.852 47.7948 99.6765 47.4588C99.5009 47.1228 99.4141 46.7184 99.4141 46.2521C99.4141 45.7858 99.5002 45.3788 99.6765 45.0428C99.852 44.7068 100.091 44.4462 100.394 44.2657C100.696 44.0851 101.042 43.9941 101.428 43.9941C101.664 43.9941 101.887 44.0283 102.094 44.0928C102.302 44.1605 102.486 44.2566 102.65 44.3837C102.815 44.5107 102.95 44.6662 103.059 44.85C103.166 45.0338 103.241 45.2427 103.278 45.4801L103.281 45.4885L103.282 45.4878Z"></path>
<path fill="#8C8884" d="M105.334 47.9801C105.539 47.9801 105.706 47.9265 105.841 47.822C105.977 47.7143 106.075 47.5763 106.141 47.3983C106.207 47.2229 106.239 47.0281 106.239 46.8159C106.239 46.6037 106.207 46.4116 106.141 46.2368C106.078 46.0613 105.977 45.9175 105.841 45.8098C105.706 45.7021 105.539 45.6486 105.334 45.6486C105.13 45.6486 104.959 45.7021 104.824 45.8098C104.688 45.9175 104.588 46.0588 104.524 46.2368C104.457 46.4122 104.426 46.607 104.426 46.8159C104.426 47.0249 104.457 47.2229 104.524 47.3983C104.587 47.5737 104.688 47.715 104.824 47.822C104.959 47.9265 105.129 47.9801 105.334 47.9801ZM105.331 48.5166C105.017 48.5166 104.741 48.4457 104.507 48.3045C104.274 48.1632 104.09 47.9652 103.96 47.7111C103.83 47.457 103.764 47.1603 103.764 46.8179C103.764 46.4754 103.83 46.1761 103.96 45.922C104.089 45.6679 104.271 45.4667 104.507 45.3255C104.744 45.1842 105.018 45.1133 105.331 45.1133C105.645 45.1133 105.922 45.1842 106.155 45.3255C106.389 45.4667 106.573 45.6647 106.703 45.922C106.833 46.1794 106.899 46.476 106.899 46.8179C106.899 47.1597 106.833 47.4564 106.703 47.7111C106.574 47.9652 106.392 48.1632 106.155 48.3045C105.919 48.4457 105.645 48.5166 105.331 48.5166Z"></path>
<path fill="#8C8884" d="M107.501 48.4528V45.1578H108.129V45.695H108.169C108.239 45.5145 108.354 45.3726 108.512 45.2681C108.671 45.1662 108.861 45.1152 109.083 45.1152C109.305 45.1152 109.495 45.1662 109.648 45.2707C109.8 45.3726 109.913 45.5164 109.985 45.6944H110.02C110.101 45.519 110.227 45.3777 110.403 45.2732C110.579 45.1688 110.787 45.1152 111.029 45.1152C111.334 45.1152 111.582 45.2088 111.775 45.3977C111.969 45.5841 112.067 45.8666 112.067 46.2458V48.456H111.412V46.3052C111.412 46.082 111.349 45.9208 111.225 45.8189C111.101 45.7202 110.954 45.6692 110.781 45.6692C110.568 45.6692 110.403 45.7344 110.285 45.8614C110.167 45.9885 110.106 46.1523 110.106 46.3529V48.4528H109.455V46.2626C109.455 46.0846 109.397 45.9401 109.285 45.8305C109.17 45.7228 109.022 45.6667 108.841 45.6667C108.717 45.6667 108.602 45.6976 108.498 45.7628C108.394 45.8247 108.311 45.9156 108.248 46.0285C108.185 46.1413 108.152 46.2716 108.152 46.4212V48.4535H107.498H107.501L107.501 48.4528Z"></path>
<path fill="#8C8884" d="M113.463 46.8056C113.463 47.0372 113.498 47.241 113.567 47.4164C113.636 47.5918 113.734 47.7273 113.863 47.8259C113.993 47.9246 114.151 47.973 114.339 47.973C114.526 47.973 114.699 47.922 114.829 47.8201C114.962 47.7182 115.06 47.5802 115.129 47.4016C115.198 47.2261 115.229 47.0288 115.229 46.8082C115.229 46.5876 115.194 46.3954 115.131 46.2232C115.065 46.051 114.964 45.9124 114.835 45.8137C114.705 45.715 114.538 45.6641 114.342 45.6641C114.146 45.6641 113.994 45.7118 113.861 45.8079C113.731 45.904 113.63 46.0369 113.564 46.2091C113.498 46.3813 113.463 46.5818 113.463 46.8108V46.805L113.463 46.8056ZM112.82 49.6879V45.1578H113.46V45.6918H113.515C113.552 45.6241 113.607 45.5448 113.679 45.4545C113.752 45.3642 113.85 45.2849 113.976 45.2171C114.103 45.1494 114.27 45.1152 114.48 45.1152C114.751 45.1152 114.993 45.183 115.206 45.3158C115.419 45.4512 115.586 45.6434 115.707 45.8982C115.828 46.1523 115.889 46.4548 115.889 46.8108C115.889 47.1668 115.828 47.4719 115.707 47.7266C115.586 47.9807 115.419 48.1761 115.209 48.3116C114.998 48.447 114.756 48.5154 114.485 48.5154C114.281 48.5154 114.114 48.4812 113.987 48.4135C113.857 48.3458 113.756 48.2664 113.684 48.1787C113.612 48.0884 113.555 48.0091 113.517 47.9388H113.477V49.6879H112.82Z"></path>
<path fill="#8C8884" d="M117.623 48.0084C117.804 48.0084 117.96 47.9742 118.086 47.9039C118.216 47.833 118.314 47.7427 118.38 47.6273C118.447 47.5112 118.481 47.3925 118.481 47.2629V46.8391C118.458 46.8617 118.412 46.8843 118.346 46.9011C118.279 46.9178 118.204 46.9378 118.118 46.9488C118.035 46.963 117.951 46.9739 117.87 46.9856C117.789 46.9972 117.723 47.0055 117.668 47.0139C117.541 47.0307 117.426 47.0565 117.322 47.0933C117.218 47.13 117.135 47.1835 117.072 47.2545C117.011 47.3254 116.98 47.4157 116.98 47.5312C116.98 47.6892 117.04 47.8111 117.159 47.8904C117.28 47.9723 117.43 48.0117 117.617 48.0117L117.623 48.0091V48.0084ZM117.479 48.5257C117.266 48.5257 117.072 48.4863 116.903 48.4096C116.73 48.3303 116.594 48.2174 116.494 48.0703C116.393 47.9233 116.344 47.7395 116.344 47.5221C116.344 47.3358 116.381 47.1829 116.454 47.0642C116.526 46.943 116.624 46.8495 116.75 46.7785C116.874 46.7076 117.013 46.654 117.165 46.6205C117.318 46.5837 117.474 46.5586 117.632 46.5386C117.834 46.516 117.998 46.496 118.122 46.4819C118.246 46.4677 118.338 46.4425 118.396 46.4083C118.453 46.3741 118.482 46.318 118.482 46.2413V46.2271C118.482 46.0407 118.427 45.8937 118.321 45.7918C118.214 45.6899 118.056 45.6363 117.843 45.6363C117.629 45.6363 117.448 45.6841 117.324 45.7776C117.197 45.8737 117.111 45.9781 117.061 46.0942L116.448 45.9556C116.52 45.755 116.627 45.5938 116.767 45.4693C116.909 45.3448 117.07 45.2545 117.255 45.1978C117.439 45.141 117.632 45.1133 117.834 45.1133C117.967 45.1133 118.111 45.1275 118.261 45.1584C118.411 45.1894 118.552 45.2461 118.684 45.328C118.817 45.41 118.924 45.526 119.01 45.6757C119.093 45.8253 119.137 46.0233 119.137 46.2632V48.4509H118.497V48.0013H118.471C118.428 48.0832 118.365 48.1652 118.281 48.2471C118.198 48.3264 118.088 48.3941 117.956 48.4476C117.823 48.5012 117.664 48.527 117.478 48.527L117.48 48.5244L117.479 48.5257Z"></path>
<path fill="#8C8884" d="M120.539 46.4947V48.4502H119.885V45.1552H120.513V45.6924H120.553C120.631 45.517 120.752 45.379 120.916 45.2713C121.08 45.1668 121.291 45.1133 121.541 45.1133C121.769 45.1133 121.971 45.161 122.144 45.2545C122.317 45.348 122.449 45.4861 122.544 45.6731C122.64 45.8569 122.686 46.0859 122.686 46.3567V48.4534H122.031V46.4354C122.031 46.1981 121.968 46.0085 121.841 45.873C121.714 45.7376 121.539 45.6699 121.32 45.6699C121.167 45.6699 121.034 45.7008 120.917 45.766C120.798 45.8311 120.706 45.924 120.64 46.0484C120.571 46.1729 120.539 46.32 120.539 46.4947Z"></path>
<path fill="#8C8884" d="M123.731 49.6883C123.633 49.6883 123.544 49.6799 123.463 49.6657C123.382 49.6515 123.322 49.6348 123.284 49.618L123.443 49.0924C123.561 49.1233 123.668 49.1375 123.762 49.1317C123.854 49.1291 123.938 49.0924 124.01 49.0298C124.083 48.9647 124.146 48.8602 124.2 48.7131L124.281 48.4958L123.051 45.1582H123.751L124.601 47.716H124.636L125.487 45.1582H126.19L124.803 48.8944C124.74 49.0666 124.657 49.211 124.559 49.3297C124.461 49.4484 124.342 49.5387 124.204 49.598C124.066 49.6573 123.908 49.6883 123.729 49.6883H123.731Z"></path>
<path fill="#8C8884" d="M59.9102 39.4808V21.8184H71.0781V24.1124H62.6275V29.4938H70.2778V31.7795H62.6275V39.4808H59.9102Z"></path>
<path fill="#8C8884" d="M74.2966 24.1903C73.8396 24.1903 73.4483 24.0394 73.1227 23.7375C72.7972 23.4357 72.6348 23.0752 72.6348 22.6553C72.6348 22.2355 72.7972 21.8659 73.1227 21.5641C73.4483 21.2622 73.8396 21.1113 74.2966 21.1113C74.7537 21.1113 75.145 21.2622 75.4705 21.5641C75.796 21.8659 75.9585 22.2297 75.9585 22.6553C75.9585 23.081 75.796 23.4357 75.4705 23.7375C75.145 24.0394 74.7537 24.1903 74.2966 24.1903ZM72.9688 39.4812V26.2348H75.5981V39.4812H72.9688Z"></path>
<path fill="#8C8884" d="M77.401 39.4816V26.2351H79.9421V28.3396H80.0829C80.3288 27.6269 80.7642 27.0645 81.3889 26.6537C82.013 26.2428 82.7213 26.0371 83.5124 26.0371C83.6762 26.0371 83.8715 26.0429 84.0971 26.0545C84.3226 26.0661 84.5002 26.0803 84.6291 26.0977V28.564C84.5232 28.535 84.3358 28.5021 84.0662 28.4647C83.7965 28.4273 83.5269 28.4086 83.2573 28.4086C82.6358 28.4086 82.0834 28.5363 81.5994 28.7923C81.116 29.0483 80.7333 29.4018 80.4518 29.8532C80.1703 30.3047 80.0296 30.8181 80.0296 31.3927V39.4822H77.4004L77.401 39.4816Z"></path>
<path fill="#8C8884" d="M95.7982 29.4698L93.4149 29.8838C93.315 29.5852 93.1585 29.3001 92.9447 29.0299C92.7304 28.7597 92.4423 28.5385 92.0786 28.3656C91.715 28.1934 91.2612 28.107 90.7154 28.107C89.9709 28.107 89.3495 28.2695 88.851 28.5939C88.3525 28.919 88.1032 29.3369 88.1032 29.849C88.1032 30.2921 88.2703 30.6481 88.6044 30.9183C88.9384 31.1885 89.4777 31.4097 90.2221 31.5826L92.368 32.0656C93.6109 32.3475 94.5369 32.7815 95.1465 33.3678C95.7561 33.954 96.0613 34.7164 96.0613 35.6528C96.0613 36.4461 95.8285 37.1523 95.3622 37.7702C94.8959 38.388 94.2482 38.8724 93.4189 39.2232C92.589 39.5741 91.6295 39.7495 90.5391 39.7495C89.0266 39.7495 87.7922 39.4322 86.8366 38.7963C85.8811 38.161 85.2945 37.2568 85.0781 36.0843L87.6192 35.7051C87.7777 36.3545 88.1026 36.8447 88.5951 37.1755C89.0877 37.5064 89.7296 37.6715 90.5214 37.6715C91.3829 37.6715 92.0721 37.4948 92.5876 37.1413C93.1032 36.7879 93.3617 36.3552 93.3617 35.8437C93.3617 35.4297 93.2045 35.082 92.8915 34.8002C92.5778 34.5184 92.0984 34.3055 91.4539 34.1624L89.1673 33.6709C87.9066 33.3891 86.9761 32.9408 86.375 32.3256C85.7739 31.7103 85.4734 30.9312 85.4734 29.9883C85.4734 29.2066 85.6963 28.5223 86.1415 27.9361C86.5867 27.3498 87.2023 26.8913 87.9882 26.5604C88.774 26.2302 89.6737 26.0645 90.6877 26.0645C92.1477 26.0645 93.2966 26.3734 94.1351 26.9919C94.9735 27.6097 95.5273 28.4366 95.7969 29.471L95.7982 29.4698Z"></path>
<path fill="#8C8884" d="M104.015 26.235V28.3046H96.6367V26.235H104.015ZM98.6149 23.0612H101.244V35.5918C101.244 36.0916 101.32 36.467 101.473 36.7172C101.626 36.9674 101.823 37.1371 102.067 37.2261C102.31 37.3151 102.575 37.3596 102.863 37.3596C103.074 37.3596 103.258 37.3454 103.416 37.3164C103.575 37.2873 103.698 37.2648 103.786 37.2474L104.261 39.3776C104.108 39.435 103.891 39.4937 103.61 39.5543C103.328 39.6149 102.976 39.6478 102.554 39.6536C101.862 39.6652 101.217 39.5446 100.619 39.2912C100.022 39.0384 99.5375 38.6475 99.1686 38.118C98.799 37.5892 98.6149 36.9249 98.6149 36.1258V23.0605V23.0612Z"></path>
<path fill="#8C8884" d="M105.664 39.4808V21.8184H108.293V28.3813H108.452C108.604 28.1053 108.824 27.786 109.111 27.4242C109.399 27.0617 109.797 26.7444 110.308 26.471C110.818 26.1982 111.492 26.0614 112.33 26.0614C113.42 26.0614 114.393 26.3317 115.249 26.8721C116.105 27.4126 116.777 28.1917 117.267 29.2094C117.757 30.2271 118.002 31.4519 118.002 32.883C118.002 34.3141 117.759 35.5408 117.272 36.5611C116.785 37.5814 116.117 38.3663 115.267 38.9151C114.417 39.464 113.447 39.7387 112.356 39.7387C111.535 39.7387 110.865 39.6033 110.347 39.3331C109.828 39.0628 109.422 38.7468 109.129 38.3844C108.836 38.0219 108.61 37.7001 108.452 37.4182H108.232V39.4795H105.665L105.664 39.4808ZM108.241 32.8572C108.241 33.7885 108.378 34.605 108.654 35.3067C108.93 36.0084 109.328 36.5559 109.851 36.9494C110.372 37.3434 111.011 37.5401 111.768 37.5401C112.524 37.5401 113.21 37.3344 113.737 36.9236C114.265 36.5127 114.665 35.9536 114.937 35.2461C115.21 34.5386 115.346 33.7427 115.346 32.8572C115.346 31.9717 115.213 31.1984 114.947 30.5032C114.68 29.8073 114.281 29.2584 113.75 28.856C113.22 28.4535 112.559 28.2523 111.768 28.2523C110.976 28.2523 110.362 28.4451 109.837 28.8302C109.313 29.2152 108.915 29.7531 108.646 30.4425C108.376 31.1326 108.241 31.9375 108.241 32.8572H108.241Z"></path>
<path fill="#8C8884" d="M123.642 39.774C122.786 39.774 122.012 39.6172 121.321 39.3038C120.629 38.9904 120.082 38.535 119.681 37.9372C119.279 37.3393 119.078 36.606 119.078 35.7379C119.078 34.9904 119.225 34.3752 119.518 33.8921C119.811 33.409 120.207 33.0266 120.705 32.7454C121.204 32.4635 121.761 32.2507 122.376 32.1069C122.992 31.9631 123.619 31.8541 124.258 31.7793C125.067 31.6877 125.724 31.6109 126.228 31.5509C126.732 31.4903 127.099 31.3916 127.327 31.2536C127.556 31.1156 127.669 30.8912 127.669 30.5809V30.5203C127.669 29.767 127.454 29.1834 127.023 28.7693C126.592 28.3553 125.952 28.1482 125.101 28.1482C124.251 28.1482 123.52 28.3391 123.013 28.7216C122.506 29.104 122.155 29.5278 121.962 29.9934L119.49 29.4413C119.784 28.6364 120.213 27.9851 120.779 27.4878C121.344 26.9906 121.997 26.6281 122.735 26.4011C123.474 26.1741 124.25 26.0605 125.066 26.0605C125.605 26.0605 126.179 26.1225 126.785 26.2463C127.392 26.3701 127.96 26.5958 128.491 26.9235C129.022 27.2511 129.457 27.7187 129.797 28.3249C130.137 28.9318 130.307 29.7174 130.307 30.6835V39.4799H127.739V37.6689H127.634C127.464 38.0023 127.209 38.3299 126.869 38.6518C126.529 38.9736 126.092 39.2412 125.559 39.4541C125.026 39.6669 124.387 39.7733 123.642 39.7733V39.774ZM124.214 37.7043C124.941 37.7043 125.564 37.5637 126.083 37.2819C126.602 37.0001 126.998 36.6305 127.27 36.1739C127.543 35.7173 127.679 35.2265 127.679 34.7034V32.9956C127.585 33.0878 127.405 33.1723 127.139 33.2497C126.872 33.3271 126.569 33.3935 126.229 33.4484C125.889 33.5032 125.557 33.5516 125.235 33.5948C124.913 33.638 124.643 33.6741 124.426 33.7025C123.916 33.7657 123.451 33.8721 123.032 34.0217C122.614 34.1713 122.279 34.3855 122.03 34.6641C121.781 34.9433 121.657 35.3123 121.657 35.7721C121.657 36.4106 121.897 36.8917 122.377 37.2168C122.858 37.5418 123.47 37.7043 124.216 37.7043H124.214Z"></path>
<path fill="#8C8884" d="M142.196 29.4698L139.813 29.8838C139.713 29.5852 139.556 29.3001 139.343 29.0299C139.129 28.7597 138.84 28.5385 138.476 28.3656C138.113 28.1934 137.658 28.107 137.113 28.107C136.369 28.107 135.747 28.2695 135.249 28.5939C134.75 28.919 134.501 29.3369 134.501 29.849C134.501 30.2921 134.668 30.6481 135.002 30.9183C135.336 31.1885 135.875 31.4097 136.62 31.5826L138.766 32.0656C140.009 32.3475 140.935 32.7815 141.544 33.3678C142.154 33.954 142.459 34.7164 142.459 35.6528C142.459 36.4461 142.226 37.1523 141.76 37.7702C141.294 38.388 140.646 38.8724 139.817 39.2232C138.987 39.5741 138.027 39.7495 136.937 39.7495C135.424 39.7495 134.19 39.4322 133.235 38.7963C132.28 38.161 131.693 37.2568 131.477 36.0843L134.018 35.7051C134.176 36.3545 134.501 36.8447 134.994 37.1755C135.486 37.5064 136.128 37.6715 136.919 37.6715C137.781 37.6715 138.47 37.4948 138.985 37.1413C139.501 36.7879 139.759 36.3552 139.759 35.8437C139.759 35.4297 139.602 35.082 139.289 34.8002C138.976 34.5184 138.496 34.3055 137.852 34.1624L135.565 33.6709C134.304 33.3891 133.374 32.9408 132.773 32.3256C132.172 31.7103 131.871 30.9312 131.871 29.9883C131.871 29.2066 132.094 28.5223 132.539 27.9361C132.985 27.3498 133.6 26.8913 134.386 26.5604C135.172 26.2302 136.071 26.0645 137.086 26.0645C138.545 26.0645 139.694 26.3734 140.533 26.9919C141.371 27.6097 141.925 28.4366 142.195 29.471L142.196 29.4698Z"></path>
<path fill="#8C8884" d="M149.926 39.7488C148.595 39.7488 147.451 39.4683 146.492 38.9078C145.533 38.3474 144.795 37.5567 144.276 36.5364C143.757 35.5161 143.498 34.3184 143.498 32.9447C143.498 31.571 143.758 30.392 144.276 29.3569C144.795 28.3217 145.522 27.5143 146.457 26.9338C147.392 26.3534 148.487 26.0625 149.741 26.0625C150.503 26.0625 151.242 26.1863 151.957 26.4333C152.673 26.6804 153.315 27.0686 153.883 27.5975C154.452 28.1263 154.9 28.8119 155.228 29.6542C155.556 30.4965 155.721 31.5187 155.721 32.7202V33.6341H144.984V31.7025H153.144C153.144 31.024 153.003 30.4217 152.722 29.896C152.441 29.3698 152.046 28.9544 151.539 28.65C151.032 28.3456 150.438 28.1927 149.758 28.1927C149.02 28.1927 148.376 28.3695 147.828 28.7229C147.279 29.0763 146.858 29.5368 146.561 30.1031C146.265 30.6693 146.117 31.2833 146.117 31.9444V33.4535C146.117 34.3391 146.277 35.0923 146.597 35.7128C146.916 36.3339 147.363 36.8066 147.938 37.1317C148.513 37.4567 149.183 37.6192 149.951 37.6192C150.45 37.6192 150.904 37.5489 151.315 37.4077C151.725 37.2671 152.08 37.0556 152.379 36.7737C152.678 36.4919 152.906 36.1442 153.065 35.7302L155.553 36.17C155.354 36.8885 154.997 37.5167 154.484 38.0546C153.972 38.5925 153.33 39.0091 152.559 39.3051C151.788 39.6011 150.91 39.7495 149.925 39.7495L149.926 39.7488Z"></path>
<path fill="#8C8884" d="M44.697 41.6833L32.3828 33.2874V28.0215L44.697 36.0201V41.6833Z" opacity="0.75"></path>
<path fill="#8C8884" d="M44.697 19.6797L32.3828 27.6783V33.179L44.697 25.1804V19.6797Z" opacity="0.85"></path>
<path fill="#8C8884" d="M44.6973 36.0199V25.1816L52.5501 30.6011L44.6973 36.0199Z" opacity="0.95"></path>
</svg>
