<svg xmlns="http://www.w3.org/2000/svg" fill="none" viewBox="0 0 60 60" height="60" width="60">
<path fill="#161616" d="M51.6182 42.0566V29.1797L30.7002 16.7842L10.5049 28.752C14.5485 31.1482 19.4294 34.0408 23.4229 36.4072C25.6024 37.6988 27.5175 38.8345 28.8877 39.6465C29.5724 40.0523 30.1215 40.3768 30.499 40.6006C30.6878 40.7124 30.8338 40.7999 30.9326 40.8584C30.982 40.8876 31.0197 40.9098 31.0449 40.9248C31.0576 40.9323 31.0678 40.9376 31.0742 40.9414C31.0772 40.9432 31.0795 40.9444 31.0811 40.9453L31.083 40.9463C31.4393 41.1574 31.5577 41.6183 31.3467 41.9746C31.1487 42.3086 30.7316 42.4331 30.3867 42.2734L30.3184 42.2373L30.3164 42.2363C30.3148 42.2354 30.3118 42.2333 30.3086 42.2314C30.3022 42.2277 30.2925 42.2221 30.2803 42.2148C30.255 42.1999 30.2172 42.1776 30.168 42.1484C30.0692 42.0899 29.923 42.0034 29.7344 41.8916C29.3568 41.6678 28.808 41.3424 28.123 40.9365C26.7528 40.1245 24.8377 38.9898 22.6582 37.6982C18.6792 35.3403 13.8192 32.4595 9.78418 30.0684V42.8213L11.4258 43.8066C11.7809 44.0197 11.8966 44.4808 11.6836 44.8359C11.4705 45.1911 11.0095 45.3068 10.6543 45.0938L8.28418 43.6709V28.3252L30.7012 15.041L53.1182 28.3252V42.0566C53.118 42.4706 52.7821 42.8065 52.3682 42.8066C51.9541 42.8066 51.6184 42.4707 51.6182 42.0566Z"></path>
<path fill="#D6CFC7" d="M40.8716 7.15535V38.3642L26.1508 47.0876L22.4209 44.8849V13.6761L37.1417 4.95264L40.8716 7.15535Z"></path>
<path fill="#57534E" d="M23.1709 44.4556L25.4004 45.7729V16.3062L23.1709 14.9897V44.4556ZM26.9004 16.3062V45.772L40.1221 37.936V8.47021L26.9004 16.3062ZM23.8936 13.6753L26.1504 15.0073L39.3984 7.15576L37.1426 5.82373L23.8936 13.6753ZM41.6221 38.7915L26.1514 47.9595L21.6709 45.313V13.2485L37.1406 4.08154L41.6221 6.72705V38.7915Z"></path>
<path fill="#E0DCD8" d="M9.26289 28.8881L30.701 41.5922L52.1364 28.8897C52.2386 28.8292 52.3678 28.9028 52.3678 29.0216V42.0562V43.2464L30.701 56.086L11.0404 44.4501L9.03418 43.2464V42.0562V29.0216C9.03418 28.9028 9.16072 28.8276 9.26289 28.8881Z"></path>
<path fill="#161616" d="M51.6182 30.0679L31.4512 42.0181V54.7691L51.6182 42.8179V30.0679ZM9.78418 42.8208L11.4209 43.8042L29.9512 54.77V42.0191L9.78418 30.0679V42.8208ZM53.1182 43.6734L30.7012 56.9575L30.3193 56.731L10.6582 45.0952L10.6543 45.0933L8.28418 43.6704V29.021C8.28448 28.3901 8.93151 27.9324 9.52734 28.1831L9.64551 28.2427L30.7002 40.7202L51.7539 28.2447C52.3559 27.8879 53.1178 28.3214 53.1182 29.021V43.6734Z"></path>
<path fill="#161616" d="M44.8447 37.4461C45.2021 37.2367 45.6616 37.3573 45.8711 37.7147C46.0804 38.072 45.9608 38.5316 45.6035 38.7411L39.6758 42.2147C39.3184 42.4241 38.8588 42.3044 38.6494 41.9471C38.4402 41.5898 38.5607 41.1302 38.9179 40.9207L44.8447 37.4461Z"></path>
<path fill="#161616" d="M37.6029 13.2914C37.9693 13.08 38.4376 13.206 38.6492 13.5724C38.8608 13.9388 38.7358 14.4074 38.3696 14.6191L32.2172 18.1719C31.8507 18.3836 31.3816 18.2579 31.17 17.8914C30.9583 17.5249 31.084 17.0558 31.4505 16.8442L37.6029 13.2914Z"></path>
<path fill="#161616" d="M37.6029 18.7963C37.9693 18.5849 38.4376 18.7109 38.6492 19.0773C38.8608 19.4437 38.7358 19.9123 38.3696 20.124L32.2172 23.6768C31.8507 23.8885 31.3816 23.7628 31.17 23.3963C30.9583 23.0298 31.084 22.5607 31.4505 22.3491L37.6029 18.7963Z"></path>
<path fill="#161616" d="M37.6029 24.3012C37.9693 24.0898 38.4376 24.2158 38.6492 24.5822C38.8608 24.9486 38.7358 25.4172 38.3696 25.6289L32.2172 29.1817C31.8507 29.3933 31.3816 29.2677 31.17 28.9012C30.9583 28.5346 31.084 28.0656 31.4505 27.8539L37.6029 24.3012Z"></path>
<path fill="#161616" d="M37.6029 29.8061C37.9693 29.5947 38.4376 29.7206 38.6492 30.0871C38.8608 30.4535 38.7358 30.9221 38.3696 31.1338L32.2172 34.6866C31.8507 34.8982 31.3816 34.7726 31.17 34.4061C30.9583 34.0395 31.084 33.5705 31.4505 33.3588L37.6029 29.8061Z"></path>
<path fill="#161616" d="M30.1031 19.0196C29.9989 19.5735 29.5385 19.9518 29.0749 19.8645C28.6113 19.7772 28.32 19.2575 28.4242 18.7036C28.5285 18.1497 28.9889 17.7714 29.4525 17.8587C29.9161 17.946 30.2074 18.4657 30.1031 19.0196Z"></path>
<path fill="#161616" d="M30.1031 24.524C29.9989 25.0779 29.5385 25.4562 29.0749 25.3689C28.6113 25.2816 28.32 24.7619 28.4242 24.208C28.5285 23.6541 28.9889 23.2758 29.4525 23.3631C29.9161 23.4504 30.2074 23.9701 30.1031 24.524Z"></path>
<path fill="#161616" d="M30.1031 30.0289C29.9989 30.5828 29.5385 30.9611 29.0749 30.8738C28.6113 30.7865 28.32 30.2667 28.4242 29.7129C28.5285 29.159 28.9889 28.7807 29.4525 28.868C29.9161 28.9553 30.2074 29.475 30.1031 30.0289Z"></path>
<path fill="#161616" d="M30.1031 35.5338C29.9989 36.0877 29.5385 36.4659 29.0749 36.3787C28.6113 36.2914 28.32 35.7716 28.4242 35.2177C28.5285 34.6639 28.9889 34.2856 29.4525 34.3729C29.9161 34.4601 30.2074 34.9799 30.1031 35.5338Z"></path>
<path fill="#D6CFC7" d="M36.6402 5.87361V9.49328L29.7504 13.5839L26.0205 11.3811V7.76147L32.9103 3.6709L36.6402 5.87361Z"></path>
<path fill="#57534E" d="M26.7871 10.9434L28.9844 12.2412V10.4014L26.7871 9.10352V10.9434ZM30.5166 10.3994V12.2373L35.874 9.05664V7.21875L30.5166 10.3994ZM27.5244 7.75977L29.749 9.07324L35.1357 5.875L32.9111 4.56152L27.5244 7.75977ZM37.4062 9.92969L29.751 14.4746L25.2539 11.8184V7.3252L32.9092 2.78027L37.0303 5.21387L37.4062 5.43652V9.92969Z"></path>
</svg>
