<svg xmlns="http://www.w3.org/2000/svg" fill="none" viewBox="0 0 112 30" height="30" width="112">
<g clip-path="url(#clip0_6618_111715)">
<mask height="26" width="20" y="2" x="15" maskUnits="userSpaceOnUse" style="mask-type:luminance" id="mask0_6618_111715">
<path fill="white" d="M34.4113 2.9397H15.0667V27.0252H34.4113V2.9397Z"></path>
</mask>
<g mask="url(#mask0_6618_111715)">
<path fill="white" d="M15.0886 23.7027H15.0667V26.6369H18.3114C20.0867 26.6369 21.5352 25.3264 21.5352 23.722V20.8071H18.3114C16.544 20.8062 15.0996 22.1061 15.0886 23.7027Z" opacity="0.5"></path>
<path fill="white" d="M15.0667 15.3391C15.0667 17.1566 16.6965 18.6144 18.6892 18.6144H21.5142V20.8085H24.3761C26.3498 20.8085 27.9617 19.3516 27.9617 17.566V12.064H18.6892C16.6965 12.064 15.0667 13.5218 15.0667 15.3391Z" opacity="0.8"></path>
<path fill="white" d="M18.6892 3.31909C16.6965 3.31909 15.0667 4.79339 15.0667 6.61072C15.0667 8.42802 16.6786 9.88594 18.6892 9.88594H27.9627V12.0637H30.8247C32.7984 12.0637 34.4112 10.6067 34.4112 8.82119V3.31909H18.6892Z"></path>
</g>
<path fill="white" d="M44.231 24.2031V5.02848H56.9156V7.94023H47.8178V13.1458H56.0453V16.0576H47.8178V24.2031H44.231ZM67.5908 18.1549V9.82211H71.0907V24.2031H67.6971V21.6471H67.5428C67.2076 22.4523 66.6563 23.1108 65.8892 23.6226C65.1286 24.1344 64.1911 24.3903 63.0758 24.3903C62.1025 24.3903 61.2421 24.1812 60.4946 23.763C59.7533 23.3386 59.1732 22.7238 58.7543 21.9186C58.3354 21.1072 58.1258 20.1272 58.1258 18.9787V9.82211H61.6257V18.4544C61.6257 19.3657 61.8837 20.0898 62.3993 20.6266C62.9149 21.1634 63.5914 21.4317 64.4295 21.4317C64.9451 21.4317 65.4446 21.3101 65.928 21.0666C66.4114 20.8232 66.808 20.4612 67.1174 19.9805C67.433 19.4937 67.5908 18.8851 67.5908 18.1549ZM77.2174 5.02848V24.2031H73.7175V5.02848H77.2174ZM87.3658 9.82211V12.4436H78.5873V9.82211H87.3658ZM80.7818 24.2031V8.46454C80.7818 7.49709 80.988 6.69189 81.4007 6.04899C81.8196 5.40608 82.3801 4.92546 83.0827 4.60717C83.7853 4.28884 84.5654 4.12967 85.4223 4.12967C86.0286 4.12967 86.5665 4.17648 87.0372 4.2701C87.5075 4.36372 87.8557 4.448 88.0814 4.52288L87.385 7.14441C87.2368 7.10072 87.0498 7.05703 86.8245 7.01335C86.5987 6.96342 86.3476 6.93843 86.0704 6.93843C85.4193 6.93843 84.9586 7.09135 84.6879 7.39719C84.4234 7.69682 84.2913 8.12751 84.2913 8.68925V24.2031H80.7818ZM89.1346 24.2031V9.82211H92.6344V24.2031H89.1346ZM90.8941 7.78107C90.3397 7.78107 89.8629 7.6032 89.4632 7.24739C89.0635 6.88538 88.8635 6.45157 88.8635 5.946C88.8635 5.43419 89.0635 5.00038 89.4632 4.64461C89.8629 4.28259 90.3397 4.10156 90.8941 4.10156C91.4546 4.10156 91.9319 4.28259 92.325 4.64461C92.7247 5.00038 92.9243 5.43419 92.9243 5.946C92.9243 6.45157 92.7247 6.88538 92.325 7.24739C91.9319 7.6032 91.4546 7.78107 90.8941 7.78107ZM98.7608 5.02848V24.2031H95.2609V5.02848H98.7608Z"></path>
</g>
<defs>
<clipPath id="clip0_6618_111715">
<rect fill="white" height="30" width="112"></rect>
</clipPath>
</defs>
</svg>
