<svg xmlns="http://www.w3.org/2000/svg" fill="none" viewBox="0 0 248 80" height="80" width="248">
<mask height="40" width="115" y="20" x="66" maskUnits="userSpaceOnUse" style="mask-type:luminance" id="mask0_439_3247">
<path fill="white" d="M180.699 20H66.8008V60H180.699V20Z"></path>
</mask>
<g mask="url(#mask0_439_3247)">
<path fill="#8E8A85" d="M100.581 38.5958L100.581 38.5884H85.48V43.9306H97.5377C98.038 43.9306 98.3997 44.4094 98.2632 44.8907C96.6475 50.5823 91.3331 54.7181 85.0827 54.5358C77.9684 54.3282 72.2438 48.4675 72.1936 41.3505C72.1416 33.9684 78.1101 27.9678 85.4801 27.9678V22.5833C75.1607 22.5833 66.7966 30.9547 66.8086 41.2769C66.8206 51.6156 75.1416 59.9262 85.4802 59.9262C95.4401 59.9262 103.576 52.127 104.12 42.3031C104.12 40.2865 102.427 38.6001 100.581 38.5958Z"></path>
<path fill="#8E8A85" d="M96.2899 36.1117C99.1808 36.1117 101.715 34.5871 103.135 32.299L99.669 30.1504C98.9684 31.2806 97.7174 32.0337 96.2898 32.0337C94.0952 32.0337 92.3161 30.2546 92.3161 28.0601C92.3161 25.8655 94.0952 24.0864 96.2898 24.0864C97.7159 24.0864 98.9658 24.8381 99.6669 25.9664L103.133 23.8178C101.712 21.5316 99.1794 20.0085 96.2898 20.0085C91.8429 20.0085 88.2383 23.6133 88.2383 28.0601C88.2383 32.5069 91.843 36.1116 96.2898 36.1116L96.2899 36.1117Z"></path>
<path fill="#8E8A85" d="M118.239 39.5544C113.372 39.5544 109.409 35.5921 109.434 30.7246C109.434 25.8573 113.421 21.8949 118.288 21.9193C120.709 21.9193 122.886 22.9221 124.476 24.5119L123.057 25.9306C121.761 24.6343 120.049 23.9249 118.239 23.9249C114.57 23.9249 111.415 26.9333 111.464 30.798C111.513 34.5158 114.448 37.4998 118.215 37.5487C121.223 37.5487 124.06 35.5185 124.843 32.3633C124.941 31.8986 124.745 31.7519 124.427 31.7519H118.239V29.7218H125.503C126.408 29.7218 126.971 30.3576 126.971 31.2872C126.971 35.5186 123.18 39.5543 118.239 39.5543L118.239 39.5544Z"></path>
<path fill="#8E8A85" d="M133.697 24.1707H130.175V29.7229H133.599V31.7286H130.175V37.2807H133.697V39.2864H128.145V22.165H133.697V24.1707Z"></path>
<path fill="#8E8A85" d="M135.434 22.1651H137.415L140.35 31.7286C140.399 31.8754 140.472 31.9243 140.57 31.8998C140.668 31.8754 140.668 31.7286 140.668 31.6307L140.594 22.165H142.527V39.2864H140.521L137.61 29.6984C137.586 29.5762 137.537 29.4538 137.415 29.4784C137.268 29.5028 137.292 29.6984 137.292 29.8209L137.366 39.2864H135.434V22.165V22.1651Z"></path>
<path fill="#8E8A85" d="M150.035 24.1707H146.513V29.7229H149.937V31.7286H146.513V37.2807H150.035V39.2864H144.482V22.165H150.035V24.1707Z"></path>
<path fill="#8E8A85" d="M156.321 31.7286H153.802V39.2864H151.771V22.165H155.807C157.715 22.165 158.84 23.3636 158.84 25.1736V28.8669C158.84 29.8698 158.498 30.3345 157.837 30.7257C158.547 31.117 158.84 31.6552 158.84 32.5602V39.2864H156.81V32.2422C156.81 31.9486 156.59 31.7286 156.321 31.7286ZM156.81 29.2092V24.6843C156.81 24.3907 156.59 24.1707 156.321 24.1707H153.802V29.7229H156.321C156.59 29.7229 156.81 29.4783 156.81 29.2092Z"></path>
<path fill="#8E8A85" d="M164.246 21.8948C166.422 21.8948 167.768 23.5335 167.768 25.4413V39.2851H165.738V31.7272H162.729V39.2851H160.699V25.4413C160.699 23.4112 162.167 21.8948 164.246 21.8948ZM164.735 23.9249H163.732C163.17 23.9249 162.729 24.3652 162.729 24.9277V29.7217H165.738V24.9277C165.738 24.3652 165.297 23.9249 164.735 23.9249Z"></path>
<path fill="#8E8A85" d="M175.201 39.2864H173.098C170.799 39.2864 169.625 37.8923 169.625 35.8377V22.165H171.655V36.7671C171.655 37.0362 171.9 37.2807 172.169 37.2807H175.201V39.2864Z"></path>
<path fill="#8E8A85" d="M118.263 59.39C113.396 59.39 109.434 55.4521 109.434 50.5601C109.434 45.6683 113.396 41.7549 118.263 41.7549C121.37 41.7549 124.085 43.3691 125.674 45.7906L123.987 46.8913C123.082 45.4482 121.223 43.7606 118.263 43.7606C114.521 43.7606 111.464 46.8179 111.464 50.5601C111.464 54.3269 114.497 57.3844 118.263 57.3844C121.076 57.3844 122.984 55.7211 123.962 54.278L125.65 55.3788C124.085 57.8002 121.345 59.39 118.263 59.39H118.263Z"></path>
<path fill="#8E8A85" d="M130.418 41.7305C132.595 41.7305 133.94 43.3692 133.94 45.277V59.1209H131.91V51.5629H128.901V59.1209H126.871V45.277C126.871 43.2469 128.339 41.7305 130.418 41.7305H130.418ZM130.907 43.7606H129.904C129.342 43.7606 128.901 44.2009 128.901 44.7634V49.5574H131.91V44.7634C131.91 44.2009 131.469 43.7606 130.907 43.7606Z"></path>
<path fill="#8E8A85" d="M141.987 44.0064H139.467V59.1222H137.437V44.0064H134.918V42.0007H141.987L141.987 44.0064Z"></path>
<path fill="#8E8A85" d="M146.511 41.7305C148.688 41.7305 150.034 43.3692 150.034 45.277V59.1209H148.003V51.5629H144.995V59.1209H142.965V45.277C142.965 43.2469 144.432 41.7305 146.511 41.7305ZM147.001 43.7606H145.998C145.435 43.7606 144.995 44.2009 144.995 44.7634V49.5574H148.004V44.7634C148.004 44.2009 147.563 43.7606 147.001 43.7606Z"></path>
<path fill="#8E8A85" d="M157.467 59.1222H155.364C153.065 59.1222 151.891 57.728 151.891 55.6734V42.0007H153.921V56.6028C153.921 56.8719 154.165 57.1164 154.434 57.1164H157.467V59.1222Z"></path>
<path fill="#8E8A85" d="M161.579 51.5642V59.0977H159.549V51.5642C157.959 51.5642 157.029 50.4391 157.029 49.0449V42.0007H159.059V49.0449C159.059 49.314 159.28 49.5586 159.549 49.5586H161.579C161.848 49.5586 162.068 49.3139 162.068 49.0449V42.0007H164.098V49.0449C164.098 50.4147 163.217 51.5642 161.579 51.5642Z"></path>
<path fill="#8E8A85" d="M172.66 52.9816V55.9412C172.66 57.9469 171.266 59.3899 169.235 59.3899H169.04C167.009 59.3899 165.615 57.9469 165.615 55.9412V53.8377H167.621V56.8706C167.621 57.1398 167.841 57.3843 168.135 57.3843H170.14C170.434 57.3843 170.654 57.1397 170.654 56.8706V52.0522C170.654 51.7832 170.434 51.563 170.14 51.563H169.04C167.034 51.563 165.615 50.0955 165.615 48.1143V45.1792C165.615 43.198 167.034 41.7305 169.04 41.7305H169.235C171.241 41.7305 172.66 43.2224 172.66 45.1792V47.3071H170.654V44.2498C170.654 43.9807 170.434 43.7606 170.14 43.7606H168.135C167.841 43.7606 167.621 43.9807 167.621 44.2498V49.0437C167.621 49.3128 167.841 49.5329 168.135 49.5329H169.211C171.29 49.5329 172.66 50.9515 172.66 52.9816Z"></path>
<path fill="#8E8A85" d="M180.631 44.0064H178.112V59.1222H176.082V44.0064H173.562V42.0007H180.631V44.0064Z"></path>
</g>
</svg>
