<svg xmlns="http://www.w3.org/2000/svg" fill="none" viewBox="0 0 248 80" height="80" width="248">
<path fill="#8C8884" d="M137.5 20.3624C141.814 20.143 145.492 23.4506 145.721 27.7558C145.95 32.0611 142.644 35.7388 138.331 35.9765C134.004 36.215 130.305 32.9031 130.076 28.5848C129.846 24.2665 133.172 20.5824 137.5 20.3624ZM138.312 32.7521C143.591 31.9856 142.719 22.9864 137.482 23.5838C132.186 24.4153 133.369 33.6008 138.312 32.7521Z"></path>
<path fill="#8C8884" d="M178.117 20.7192C178.187 20.7165 178.258 20.7145 178.328 20.7133C179.464 20.6989 181.123 20.7796 182.181 20.7042C187.334 20.3372 191.888 22.1349 191.888 28.0891C191.887 30.2414 191.471 32.0132 189.868 33.6458C187.503 35.706 185.192 35.6928 182.222 35.6956L178.083 35.6986C178.014 34.3456 178.103 31.9652 178.103 30.5263C178.091 27.2573 178.096 23.9882 178.117 20.7192ZM181.836 32.7852C183.503 32.7975 185.4 32.9668 186.671 31.7198C186.742 31.6502 186.812 31.5793 186.879 31.5072C187.733 30.4028 188.298 29.0641 188.088 27.6531C187.496 23.6698 185.13 23.5115 181.822 23.5681C181.846 26.6404 181.85 29.7129 181.836 32.7852Z"></path>
<path fill="#8C8884" d="M71.3378 20.7337C72.7144 20.6502 74.3006 20.6988 75.6884 20.7048C78.5408 20.7198 83.2295 20.2071 84.1807 23.8081C84.8712 26.4226 84.0548 28.4072 81.4344 29.1297C85.0183 30.4667 83.0666 32.9391 84.65 35.7237C83.6201 35.7052 82.5902 35.7005 81.5602 35.7095C81.4999 35.7107 81.4394 35.711 81.379 35.7104C79.8697 35.6928 80.8506 31.9881 79.6858 31.0222C78.6315 30.1479 76.3004 30.4202 74.9814 30.4121L75.0254 35.7539C74.1312 35.6489 72.2898 35.6905 71.3281 35.689C71.3875 32.3705 71.4035 29.0513 71.376 25.7325C71.3762 24.5742 71.4538 21.78 71.3378 20.7337ZM75.0045 27.6111C76.698 27.6297 78.766 27.8642 80.2323 27.1038C80.5617 26.8104 80.7126 26.606 80.7789 26.155C81.2813 22.7375 76.8614 23.8238 74.9899 23.5895C74.9936 24.8825 75.0379 26.3386 75.0045 27.6111Z"></path>
<path fill="#8C8884" d="M61.5607 20.2538C62.8346 20.1102 65.4775 20.8778 66.5279 21.6352C68.4211 23.0003 68.7714 24.5208 69.172 26.6103C67.9789 26.6288 66.6786 26.713 65.4735 26.7569C65.1846 24.9608 64.3629 23.8231 62.4525 23.6137C61.3784 23.5063 60.3045 23.8198 59.4577 24.4881C57.5694 26.0077 57.5186 29.6382 59.0503 31.519C60.2657 33.0114 62.9354 33.4161 64.4802 32.1602C64.7948 31.9045 65.554 31.1828 65.5926 30.7591L65.5021 30.6574C65.1052 30.5711 62.7669 30.6101 62.1399 30.6073C62.1725 29.7682 62.2014 28.815 62.1217 27.985C62.5133 27.9594 62.9829 27.9624 63.3812 27.955C65.2129 27.96 67.4458 28.0245 69.2463 27.932C69.218 28.2729 69.2128 28.6512 69.2185 28.995C69.2553 31.2219 69.1385 33.5163 69.2541 35.7367C68.3256 35.6613 66.9116 35.6971 65.9441 35.6933C65.9541 35.1231 65.9726 34.5531 65.9997 33.9835C64.8707 35.3045 64.2532 35.7145 62.4776 35.9293C55.0933 36.8227 51.8616 28.2314 56.015 22.9402C57.3304 21.2644 59.4886 20.4563 61.5607 20.2538Z"></path>
<path fill="#8C8884" d="M175.679 20.7024L175.76 20.7323C175.9 21.0863 175.784 34.2017 175.833 35.7349C174.961 35.6644 173.699 35.7146 172.761 35.6804C170.697 32.5994 168.147 29.1413 165.893 26.1865C166.136 29.0786 165.836 32.7137 166.004 35.7169C165.259 35.6734 164.268 35.7018 163.504 35.7021L162.578 35.6911L162.596 20.7238C163.765 20.6935 164.934 20.6993 166.102 20.7414C168.234 23.4494 170.143 26.3767 172.14 29.1864C172.189 29.255 172.339 29.3704 172.409 29.4177L172.465 29.3706C172.343 28.317 172.382 26.9498 172.383 25.8603L172.38 20.7221L175.679 20.7024Z"></path>
<path fill="#8C8884" d="M118.091 20.6947C118.301 20.6864 118.255 20.6563 118.396 20.7611C118.454 21.1246 118.427 22.3012 118.428 22.7304L118.437 26.5926C120.513 26.6385 122.75 26.6039 124.837 26.6061L124.844 20.7121L128.546 20.7004C128.545 25.6798 128.488 30.7832 128.562 35.7527C127.551 35.6449 125.98 35.6957 124.927 35.6994C124.76 35.5151 124.848 30.2005 124.851 29.5719C122.748 29.4206 120.357 29.6614 118.408 29.5297C118.456 31.5591 118.432 33.6691 118.435 35.7036L114.785 35.6899C114.701 34.8821 114.803 32.1898 114.804 31.2043L114.81 20.7092C115.904 20.715 116.998 20.7102 118.091 20.6947Z"></path>
<path fill="#8C8884" d="M97.3787 20.6934L97.5312 20.7177C97.7099 20.9925 97.6346 23.1529 97.6651 23.6994C95.2391 23.696 92.2413 23.6199 89.8619 23.746L89.8755 26.5963L95.9514 26.5965C95.8938 27.4158 95.9229 28.7597 95.9381 29.5749C93.981 29.4053 91.778 29.628 89.8555 29.5336C89.8743 30.5619 89.8686 31.6205 89.8741 32.6511C92.3531 32.7326 95.4639 32.5579 97.8217 32.7047C97.8018 33.7229 97.8087 34.7415 97.8424 35.7594C96.7825 35.6359 95.1581 35.7018 94.043 35.6915C91.4345 35.6675 88.8052 35.7469 86.1953 35.6777C86.4013 32.4727 86.1646 29.0584 86.2521 25.836C86.2969 24.1867 86.2724 22.391 86.2271 20.7379C89.8816 20.6215 93.6978 20.7558 97.3787 20.6934Z"></path>
<path fill="#8C8884" d="M147.071 20.7337C148.094 20.6642 149.716 20.7069 150.776 20.7062C150.764 20.9249 150.755 21.1438 150.751 21.3627C150.721 23.1053 150.752 24.8884 150.741 26.6373C150.774 27.9299 150.657 29.1927 150.856 30.4758C151.157 32.2131 151.992 32.8295 153.689 32.8995C157.315 33.0491 156.789 29.2094 156.785 26.584L156.775 20.7247C157.938 20.6883 159.212 20.7067 160.384 20.7016L160.369 23.6158C160.366 26.1008 160.631 30.4314 159.932 32.5307C158.27 37.5188 148.112 37.0997 147.256 31.5777C147.001 29.9321 147.067 28.6035 147.07 27.0492C147.081 24.9441 147.081 22.8388 147.071 20.7337Z"></path>
<path fill="#8C8884" d="M87.7916 44.3394C87.8412 44.3376 87.8908 44.3362 87.9405 44.335C89.0423 44.3104 90.2513 44.3218 91.3489 44.3231C93.6316 44.3455 96.3189 44.1079 98.1032 45.8101C99.8066 47.4351 99.9432 50.1757 98.2967 51.8788C96.9638 53.2576 95.1828 53.487 93.3596 53.5142C92.0336 53.506 90.7075 53.5135 89.3817 53.5366C89.4949 55.2595 89.416 57.6421 89.4386 59.4288L87.7578 59.4119C87.8327 58.023 87.7955 56.4251 87.7949 55.0156L87.7942 48.0949C87.7933 47.4925 87.7307 44.7114 87.7916 44.3394ZM96.7431 51.1875C97.9472 50.0703 98.2429 48.121 97.0278 46.9171C95.3639 45.2685 91.7006 45.7852 89.4384 45.7679C89.4115 47.8561 89.4718 50.0792 89.4055 52.142C91.5748 52.157 95.0404 52.4725 96.7431 51.1875Z"></path>
<path fill="#8C8884" d="M113.011 20.6963C113.256 20.68 113.192 20.652 113.394 20.7525C113.428 21.3096 108.224 28.8712 107.922 30.0198C107.658 31.0208 107.813 34.7238 107.864 35.7304C106.838 35.6572 105.259 35.6993 104.189 35.699C104.207 34.1462 104.361 31.39 104.081 29.8579C103.992 29.3709 102.645 27.4186 102.289 26.8404C101.844 26.2276 101.332 25.1576 100.887 24.4887C100.079 23.2723 99.1974 21.999 98.4863 20.7265C99.7349 20.6922 101.31 20.6758 102.546 20.7437C103.617 22.1537 105.177 24.8229 106.108 26.3937C107.289 24.5487 108.434 22.595 109.59 20.7245C110.475 20.6565 112.063 20.7096 113.011 20.6963Z"></path>
<path fill="#8C8884" d="M124.702 44.3291C125.25 44.3222 125.82 44.3321 126.369 44.3346C126.699 44.7932 127.243 46.0023 127.524 46.5883C128.426 48.4936 129.296 50.4141 130.132 52.3491C131.158 54.6845 132.328 57.0809 133.292 59.4158C132.841 59.4283 132.013 59.492 131.616 59.3821C131.323 59.218 129.634 55.1756 129.349 54.5632C128.496 54.5161 127.507 54.5339 126.643 54.5304C125.239 54.5264 123.252 54.4719 121.891 54.6049C121.493 55.2357 121.147 56.2482 120.822 56.9471C120.441 57.7643 120.056 58.5769 119.703 59.406C119.213 59.4401 118.526 59.4109 118.021 59.4039C119.293 56.2526 120.846 53.2304 122.165 50.0976C122.327 49.7099 122.513 49.3204 122.684 48.9352C123.094 48.0221 123.491 47.1031 123.874 46.1785C124.092 45.6559 124.427 44.7679 124.702 44.3291ZM122.365 53.236L125.823 53.2373C126.763 53.2381 127.869 53.2129 128.794 53.2709C128.466 52.5308 125.713 46.338 125.454 46.2294C124.744 47.7451 124.115 49.2984 123.452 50.8314C123.186 51.4433 122.687 52.7242 122.365 53.236Z"></path>
<path fill="#8C8884" d="M77.257 44.3231C77.7965 44.3155 78.3861 44.3334 78.9294 44.3398C81.0201 48.561 82.8513 52.8612 84.8008 57.1462C85.1383 57.8881 85.4576 58.6889 85.8377 59.4057C85.4633 59.4216 84.0853 59.5526 83.8997 59.1774C83.1638 57.6896 82.6279 56.0348 81.8623 54.5641C80.9996 54.5139 79.9902 54.5332 79.1158 54.5303C77.5479 54.5221 75.98 54.5306 74.4124 54.556C74.2836 54.7924 74.1664 55.0335 74.0604 55.2809C73.4618 56.6779 72.795 58.044 72.1814 59.4342L70.541 59.393C71.1045 57.952 71.8034 56.4466 72.433 55.0281C72.7429 54.3302 73.1465 53.6268 73.4583 52.9157L76.0343 46.9894C76.2932 46.393 76.9385 44.7354 77.257 44.3231ZM74.9009 53.2462C76.0241 53.2371 77.1474 53.2341 78.2706 53.2371C79.2135 53.2385 80.3214 53.2134 81.251 53.2639C81.0981 52.7848 78.1084 46.2342 77.9705 46.1021C77.3285 47.6861 76.6568 49.258 75.9558 50.8168C75.6235 51.575 75.25 52.526 74.9009 53.2462Z"></path>
<path fill="#8C8884" d="M61.6185 44.0535C64.1183 43.7112 67.1751 44.6279 68.5872 46.7874C69.4808 48.1539 69.6873 49.0406 69.8841 50.6087C69.2477 50.5543 68.869 50.5808 68.2491 50.6406C68.0701 48.8753 67.6365 47.571 66.0611 46.4673C63.6582 44.6198 58.9884 45.2192 57.417 47.9628C54.4425 53.1562 57.7267 59.5097 64.1434 58.1024C66.667 57.3028 68.0685 55.8479 68.2396 53.1329L69.859 53.1925C69.5442 56.9819 67.4208 59.1624 63.6686 59.6446C59.2647 60.2107 55.2564 57.618 54.6703 53.0618C54.1909 49.3356 55.9767 45.6937 59.6443 44.4364C60.3139 44.2086 60.9246 44.1359 61.6185 44.0535Z"></path>
<path fill="#8C8884" d="M105.43 44.3447C109.86 44.2148 114.593 44.3645 119.07 44.3165L119.083 45.7742C117.319 45.6686 114.844 45.7338 113.048 45.766C113.002 48.3301 113.037 50.9976 113.036 53.5697C113.026 55.5239 113.032 57.4782 113.057 59.4323L111.323 59.4169C111.468 55.0772 111.369 50.1474 111.354 45.7814C109.454 45.6923 107.292 45.7391 105.381 45.7534C105.422 45.3746 105.359 44.5961 105.43 44.3447Z"></path>
<path fill="#8C8884" d="M135.235 44.3244L136.918 44.3193L136.911 57.9742C137.959 58.0485 139.483 58.0053 140.575 58.0061C142.406 58.0075 144.313 58.032 146.139 57.9899C146.122 58.4292 146.14 58.9425 146.144 59.3875C145.923 59.4467 143.56 59.4198 143.211 59.4195L135.199 59.4166C135.305 57.9236 135.239 55.6206 135.239 54.0796L135.235 44.3244Z"></path>
<path fill="#8C8884" d="M101.758 44.3285L103.449 44.3181C103.345 45.8361 103.413 48.0879 103.413 49.6484L103.428 59.417C103.28 59.4672 102.013 59.4378 101.771 59.4354C101.797 58.7048 101.803 57.9242 101.787 57.1921C101.692 52.9416 101.929 48.5668 101.758 44.3285Z"></path>
</svg>
