<svg width="32" height="32" viewBox="0 0 32 32" fill="none" xmlns="http://www.w3.org/2000/svg">
<path d="M15.5293 21.2148C15.5293 20.9389 15.7534 20.7151 16.0293 20.7148C16.3054 20.7148 16.5293 20.9387 16.5293 21.2148V22.0381L17.2568 21.6074C17.4943 21.4669 17.8007 21.5458 17.9414 21.7832C18.0821 22.0207 18.004 22.3269 17.7666 22.4678L16.0303 23.4971L15.7754 23.3467L14.4307 22.5508C14.193 22.4101 14.1142 22.1029 14.2549 21.8652C14.3956 21.6279 14.7019 21.5499 14.9395 21.6904L15.5293 22.0391V21.2148ZM9.60254 17.7021C9.60265 17.4261 9.82646 17.2021 10.1025 17.2021C10.3786 17.2021 10.6024 17.4261 10.6025 17.7021V19.1445C10.6081 19.1505 10.6129 19.1569 10.6182 19.1631C10.6707 19.1743 10.7228 19.1925 10.7715 19.2217L10.9053 19.3027L12.251 20.0986C12.4883 20.2394 12.5664 20.5457 12.4258 20.7832C12.2851 21.0208 11.9788 21.0996 11.7412 20.959L10.3965 20.1631L10.3945 20.1621L10.2568 20.0791C10.2088 20.0502 10.1691 20.0131 10.1348 19.9727C10.0826 19.9614 10.0307 19.944 9.98242 19.915L9.8457 19.832L9.60254 19.6865V17.7021ZM21.457 17.7021C21.4571 17.4261 21.681 17.2021 21.957 17.2021C22.2331 17.2022 22.4569 17.4261 22.457 17.7021V19.6885L20.7305 20.7119C20.493 20.8526 20.1858 20.7745 20.0449 20.5371C19.9041 20.2995 19.9831 19.9923 20.2207 19.8516L21.457 19.1182V17.7021ZM15.5293 17.8125V16.3955C15.4802 16.3664 15.4243 16.3336 15.3623 16.2969C15.1014 16.1423 14.7313 15.9223 14.2939 15.6631C14.0565 15.5224 13.9777 15.216 14.1182 14.9785C14.2589 14.741 14.5661 14.662 14.8037 14.8027C15.2411 15.0619 15.6112 15.2819 15.8721 15.4365C15.93 15.4708 15.9826 15.5016 16.0293 15.5293L17.2568 14.8027C17.4943 14.6621 17.8006 14.7402 17.9414 14.9775C18.0822 15.2151 18.0042 15.5223 17.7666 15.6631L16.5293 16.3955V17.8125C16.5291 18.0885 16.3053 18.3125 16.0293 18.3125C15.7535 18.3123 15.5295 18.0883 15.5293 17.8125ZM9.60254 14.2998V12.3135L11.3291 11.29C11.5667 11.1493 11.8739 11.2283 12.0146 11.4658C12.1551 11.7033 12.0763 12.0097 11.8389 12.1504L11.083 12.5977C11.3289 12.7433 11.5822 12.8938 11.8389 13.0459C12.0764 13.1867 12.1554 13.4939 12.0146 13.7314C11.8739 13.969 11.5667 14.047 11.3291 13.9062C11.0827 13.7602 10.8392 13.6158 10.6025 13.4756V14.2998C10.6025 14.5759 10.3786 14.7998 10.1025 14.7998C9.82644 14.7998 9.6026 14.5759 9.60254 14.2998ZM16.2842 8.65625L17.5811 9.42383C17.8186 9.5646 17.8976 9.87181 17.7568 10.1094C17.6161 10.3469 17.3089 10.425 17.0713 10.2842L16.0293 9.66602L14.8027 10.3945C14.5652 10.5351 14.2589 10.4562 14.1182 10.2188C13.9774 9.98125 14.0555 9.67501 14.293 9.53418L16.0293 8.50488L16.2842 8.65625ZM22.457 14.2998C22.457 14.5759 22.2331 14.7998 21.957 14.7998C21.6809 14.7998 21.4571 14.5759 21.457 14.2998V13.4756L20.7305 13.9062C20.4929 14.047 20.1857 13.969 20.0449 13.7314C19.9041 13.4939 19.9831 13.1867 20.2207 13.0459L20.9756 12.5977L20.9609 12.5898L19.665 11.8213C19.4275 11.6805 19.3485 11.3733 19.4893 11.1357C19.6301 10.8983 19.9373 10.8202 20.1748 10.9609L21.4707 11.7295L21.6562 11.8389C21.7228 11.8783 21.7752 11.9319 21.8154 11.9922C21.8877 11.9985 21.9598 12.0192 22.0264 12.0586L22.2119 12.168L22.457 12.3135V14.2998Z" fill="#8B8682"/>
<path d="M18.464 15.9996C18.464 17.3606 17.3606 18.464 15.9996 18.464C14.6385 18.464 13.5352 17.3606 13.5352 15.9996C13.5352 14.6385 14.6385 13.5352 15.9996 13.5352C17.3606 13.5352 18.464 14.6385 18.464 15.9996Z" fill="#161616"/>
<path d="M18.161 2.73047V2.73242C18.7593 2.72348 19.343 2.91811 19.8144 3.28711C20.2878 3.65783 20.6175 4.18328 20.7372 4.77246L21.1327 6.67578C21.352 6.78927 21.5678 6.90887 21.7792 7.03613L23.6845 6.41016H23.6864C24.0335 6.29725 24.4004 6.25683 24.7636 6.29297C25.1267 6.32912 25.4788 6.44106 25.7968 6.62012C26.1409 6.81472 26.4325 7.08368 26.6532 7.40039L26.7431 7.53906L26.744 7.54004L28.9169 11.1279C29.237 11.637 29.3626 12.2441 29.2714 12.8389C29.1796 13.4376 28.8731 13.9817 28.4101 14.3721L28.411 14.373L26.9062 15.6543V16.3447L28.3964 17.6719C28.8456 18.0539 29.1455 18.582 29.2431 19.1641C29.3414 19.7503 29.2258 20.3513 28.9208 20.8613L28.9218 20.8623L26.8231 24.4492L26.8202 24.4531C26.5899 24.8411 26.261 25.1618 25.8671 25.3818L25.8651 25.3828C25.4735 25.5995 25.0334 25.715 24.5858 25.7178C24.3082 25.7195 24.0314 25.678 23.7665 25.5947L23.7567 25.5908L21.8603 24.9648C21.6461 25.0927 21.4274 25.2126 21.205 25.3262L20.8124 27.2266C20.6897 27.8155 20.3609 28.3419 19.8866 28.7119L19.8876 28.7129C19.4163 29.0819 18.8325 29.2765 18.2343 29.2676V29.2695H13.8876V29.2676C13.365 29.2753 12.854 29.1276 12.4188 28.8438L12.2353 28.7129C11.7615 28.3425 11.4346 27.8163 11.3124 27.2275L10.9149 25.3232C10.6966 25.2097 10.4825 25.0884 10.2714 24.9619L8.36807 25.5908L8.35733 25.5947C8.09259 25.6779 7.81646 25.7194 7.53897 25.7178C7.09223 25.7146 6.65251 25.5991 6.26162 25.3828L6.25967 25.3818C5.86767 25.1634 5.54004 24.8458 5.30947 24.4609L3.13955 20.8809L3.02822 20.6826C2.78993 20.2105 2.70615 19.6731 2.79287 19.1475C2.88654 18.5802 3.17397 18.0648 3.60244 17.6846L5.14248 15.7383V15.6533L3.65322 14.3281C3.20442 13.9462 2.9041 13.4177 2.80654 12.8359C2.70769 12.2463 2.82286 11.6407 3.13174 11.1289L3.13272 11.127L5.30752 7.54102C5.53767 7.15564 5.86479 6.83712 6.25674 6.61816L6.25967 6.61719C6.60173 6.42791 6.9804 6.31617 7.36904 6.28906L7.53604 6.28223C7.72863 6.2731 7.92147 6.28414 8.11123 6.31641L8.31338 6.3584L8.34658 6.36719L8.37979 6.37891L10.2323 7.03027C10.4443 6.90406 10.6603 6.78516 10.8798 6.67285L11.2753 4.77246C11.3975 4.1838 11.7246 3.65746 12.1981 3.28711C12.6695 2.91811 13.2532 2.72348 13.8515 2.73242V2.73047H18.161ZM13.8358 4.23047C13.5781 4.22514 13.3259 4.30891 13.123 4.46777C12.9287 4.61958 12.7941 4.83671 12.744 5.07812L12.1981 7.7041L11.8593 7.86328C11.4687 8.04725 11.0909 8.25526 10.7265 8.48828L10.4188 8.68555L7.92666 7.80957C7.81593 7.78404 7.70226 7.7741 7.58877 7.78125L7.56729 7.78223H7.54678C7.35053 7.78363 7.15796 7.8347 6.98623 7.92969L6.98526 7.92871C6.8233 8.01982 6.68852 8.15267 6.59365 8.3125L6.58975 8.31934L6.58877 8.31836L4.41494 11.9033L4.41592 11.9043C4.29231 12.1093 4.24645 12.3518 4.28604 12.5879C4.32073 12.7947 4.4189 12.9847 4.56631 13.1318L4.63174 13.1924L4.64151 13.1992L4.65029 13.208L6.64248 14.9814V16.2607L4.74209 18.6631L4.69131 18.7266L4.62783 18.7783C4.43889 18.9327 4.3131 19.1509 4.27334 19.3916C4.2336 19.6323 4.28282 19.879 4.41201 20.0859L4.41787 20.0947L6.5917 23.6836L6.59463 23.6885C6.68985 23.8482 6.82593 23.9795 6.98819 24.0703L7.12002 24.1338C7.25566 24.1881 7.40081 24.2156 7.54776 24.2168C7.60893 24.2172 7.67006 24.2132 7.73037 24.2041L7.90811 24.1631L10.1337 23.4287L10.4726 23.3174L10.7733 23.5098C11.0459 23.6841 11.3262 23.846 11.6132 23.9951L11.9022 24.1396L12.2353 24.3008L12.7802 26.9219C12.8302 27.1632 12.9649 27.3794 13.1591 27.5312L13.1601 27.5322C13.3629 27.6909 13.6145 27.7748 13.872 27.7695H18.2499C18.5076 27.7749 18.7598 27.6911 18.9628 27.5322L18.9638 27.5303C19.1584 27.3787 19.2933 27.1633 19.3437 26.9219L19.8876 24.2959L20.2274 24.1367C20.6189 23.9529 20.9958 23.7443 21.3583 23.5117L21.6591 23.3193L21.998 23.4307L24.2157 24.1631C24.3321 24.1997 24.4541 24.2185 24.5761 24.2178C24.7728 24.2166 24.9664 24.1656 25.1386 24.0703C25.3004 23.9792 25.4353 23.8472 25.5302 23.6875L27.6278 20.1045L27.6327 20.0957C27.7564 19.8907 27.8032 19.6483 27.7636 19.4121C27.724 19.1758 27.6008 18.9611 27.4169 18.8076L27.4081 18.8008L27.3983 18.792L25.4062 17.0186V14.9619L27.4384 13.2314L27.4423 13.2275C27.6288 13.0711 27.7521 12.852 27.789 12.6113C27.8258 12.3708 27.7735 12.125 27.6425 11.9199L27.6386 11.9121L27.6337 11.9043L25.4608 8.31641C25.3626 8.15484 25.2251 8.01907 25.0605 7.92578C24.9234 7.8486 24.7717 7.80175 24.6151 7.78613C24.4589 7.77059 24.3006 7.78656 24.1513 7.83496L24.1522 7.83594L21.9149 8.57129L21.5741 8.68262L21.2733 8.48926C20.9127 8.25637 20.5386 8.04652 20.1503 7.86133L19.8144 7.70117L19.7382 7.33691L19.2685 5.07812L19.2675 5.07324C19.2207 4.84025 19.0887 4.6237 18.8896 4.46777C18.6866 4.30892 18.4344 4.22514 18.1767 4.23047H13.8358Z" fill="black"/>
</svg>
