<svg width="32" height="32" viewBox="0 0 32 32" fill="none" xmlns="http://www.w3.org/2000/svg">
<path d="M15.9092 16.2637L8.02606 11.7124V20.815L15.9092 25.3663V16.2637Z" fill="#E0DCD8"/>
<path d="M15.476 22.8408V24.6162L13.9385 23.7285V24.7285L16.342 26.1162V23.3408L15.476 22.8408ZM7.59299 18.2896V21.0649L9.99654 22.4526V21.4526L8.45901 20.5649V18.7896L7.59299 18.2896ZM13.9385 14.626V15.626L15.476 16.5137V18.2891L16.342 18.7891V16.0137L13.9385 14.626ZM7.59299 10.9624V13.7378L8.45901 14.2378V12.4624L9.99654 13.3501V12.3501L7.59299 10.9624Z" fill="#8B8682"/>
<path d="M23.792 11.7285L15.9089 7.17719L8.02575 11.7285L15.9089 16.2798L23.792 11.7285Z" fill="#E0DCD8"/>
<path d="M17.4464 14.8921L15.9089 15.7798L14.3714 14.8921L13.5053 15.3921L15.9089 16.7798L18.3125 15.3921L17.4464 14.8921ZM9.56341 10.3408L7.15985 11.7285L9.56341 13.1162L10.4294 12.6162L8.8919 11.7285L10.4294 10.8408L9.56341 10.3408ZM22.2544 10.3408L21.3884 10.8408L22.9259 11.7285L21.3884 12.6162L22.2544 13.1162L24.658 11.7285L22.2544 10.3408ZM15.9089 6.67725L13.5053 8.06494L14.3714 8.56494L15.9089 7.67725L17.4464 8.56494L18.3125 8.06494L15.9089 6.67725Z" fill="#8B8682"/>
<path d="M23.7354 11.7402L15.8522 16.2916V25.3942L23.7354 20.8429V11.7402Z" fill="#E0DCD8"/>
<path d="M23.3022 18.8174V20.5928L21.7647 21.4805V22.4805L24.1682 21.0928V18.3174L23.3022 18.8174ZM15.4192 23.3687V26.144L17.8227 24.7563V23.7563L16.2852 24.644V22.8687L15.4192 23.3687ZM21.7647 12.3779V13.3779L23.3022 12.4902V14.2656L24.1682 13.7656V10.9902L21.7647 12.3779ZM15.4192 16.0415V18.8169L16.2852 18.3169V16.5415L17.8227 15.6538V14.6538L15.4192 16.0415Z" fill="#8B8682"/>
<path d="M16.3037 0.754883L19.252 2.58496C19.6039 2.80332 19.7125 3.26521 19.4941 3.61719C19.2758 3.96902 18.8138 4.07744 18.4619 3.85938L15.8994 2.26953L4.85352 8.81445C6.29665 9.67718 8.2213 10.8345 10.124 11.9814C12.5599 13.4497 14.9618 14.8979 16.291 15.6855L16.6582 15.9033V29.3115L21.4434 26.5645C21.8025 26.3584 22.2605 26.4828 22.4668 26.8418C22.673 27.2009 22.5494 27.6589 22.1904 27.8652L15.9023 31.4756L2.6377 23.6152V8.38477L15.917 0.515625L16.3037 0.754883ZM4.1377 22.7598L15.1582 29.29V16.7559C13.7761 15.9331 11.5728 14.6067 9.34961 13.2666C7.46812 12.1325 5.57043 10.9905 4.1377 10.1338V22.7598Z" fill="#161616"/>
<path d="M25.1285 1.72765L20.003 14.0856C19.9316 14.2577 20.1135 14.4253 20.2792 14.3401L23.4104 12.73L23.4928 21.7664C23.4941 21.9125 23.6466 22.0079 23.7786 21.9453L27.4591 20.197C27.5288 20.1639 27.5733 20.0936 27.5733 20.0163V10.5937L30.4645 9.15428C30.5743 9.09965 30.6095 8.96005 30.5388 8.8599L25.4766 1.68893C25.3858 1.56028 25.1888 1.58219 25.1285 1.72765Z" fill="#E6E3E0"/>
<path d="M21.2696 12.9874L24.1494 11.5069L24.2344 20.8976L26.8233 19.6681V10.129L29.5557 8.76768L25.4385 2.93565L21.2696 12.9874ZM28.3233 20.0167C28.3232 20.3832 28.1122 20.7167 27.7813 20.8741L24.1006 22.6231C23.4737 22.9209 22.7497 22.4675 22.7432 21.7735L22.6709 13.9532L20.6221 15.0069C19.8353 15.4115 18.9716 14.6152 19.3106 13.798L24.4356 1.44053L24.4971 1.31748C24.8377 0.73927 25.6845 0.684138 26.0889 1.25694L31.1514 8.42783C31.487 8.90345 31.3199 9.56575 30.7989 9.82529L28.3233 11.0567V20.0167Z" fill="#161616"/>
</svg>
