<svg xmlns="http://www.w3.org/2000/svg" fill="none" viewBox="0 0 112 30" height="30" width="112">
<path fill="#D71E25" d="M28 11.9539H32.2013V25.662H28V11.9539Z"></path>
<path fill="#D71E25" d="M34.4434 11.9537H38.4765V13.213C38.4765 13.213 39.1771 11.6157 42.5097 11.6152C46.7667 11.615 47.5512 14.4356 47.5512 18.103V25.6617H43.3503V18.9488C43.3503 17.3691 43.3222 15.3386 41.1654 15.3386C38.9805 15.3386 38.6447 17.0589 38.6447 18.8361V25.6617H34.4434V11.9537Z"></path>
<path fill="#D71E25" d="M49.795 9.52823C49.795 6.53807 50.5509 4 55.1161 4C55.9561 4 56.7972 4.05614 57.5811 4.25393L57.3848 7.83581C56.9084 7.66639 56.5167 7.55377 56.0123 7.55377C54.6681 7.55377 53.9961 7.97703 53.9961 9.78216V11.9539H57.1047V15.3388H53.9961V25.6618H49.7949L49.795 9.52823Z"></path>
<path fill="#D71E25" d="M65.213 11.6157C69.4134 11.6157 72.7751 14.4358 72.7751 18.8078C72.7751 23.1796 69.4134 25.9999 65.213 25.9999C61.0111 25.9999 57.6504 23.1796 57.6504 18.8078C57.6504 14.4358 61.0111 11.6157 65.213 11.6157ZM65.213 22.2773C67.3134 22.2773 68.5742 20.8666 68.5742 18.8078C68.5742 16.7485 67.3134 15.3386 65.213 15.3386C63.1116 15.3386 61.8523 16.7485 61.8523 18.8078C61.8523 20.8666 63.1116 22.2773 65.213 22.2773Z"></path>
<path fill="#D71E25" d="M74.4219 11.9538H78.6228V13.1519C78.6228 13.1519 79.7188 11.4204 84.0007 11.6057V15.3194C83.4122 15.1503 82.8242 15.0376 82.2082 15.0376C79.0154 15.0376 78.6228 17.3511 78.6228 20.0864V25.6617H74.4219V11.9538Z"></path>
<path fill="#D71E25" d="M28 7.4364L32.2012 4.5376V9.69596H28V7.4364Z"></path>
</svg>
