<svg xmlns="http://www.w3.org/2000/svg" fill="none" viewBox="0 0 210 34" height="34" width="210">
<path fill="#E6E3E0" d="M8.52148 27.7432H0V21.3135H8.52148V27.7432ZM21.9756 27.7432H9.74023V21.3135H21.9756V27.7432ZM42.1709 11.5234H38.5225V21.5342H42.1709V24.0693H32.0615V21.5342H35.71V11.5234H32.0615V8.9873H42.1709V11.5234ZM49.415 8.9873C53.7881 8.98743 55.6123 11.1517 55.6123 16.5283C55.6123 21.905 53.7881 24.0692 49.415 24.0693H44.6895V8.9873H49.415ZM62.834 8.9873C66.504 8.98733 68.3721 10.4745 68.3721 14.1465C68.3719 17.8181 66.5039 19.3047 62.834 19.3047H60.4824V24.0693H57.6475V8.9873H62.834ZM47.5244 21.5342H49.415C51.8542 21.5341 52.667 20.2876 52.667 16.5283C52.667 12.8348 51.8102 11.5236 49.415 11.5234H47.5244V21.5342ZM15.8271 20.0283H0V13.5996H15.8271V20.0283ZM21.9766 20.0283H17.043V13.5996H21.9766V20.0283ZM60.4824 16.791H62.8779C64.636 16.791 65.4492 16.1132 65.4492 14.168C65.4492 12.2009 64.614 11.501 62.8779 11.501H60.4824V16.791ZM12.1748 12.3145H0V5.88574H12.1748V12.3145ZM21.9756 12.3145H13.3916V5.88574H21.9756V12.3145Z"></path>
</svg>
