<svg xmlns="http://www.w3.org/2000/svg" fill="none" viewBox="0 0 210 34" height="34" width="210">
<path fill="#E6E3E0" d="M21.9756 23.2063L10.9873 27.9622L0 23.2063L5.19922 20.9553L10.9863 23.4602L16.7744 20.9553L21.9756 23.2063ZM42.5586 24.3186H39.5918L38.998 21.4338H34.2295L33.6357 24.3186H30.7354L34.0098 9.23755H39.2842L42.5586 24.3186ZM49.5166 9.23755C53.0326 9.23757 54.8348 10.7019 54.835 13.4993C54.835 15.4008 53.9999 16.844 51.7363 17.4124V18.0461L52.6377 19.0295L55.0986 24.3186H51.9561L49.3408 18.3303H47.0332V24.3186H44.1982V9.23755H49.5166ZM62.3643 9.23755C66.0343 9.23755 67.9023 10.7238 67.9023 14.3958C67.9023 18.0678 66.0344 19.554 62.3643 19.554H60.0127V24.3186H57.1777V9.23755H62.3643ZM21.9756 17.0334L10.9873 21.7893L0 17.0334L5.19922 14.7825L10.9863 17.2874L16.7744 14.7825L21.9756 17.0334ZM34.7344 18.9641H38.4932L36.998 11.6418H36.2295L34.7344 18.9641ZM60.0127 17.0403H62.4082C64.1663 17.0403 64.9795 16.3625 64.9795 14.4172C64.9794 12.4505 64.1442 11.7512 62.4082 11.7512H60.0127V17.0403ZM47.0332 15.926H49.6045C51.2527 15.926 51.9561 15.2701 51.9561 13.762C51.956 12.2757 51.2523 11.6633 49.4502 11.6633H47.0332V15.926ZM21.9756 10.8606L10.9873 15.6165L0 10.8606L10.9873 6.10474L21.9756 10.8606Z"></path>
</svg>
