<svg xmlns="http://www.w3.org/2000/svg" fill="none" viewBox="0 0 210 34" height="34" width="210">
<path fill="#E6E3E0" d="M21.9775 27.929H0.000976562V6.07153H21.9775V27.929ZM88.0234 8.85474C91.1661 8.85474 93.166 10.4286 93.2979 13.1389H90.5947C90.4409 11.9587 89.4524 11.303 87.958 11.303C86.5296 11.303 85.628 11.9146 85.6279 13.051C85.6279 13.9035 86.1341 14.4062 87.123 14.7122L89.8916 15.5647C92.4189 16.3297 93.6494 17.5104 93.6494 19.8928C93.6493 23.1056 91.4302 24.636 88.0459 24.636C84.4857 24.636 82.5293 22.9525 82.4414 19.8489H85.2549C85.3208 21.3351 86.3098 22.1223 88.0898 22.1223C89.7161 22.1223 90.7266 21.4442 90.7266 20.0891C90.7265 19.1493 90.1994 18.5374 89.0127 18.1877L86.2002 17.3137C83.8926 16.5924 82.793 15.3895 82.793 13.2913C82.7932 10.4283 84.9031 8.85487 88.0234 8.85474ZM111.192 18.6028C111.192 20.9634 111.874 21.9475 113.544 21.9475C115.214 21.9474 115.896 20.9632 115.896 18.6028V9.20435H118.73V18.7561C118.73 22.7776 117.104 24.6359 113.544 24.636C109.984 24.636 108.357 22.7777 108.357 18.7561V9.20435H111.192V18.6028ZM151.758 8.85474C155.735 8.8549 157.516 11.2813 157.516 16.7454C157.516 22.2093 155.735 24.6358 151.758 24.636C147.78 24.636 145.999 22.2095 145.999 16.7454C145.999 11.2811 147.78 8.85474 151.758 8.85474ZM36.6768 9.20435C41.05 9.20442 42.874 11.3686 42.874 16.7454C42.874 22.1219 41.0499 24.2853 36.6768 24.2854H31.9512V9.20435H36.6768ZM55.7656 24.2854H52.7988L52.2051 21.4006H47.4365L46.8428 24.2854H43.9424L47.2168 9.20435H52.4912L55.7656 24.2854ZM68.1084 11.7395H63.998V24.2854H61.1855V11.7395H57.0762V9.20435H68.1084V11.7395ZM81.2412 24.2854H78.2744L77.6816 21.4006H72.9121L72.3193 24.2854H69.418L72.6924 9.20435H77.9668L81.2412 24.2854ZM106.322 11.7395H102.212V24.2854H99.3994V11.7395H95.2891V9.20435H106.322V11.7395ZM125.842 9.20435C130.215 9.20435 132.039 11.3685 132.039 16.7454C132.039 22.122 130.215 24.2854 125.842 24.2854H121.117V9.20435H125.842ZM144.074 11.7395H140.426V21.7502H144.074V24.2854H133.965V21.7502H137.613V11.7395H133.965V9.20435H144.074V11.7395ZM151.758 11.4338C149.78 11.4338 148.967 12.9422 148.967 16.7454C148.967 20.6576 149.736 22.0559 151.758 22.0559C153.779 22.0557 154.57 20.6573 154.57 16.7454C154.57 12.9425 153.735 11.434 151.758 11.4338ZM6.10547 21.9026H10.0127V14.1321H6.10547V21.9026ZM11.9658 21.9026H15.8721V11.218H11.9658V21.9026ZM34.7861 21.7502H36.6768C39.1159 21.7502 39.9287 20.5045 39.9287 16.7454C39.9287 13.0516 39.072 11.7396 36.6768 11.7395H34.7861V21.7502ZM123.952 21.7502H125.842C128.281 21.7502 129.095 20.5046 129.095 16.7454C129.095 13.0515 128.237 11.7395 125.842 11.7395H123.952V21.7502ZM47.9414 18.9309H51.7002L50.2051 11.6086H49.4365L47.9414 18.9309ZM73.418 18.9309H77.1758L75.6816 11.6086H74.9121L73.418 18.9309Z"></path>
</svg>
