<svg xmlns="http://www.w3.org/2000/svg" fill="none" viewBox="0 0 112 30" height="30" width="112">
<g clip-path="url(#clip0_6536_101886)">
<path fill="#7786FE" d="M60.1828 3.23912C60.5973 3.20836 61.1654 3.21443 61.5763 3.29388C63.4194 3.65022 64.5884 5.53645 64.2197 7.36058C64.1247 7.82992 63.924 8.27215 63.6326 8.6545C62.9763 9.51767 62.1612 10.1326 61.3868 10.8929L56.1272 16.1034C55.5812 16.6548 54.9591 17.2506 54.4277 17.8146C54.4577 17.7828 53.9293 18.6563 53.9042 18.7067C53.7112 19.0942 53.5037 19.7676 53.38 20.2062C53.3452 20.329 53.2828 20.5738 53.2545 20.7124C53.2368 20.724 53.2191 20.7356 53.2014 20.7472L53.0542 20.6796C51.9618 19.4837 50.5946 18.4326 49.5284 17.1947C48.4026 15.8874 48.504 13.8762 49.6239 12.6027C50.1368 12.0195 50.7183 11.4973 51.2688 10.9518C53.1807 9.05703 55.0766 7.14389 57.009 5.27046C58.0455 4.26681 58.6547 3.44859 60.1828 3.23912Z"></path>
<path fill="#71CCE4" d="M58.3037 16.2219C58.6568 16.349 58.8422 16.6433 59.0971 16.9038L60.2009 18.0227C61.656 19.4946 64.1684 21.2015 64.2442 23.3851C64.3072 25.1963 62.6586 26.7449 60.849 26.7732C60.5473 26.7779 60.2838 26.7879 59.9847 26.7365C59.5929 26.6721 59.2189 26.528 58.8864 26.3132C58.2233 25.8811 57.5627 25.1231 57.0106 24.5706C56.5709 24.1307 55.8233 23.5511 55.4731 23.042C54.9601 22.2963 54.8339 21.2392 55.0161 20.3708C55.3294 18.8776 56.1092 18.1646 57.2068 17.1819C57.5858 16.8426 57.8679 16.5101 58.3037 16.2219Z"></path>
</g>
<defs>
<clipPath id="clip0_6536_101886">
<rect fill="white" height="30" width="112"></rect>
</clipPath>
</defs>
</svg>
