<svg xmlns="http://www.w3.org/2000/svg" fill="none" viewBox="0 0 248 80" height="80" width="248">
<g clip-path="url(#clip0_439_3052)">
<path fill="#8C8884" d="M119.286 25.3306C119.481 25.2994 119.97 25.299 120.187 25.293C120.294 34.7762 120.225 44.5703 120.184 54.0679L114.964 54.0642L114.949 51.6267C113.063 53.7813 111.528 54.7302 108.573 54.6841C106.119 54.6458 104.495 53.9823 102.768 52.2234C100.652 49.9785 99.7257 46.2097 100.052 43.1817C100.624 37.8808 104.111 33.4886 109.867 34.3098C112.185 34.6404 113.498 35.4801 114.939 37.3286C114.972 36.4517 114.928 35.5552 114.951 34.6775C115.062 30.5946 113.983 26.2049 119.286 25.3306ZM110.719 49.9592C110.869 49.9266 111.019 49.8901 111.169 49.858C116.942 48.6182 116.066 38.4283 109.866 39.0482C109.481 39.1197 108.982 39.2004 108.62 39.3312C104.76 40.7232 104.418 46.9623 107.611 49.2058C108.494 49.826 109.665 50.0243 110.719 49.9592Z"></path>
<path fill="#8C8884" d="M84.7517 34.2562C87.5456 33.9036 90.132 35.1556 91.774 37.4032L91.7862 34.9286C93.4655 34.8923 95.2615 34.915 96.9451 34.9337C96.9911 37.2091 96.9535 39.6234 96.9539 41.9132L96.9461 54.0679L91.7897 54.0644C91.7642 53.2696 91.7831 52.3732 91.7821 51.5706L91.1703 52.2364C90.0697 53.5608 88.5039 54.4096 86.7973 54.6069C77.0687 55.7631 74.1878 43.5875 79.2094 37.0882C80.6717 35.1954 82.4356 34.5216 84.7517 34.2562ZM87.5604 49.9453C94.0527 48.5902 92.7767 38.454 86.5587 39.052C86.1665 39.1313 85.7082 39.2161 85.3338 39.3562C81.5377 40.7778 81.2319 47.0537 84.427 49.2281C85.3231 49.8379 86.488 50.0386 87.5604 49.9453Z"></path>
<path fill="#8C8884" d="M147.81 34.2572C147.838 34.2522 147.857 34.2486 147.885 34.2467C153.595 33.8436 158.462 37.8463 158.716 43.6978C158.843 46.6356 158.151 49.1825 156.129 51.4256C154.384 53.375 151.932 54.5374 149.324 54.6508C135.961 55.3959 134.123 35.6377 147.81 34.2572ZM149.213 49.8026C153.88 49.0213 154.587 42.5746 151.2 39.8824C150.424 39.2653 148.955 38.9567 147.976 39.1245L147.963 39.1269C147.43 39.2167 146.807 39.3043 146.34 39.5803C141.952 42.1789 143.456 50.4294 149.213 49.8026Z"></path>
<path fill="#8C8884" d="M172.27 34.3351C172.42 34.329 172.571 34.3258 172.721 34.3254C174.613 34.323 176.307 34.8977 177.65 36.2673C180.214 38.8832 179.773 43.272 179.771 46.6641L179.764 54.068L174.546 54.0639C174.501 51.4605 174.575 48.8981 174.545 46.2269C174.513 43.5424 175.134 39.3492 171.251 39.1596C169.914 39.0943 169.12 39.3744 168.137 40.2927C166.651 41.8029 166.917 45.0979 166.92 47.1058C166.934 49.4262 166.931 51.7467 166.91 54.0671C165.207 54.0759 163.504 54.0744 161.801 54.0624C161.726 51.8723 161.776 49.4075 161.776 47.1965L161.777 34.934C163.293 34.8639 165.369 34.9106 166.916 34.9346C166.92 35.7772 166.93 36.6198 166.945 37.4623C168.517 35.3204 169.558 34.5384 172.27 34.3351Z"></path>
<path fill="#8C8884" d="M136.251 33.9707L136.395 34.0432C136.937 34.8417 137.327 35.9605 137.331 36.9072C137.257 40.4425 132.748 41.4888 130.6 43.4942C129.313 44.6961 129.588 47.3169 129.592 48.9351L129.594 54.0684L124.449 54.0638L124.443 52.0155L124.446 34.9312C126.157 34.9153 127.868 34.9148 129.578 34.9299C129.628 35.947 129.599 37.1889 129.601 38.2226C131.779 36.9277 134.082 35.3426 136.251 33.9707Z"></path>
<path fill="#8C8884" d="M65.0138 26.8121C66.9285 26.8015 69.9853 26.7162 71.8557 26.828L73.6294 45.4512C73.897 48.2151 74.078 51.3496 74.4076 54.0676C72.7749 54.0684 70.9853 54.1067 69.3657 54.0626C69.0609 49.5803 68.4967 45.0218 68.1211 40.5387C67.9536 38.5395 67.6948 36.5699 67.6011 34.5539C67.1697 35.3948 66.2734 38.7596 65.9683 39.8064C65.1031 42.6832 64.2526 45.5644 63.4169 48.45C62.9339 50.1028 62.2927 52.5042 61.7168 54.0802C56.6425 54.0799 56.5552 51.2739 55.3376 47.0845L53.0166 39.2044C52.8278 38.5593 51.8957 35.0767 51.601 34.8363C51.4225 35.228 51.3331 37.5464 51.279 38.1578L50.8193 42.9656C50.4816 46.5709 49.9792 50.4768 49.768 54.0692C48.1275 54.0694 46.3219 54.1083 44.6953 54.063V53.7821C44.8843 53.1213 45.0034 51.0871 45.0733 50.3176L45.643 44.2922C46.1268 38.57 46.7029 32.5248 47.3008 26.812C49.448 26.8027 51.9427 26.7515 54.085 26.8137C55.3752 30.8732 56.4892 35.0418 57.7372 39.1138C58.2509 40.7899 58.9416 43.6223 59.5829 45.1792C60.4173 42.9405 61.3824 39.1708 62.0759 36.8277L64.074 30.072C64.3698 29.0595 64.7735 27.8107 65.0138 26.8121Z"></path>
<path fill="#8C8884" d="M197.778 51.5746C195.555 54.1457 193.771 54.9322 190.341 54.6284C185.012 54.1564 182.391 48.2649 182.799 43.466C183.247 38.2085 186.646 33.6093 192.379 34.2756C194.939 34.5732 196.155 35.411 197.773 37.3694L197.781 34.933C199.335 34.8704 201.232 34.917 202.804 34.9308V54.0701L197.784 54.0636L197.778 51.5746ZM193.545 49.9549C193.915 49.8725 194.355 49.7828 194.708 49.6398C198.53 48.0906 198.919 41.9546 195.57 39.7383C194.801 39.2288 193.552 38.9308 192.629 39.0469C192.232 39.1239 191.743 39.2078 191.368 39.3465C187.545 40.7611 187.226 46.9937 190.41 49.2136C191.318 49.8469 192.464 50.0208 193.545 49.9549Z"></path>
</g>
<defs>
<clipPath id="clip0_439_3052">
<rect transform="translate(44.6953 25)" fill="white" height="30" width="158.108"></rect>
</clipPath>
</defs>
</svg>
