<svg xmlns="http://www.w3.org/2000/svg" fill="none" viewBox="0 0 186 66" height="66" width="186">
<mask height="44" width="100" y="11" x="43" maskUnits="userSpaceOnUse" style="mask-type:luminance" id="mask0_4532_197412">
<path fill="white" d="M143 11.6765H43V54.3236H143V11.6765Z"></path>
</mask>
<g mask="url(#mask0_4532_197412)">
<path fill="#8C8884" d="M105.509 14.1001C105.741 14.0666 105.973 14.0721 106.188 14.1761C106.421 14.2884 106.563 14.4967 106.649 14.7345C107.002 15.7161 107.189 16.8548 107.403 17.8801C108.179 21.6065 109.292 28.1413 107.637 31.6708C107.191 32.6207 106.485 33.3803 105.484 33.7357C104.505 34.0832 103.074 33.9223 102.149 33.4789C101.898 33.3587 101.623 33.24 101.529 32.955C101.449 32.7135 101.47 32.2812 101.59 32.0589C102.037 31.2388 103.791 32.3518 104.856 32.02C105.366 31.861 105.721 31.4812 105.965 31.0213C106.253 30.4777 106.774 28.6845 106.588 28.1321C106.585 28.1226 106.581 28.113 106.577 28.1033C106.608 28.0574 106.633 28.0105 106.644 27.9559C106.818 27.098 106.464 21.4683 106.046 20.789C106.039 20.8168 106.035 20.8386 106.019 20.8632C105.896 21.063 105.636 21.2603 105.454 21.4061C104.386 22.2449 103.129 22.8074 101.793 23.0439C100.021 23.3744 97.9538 23.1811 96.4408 22.1292C95.7012 21.6149 95.0187 20.8217 94.8611 19.9085C94.7481 19.2537 94.932 18.6223 95.3118 18.0865C96.9921 15.7162 102.81 14.5502 105.509 14.1001ZM97.7714 20.8569C99.4662 21.527 101.235 21.5479 102.924 20.8165C103.947 20.3737 105.043 19.5476 105.463 18.4753C105.513 18.3474 105.546 18.2362 105.532 18.0978C105.648 17.8097 105.287 16.4928 105.163 16.2012C105.139 16.1476 105.107 16.1004 105.071 16.0553C104.988 16.039 104.925 16.0448 104.843 16.0586C103.132 16.422 97.7374 17.608 96.7878 19.1135C96.6762 19.2905 96.6294 19.4865 96.676 19.6928C96.8239 20.3484 97.5864 20.5562 97.7714 20.8569Z"></path>
<path fill="#8C8884" d="M83.1609 15.4271C83.3909 15.4057 83.6238 15.3999 83.8546 15.3951C84.4032 15.3835 87.0652 15.3072 87.4301 15.7259C87.7674 16.1132 89.9288 22.5266 90.1936 23.4549C90.2565 23.6753 90.3541 23.9869 90.3241 24.2167C90.2986 24.4123 90.144 24.6203 89.9939 24.7393C89.8225 24.8752 89.595 24.9665 89.3741 24.9382C88.3012 24.801 88.6077 23.6242 88.1022 23.0151C88.0957 23.0071 88.0886 22.9993 88.0818 22.9914C88.0766 23.0026 88.0726 23.0144 88.066 23.0249C87.5585 23.8334 85.7314 24.5516 84.8342 24.809C84.3321 24.9316 83.822 25.0169 83.3074 25.0642C81.2988 25.2415 78.7352 24.9528 77.147 23.6101C76.4649 23.0335 76.0804 22.3422 76.0075 21.448C75.9003 20.1367 76.2383 18.7907 77.1027 17.7821C78.5667 16.0735 81.0229 15.5921 83.1609 15.4271ZM81.9184 23.2951C83.5376 23.3511 85.4343 23.0392 86.6628 21.8896C86.9335 21.6363 87.2657 21.1952 87.2914 20.8109C87.2935 20.7813 87.2921 20.753 87.2871 20.7238C87.3327 20.5252 86.3563 17.6265 86.1743 17.3322C86.156 17.3024 86.136 17.278 86.1116 17.2533C85.2244 17.1908 84.3342 17.1834 83.446 17.231C81.7945 17.3399 79.6267 17.6368 78.4828 18.953C77.9597 19.5549 77.7314 20.3974 77.789 21.1877C77.82 21.6134 78.0027 21.9628 78.3254 22.2401C79.2402 23.0266 80.7568 23.2311 81.9184 23.2951Z"></path>
<path fill="#8C8884" d="M117.212 43.6737C118.495 43.6151 119.738 43.7574 120.924 44.2763C122.449 44.9432 123.546 46.2778 124.137 47.8116C124.441 48.6016 125.074 51.2479 124.697 52.069C124.581 52.3238 124.364 52.5187 124.099 52.6075C123.894 52.6764 123.662 52.6774 123.467 52.577C123.26 52.4705 123.128 52.2703 123.062 52.0521C122.944 51.6654 122.979 51.1788 122.951 50.7716C122.915 50.1287 122.798 49.4929 122.603 48.8793C122.223 47.6846 121.503 46.609 120.369 46.025C118.417 45.0201 115.977 45.5774 114.007 46.2107C113.872 46.3406 113.589 46.4476 113.418 46.5453C112.787 46.9069 112.238 47.2911 111.753 47.8411C110.941 48.7618 110.453 49.9474 110.301 51.1631C110.24 51.6514 110.328 52.5398 110.045 52.9415C109.919 53.1194 109.662 53.2539 109.45 53.2813C109.227 53.3103 109.002 53.2318 108.826 53.0961C108.641 52.9496 108.515 52.741 108.47 52.5085C108.384 52.0442 108.462 51.4392 108.465 50.9571L108.472 47.1625C108.473 46.5588 108.529 45.8932 108.454 45.296L108.449 45.2588C108.736 45.0692 108.769 44.8215 109.16 44.7262C109.383 44.6715 109.606 44.6838 109.803 44.8123C110.051 44.974 110.179 45.2555 110.232 45.5387C110.295 45.8711 110.312 46.5635 110.121 46.8402C110.646 46.5268 111.057 45.9158 111.564 45.5397C113.226 44.3067 115.198 43.871 117.212 43.6737Z"></path>
<path fill="#8C8884" d="M132.591 14.9327C133.478 14.9116 135.92 14.8859 136.574 15.4616C136.724 15.5933 136.82 15.7668 136.827 15.9686C136.836 16.2286 136.709 16.529 136.526 16.7119C136.375 16.8636 136.195 16.9331 135.986 16.9534C135.641 16.9867 135.259 16.8795 134.912 16.8459C134.227 16.7795 133.518 16.742 132.829 16.7549C131.382 16.7819 129.284 16.9082 128.231 18.0162C127.853 18.413 127.676 18.924 127.689 19.4703C127.706 20.2142 128.04 20.8434 128.571 21.3513C129.7 22.4312 131.493 22.942 133.025 22.899C134.072 22.8695 135.373 22.5424 135.945 21.5715C136.137 21.2462 136.257 20.8301 136.52 20.5569C136.708 20.3622 136.888 20.3253 137.15 20.3198C137.374 20.333 137.574 20.4048 137.751 20.5459C137.914 20.6751 138.002 20.8426 138.019 21.049C138.073 21.7176 137.552 22.5195 137.135 23.0023C136.263 24.0125 134.872 24.6121 133.549 24.6984C131.447 24.8354 129.079 24.2214 127.475 22.8058C126.549 21.9877 126.003 21.0029 125.924 19.7584C125.856 18.684 126.132 17.6422 126.855 16.8281C128.247 15.2586 130.628 15.0479 132.591 14.9327Z"></path>
<path fill="#8C8884" d="M99.3334 44.7026C99.568 44.7134 99.765 44.7454 99.9591 44.8872C100.139 45.018 100.259 45.2159 100.292 45.4365C100.415 46.2545 100.323 47.2606 100.323 48.0987C100.324 49.4601 100.397 50.8718 100.305 52.2266C100.291 52.4301 100.283 52.7281 100.158 52.8943C99.9761 53.135 99.7099 53.238 99.4202 53.2714C99.2599 53.2757 99.1121 53.2287 98.9731 53.1501C98.8069 53.056 98.6334 52.8835 98.5841 52.6934C98.44 52.1409 98.4783 46.5101 98.5363 45.6666C98.5488 45.4837 98.5606 45.2634 98.6606 45.1059C98.8209 44.854 99.054 44.7665 99.3334 44.7026Z"></path>
<path fill="#8C8884" d="M117.435 16.4506C117.686 16.4276 117.955 16.4619 118.165 16.6107C118.31 16.7129 118.445 16.8868 118.474 17.0642C118.619 17.9344 118.522 19.4944 118.523 20.4289C118.523 21.6721 118.611 22.9759 118.499 24.2087C118.484 24.368 118.437 24.5147 118.342 24.6444C118.184 24.8598 117.971 24.9468 117.716 24.9867C117.578 24.9993 117.427 24.9867 117.298 24.9347C117.07 24.8428 116.888 24.682 116.799 24.4482C116.687 24.1563 116.67 17.2755 116.819 16.9451C116.943 16.6692 117.165 16.5531 117.435 16.4506Z"></path>
<path fill="#8C8884" d="M99.0871 39.6591C99.3408 39.6262 99.5665 39.5981 99.8048 39.7202C100.046 39.8439 100.208 40.0785 100.284 40.3342C100.417 40.7796 100.394 41.4294 100.17 41.8366C100.04 42.0735 99.8548 42.1811 99.6018 42.2518C99.471 42.3075 99.2989 42.2866 99.1643 42.2608C98.9724 42.2241 98.8217 42.1064 98.718 41.9432C98.4526 41.5273 98.4452 40.8504 98.5548 40.3801C98.6401 40.0147 98.779 39.8518 99.0871 39.6591Z"></path>
<path fill="#8C8884" d="M117.399 11.799C117.669 11.7652 117.929 11.7758 118.158 11.9393C118.382 12.0988 118.511 12.3494 118.554 12.6171C118.611 12.9687 118.551 13.3667 118.337 13.658C118.176 13.8771 117.984 13.9622 117.722 13.9996C117.616 14.013 117.478 14.0001 117.376 13.9725C117.159 13.9138 116.969 13.7925 116.862 13.5894C116.678 13.2408 116.699 12.7939 116.821 12.4284C116.935 12.0858 117.088 11.9512 117.399 11.799Z"></path>
<path fill="#8C8884" d="M139.894 44.8691C140.073 44.4899 138.917 36.2894 138.832 34.8798C138.813 34.5765 138.875 34.2909 139.087 34.0623C139.243 33.8942 139.553 33.7966 139.778 33.7942C139.97 33.7922 140.141 33.8696 140.276 34.0045C140.504 34.2335 140.598 34.5641 140.648 34.8758C140.743 35.4761 140.76 36.0915 140.837 36.6947C141.207 39.6053 141.46 42.5346 141.85 45.4422C142.074 47.1163 142.368 48.787 142.63 50.4558C142.735 51.1232 142.931 51.8845 142.937 52.5545C143.024 52.7902 143.045 53.1053 142.939 53.3399C142.88 53.4912 142.751 53.6542 142.615 53.7443C142.421 53.8745 142.11 53.9767 141.874 53.9258C140.943 53.7258 141.332 52.2325 140.94 51.6883C140.933 51.6792 140.926 51.6703 140.919 51.6614C140.913 51.6807 140.913 51.6847 140.901 51.7044C140.82 51.8404 140.657 51.968 140.54 52.0742C139.628 52.9117 138.343 53.4555 137.141 53.6989C135.331 54.0657 133.296 53.8932 131.729 52.8446C130.967 52.3344 130.224 51.5295 130.045 50.5994C129.92 49.9497 130.088 49.3036 130.454 48.7601C131.987 46.4854 137.367 45.3573 139.894 44.8691ZM132.948 51.5083C134.611 52.2022 136.237 52.2655 137.926 51.5661C139.068 51.0934 139.914 50.3452 140.451 49.2302C140.646 48.8281 140.343 47.1963 140.215 46.7542C140.115 46.669 140.042 46.7024 139.915 46.71C138.272 47.132 132.859 48.2186 131.951 49.7607C131.842 49.9451 131.806 50.1419 131.862 50.3501C132.017 50.915 132.58 51.1303 132.948 51.5083Z"></path>
<path fill="#8C8884" d="M63.2674 54.3233C62.9765 54.2011 62.6827 54.0852 62.5531 53.7704C62.2849 53.1191 63.3967 50.7051 63.6977 50.016C64.8815 47.3049 66.7946 43.6625 69.7035 42.5199C70.9334 42.0366 72.2485 42.0721 73.4565 42.604C75.8993 43.6797 77.6786 46.4155 78.9111 48.6821C80.1735 46.5672 81.8046 44.3341 84.3246 43.7044C85.7873 43.3389 87.2601 43.6778 88.5303 44.4527C90.8967 45.8962 92.8108 48.7246 94.0695 51.1355C94.2777 51.5344 94.5849 51.954 94.6868 52.3938C94.7375 52.6124 94.7144 52.8027 94.5942 52.9922C94.4556 53.2105 94.2575 53.3841 94.0009 53.4425C93.741 53.5017 93.4962 53.4275 93.2807 53.2787C92.9368 53.0411 92.4535 51.8987 92.2104 51.47C90.8501 49.0705 88.1749 44.9005 84.961 45.4097C83.4426 45.6502 82.2202 46.961 81.3626 48.1543C81.0074 48.6488 80.6549 49.1831 80.3771 49.7249C80.1294 50.2078 79.931 50.8214 79.5945 51.2434C79.462 51.4096 79.2827 51.5186 79.0731 51.5546C78.8315 51.5964 78.5835 51.5333 78.3913 51.3808C78.0628 51.125 77.5714 49.9734 77.3321 49.5347C76.2092 47.476 73.882 43.7169 71.1796 43.9919C69.8479 44.1275 68.7656 45.1635 67.9639 46.1587C66.6929 47.7366 65.6862 49.6991 64.9587 51.5841C64.6774 52.313 64.4955 53.1772 64.1227 53.8547C63.989 54.0974 63.7661 54.2095 63.5233 54.3233H63.2674Z"></path>
<path fill="#8C8884" d="M58.224 21.3445C58.9743 19.3409 60.1459 16.9558 62.1844 16.0238C63.2644 15.5299 64.4664 15.5449 65.569 15.959C67.9765 16.863 69.8363 19.3151 71.251 21.3683C71.6174 21.9 72.0601 22.4746 72.3241 23.0648C72.4339 23.3104 72.4721 23.5608 72.371 23.8174C72.2784 24.0503 72.0945 24.2348 71.8621 24.3275C71.6535 24.4109 71.4274 24.4046 71.2221 24.3151C70.7129 24.0929 70.2356 23.0572 69.9067 22.5771C68.6284 20.7111 65.738 16.6077 63.0638 17.6009C61.7649 18.0834 60.894 19.6233 60.3499 20.8285C60.0771 21.4329 59.8284 22.0594 59.6349 22.6941C59.5169 23.0817 59.4755 23.5024 59.2885 23.8659C59.1901 24.0573 59.0476 24.2291 58.8414 24.3055C58.6324 24.383 58.3893 24.3423 58.1935 24.2459C57.5831 23.9453 57.1539 22.9531 56.7682 22.3988C55.4009 20.4337 52.8116 17.082 50.0563 17.9801C48.3586 18.5334 47.1644 20.5159 46.3998 22.0406C45.9574 22.9251 45.5772 23.8395 45.2618 24.777C45.0724 25.3476 44.9567 26.0547 44.6737 26.5791C44.5376 26.8312 44.336 27.0765 44.0543 27.1669C43.8919 27.2191 43.7315 27.1934 43.5832 27.1132C43.3022 26.9612 43.1665 26.7654 43 26.5079V25.9779L43.0169 25.9415C43.328 25.258 43.4699 24.4533 43.7343 23.7424C44.7296 21.0662 46.4435 17.4492 49.2704 16.3493C50.5296 15.8593 51.881 15.957 53.1041 16.5029C55.2342 17.4535 56.9065 19.476 58.224 21.3445Z"></path>
</g>
</svg>
