<svg xmlns="http://www.w3.org/2000/svg" fill="none" viewBox="0 0 186 66" height="66" width="186">
<mask height="32" width="150" y="17" x="18" maskUnits="userSpaceOnUse" style="mask-type:luminance" id="mask0_4532_197504">
<path fill="white" d="M168 17H18V48.3187H168V17Z"></path>
</mask>
<g mask="url(#mask0_4532_197504)">
<path fill="#8C8884" d="M129.267 17.916C130.804 17.8414 132.341 17.7908 133.862 18.0579C133.871 18.0759 133.88 18.0939 133.888 18.1126C133.971 18.3056 134.062 18.476 134.102 18.6867C134.516 20.8403 134.232 26.4947 134.232 29.0069C134.234 33.0224 134.508 38.2182 134.197 42.1171C134.162 42.5688 134.06 42.9002 133.809 43.2762C136.955 43.0789 140.337 43.0151 143.468 43.3618C143.52 43.4362 143.565 43.5142 143.608 43.5942C144.128 44.5454 143.934 46.4809 143.643 47.5054C143.287 47.8638 143.143 47.8179 142.659 47.867C142.138 48.0296 129.712 47.9539 128.586 47.7671C127.998 45.9014 128.331 27.4877 128.344 24.0709C128.349 22.5477 128.223 20.9873 128.261 19.4764C128.27 19.1142 128.299 18.7017 128.465 18.3768C128.64 18.033 128.927 18.0251 129.267 17.916Z"></path>
<path fill="#8C8884" d="M18 18.0295C20.4895 17.829 23.4083 17.5857 25.8711 18.0452C26.9278 21.1038 27.664 24.3097 28.4754 27.4448C29.2466 30.4244 30.1689 33.4425 30.5509 36.502C30.926 33.7447 33.9171 19.982 35.1006 18.1969C36.0796 17.5056 41.524 17.8299 42.9522 18.0345C43.2545 23.2942 43.0535 28.6561 43.0554 33.9298C43.0569 38.1477 43.2967 42.5432 42.9897 46.74C42.9633 47.1006 42.9251 47.5786 42.6808 47.8619C42.6694 47.875 42.6577 47.8877 42.6458 47.9003C40.9812 47.9593 38.9743 48.1797 37.3674 47.7164C36.9203 41.5512 37.3749 35.3364 37.2828 29.1682C36.386 32.5523 33.7647 45.3583 32.346 47.575C31.4711 48.2798 29.757 48.0006 28.6854 47.9668C27.5934 45.9365 27.1441 43.4303 26.5665 41.1999C25.5208 37.162 24.5998 33.0426 23.4327 29.0431C23.6133 30.804 23.6325 32.6078 23.6773 34.3781C23.7241 36.2293 23.9989 46.2907 23.515 47.327C23.4728 47.4175 23.2977 47.5598 23.2239 47.6388C21.8457 48.2312 19.4231 48.0681 18 47.6424V18.0295Z"></path>
<path fill="#8C8884" d="M154.348 18.0022C155.408 17.8441 160.97 17.5832 161.729 18.0045C161.931 18.1634 162.071 18.3638 162.149 18.6107C162.988 21.2596 163.368 24.2422 163.915 26.98L166.925 41.9662C167.153 43.1502 167.401 46.0626 167.851 46.9588C167.817 47.1439 167.817 47.4397 167.666 47.5475C166.604 48.3055 163.607 47.9731 162.305 47.9652C161.804 46.4797 161.31 42.0607 160.764 41.2916C158.915 41.3996 157.038 41.3266 155.185 41.3138C155.208 41.4467 155.225 41.5805 155.236 41.7149C155.337 43.1986 154.922 46.5625 153.958 47.6665C153.672 47.9932 153.078 47.975 152.677 47.9964C151.703 47.8883 150.666 47.9613 149.683 47.9654C149.468 47.8681 148.872 47.6307 148.752 47.4437C148.553 47.1317 148.595 46.769 148.637 46.4174C149.022 43.1775 149.904 39.8412 150.551 36.6372L154.348 18.0022ZM156.071 36.6069L158.13 36.5046C158.728 36.5245 159.348 36.5116 159.939 36.599C160.095 34.603 158.989 30.6092 158.6 28.4153C158.431 27.46 158.364 26.4899 158.251 25.5266L157.971 25.4122C157.967 27.3353 156.939 35.0535 156.071 36.6069Z"></path>
<path fill="#8C8884" d="M109.142 48.3185C108.342 47.845 107.389 47.6175 106.54 47.2377C104.834 46.4743 103.496 44.6641 103.029 42.8596C102.6 41.21 102.623 26.0674 102.835 24.082C102.944 23.0676 103.182 22.0936 103.691 21.2064C104.669 19.5016 106.413 18.3852 108.261 17.8925C110.901 17.1885 114.398 17.3636 116.788 18.7903C118.401 19.7519 119.608 21.2256 120.079 23.0808C120.373 24.236 120.635 27.0142 120.045 28.0506C119.999 28.1299 119.941 28.2051 119.878 28.2714C118.771 28.551 116.151 28.9319 115.158 28.3305C114.83 28.132 114.606 27.7929 114.518 27.4186C114.145 25.8482 115.119 23.6823 113.448 22.6167C112.526 22.0286 111.29 22.0575 110.259 22.3034C109.804 22.412 109.427 22.5396 109.176 22.9568C108.807 23.5689 108.673 24.438 108.609 25.1453C108.418 27.243 108.334 40.1782 108.721 41.7736C108.861 42.3483 109.148 42.8186 109.654 43.1265C110.458 43.6149 111.889 43.8647 112.795 43.6272C113.307 43.4931 113.702 43.1614 113.965 42.6991C114.798 41.2361 113.918 37.0809 115.09 36.7605C116.31 36.4268 118.672 36.4908 119.92 36.7512C120.571 37.5888 120.347 40.5979 120.219 41.7088C120.004 43.5783 119.205 45.1691 117.742 46.3432C116.489 47.3486 115.068 47.882 113.546 48.3185H109.142Z"></path>
<path fill="#8C8884" d="M66.9408 17.8513C67.4956 17.9336 68.1624 17.8822 68.5164 18.3332C68.7218 19.2253 68.9058 21.494 68.4342 22.2767C68.4073 22.3214 68.3772 22.3629 68.3442 22.4033C65.115 22.8476 61.603 22.4487 58.3321 22.5182C58.8261 23.2597 58.7845 28.6757 58.5707 29.7434C58.5279 29.9572 58.4158 30.1866 58.3094 30.3744C60.7692 30.3358 63.7738 29.9797 66.1682 30.5154C66.8211 31.4798 66.7029 33.0586 66.5021 34.1649C66.4481 34.4625 66.3901 34.7073 66.1924 34.9431C63.6034 35.1548 60.9437 35.0286 58.347 35.0083C58.8074 35.8909 58.8446 41.7974 58.5408 42.7882C58.4962 42.9332 58.4202 43.0775 58.3354 43.2024C61.6334 43.1854 65.0652 42.9778 68.3464 43.3509C68.6769 44.067 68.9722 46.0405 68.7099 46.769C68.567 47.1661 68.3013 47.4802 67.9225 47.6582C67.5204 47.8473 67.0694 47.9204 66.6296 47.9438C65.1906 48.0207 63.7279 47.8293 62.2836 47.8331C59.7705 47.84 57.2018 48.0191 54.6955 47.9113C54.1766 47.8891 53.6328 47.8603 53.1424 47.6732C53.0722 47.6464 53.027 47.6423 52.9945 47.57C52.7516 47.0286 52.7694 46.3279 52.7487 45.7423C52.6484 42.9121 52.4679 19.4321 52.8496 18.4002C52.9327 18.1757 53.0141 18.107 53.1958 17.9647C57.7484 17.6519 62.3744 18.0567 66.9408 17.8513Z"></path>
<path fill="#8C8884" d="M78.6872 17.852C83.1064 18.0796 88.016 17.5421 92.3149 17.9259C92.5867 17.9312 92.9241 17.9118 93.1835 17.9941C93.5234 18.102 93.735 18.3786 93.8955 18.6935C94.3474 19.5851 94.1182 20.7787 93.832 21.6945C93.6315 22.3359 93.3262 22.9221 92.9476 23.4723C91.8027 25.1377 85.7949 32.5682 84.3813 33.3105C87.4369 33.3867 90.4978 33.292 93.5555 33.3617C93.7278 33.562 93.792 33.8309 93.8287 34.0883C93.9662 35.0478 94.1489 37.1459 93.5582 37.9547C91.7418 38.2091 89.6287 38.0142 87.788 38.015C84.2582 38.0164 80.6976 38.1135 77.172 37.9367C77.1928 37.8898 77.2094 37.843 77.2256 37.7943C77.5972 36.6763 76.7694 35.0665 77.3216 33.7059C78.1806 31.5887 82.8468 26.6931 84.564 24.6774C85.0953 24.0544 85.9658 23.2484 86.2874 22.4996C83.3152 22.6499 80.2035 22.6077 77.2299 22.4523C77.6989 21.3602 76.5769 19.6618 77.2836 18.5449C77.6325 17.9934 78.1117 17.9867 78.6872 17.852Z"></path>
<path fill="#8C8884" d="M76.9015 41.7134C79.6219 42.3871 81.861 43.7682 84.752 43.9842C85.8282 44.0647 87.1173 44.111 88.1752 43.8984C89.738 43.5844 92.6398 42.0637 94.0166 42.2343C94.8059 42.3321 95.8075 43.5656 96.2024 44.2225C96.3439 44.4586 96.4488 44.8326 96.3832 45.1059C96.2457 45.6787 95.871 46.0005 95.3882 46.2967C93.6157 47.3841 91.4398 47.6553 89.5075 48.3188H81.65C80.8772 47.6896 78.0948 47.1339 76.9993 46.7123C75.9083 46.2925 75.0799 45.3841 74.0234 44.9237C75.0009 44.1961 76.1571 42.7113 76.9015 41.7134Z"></path>
<path fill="#8C8884" d="M167.856 46.9586L167.954 46.9585C168.004 47.506 167.988 47.8359 167.715 48.3185H162.273L162.311 47.9649C163.613 47.9729 166.61 48.3052 167.672 47.5472C167.823 47.4395 167.823 47.1437 167.856 46.9586Z"></path>
<path fill="#8C8884" d="M37.3672 47.7163C38.9741 48.1797 40.9809 47.9593 42.6456 47.9003L42.8472 48.3187H37.4127L37.3672 47.7163Z"></path>
<path fill="#8C8884" d="M149.685 47.9656C150.667 47.9615 151.704 47.8886 152.679 47.9966L152.655 48.3189H149.508L149.685 47.9656Z"></path>
</g>
</svg>
