<svg xmlns="http://www.w3.org/2000/svg" fill="none" viewBox="0 0 112 30" height="30" width="112">
<mask height="27" width="20" y="2" x="18" maskUnits="userSpaceOnUse" style="mask-type:luminance" id="mask0_6536_101899">
<path fill="white" d="M37.6301 10.5146C37.6301 9.32846 36.8865 8.27464 35.7688 7.87319L19.5009 2.06582C18.771 1.80579 18 2.34866 18 3.12419V11.9561C18 12.4306 18.2965 12.8548 18.7436 13.0145L26.0336 15.6194C26.7635 15.8794 27.5345 15.3366 27.5345 14.561V9.48356C27.5345 9.09123 27.9268 8.82208 28.2918 8.95894L30.2032 9.67973C31.2981 10.0903 32.0189 11.135 32.0189 12.3029V14.5108L23.7846 17.5217C23.3421 17.6814 23.0501 18.1057 23.0501 18.5755V27.4029C23.0501 28.183 23.8256 28.7259 24.5555 28.4567L35.7871 24.351C36.8911 23.945 37.6301 22.8957 37.6301 21.7187V10.5146Z"></path>
</mask>
<g mask="url(#mask0_6536_101899)">
<path fill="url(#paint0_linear_6536_101899)" d="M18 1.52759L37.6256 8.53476V18.1605C37.6256 18.936 36.8591 19.4789 36.1292 19.2189L32.0189 17.7499V12.3029C32.0189 11.1351 31.2935 10.0904 30.2032 9.67981L28.2918 8.96358C27.9268 8.82672 27.5345 9.09588 27.5345 9.4882V16.1532L18 12.75V1.52759Z"></path>
<path fill-opacity="0.24" fill="black" d="M37.6251 10.615C37.6251 11.792 36.8906 12.8458 35.7821 13.2518L23.0451 17.905V29.1183L37.6251 23.7899V10.615Z"></path>
<path fill-opacity="0.32" fill="black" d="M37.6251 11.0623C37.6251 12.2392 36.8906 13.2931 35.7821 13.6991L23.0451 18.3523V29.5656L37.6251 24.2372V11.0623Z"></path>
<path fill="url(#paint1_linear_6536_101899)" d="M37.6249 10.501C37.6249 11.678 36.8905 12.7318 35.7819 13.1378L23.0449 17.791V29.0043L37.6249 23.6759V10.501Z"></path>
<path fill="url(#paint2_linear_6536_101899)" d="M37.6249 10.501C37.6249 11.678 36.8905 12.7318 35.7819 13.1378L23.0449 17.791V29.0043L37.6249 23.6759V10.501Z" opacity="0.5"></path>
<path fill="#B0ADFF" d="M32.0183 14.5156L27.5293 16.1579V22.7363C27.5293 23.1286 27.9216 23.3978 28.2866 23.2609L30.2026 22.5401C31.2975 22.1295 32.0183 21.0848 32.0183 19.917V14.5156Z" opacity="0.5"></path>
</g>
<path fill="white" d="M49.4342 14.151H48.747V10.177C48.747 9.86323 48.7694 9.48226 48.8068 9.02659H48.7918C48.7246 9.29551 48.6648 9.48226 48.6125 9.60178L46.5881 14.151H46.252L44.2351 9.63166C44.1753 9.4972 44.1156 9.29551 44.0558 9.02659H44.0409C44.0633 9.26563 44.0707 9.6466 44.0707 10.1844V14.151H43.3984V8.22729H44.3173L46.1325 12.3582C46.2744 12.672 46.364 12.911 46.4014 13.0679H46.4238C46.5433 12.7467 46.6404 12.5002 46.7077 12.3433L48.5602 8.22729H49.4268V14.151H49.4342Z"></path>
<path fill="white" d="M51.2438 8.84729C51.1243 8.84729 51.0197 8.80247 50.9375 8.72029C50.8554 8.63812 50.8105 8.53354 50.8105 8.40655C50.8105 8.27956 50.8554 8.17498 50.9375 8.09281C51.0197 8.01064 51.1243 7.96582 51.2438 7.96582C51.3708 7.96582 51.4754 8.01064 51.5576 8.09281C51.6397 8.17498 51.6845 8.27956 51.6845 8.40655C51.6845 8.52607 51.6397 8.63065 51.5576 8.71283C51.4754 8.80247 51.3708 8.84729 51.2438 8.84729ZM51.58 14.151H50.9002V9.92297H51.58V14.151Z"></path>
<path fill="white" d="M55.8293 13.9568C55.5007 14.151 55.1197 14.2481 54.6715 14.2481C54.0664 14.2481 53.5809 14.0539 53.2148 13.658C52.8413 13.2621 52.662 12.7541 52.662 12.1341C52.662 11.4394 52.8637 10.8791 53.2597 10.4533C53.6556 10.0275 54.1934 9.81836 54.8582 9.81836C55.2317 9.81836 55.5604 9.88559 55.8443 10.0275V10.7222C55.5305 10.5056 55.1944 10.3936 54.8358 10.3936C54.4026 10.3936 54.0515 10.5504 53.7751 10.8567C53.4987 11.163 53.3568 11.5738 53.3568 12.0743C53.3568 12.5673 53.4838 12.9632 53.7452 13.2471C54.0067 13.531 54.3577 13.6804 54.791 13.6804C55.157 13.6804 55.5081 13.5609 55.8293 13.3143V13.9568Z"></path>
<path fill="white" d="M59.0647 10.6027C58.9451 10.5131 58.7733 10.4683 58.5492 10.4683C58.2579 10.4683 58.0188 10.6027 57.8246 10.8791C57.6304 11.148 57.5333 11.5215 57.5333 11.9921V14.151H56.8535V9.92294H57.5333V10.7969H57.5482C57.6453 10.4981 57.7947 10.2666 57.989 10.1022C58.1907 9.93788 58.4073 9.85571 58.6538 9.85571C58.8331 9.85571 58.9675 9.87812 59.0572 9.91547V10.6027H59.0647Z"></path>
<path fill="white" d="M61.4544 14.2482C60.827 14.2482 60.3265 14.054 59.9604 13.6581C59.5869 13.2621 59.4002 12.7392 59.4002 12.0894C59.4002 11.3797 59.5944 10.8269 59.9828 10.4235C60.3713 10.0276 60.8942 9.82593 61.559 9.82593C62.1865 9.82593 62.6795 10.0201 63.0381 10.4086C63.3892 10.797 63.5685 11.3349 63.5685 12.0221C63.5685 12.6944 63.3742 13.2397 62.9933 13.6431C62.6123 14.0465 62.0969 14.2482 61.4544 14.2482ZM61.4993 10.3937C61.066 10.3937 60.7224 10.5431 60.4684 10.8344C60.2144 11.1332 60.0874 11.5366 60.0874 12.0595C60.0874 12.56 60.2144 12.9559 60.4684 13.2472C60.7224 13.5385 61.066 13.6805 61.4993 13.6805C61.94 13.6805 62.2761 13.5385 62.5077 13.2547C62.7468 12.9708 62.8588 12.5674 62.8588 12.0445C62.8588 11.5142 62.7393 11.1108 62.5077 10.8194C62.2761 10.5356 61.94 10.3937 61.4993 10.3937Z"></path>
<path fill="white" d="M64.3827 13.9942V13.2696C64.7487 13.5385 65.1596 13.6805 65.6003 13.6805C66.1979 13.6805 66.4892 13.4788 66.4892 13.0829C66.4892 12.9708 66.4668 12.8737 66.4145 12.799C66.3622 12.7168 66.295 12.6496 66.2054 12.5898C66.1157 12.5301 66.0186 12.4778 65.8991 12.4255C65.7796 12.3807 65.6526 12.3284 65.5181 12.2761C65.3314 12.2014 65.167 12.1267 65.0251 12.052C64.8832 11.9773 64.7637 11.8877 64.6665 11.798C64.5694 11.7009 64.5022 11.5963 64.4499 11.4768C64.4051 11.3573 64.3752 11.2154 64.3752 11.051C64.3752 10.8493 64.42 10.6775 64.5097 10.5206C64.5993 10.3712 64.7188 10.2368 64.8757 10.1397C65.0326 10.0426 65.1969 9.96039 65.3911 9.9081C65.5854 9.85581 65.7871 9.82593 65.9887 9.82593C66.3548 9.82593 66.6835 9.88569 66.9748 10.0127V10.6999C66.661 10.4982 66.3025 10.3937 65.8991 10.3937C65.7721 10.3937 65.6601 10.4086 65.5555 10.4385C65.4509 10.4684 65.3687 10.5057 65.294 10.558C65.2193 10.6103 65.167 10.67 65.1222 10.7447C65.0849 10.8194 65.0625 10.9016 65.0625 10.9838C65.0625 11.0958 65.0849 11.1855 65.1222 11.2602C65.1596 11.3349 65.2193 11.4021 65.3015 11.4619C65.3762 11.5216 65.4733 11.5739 65.5854 11.6187C65.6974 11.6636 65.8244 11.7158 65.9589 11.7681C66.1456 11.8428 66.3174 11.9101 66.4594 11.9922C66.6088 12.0669 66.7357 12.1566 66.8403 12.2462C66.9449 12.3433 67.0271 12.4479 67.0794 12.5749C67.1391 12.7019 67.1615 12.8438 67.1615 13.0156C67.1615 13.2248 67.1167 13.4041 67.0196 13.561C66.93 13.7178 66.803 13.8448 66.6536 13.9419C66.4967 14.0465 66.3249 14.1212 66.1232 14.166C65.9215 14.2183 65.7124 14.2407 65.4883 14.2407C65.0849 14.2482 64.7039 14.166 64.3827 13.9942Z"></path>
<path fill="white" d="M69.9996 14.2482C69.3721 14.2482 68.8716 14.054 68.5056 13.6581C68.1321 13.2621 67.9453 12.7392 67.9453 12.0894C67.9453 11.3797 68.1395 10.8269 68.528 10.4235C68.9164 10.0276 69.4393 9.82593 70.1042 9.82593C70.7316 9.82593 71.2247 10.0201 71.5832 10.4086C71.9343 10.797 72.1136 11.3349 72.1136 12.0221C72.1136 12.6944 71.9194 13.2397 71.5384 13.6431C71.15 14.0465 70.642 14.2482 69.9996 14.2482ZM70.0519 10.3937C69.6186 10.3937 69.275 10.5431 69.021 10.8344C68.767 11.1332 68.64 11.5366 68.64 12.0595C68.64 12.56 68.767 12.9559 69.021 13.2472C69.275 13.5385 69.6186 13.6805 70.0519 13.6805C70.4926 13.6805 70.8288 13.5385 71.0603 13.2547C71.2994 12.9708 71.4114 12.5674 71.4114 12.0445C71.4114 11.5142 71.2919 11.1108 71.0603 10.8194C70.8213 10.5356 70.4851 10.3937 70.0519 10.3937Z"></path>
<path fill="white" d="M75.1231 8.48134C74.9887 8.40664 74.8393 8.36928 74.6749 8.36928C74.2043 8.36928 73.9653 8.66809 73.9653 9.26569V9.91558H74.9588V10.4908H73.9653V14.1436H73.293V10.4908H72.5684V9.91558H73.293V9.22834C73.293 8.78761 73.4199 8.43651 73.6739 8.17506C73.9279 7.92108 74.2491 7.78662 74.6301 7.78662C74.8393 7.78662 75.0036 7.80903 75.1231 7.86132V8.48134Z"></path>
<path fill="white" d="M77.7988 14.1064C77.6419 14.196 77.4253 14.2409 77.1638 14.2409C76.4243 14.2409 76.0508 13.83 76.0508 13.0008V10.4984H75.3262V9.92318H76.0508V8.88484L76.7305 8.66821V9.92318H77.7988V10.4984H76.7305V12.8813C76.7305 13.1652 76.7754 13.3669 76.8725 13.4864C76.9696 13.6059 77.1265 13.6657 77.3506 13.6657C77.5224 13.6657 77.6718 13.6209 77.7913 13.5237V14.1064H77.7988Z"></path>
<path fill="white" d="M43.391 23.1899V17.2661H45.0269C47.1111 17.2661 48.1569 18.2298 48.1569 20.157C48.1569 21.0684 47.8656 21.8079 47.2904 22.3607C46.7077 22.9135 45.9383 23.1899 44.9597 23.1899H43.391ZM44.0857 17.8936V22.5624H44.9672C45.7441 22.5624 46.3491 22.3532 46.7824 21.9349C47.2157 21.5166 47.4323 20.9264 47.4323 20.1645C47.4323 18.6481 46.6255 17.8861 45.012 17.8861H44.0857V17.8936Z"></path>
<path fill="white" d="M52.6005 18.9619L50.6583 23.8697C50.3147 24.7437 49.8217 25.1845 49.1942 25.1845C49.0149 25.1845 48.873 25.1695 48.7534 25.1322V24.5271C48.9028 24.5794 49.0298 24.6018 49.1568 24.6018C49.5004 24.6018 49.7544 24.4001 49.9262 23.9893L50.2624 23.19L48.6115 18.9694H49.366L50.5089 22.2263C50.5238 22.2711 50.5537 22.3757 50.5985 22.5475H50.621C50.6359 22.4803 50.6658 22.3757 50.7031 22.2338L51.9058 18.9694H52.6005V18.9619Z"></path>
<path fill="white" d="M56.8366 23.1899H56.1568V20.7771C56.1568 19.8807 55.8281 19.4325 55.1708 19.4325C54.8346 19.4325 54.5508 19.5595 54.3267 19.8134C54.1026 20.0674 53.9905 20.3886 53.9905 20.7771V23.1899H53.3107V18.9619H53.9905V19.664H54.0054C54.3267 19.1262 54.7898 18.8647 55.3949 18.8647C55.858 18.8647 56.2091 19.0141 56.4556 19.3129C56.7021 19.6118 56.8217 20.045 56.8217 20.6053V23.1899H56.8366Z"></path>
<path fill="white" d="M61.1401 23.1898H60.4603V22.5324H60.4454C60.154 23.0404 59.7133 23.2944 59.1456 23.2944C58.7273 23.2944 58.3911 23.1823 58.1595 22.9582C57.928 22.7341 57.801 22.4428 57.801 22.0693C57.801 21.2775 58.2641 20.8218 59.1979 20.6873L60.4678 20.5081C60.4678 19.7909 60.1764 19.4324 59.5938 19.4324C59.0858 19.4324 58.6227 19.6042 58.2118 19.9553V19.2531C58.6301 18.9916 59.1082 18.8572 59.6461 18.8572C60.6396 18.8572 61.1401 19.3801 61.1401 20.4334V23.1898ZM60.4678 21.0459L59.4444 21.1878C59.1306 21.2327 58.8916 21.3074 58.7347 21.4194C58.5778 21.5315 58.4957 21.7257 58.4957 22.0095C58.4957 22.2187 58.5704 22.383 58.7198 22.5175C58.8692 22.652 59.0634 22.7117 59.3099 22.7117C59.6461 22.7117 59.9225 22.5922 60.1391 22.3606C60.3557 22.1291 60.4678 21.8303 60.4678 21.4642V21.0459Z"></path>
<path fill="white" d="M68.4237 23.1899H67.7514V20.7621C67.7514 20.2915 67.6767 19.9554 67.5348 19.7462C67.3929 19.5371 67.1463 19.4325 66.8027 19.4325C66.5114 19.4325 66.2649 19.5669 66.0632 19.8284C65.8615 20.0898 65.7569 20.411 65.7569 20.7771V23.1899H65.0771V20.68C65.0771 19.8508 64.7559 19.4325 64.1135 19.4325C63.8147 19.4325 63.5682 19.5595 63.3814 19.806C63.1872 20.0525 63.0901 20.3812 63.0901 20.7771V23.1899H62.4103V18.9619H63.0901V19.6342H63.1051C63.4039 19.1187 63.8446 18.8647 64.4198 18.8647C64.7111 18.8647 64.9576 18.9469 65.1743 19.1038C65.3909 19.2681 65.5328 19.4773 65.615 19.7387C65.9287 19.1561 66.3993 18.8647 67.0194 18.8647C67.9531 18.8647 68.4163 19.4399 68.4163 20.5903V23.1899H68.4237Z"></path>
<path fill="white" d="M70.0506 17.8861C69.9311 17.8861 69.8265 17.8413 69.7444 17.7591C69.6622 17.6769 69.6174 17.5724 69.6174 17.4454C69.6174 17.3184 69.6622 17.2138 69.7444 17.1316C69.8265 17.0495 69.9311 17.0046 70.0506 17.0046C70.1776 17.0046 70.2822 17.0495 70.3644 17.1316C70.454 17.2138 70.4914 17.3184 70.4914 17.4454C70.4914 17.5649 70.4465 17.6695 70.3644 17.7516C70.2822 17.8413 70.1776 17.8861 70.0506 17.8861ZM70.3793 23.1898H69.6995V18.9618H70.3793V23.1898Z"></path>
<path fill="white" d="M74.6383 22.9956C74.3097 23.1898 73.9287 23.2869 73.4805 23.2869C72.8754 23.2869 72.3899 23.0927 72.0238 22.6968C71.6503 22.3009 71.471 21.7929 71.471 21.1729C71.471 20.4782 71.6727 19.9179 72.0686 19.4921C72.4646 19.0663 73.0024 18.8572 73.6672 18.8572C74.0407 18.8572 74.3694 18.9244 74.6533 19.0663V19.7611C74.3395 19.5444 74.0034 19.4324 73.6448 19.4324C73.2116 19.4324 72.8605 19.5892 72.5841 19.8955C72.3077 20.2018 72.1658 20.6126 72.1658 21.1131C72.1658 21.6062 72.2927 22.0021 72.5542 22.2859C72.8156 22.5698 73.1667 22.7192 73.6 22.7192C73.966 22.7192 74.3171 22.5997 74.6383 22.3532V22.9956Z"></path>
<path fill="white" d="M75.408 23.033V22.3084C75.7741 22.5774 76.1849 22.7193 76.6257 22.7193C77.2233 22.7193 77.5146 22.5176 77.5146 22.1217C77.5146 22.0096 77.4922 21.9125 77.4399 21.8378C77.3876 21.7557 77.3204 21.6884 77.2307 21.6287C77.1411 21.5689 77.044 21.5166 76.9245 21.4643C76.8049 21.4195 76.678 21.3672 76.5435 21.3149C76.3567 21.2402 76.1924 21.1655 76.0505 21.0908C75.9085 21.0161 75.789 20.9265 75.6919 20.8368C75.5948 20.7397 75.5276 20.6351 75.4753 20.5156C75.4305 20.3961 75.4006 20.2542 75.4006 20.0898C75.4006 19.8881 75.4454 19.7163 75.535 19.5595C75.6247 19.4026 75.7442 19.2756 75.9011 19.1785C76.0579 19.0814 76.2223 18.9992 76.4165 18.9469C76.6107 18.8946 76.8124 18.8647 77.0141 18.8647C77.3801 18.8647 77.7088 18.9245 78.0001 19.0515V19.7387C77.6864 19.5371 77.3278 19.4325 76.9245 19.4325C76.7975 19.4325 76.6854 19.4474 76.5808 19.4773C76.4763 19.5072 76.3941 19.5445 76.3194 19.5968C76.2447 19.6491 76.1924 19.7089 76.1476 19.7836C76.1102 19.8583 76.0878 19.9404 76.0878 20.0226C76.0878 20.1347 76.1102 20.2243 76.1476 20.299C76.1849 20.3737 76.2447 20.4409 76.3194 20.5007C76.3941 20.5604 76.4912 20.6127 76.6032 20.6576C76.7153 20.7024 76.8423 20.7547 76.9768 20.807C77.1635 20.8817 77.3353 20.9489 77.4772 21.0311C77.6266 21.1058 77.7536 21.1954 77.8582 21.285C77.9628 21.3822 78.045 21.4867 78.0973 21.6137C78.157 21.7407 78.1794 21.8826 78.1794 22.0545C78.1794 22.2636 78.1346 22.4429 78.0375 22.5998C77.9479 22.7566 77.8209 22.8836 77.6715 22.9807C77.5146 23.0853 77.3428 23.16 77.1411 23.2048C76.9394 23.2571 76.7302 23.2795 76.5061 23.2795C76.1028 23.287 75.7293 23.2048 75.408 23.033Z"></path>
<path fill="white" d="M81.4279 22.9733V22.2412C81.8313 22.5624 82.287 22.7193 82.8024 22.7193C83.2133 22.7193 83.5419 22.6147 83.7885 22.413C84.035 22.2039 84.1545 21.9275 84.1545 21.5764C84.1545 20.7995 83.6017 20.4185 82.5036 20.4185H82.0181V19.8433H82.4812C83.4598 19.8433 83.9453 19.4773 83.9453 18.7527C83.9453 18.0804 83.5718 17.7442 82.8248 17.7442C82.4065 17.7442 82.0181 17.8862 81.6446 18.17V17.5127C82.0255 17.2886 82.4737 17.1765 82.9892 17.1765C83.4897 17.1765 83.8856 17.311 84.1844 17.5724C84.4832 17.8339 84.6326 18.1775 84.6326 18.5884C84.6326 19.3652 84.2367 19.8657 83.4448 20.0898V20.1048C83.8706 20.1496 84.2142 20.299 84.4608 20.553C84.7147 20.807 84.8417 21.1356 84.8417 21.5166C84.8417 22.047 84.6475 22.4802 84.2665 22.8015C83.8856 23.1301 83.3851 23.2945 82.7576 23.2945C82.2048 23.287 81.7566 23.1824 81.4279 22.9733Z"></path>
<path fill="white" d="M89.3011 17.3333V17.9757C88.9948 17.8188 88.6736 17.7367 88.3374 17.7367C87.8145 17.7367 87.3887 17.9682 87.075 18.4389C86.7612 18.9095 86.6044 19.5369 86.6044 20.3213H86.6193C86.8957 19.7611 87.3439 19.4847 87.9714 19.4847C88.4868 19.4847 88.8977 19.649 89.2039 19.9852C89.5102 20.3138 89.6596 20.762 89.6596 21.3148C89.6596 21.8975 89.4878 22.3681 89.1367 22.7341C88.7856 23.1002 88.3449 23.2869 87.7996 23.2869C87.202 23.2869 86.7388 23.0479 86.4027 22.5773C86.0665 22.1066 85.8947 21.4418 85.8947 20.5828C85.8947 19.5444 86.1188 18.7152 86.5595 18.0952C87.0003 17.4752 87.5904 17.1689 88.315 17.1689C88.7333 17.1689 89.062 17.2212 89.3011 17.3333ZM87.822 20.0599C87.4709 20.0599 87.187 20.1794 86.9704 20.4184C86.7538 20.6575 86.6417 20.9338 86.6417 21.2551C86.6417 21.6584 86.7463 22.0021 86.9629 22.2934C87.1796 22.5773 87.4634 22.7267 87.822 22.7267C88.1656 22.7267 88.442 22.5997 88.6512 22.3532C88.8603 22.1066 88.9649 21.7854 88.9649 21.4045C88.9649 20.9861 88.8678 20.6575 88.6661 20.4184C88.4719 20.1794 88.188 20.0599 87.822 20.0599Z"></path>
<path fill="white" d="M90.6838 23.0479V22.3308C91.0872 22.5923 91.498 22.7267 91.9163 22.7267C92.3347 22.7267 92.6708 22.6072 92.9248 22.3682C93.1788 22.1291 93.3058 21.8154 93.3058 21.4269C93.3058 21.0385 93.1713 20.7322 92.9098 20.5156C92.6484 20.299 92.2749 20.1869 91.7893 20.1869C91.625 20.1869 91.3113 20.2018 90.8631 20.2392V17.2661H93.7316V17.8787H91.5055V19.6117C91.6848 19.6042 91.8566 19.5968 92.006 19.5968C92.6409 19.5968 93.1265 19.7536 93.4776 20.0749C93.8212 20.3961 94.0005 20.8293 94.0005 21.3821C94.0005 21.9573 93.8137 22.413 93.4402 22.7641C93.0667 23.1152 92.5588 23.287 91.9089 23.287C91.3636 23.287 90.9527 23.2048 90.6838 23.0479Z"></path>
<defs>
<linearGradient gradientUnits="userSpaceOnUse" y2="15.5131" x2="29.6761" y1="1.85258" x1="24.4575" id="paint0_linear_6536_101899">
<stop stop-color="#0B53CE"></stop>
<stop stop-color="#7252AA" offset="1"></stop>
</linearGradient>
<linearGradient gradientUnits="userSpaceOnUse" y2="11.7389" x2="30.3376" y1="28.022" x1="30.3376" id="paint1_linear_6536_101899">
<stop stop-color="#2266E3"></stop>
<stop stop-color="#AE7FE2" offset="1"></stop>
</linearGradient>
<linearGradient gradientUnits="userSpaceOnUse" y2="19.7532" x2="32.0412" y1="19.7532" x1="37.6272" id="paint2_linear_6536_101899">
<stop stop-color="#94B9FF"></stop>
<stop stop-opacity="0.5236" stop-color="#94B9FF" offset="0.2878"></stop>
<stop stop-opacity="0" stop-color="#538FFF" offset="1"></stop>
</linearGradient>
</defs>
</svg>
