<svg xmlns="http://www.w3.org/2000/svg" fill="none" viewBox="0 0 248 80" height="80" width="248">
<path fill="#8D8985" d="M110.25 27.7618C110.762 27.7174 111.705 27.7354 112.249 27.7283C112.131 33.0419 112.243 38.7564 112.243 44.1115L112.231 49.1408C112.227 49.9778 112.174 51.4488 112.278 52.2432C111.447 52.2046 110.648 52.2049 109.817 52.2042C109.911 50.8245 109.84 48.5745 109.84 47.1137L109.838 37.2797C109.824 35.6576 109.829 34.0353 109.853 32.4133C107.317 36.5836 104.939 41.0313 102.385 45.2045C101.892 46.0116 100.48 48.6623 99.9575 49.1147C99.3706 49.1851 99.0377 49.2175 98.7033 48.6704C97.8627 47.2953 97.0924 45.8669 96.2503 44.4925C93.8629 40.5965 91.6804 36.5164 89.2805 32.6333C89.1755 36.9023 89.248 41.4163 89.2468 45.7031L89.2369 49.7284C89.2343 50.4627 89.1973 51.5193 89.2914 52.2226C88.5127 52.1907 87.6311 52.2072 86.8446 52.2042C86.9186 50.0059 86.873 47.5768 86.8734 45.3628L86.8717 33.724C86.8705 32.893 86.7667 28.3063 86.9289 27.748C89.3929 27.7381 88.7844 27.5794 90.0557 29.7377L92.4829 33.8781C94.8399 37.9177 97.3007 42.0176 99.6061 46.0724L106.762 33.6397C107.603 32.1854 109.334 28.9816 110.25 27.7618Z"></path>
<path fill="#8D8985" d="M203.556 33.8456C205.737 33.5275 208.75 34.0616 210.342 35.7282C212.473 37.9593 212.093 41.0978 212.09 43.9494L212.066 52.2495C211.271 52.2147 210.57 52.2132 209.778 52.2214C209.787 51.8185 209.89 49.7372 209.723 49.5219C209.481 49.6155 208.534 50.7932 207.967 51.1735C206.344 52.2628 203.849 52.6311 201.965 52.2996C199.526 51.8702 198.58 51.2644 197.18 49.3451C196.909 48.6633 196.764 47.9383 196.751 47.2048C196.651 41.832 202.015 41.8489 205.864 41.8654C207.158 41.8745 208.453 41.8761 209.747 41.8703C209.732 41.0031 209.693 40.3977 209.559 39.5141C208.86 34.9215 202.68 35.2312 199.668 37.0763C197.839 38.1962 198.292 37.8091 197.239 36.2454C198.78 34.6784 201.443 34.0359 203.556 33.8456ZM199.316 45.5138C198.696 48.1121 199.507 49.7589 202.221 50.3947C203.254 50.6309 204.326 50.6338 205.36 50.4033C206.55 49.9668 207.392 49.7232 208.335 48.8003C209.938 47.2317 209.728 45.7092 209.721 43.6551C207.755 43.6683 205.491 43.6269 203.548 43.6943C202.284 43.7753 201.465 43.9204 200.299 44.381C199.949 44.8452 199.721 45.095 199.316 45.5138Z"></path>
<path fill="#8D8985" d="M165.784 33.845C165.877 33.8338 165.97 33.8261 166.064 33.8217C168.278 33.717 170.57 33.9521 172.286 35.5099C174.666 37.6712 174.157 40.906 174.221 43.8188C174.283 46.5918 174.12 49.4562 174.233 52.2358C173.438 52.1944 172.664 52.2196 171.869 52.2369C171.922 51.2109 171.867 50.2979 172 49.2602C171.239 50.262 170.446 51.1629 169.26 51.6666C167.044 52.6082 164.415 52.6564 162.182 51.7909C160.883 51.2953 159.837 50.2995 159.277 49.0264C158.944 48.1916 158.791 47.3233 158.912 46.4452C159.572 41.6476 164.753 41.7984 168.437 41.8636C169.58 41.8837 170.729 41.8198 171.84 41.9489C171.665 40.5683 172.015 39.1312 171.178 37.8743C169.736 35.7094 166.895 35.555 164.584 36.05C162.914 36.4079 161.914 36.9499 160.499 37.8771C158.821 35.9427 159.662 35.7695 161.601 34.8408C162.952 34.194 164.302 33.9698 165.784 33.845ZM167.191 50.4664C168.844 50.054 170.303 49.4251 171.255 47.9254C171.989 46.7685 171.809 45.0119 171.799 43.6356C169.785 43.681 167.709 43.6375 165.727 43.6949C164.805 43.7655 163.905 43.8388 163.019 44.1619C160.907 44.9322 160.759 48.1885 162.379 49.4822C163.565 50.43 165.386 50.6784 166.88 50.5182C166.984 50.5068 167.088 50.4895 167.191 50.4664Z"></path>
<path fill="#8D8985" d="M35.7513 22.6502C37.1529 22.5446 39.3055 22.6147 40.7692 22.6167L49.9331 22.624L61.6137 22.6231C63.2758 22.6226 64.9354 22.6441 66.5981 22.5905C66.8578 22.5821 67.1255 22.6559 67.3277 22.8254C67.6692 23.5806 66.9912 23.7908 66.3773 23.8577C65.4862 23.9548 64.5621 23.9192 63.6644 23.918L58.8475 23.9069L42.6378 23.9027C41.6671 23.9029 37.5282 23.7962 36.8861 24.1095C36.4234 24.76 36.5955 30.3453 36.5951 31.4524L36.5892 43.4594L36.5878 51.0315C36.5881 51.8366 36.46 55.7881 36.9357 56.1542C37.9339 56.2997 39.9903 56.2555 41.0557 56.2561L48.0852 56.255L60.7024 56.2526C63.0286 56.2526 65.355 56.2644 67.6809 56.2323C68.734 56.2178 68.7263 56.0678 68.8487 55.1003C68.9274 52.7363 68.889 50.2669 68.8948 47.8944L68.9198 37.0023L68.9074 32.1777C68.906 31.4356 68.6907 27.3447 69.9382 27.5619C70.131 27.8025 70.1564 28.0312 70.1622 28.3293C70.2114 30.9761 70.1638 33.6319 70.1564 36.2795L70.1729 47.5046C70.172 49.2449 70.1802 50.9851 70.1983 52.7253C70.2098 53.9136 70.3328 56.314 70.0473 57.3799C69.166 57.5461 67.2619 57.4918 66.2867 57.4911L60.0078 57.4845L35.4882 57.4963C35.2945 56.2554 35.4267 53.0396 35.4288 51.6093L35.4305 39.1788L35.4098 28.2211C35.4025 26.586 35.3715 24.8079 35.4175 23.1647C35.4246 22.9093 35.5796 22.7856 35.7513 22.6502Z"></path>
<path fill="#8D8985" d="M178.271 26.3313C179.06 26.3428 179.849 26.3393 180.638 26.3208C180.619 32.0943 180.774 38.2771 180.623 44.0034C183.325 41.699 185.94 39.1042 188.619 36.7598C189.554 35.9422 190.794 34.5967 191.759 33.9205C192.69 33.843 193.766 33.9011 194.804 33.8202C193.871 34.5686 192.245 36.1819 191.321 37.0811C189.91 38.4542 188.195 39.9776 186.849 41.3635C188.313 43.3638 190.234 45.5381 191.785 47.6238C192.984 48.8502 194.32 51.0716 195.442 52.2169C194.488 52.2348 193.533 52.2269 192.578 52.1933C191.679 51.3904 190.909 50.0157 190.2 49.3101C189.298 48.4125 185.744 43.3995 185.08 43.0298C184.496 43.2099 183.577 44.4064 183.065 44.8369C182.49 45.3126 181.901 45.8788 181.327 46.3423C180.579 46.879 180.622 47.4139 180.622 48.2789C180.622 49.5979 180.627 50.9316 180.639 52.2573C179.782 52.2081 179.119 52.1971 178.266 52.2562C178.314 48.6653 178.269 44.9984 178.268 41.3977L178.271 26.3313Z"></path>
<path fill="#8D8985" d="M133.722 33.8444C138.87 33.3316 142.329 36.4216 142.14 41.5489C142.102 42.5606 142.143 43.7174 142.143 44.7412C142.132 47.2394 142.136 49.7375 142.155 52.2354C141.379 52.1877 140.601 52.1964 139.826 52.2614C139.939 48.9604 139.732 45.5114 139.823 42.2247C139.976 36.6428 136.055 34.8878 131.178 36.4641C127.293 38.2745 127.695 42.1504 127.699 45.7416L127.714 52.2358C126.934 52.1766 126.151 52.1853 125.373 52.2617C125.431 50.1822 125.379 47.8492 125.38 45.7502L125.371 33.8902C126.128 33.8958 126.884 33.8949 127.641 33.8875C127.665 34.962 127.659 36.2711 127.627 37.3358C129.149 34.9868 131.02 34.1125 133.722 33.8444Z"></path>
<path fill="#8D8985" d="M147.672 29.8694C148.519 29.8583 149.257 29.86 150.107 29.8944C149.996 30.919 150.055 32.7798 150.025 33.9216C151.888 33.8873 153.75 33.8797 155.613 33.8987C155.615 34.6033 155.627 35.2291 155.667 35.932C153.867 35.8853 151.797 36.0083 150.034 35.8788C150.11 36.6593 150.07 38.2184 150.07 39.0437L150.067 44.8231C150.066 45.8735 149.985 47.2542 150.239 48.2476C150.775 50.1002 152.812 50.7635 154.508 50.1142C155.117 49.8809 155.742 49.4544 156.287 49.7872C156.445 50.3258 156.648 50.6136 156.748 51.1889C156.37 51.9593 153.787 52.405 152.973 52.4086C150.504 52.4197 148.284 51.1492 147.826 48.5828C147.58 47.2039 147.702 45.4488 147.7 44.0184C147.684 41.3142 147.689 38.61 147.717 35.9059C146.601 35.8938 145.485 35.906 144.369 35.9424C144.38 35.2595 144.395 34.5767 144.416 33.8939C145.513 33.9001 146.63 33.8928 147.725 33.9517C147.681 32.6644 147.661 31.157 147.672 29.8694Z"></path>
<path fill="#8D8985" d="M117.683 33.9067L120.064 33.8835L120.062 46.0926C120.063 47.7246 120.17 50.7211 120.058 52.2231C119.281 52.1897 118.437 52.2058 117.654 52.2061C117.734 50.2233 117.686 47.9381 117.686 45.9358L117.683 33.9067Z"></path>
<path fill="#8D8985" d="M50.5723 43.9076C50.6341 43.5553 50.702 42.9996 50.8777 42.7018C51.8093 41.1221 53.2368 40.9538 54.7155 41.7789L55.4358 42.5195C55.6732 43.5373 55.8566 44.3754 55.2579 45.3332C54.1353 47.1293 51.936 46.7622 50.8257 45.1921L50.5723 43.9076Z"></path>
<path fill="#8D8985" d="M59.4469 37.637C59.2936 36.9444 59.1941 36.4844 59.3359 35.7596C59.4662 35.0854 59.8688 34.4948 60.4488 34.1273C61.1654 33.6654 61.8043 33.6625 62.5861 33.8314C62.9506 34.0462 63.4257 34.3081 63.7582 34.5539C65.6286 37.2995 62.5923 40.1546 60.3214 38.5489C60.2413 38.3878 59.6142 37.8013 59.4469 37.637Z"></path>
<path fill="#8D8985" d="M41.4358 48.3684C40.6144 47.6971 40.2888 46.5906 40.6156 45.5812C40.9424 44.5719 41.8548 43.8664 42.9137 43.8042C43.9726 43.7421 44.9612 44.336 45.4038 45.3002C45.5421 45.6015 45.6209 45.9267 45.6359 46.2579C45.6819 47.2725 45.1273 48.2193 44.22 48.6753C43.3126 49.1312 42.2221 49.0109 41.4358 48.3684Z"></path>
<path fill="#8D8985" d="M62.584 33.8308C64.7272 30.5094 66.62 26.9425 68.7754 23.6154C69.0263 23.2281 69.3645 22.6612 69.8132 22.5L70.0052 22.5256C70.2201 22.8415 70.1808 23.296 70.1094 23.654C69.8518 24.9469 65.8021 31.1173 64.8941 32.6076C64.5222 33.2178 63.9755 33.8776 63.7561 34.5533C63.4235 34.3075 62.9485 34.0456 62.584 33.8308Z"></path>
<path fill="#8D8985" d="M118.53 26.3576C119.483 26.3028 120.393 26.6491 120.642 27.6636C120.742 28.0848 120.673 28.5287 120.448 28.8987C120.108 29.4489 119.776 29.6426 119.191 29.7751C118.616 29.8215 118.322 29.7229 117.793 29.5213C117.374 28.8596 116.855 28.1381 117.304 27.2722C117.574 26.7514 117.976 26.5247 118.53 26.3576Z"></path>
<path fill="#8D8985" d="M59.4447 37.6365C59.612 37.8007 60.239 38.3873 60.3192 38.5483C58.8135 39.54 57.0531 41.8756 55.4352 42.5194L54.7148 41.7789C55.0653 41.2937 58.7983 38.0572 59.4447 37.6365Z"></path>
<path fill="#8D8985" d="M50.5734 43.908L50.8269 45.1924C49.7067 45.3459 48.6343 45.6009 47.5338 45.8396C47.1154 45.9303 46.0036 46.2447 45.6345 46.2575C45.6195 45.9263 45.5407 45.6011 45.4023 45.2998C46.9966 44.4945 48.7887 44.3485 50.5734 43.908Z"></path>
</svg>
