<svg xmlns="http://www.w3.org/2000/svg" fill="none" viewBox="0 0 112 30" height="30" width="112">
<path fill="#003B70" d="M6.9998 5.72559V10.2295H15.1495L20.2177 16.3231V5.72559L6.9998 5.72559Z"></path>
<path fill="#A7BAC8" d="M7.9707 11.0242H12.1469V20.297H14.2147V23.9304H7.9707V11.0242Z"></path>
<path fill="#003B70" d="M15.0645 24.8011H28.2823V20.335H20.1327L15.0645 14.2036V24.8011Z"></path>
<path fill="#A7BAC8" d="M27.3146 19.54H23.1384V10.2672H21.0705V6.63379H27.3146V19.54Z"></path>
<path fill="white" d="M42.7973 19.9944H40.3645L36.2289 13.0682V19.9944H33.9178V9.88892H36.9181L40.4862 15.6797V9.88892H42.7973V19.9944Z"></path>
<path fill="white" d="M51.8406 19.9944H44.8262V9.88892H51.8406V11.857H47.2995V13.598H51.5162V15.5662H47.2995V18.0263H51.8406V19.9944Z"></path>
<path fill="white" d="M61.8969 11.857H58.856V19.9944H56.3422V11.857H53.3418V9.88892H61.8969V11.857Z"></path>
<path fill="white" d="M70.8974 17.118C70.8974 17.4964 70.8163 17.9128 70.6136 18.2913C70.4514 18.6697 70.2082 19.0104 69.8838 19.2753C69.5189 19.5781 69.1134 19.8052 68.6674 19.9566C68.2214 20.108 67.6538 20.1837 67.005 20.1837C66.3158 20.1837 65.667 20.108 65.0994 19.9944C64.5318 19.843 63.9641 19.6538 63.3965 19.3889V17.6857H63.4776C63.9641 18.102 64.5318 18.4427 65.1805 18.6697C65.8292 18.8968 66.4374 19.0104 67.005 19.0104C67.816 19.0104 68.4241 18.859 68.8701 18.5562C69.3162 18.2534 69.5189 17.8371 69.5189 17.3072C69.5189 16.853 69.3972 16.5124 69.1945 16.3232C68.9918 16.0961 68.6674 15.9447 68.2214 15.8311C67.8971 15.7554 67.5321 15.6797 67.1672 15.604C66.8023 15.5283 66.3969 15.4526 65.9509 15.3769C65.0994 15.1877 64.4507 14.8471 64.0452 14.3929C63.6398 13.9387 63.437 13.3331 63.437 12.5762C63.437 11.7435 63.7614 11.0244 64.4507 10.4945C65.1399 9.96464 65.9914 9.69971 67.0456 9.69971C67.7349 9.69971 68.3431 9.7754 68.9107 9.88895C69.4783 10.0403 69.9649 10.1917 70.4109 10.381V11.9706H70.3298C69.9649 11.63 69.4783 11.365 68.8701 11.1758C68.262 10.9487 67.6538 10.8352 67.005 10.8352C66.3158 10.8352 65.7481 10.9865 65.3427 11.2893C64.9372 11.5921 64.7345 11.9706 64.7345 12.4626C64.7345 12.879 64.8561 13.2196 65.0589 13.4467C65.2616 13.6738 65.6265 13.863 66.1536 14.0144C66.4374 14.0901 66.8023 14.1658 67.3294 14.2415C67.8565 14.3172 68.262 14.4307 68.6269 14.5064C69.3567 14.6957 69.8838 14.9985 70.2487 15.4148C70.6947 15.8311 70.8974 16.3988 70.8974 17.118Z"></path>
<path fill="white" d="M80.9131 15.9446C80.9131 16.6638 80.832 17.3072 80.6698 17.8749C80.5076 18.4048 80.2643 18.859 79.8994 19.2374C79.5751 19.5781 79.1696 19.843 78.7236 19.9944C78.2776 20.1458 77.7505 20.2215 77.1423 20.2215C76.5341 20.2215 76.007 20.1458 75.561 19.9566C75.115 19.8052 74.7096 19.5402 74.4258 19.1996C74.0608 18.8211 73.8176 18.3669 73.6554 17.8749C73.4932 17.345 73.4121 16.7016 73.4121 15.9446V9.88892H74.7096V15.9825C74.7096 16.5124 74.7501 16.9665 74.8312 17.2693C74.9123 17.5721 75.0339 17.8749 75.1961 18.1398C75.3988 18.4426 75.6421 18.6697 75.9665 18.8211C76.2909 18.9725 76.6963 19.0482 77.1423 19.0482C77.5883 19.0482 77.9938 18.9725 78.3181 18.8211C78.6425 18.6697 78.8858 18.4426 79.0885 18.1398C79.2507 17.8749 79.3723 17.5721 79.4534 17.2693C79.5345 16.9287 79.5751 16.5124 79.5751 16.0203V9.88892H80.8725V15.9446H80.9131Z"></path>
<path fill="white" d="M84.8868 9.88892H86.1843V19.9944H84.8868V9.88892Z"></path>
<path fill="white" d="M96.6873 11.1001H93.2004V19.9944H91.9029V11.1001H88.416V9.88892H96.6873V11.1001Z"></path>
<path fill="white" d="M104.998 19.9944H98.5918V9.88892H104.998V11.1001H99.8893V13.863H104.998V15.0363H99.8893V18.8211H104.998V19.9944Z"></path>
</svg>
