<svg xmlns="http://www.w3.org/2000/svg" fill="none" viewBox="0 0 112 30" height="30" width="112">
<g clip-path="url(#clip0_6536_102016)">
<path fill="#908F8F" d="M53.855 3.93557C55.8904 3.88772 55.7067 5.55942 55.7011 7.00274L55.6918 9.67824L55.7008 14.8137C55.7005 17.5746 55.858 19.4683 54.1076 21.8046C52.8237 23.5125 50.9153 24.6342 48.8061 24.9207C46.1122 25.3 44.3426 24.4779 42.2912 22.9188C40.8819 21.7916 39.887 19.586 39.6924 17.8115C39.2133 13.4416 41.8591 9.49879 46.312 8.95744C48.3468 8.71005 50.7091 8.8787 52.3785 10.1926C52.2949 8.72347 52.372 6.93034 52.3919 5.44689C52.4036 4.57087 53.0167 4.08301 53.855 3.93557ZM48.3368 21.559C50.8715 21.2112 52.6496 18.8668 52.3138 16.3152C51.978 13.7637 49.6547 11.9657 47.1173 12.2936C44.566 12.6234 42.7669 14.9766 43.1046 17.5422C43.4422 20.1077 45.788 21.9087 48.3368 21.559Z"></path>
<path fill="#908F8F" d="M63.8776 8.84779C68.3125 8.53503 72.1593 11.8996 72.4684 16.3616C72.7775 20.8237 69.4319 24.6925 64.9965 25.0016C60.5639 25.3105 56.7213 21.9468 56.4124 17.4873C56.1035 13.0278 59.4453 9.16033 63.8776 8.84779ZM65.0466 21.5586C67.5829 21.2054 69.3576 18.8551 69.0154 16.3022C68.6738 13.7492 66.3441 11.9552 63.8055 12.2899C61.2537 12.6264 59.4595 14.9849 59.803 17.5509C60.1467 20.1169 62.4974 21.9136 65.0466 21.5586Z"></path>
<path fill="#724C68" d="M30.2277 8.8713C34.6495 8.46739 38.5598 11.7463 38.9616 16.1951C39.3635 20.6439 36.1049 24.5783 31.6831 24.983C27.2606 25.3878 23.3495 22.1088 22.9476 17.6594C22.5457 13.21 25.8052 9.27526 30.2277 8.8713ZM31.52 21.565C34.0546 21.2515 35.8619 18.9376 35.5654 16.3857C35.2689 13.8338 32.9799 12.0017 30.4417 12.2847C27.882 12.5702 26.0421 14.897 26.3412 17.4706C26.6402 20.0441 28.9639 21.8813 31.52 21.565Z"></path>
<path fill="#908F8F" d="M80.6179 8.85665C85.0489 8.54915 88.8878 11.9167 89.1884 16.3752C89.489 20.8337 86.138 24.692 81.7059 24.9896C77.2813 25.2866 73.4536 21.9212 73.1536 17.4698C72.853 13.0183 76.1939 9.16361 80.6179 8.85665ZM81.8527 21.551C84.3714 21.1757 86.1203 18.8295 85.7728 16.2914C85.4258 13.7533 83.1115 11.9701 80.5853 12.2939C78.9283 12.5063 77.5125 13.5976 76.8772 15.1519C76.2419 16.7063 76.4853 18.4841 77.5141 19.8078C78.5433 21.1315 80.1999 21.7972 81.8527 21.551Z"></path>
</g>
<defs>
<clipPath id="clip0_6536_102016">
<rect fill="white" height="30" width="112"></rect>
</clipPath>
</defs>
</svg>
