<svg xmlns="http://www.w3.org/2000/svg" fill="none" viewBox="0 0 248 80" height="80" width="248">
<g clip-path="url(#clip0_439_3293)">
<path fill="#8C8884" d="M69.7212 43.3884C63.8206 44.5036 55.3363 46.107 64.6718 51.3904C71.6467 55.3379 66.2743 59.9461 66.2175 59.9939C56.4183 58.6563 48.8672 50.2558 48.8672 40.0903C48.8672 28.9943 57.862 20 68.9586 20C80.0551 20 89.0499 28.9943 89.0487 40.0903C89.0487 45.5355 86.88 50.4752 83.3611 54.0935L83.3601 54.0929C83.2909 54.0425 79.8513 51.5375 73.5341 49.836C67.1505 48.1163 64.9024 45.7032 70.9545 44.6114C77.0077 43.5195 77.0077 42.3949 75.4859 41.6347C74.8429 41.3135 73.1444 41.0159 71.5803 40.7419C69.4425 40.3673 67.5557 40.0368 68.9574 39.7498C69.3577 39.6679 69.7624 39.5896 70.155 39.5135C72.1429 39.1288 73.8277 38.8026 73.137 38.3605C72.3112 37.8309 70.9217 37.5851 70.9217 37.5851C70.9217 37.5851 74.5112 38.5598 69.1615 39.0552C63.8119 39.5519 66.1595 40.8807 67.3838 41.0925C67.531 41.1179 67.7721 41.1522 68.072 41.1948C70.2647 41.5065 75.6047 42.2655 70.4262 43.2548C70.1963 43.2986 69.9609 43.3432 69.7212 43.3884ZM64.9128 31.7686L67.1315 31.0797L65.1523 30.129L64.0169 27.6352L62.7575 30.129L60.5563 30.7352L62.7575 31.7686L63.671 34.1796L64.9128 31.7686Z" clip-rule="evenodd" fill-rule="evenodd"></path>
<path fill="#8C8884" d="M97.3535 26.4594C97.3535 26.3832 97.4044 26.3324 97.4808 26.3324H98.7538C98.8302 26.3324 98.8557 26.3832 98.8811 26.4594L99.1357 27.8563C99.1612 27.9579 99.2885 28.0087 99.3649 27.8817C99.5431 27.6277 100.791 26.0784 103.668 26.0784C107.64 26.0784 109.727 28.7961 109.727 32.7583C109.727 36.7205 107.512 39.4381 103.668 39.4381C100.842 39.4381 99.594 37.9143 99.3649 37.5841C99.2885 37.457 99.1357 37.5078 99.1357 37.6094V44.0862C99.1357 44.1624 99.0848 44.2132 99.0084 44.2132H97.4808C97.4044 44.2132 97.3535 44.1624 97.3535 44.0862V26.4594ZM103.413 27.6023C100.562 27.6023 99.1357 29.7104 99.1357 32.7583C99.1357 35.8061 100.562 37.9143 103.413 37.9143C106.265 37.9143 107.945 35.8061 107.945 32.7583C107.945 29.7104 106.265 27.6023 103.413 27.6023Z"></path>
<path fill="#8C8884" d="M117.673 26.0784C121.161 26.0784 123.35 27.6023 123.35 30.6502V35.9585C123.35 37.2793 123.681 37.6602 124.751 37.6602H125.031C125.107 37.6602 125.158 37.7111 125.158 37.7872V39.0571C125.158 39.1334 125.107 39.1842 125.031 39.1842H124.751C122.994 39.1842 122.281 38.7016 121.848 37.6602C121.797 37.5333 121.695 37.5333 121.619 37.6094C121.237 37.9904 120.015 39.362 116.858 39.4381C113.497 39.4381 111.664 37.838 111.664 35.5267C111.664 33.2154 113.497 31.7169 117.113 31.7169H120.295C121.11 31.7169 121.568 31.7169 121.568 30.6502C121.568 29.3294 121.263 27.6023 117.673 27.6023C115.127 27.6023 113.956 28.6691 113.956 30.6756C113.956 30.7518 113.905 30.8026 113.828 30.8026H112.301C112.224 30.8026 112.173 30.7518 112.173 30.6756C112.173 27.5769 114.617 26.0784 117.673 26.0784ZM121.568 33.3678C121.568 33.2917 121.517 33.2409 121.441 33.2409H117.214C113.981 33.2409 113.446 34.4092 113.446 35.5267C113.446 36.6443 114.414 37.9143 116.858 37.9143C120.193 37.9143 121.517 35.7554 121.568 33.9774V33.3678Z"></path>
<path fill="#8C8884" d="M125.235 27.8561C125.158 27.8561 125.107 27.8053 125.107 27.7291V26.4592C125.107 26.383 125.158 26.3322 125.235 26.3322H127.654C127.73 26.3322 127.781 26.2814 127.781 26.2052V22.9541C127.781 22.8779 127.832 22.8271 127.908 22.8271H129.436C129.512 22.8271 129.563 22.8779 129.563 22.9541V26.2052C129.563 26.2814 129.614 26.3322 129.69 26.3322H132.618C132.695 26.3322 132.746 26.383 132.746 26.4592V27.7291C132.746 27.8053 132.695 27.8561 132.618 27.8561H129.69C129.614 27.8561 129.563 27.9069 129.563 27.9831V35.9583C129.563 37.2791 130.149 37.6601 131.244 37.6601H132.618C132.695 37.6601 132.746 37.7109 132.746 37.787V39.0571C132.746 39.1332 132.695 39.184 132.618 39.184H131.218C128.697 39.184 127.781 38.168 127.781 35.9583V27.9831C127.781 27.9069 127.73 27.8561 127.654 27.8561H125.235Z"></path>
<path fill="#8C8884" d="M145.015 32.022C145.015 29.7869 143.997 27.628 141.043 27.6026C138.192 27.6026 137.071 28.9488 137.071 31.9966V39.0575C137.071 39.1338 137.02 39.1845 136.944 39.1845H135.416C135.34 39.1845 135.289 39.1338 135.289 39.0575V21.4307C135.289 21.3545 135.34 21.3037 135.416 21.3037H136.944C137.02 21.3037 137.071 21.3545 137.071 21.4307V27.6026C137.071 27.7296 137.224 27.755 137.3 27.6788C137.733 27.247 138.803 26.0787 141.043 26.0787C144.939 26.1041 146.797 28.771 146.797 32.022V39.0575C146.797 39.1338 146.746 39.1845 146.67 39.1845H145.142C145.066 39.1845 145.015 39.1338 145.015 39.0575V32.022Z"></path>
<path fill="#8C8884" d="M151.663 21.3037C151.739 21.3037 151.79 21.3545 151.79 21.4307V39.0575C151.79 39.1338 151.739 39.1845 151.663 39.1845H150.135C150.059 39.1845 150.008 39.1338 150.008 39.0575V21.4307C150.008 21.3545 150.059 21.3037 150.135 21.3037H151.663Z"></path>
<path fill="#8C8884" d="M157.671 26.3328C157.747 26.3328 157.798 26.3836 157.798 26.4598V39.0576C157.798 39.1338 157.747 39.1846 157.671 39.1846H156.143C156.067 39.1846 156.016 39.1338 156.016 39.0576V26.4598C156.016 26.3836 156.067 26.3328 156.143 26.3328H157.671Z"></path>
<path fill="#8C8884" d="M173.585 38.2698V38.6508C173.585 42.2829 171.293 44.4672 167.551 44.4672C164.343 44.4672 162.128 42.7655 161.873 40.7843C161.873 40.7081 161.924 40.6573 162 40.6573H163.477C163.553 40.6573 163.63 40.7081 163.655 40.7843C163.91 41.7749 165.234 42.9432 167.551 42.9432C170.911 42.9432 171.752 40.8605 171.802 38.6508V37.6602C171.802 37.5841 171.675 37.5078 171.573 37.6094C171.039 38.2445 169.766 39.4381 167.271 39.4381C163.681 39.4381 161.211 36.7205 161.211 32.7583C161.211 28.7961 163.553 26.0784 167.271 26.0784C169.817 26.0784 171.141 27.4753 171.573 27.9071C171.675 28.0087 171.777 27.9579 171.802 27.8563L172.057 26.4594C172.083 26.3832 172.108 26.3324 172.184 26.3324H173.457C173.534 26.3324 173.585 26.3832 173.585 26.4594V38.2698ZM167.524 37.9143C170.375 37.9143 171.801 35.8061 171.801 32.7583C171.801 29.7104 170.375 27.6023 167.524 27.6023C164.672 27.6023 162.992 29.7104 162.992 32.7583C162.992 35.8061 164.672 37.9143 167.524 37.9143Z"></path>
<path fill="#8C8884" d="M187.281 32.022C187.281 29.7869 186.262 27.628 183.308 27.6026C180.458 27.6026 179.337 28.9488 179.337 31.9966V39.0575C179.337 39.1338 179.286 39.1845 179.21 39.1845H177.682C177.606 39.1845 177.555 39.1338 177.555 39.0575V21.4307C177.555 21.3545 177.606 21.3037 177.682 21.3037H179.21C179.286 21.3037 179.337 21.3545 179.337 21.4307V27.6026C179.337 27.7296 179.489 27.755 179.567 27.6788C179.998 27.247 181.068 26.0787 183.308 26.0787C187.205 26.1041 189.063 28.771 189.063 32.022V39.0575C189.063 39.1338 189.012 39.1845 188.936 39.1845H187.408C187.332 39.1845 187.281 39.1338 187.281 39.0575V32.022Z"></path>
<path fill="#8C8884" d="M191.125 27.8561C191.049 27.8561 190.998 27.8053 190.998 27.7291V26.4592C190.998 26.383 191.049 26.3322 191.125 26.3322H193.544C193.62 26.3322 193.671 26.2814 193.671 26.2052V22.9541C193.671 22.8779 193.723 22.8271 193.799 22.8271H195.326C195.402 22.8271 195.454 22.8779 195.454 22.9541V26.2052C195.454 26.2814 195.505 26.3322 195.581 26.3322H198.509C198.585 26.3322 198.636 26.383 198.636 26.4592V27.7291C198.636 27.8053 198.585 27.8561 198.509 27.8561H195.581C195.505 27.8561 195.454 27.9069 195.454 27.9831V35.9583C195.454 37.2791 196.039 37.6601 197.134 37.6601H198.509C198.585 37.6601 198.636 37.7109 198.636 37.787V39.0571C198.636 39.1332 198.585 39.184 198.509 39.184H197.109C194.587 39.184 193.671 38.168 193.671 35.9583V27.9831C193.671 27.9069 193.62 27.8561 193.544 27.8561H191.125Z"></path>
<path fill="#8C8884" d="M105.628 47.0148C105.653 46.9385 105.73 46.8877 105.806 46.8877H107.41C107.486 46.8877 107.537 46.9385 107.512 47.0148L103.235 59.6125C103.209 59.6887 103.158 59.7395 103.082 59.7395H100.79C100.714 59.7395 100.663 59.6887 100.637 59.6125L96.3601 47.0148C96.3347 46.9385 96.3856 46.8877 96.462 46.8877H98.066C98.1424 46.8877 98.2188 46.9385 98.2442 47.0148L101.809 58.114C101.86 58.2665 102.038 58.241 102.063 58.114L105.628 47.0148Z"></path>
<path fill="#8C8884" d="M111.111 53.9744C111.035 53.9744 110.984 54.0252 110.984 54.1013C110.984 56.3111 112.562 58.47 115.236 58.47C117.298 58.47 118.444 57.4286 118.927 56.4889C118.978 56.3873 119.055 56.3618 119.131 56.3618H120.761C120.837 56.3618 120.939 56.3873 120.913 56.4889C120.15 58.8002 117.985 59.9939 115.236 59.9939C111.544 59.9939 109.049 57.2762 109.049 53.314C109.049 49.3517 111.417 46.6086 115.236 46.6086C119.055 46.6086 121.346 49.3517 121.346 53.314C121.346 53.4917 121.321 53.7711 121.295 53.8474C121.27 53.9235 121.219 53.9744 121.143 53.9744H111.111ZM115.236 48.1326C112.333 48.1326 110.984 50.7996 110.984 52.3234C110.984 52.3997 111.035 52.4504 111.111 52.4504H119.284C119.36 52.4504 119.411 52.3997 119.411 52.3234C119.411 50.4947 118.215 48.1326 115.236 48.1326Z"></path>
<path fill="#8C8884" d="M134.287 52.8314C134.287 50.3424 133.268 48.1833 130.315 48.158C127.463 48.158 126.343 49.7835 126.343 52.8314V59.6129C126.343 59.6891 126.292 59.7399 126.215 59.7399H124.688C124.611 59.7399 124.561 59.6891 124.561 59.6129V47.015C124.561 46.9389 124.611 46.8881 124.688 46.8881H125.935C126.012 46.8881 126.063 46.9134 126.088 47.015L126.343 48.412C126.368 48.5643 126.521 48.5643 126.597 48.4627C126.954 47.9802 128.329 46.634 130.569 46.634C134.465 46.6595 136.069 49.0724 136.069 52.8314V59.6129C136.069 59.6891 136.018 59.7399 135.942 59.7399H134.414C134.337 59.7399 134.287 59.6891 134.287 59.6129V52.8314Z"></path>
<path fill="#8C8884" d="M138.395 48.412C138.319 48.412 138.268 48.3612 138.268 48.285V47.0151C138.268 46.939 138.319 46.8882 138.395 46.8882H140.814C140.89 46.8882 140.941 46.8373 140.941 46.7611V43.51C140.941 43.4339 140.992 43.3831 141.068 43.3831H142.596C142.672 43.3831 142.723 43.4339 142.723 43.51V46.7611C142.723 46.8373 142.774 46.8882 142.85 46.8882H145.779C145.855 46.8882 145.906 46.939 145.906 47.0151V48.285C145.906 48.3612 145.855 48.412 145.779 48.412H142.85C142.774 48.412 142.723 48.4628 142.723 48.5391V56.5142C142.723 57.835 143.309 58.216 144.404 58.216H145.779C145.855 58.216 145.906 58.2668 145.906 58.3431V59.613C145.906 59.6891 145.855 59.74 145.779 59.74H144.378C141.858 59.74 140.941 58.724 140.941 56.5142V48.5391C140.941 48.4628 140.89 48.412 140.814 48.412H138.395Z"></path>
<path fill="#8C8884" d="M150.511 53.7963C150.511 56.2853 151.529 58.4442 154.483 58.4696C157.334 58.4696 158.454 56.8441 158.454 53.7963V47.0148C158.454 46.9385 158.505 46.8877 158.582 46.8877H160.109C160.186 46.8877 160.237 46.9385 160.237 47.0148V59.6125C160.237 59.6888 160.186 59.7395 160.109 59.7395H158.862C158.785 59.7395 158.734 59.7142 158.709 59.6125L158.454 58.2156C158.429 58.0632 158.276 58.0632 158.2 58.1648C157.843 58.6474 156.468 59.9935 154.228 59.9935C150.333 59.9682 148.729 57.5553 148.729 53.7963V47.0148C148.729 46.9385 148.779 46.8877 148.856 46.8877H150.383C150.46 46.8877 150.511 46.9385 150.511 47.0148V53.7963Z"></path>
<path fill="#8C8884" d="M163.521 47.015C163.521 46.9389 163.572 46.8881 163.649 46.8881H164.922C164.998 46.8881 165.024 46.9389 165.049 47.015L165.304 48.412C165.329 48.5643 165.482 48.5643 165.558 48.4627C165.889 48.0564 166.908 46.634 169.276 46.634H170.345C170.421 46.634 170.472 46.6848 170.472 46.7611V48.285C170.472 48.3612 170.421 48.412 170.345 48.412H169.276C166.424 48.412 165.304 49.8343 165.304 52.8314V59.6129C165.304 59.6891 165.253 59.7399 165.176 59.7399H163.649C163.572 59.7399 163.521 59.6891 163.521 59.6129V47.015Z"></path>
<path fill="#8C8884" d="M174.241 53.9744C174.163 53.9744 174.113 54.0252 174.113 54.1013C174.113 56.3111 175.691 58.47 178.364 58.47C180.427 58.47 181.573 57.4286 182.056 56.4889C182.107 56.3873 182.183 56.3618 182.261 56.3618H183.889C183.965 56.3618 184.068 56.3873 184.043 56.4889C183.279 58.8002 181.115 59.9939 178.364 59.9939C174.672 59.9939 172.178 57.2762 172.178 53.314C172.178 49.3517 174.545 46.6086 178.364 46.6086C182.183 46.6086 184.475 49.3517 184.475 53.314C184.475 53.4917 184.45 53.7711 184.425 53.8474C184.399 53.9235 184.347 53.9744 184.271 53.9744H174.241ZM178.364 48.1326C175.462 48.1326 174.113 50.7996 174.113 52.3234C174.113 52.3997 174.163 52.4504 174.241 52.4504H182.413C182.489 52.4504 182.54 52.3997 182.54 52.3234C182.54 50.4947 181.343 48.1326 178.364 48.1326Z"></path>
<path fill="#8C8884" d="M192.954 58.4699C194.151 58.4699 196.85 58.2414 196.85 56.057C196.85 54.2538 194.737 54.0251 192.954 53.8473C190.688 53.6188 187.608 53.314 187.608 50.2407C187.608 48.1833 189.823 46.634 192.7 46.634C195.806 46.634 198.301 48.0819 198.301 51.2313C198.301 51.3074 198.25 51.3583 198.174 51.3583H196.646C196.57 51.3583 196.519 51.3074 196.519 51.2313C196.519 49.1486 195.016 48.158 192.7 48.158C190.638 48.158 189.39 49.1231 189.39 50.2407C189.39 51.7138 190.714 52.1202 192.954 52.3235C196.086 52.6029 198.632 52.9584 198.632 56.057C198.632 58.8001 196.417 59.9939 192.954 59.9939C189.11 59.9939 187.328 57.835 187.328 55.3966C187.328 55.3205 187.378 55.2697 187.455 55.2697H188.983C189.059 55.2697 189.11 55.3205 189.11 55.3966C189.11 56.5651 189.874 58.4699 192.954 58.4699Z"></path>
<path fill="#8C8884" d="M159.167 22.3161L157.405 23.0987L156.845 24.6337L156.291 23.1352L154.523 22.3161L156.315 21.7874L156.845 20L157.397 21.7668L159.167 22.3161Z"></path>
</g>
<defs>
<clipPath id="clip0_439_3293">
<rect transform="translate(48.8672 20)" fill="white" height="40" width="149.767"></rect>
</clipPath>
</defs>
</svg>
