<svg xmlns="http://www.w3.org/2000/svg" fill="none" viewBox="0 0 248 80" height="80" width="248">
<g clip-path="url(#clip0_439_3054)">
<mask height="20" width="238" y="30" x="5" maskUnits="userSpaceOnUse" style="mask-type:luminance" id="mask0_439_3054">
<path fill="white" d="M242.5 30H5V50H242.5V30Z"></path>
</mask>
<g mask="url(#mask0_439_3054)">
<mask height="20" width="241" y="30" x="5" maskUnits="userSpaceOnUse" style="mask-type:luminance" id="mask1_439_3054">
<path fill="white" d="M245.872 30H5V50H245.872V30Z"></path>
</mask>
<g mask="url(#mask1_439_3054)">
<mask height="21" width="222" y="29" x="1" maskUnits="userSpaceOnUse" style="mask-type:alpha" id="mask2_439_3054">
<path fill="black" d="M222.695 29.4302V49.8385H1.04688V29.4302H222.695Z"></path>
</mask>
<g mask="url(#mask2_439_3054)">
<path fill="#8C8884" d="M12.8838 43.1557C17.2965 43.1557 19.7053 40.4938 19.7053 36.9676C19.7053 32.8247 17.4218 30.72 12.7585 30.72H5.2168V49.2795H8.78412V43.1557H12.8838ZM12.4454 33.72C15.2323 33.72 16.2006 34.7414 16.2006 36.9985C16.2006 39.2271 15.107 40.2462 12.4791 40.2462H8.78412V33.72H12.4454Z"></path>
<path fill="#8C8884" d="M34.8506 49.2795H39.0129V48.939L33.7884 41.9485C36.4163 41.1747 37.917 39.2581 37.917 36.3509C37.917 32.67 35.6961 30.72 31.0015 30.72H23.1152V49.2795H26.6826V42.32H30.1874L34.8506 49.2795ZM30.751 33.689C33.444 33.689 34.4123 34.5557 34.4123 36.4438C34.4123 38.4224 33.1308 39.3509 30.6884 39.3509H26.6826V33.689H30.751Z"></path>
<path fill="#8C8884" d="M42.5977 49.2795H56.1178V46.2176H46.165V41.3914H55.2097V38.3605H46.165V33.7819H56.1491V30.72H42.5977V49.2795Z"></path>
<path fill="#8C8884" d="M63.8153 40.6795C63.8153 38.4533 63.8466 35.7628 63.784 33.5962H64.3139C64.9402 35.8866 65.723 38.4843 66.6937 41.2057L69.3217 48.2271H72.795L75.5169 41.3295C76.4876 38.7628 77.3644 35.9485 78.022 33.5962H78.5519C78.4917 35.7628 78.3953 38.5152 78.3953 40.6795V49.2795H81.965V30.72H76.4876L73.5152 38.6081C73.0142 40.0009 72.2627 42.4438 71.6364 44.5771H71.1378C70.5429 42.4438 69.7287 39.939 69.259 38.7319L66.3493 30.72H60.4961V49.2795H63.8153V40.6795Z"></path>
<path fill="#8C8884" d="M89.1013 44.0819C89.1013 45.5676 88.5063 46.4652 87.0346 46.4652C86.4421 46.4652 85.941 46.3724 85.3148 46.2795L85.1582 49.3105C85.9097 49.4343 86.6612 49.5271 87.5982 49.5271C91.1969 49.5271 92.6686 47.3628 92.6686 44.0509V30.72H89.1013V44.0819Z"></path>
<path fill="#8C8884" d="M101.069 49.2795V30.72H97.502V49.2795H101.069Z"></path>
<path fill="#8C8884" d="M116.544 49.2795V30.72H112.977V49.2795H116.544Z"></path>
<path fill="#8C8884" d="M133.1 49.2795H137.795V30.72H134.509V37.1533C134.509 39.5985 134.666 43.0009 134.854 45.6295L134.29 45.6605C133.445 43.5271 132.036 40.4033 130.66 37.989L126.529 30.72H121.428V49.2795H124.778V42.9081C124.778 40.4628 124.622 36.5676 124.434 33.8747L124.995 33.8128C125.934 36.0414 127.25 38.9485 128.283 40.8343L133.1 49.2795Z"></path>
<path fill="#8C8884" d="M152.259 49.2795L159.237 30.72H155.575L152.227 40.37C151.57 42.2581 150.881 44.3605 150.317 46.2176H149.566C149.036 44.3605 148.347 42.2581 147.689 40.37L144.373 30.72H140.555L147.533 49.2795H152.259Z"></path>
<path fill="#8C8884" d="M161.979 49.2795H175.499V46.2176H165.546V41.3914H174.591V38.3605H165.546V33.7819H175.53V30.72H161.979V49.2795Z"></path>
<path fill="#8C8884" d="M187.103 49.6819C192.393 49.6819 194.582 47.5462 194.582 44.1438C194.582 41.4843 193.301 39.4748 187.698 38.4533C183.755 37.7414 183.037 36.8129 183.037 35.4843C183.037 33.9986 184.162 33.1319 186.542 33.1319C189.17 33.1319 190.109 34.2772 190.608 36.4748L194.144 35.7938C193.52 32.5462 191.547 30.3176 186.73 30.3176C181.91 30.3176 179.533 32.3605 179.533 35.67C179.533 38.5772 181.159 40.5272 186.292 41.3605C189.984 41.9795 191.015 42.7843 191.015 44.3605C191.015 45.8772 189.828 46.8057 187.229 46.8057C184.381 46.8057 182.693 45.5367 182.223 42.9081L178.812 43.62C179.282 47.0533 181.44 49.651 187.103 49.6819Z"></path>
<path fill="#8C8884" d="M197.082 33.9676H202.87V49.2795H206.437V33.9676H212.228V30.72H197.082V33.9676Z"></path>
</g>
<mask height="22" width="22" y="29" x="221" maskUnits="userSpaceOnUse" style="mask-type:luminance" id="mask3_439_3054">
<path fill="white" d="M221.484 29.5618H242.561V50.6167H221.484V29.5618Z"></path>
</mask>
<g mask="url(#mask3_439_3054)">
<path fill="#8C8884" d="M241.261 49.3364H237.141V34.8191H241.261V49.3364Z"></path>
<path fill="#8C8884" d="M241.261 34.0232H237.141V30.6743H241.261V34.0232Z"></path>
<path fill="#8C8884" d="M236.335 49.337H232.215V38.083H236.335V49.337Z"></path>
<path fill="#8C8884" d="M236.335 37.2865H232.215V30.6743H236.335V37.2865Z"></path>
<path fill="#8C8884" d="M231.409 49.3369H227.289V41.3462H231.409V49.3369Z"></path>
<path fill="#8C8884" d="M231.409 40.5498H227.289V30.6743H231.409V40.5498Z"></path>
<path fill="#8C8884" d="M226.485 49.337H222.365V30.6743H226.485V49.337Z"></path>
</g>
</g>
</g>
</g>
<defs>
<clipPath id="clip0_439_3054">
<rect transform="translate(5 30)" fill="white" height="20" width="237.5"></rect>
</clipPath>
</defs>
</svg>
