<svg xmlns="http://www.w3.org/2000/svg" fill="none" viewBox="0 0 112 30" height="30" width="112">
<g clip-path="url(#clip0_6536_102070)">
<path fill="url(#paint0_linear_6536_102070)" d="M33 26H56.248L79 4H33V26Z" clip-rule="evenodd" fill-rule="evenodd"></path>
<path fill="white" d="M60.2987 8.13669L55.7707 8.134V18.5428L51.8152 8.134H47.8932L44.5158 16.8387C44.1562 14.6438 41.8078 13.8859 39.9602 13.3177C38.7402 12.9389 37.4458 12.3818 37.4578 11.7662C37.4679 11.2607 38.1522 10.7913 39.5077 10.8619C40.419 10.9086 41.2225 10.9797 42.8218 11.7253L44.3948 9.07698C42.9349 8.35896 40.918 7.90505 39.2653 7.90332H39.2557C37.3285 7.90332 35.7222 8.50703 34.7266 9.50199C34.0327 10.1968 33.6589 11.0793 33.6433 12.0556C33.618 13.3987 34.1275 14.3518 35.198 15.1117C36.102 15.7527 37.2581 16.1679 38.2771 16.4733C39.5342 16.8499 40.5601 17.1771 40.5482 17.8755C40.5389 18.1294 40.4392 18.3664 40.2503 18.5589C39.9371 18.8713 39.4556 18.9887 38.7908 19.0008C37.5083 19.027 36.5569 18.8327 35.0417 17.9671L33.6433 20.6528C35.1543 21.4837 36.9435 21.9709 38.7691 21.9709L39.004 21.9683C40.5933 21.9407 41.8758 21.5029 42.9003 20.7053C42.9591 20.6604 43.012 20.6141 43.0663 20.5676L42.6119 21.7402H46.7253L47.4156 19.7104C48.1381 19.9492 48.9602 20.0811 49.8335 20.0811C50.6833 20.0811 51.4839 19.9549 52.1934 19.7304L52.8588 21.7402H59.567V17.5377H61.0297C64.5664 17.5377 66.6579 15.7964 66.6579 12.8787C66.6579 9.62838 64.6256 8.13691 60.2985 8.13691L60.2987 8.13669ZM49.8338 17.0431C49.3054 17.0431 48.8101 16.9538 48.383 16.7978L49.8181 12.4201H49.8454L51.2557 16.8102C50.8317 16.9557 50.3479 17.0431 49.8339 17.0431H49.8338ZM60.5645 14.5278H59.5672V11.0001H60.5645C61.895 11.0001 62.9558 11.4273 62.9558 12.7406C62.9558 14.0997 61.895 14.5278 60.5645 14.5278Z" clip-rule="evenodd" fill-rule="evenodd"></path>
</g>
<defs>
<linearGradient gradientUnits="userSpaceOnUse" y2="26" x2="56" y1="4" x1="56" id="paint0_linear_6536_102070">
<stop stop-color="#00B1EB"></stop>
<stop stop-color="#009AD9" offset="0.212"></stop>
<stop stop-color="#007FC4" offset="0.519"></stop>
<stop stop-color="#006EB8" offset="0.792"></stop>
<stop stop-color="#0069B4" offset="1"></stop>
</linearGradient>
<clipPath id="clip0_6536_102070">
<rect transform="translate(33 4)" fill="white" height="22" width="46"></rect>
</clipPath>
</defs>
</svg>
