<svg xmlns="http://www.w3.org/2000/svg" fill="none" viewBox="0 0 248 80" height="80" width="248">
<path fill="#8C8884" d="M62.6609 31.6637C67.7025 31.3192 70.6306 34.9192 70.7764 39.7202C70.912 44.1846 69.0672 47.9114 64.3705 48.7182C56.4293 49.1399 54.1026 40.454 57.7055 34.536C58.7722 32.784 60.6893 31.9874 62.6609 31.6637ZM64.1273 47.1442C65.7934 46.7823 66.8097 46.2379 67.772 44.7543C69.7284 41.7387 69.4343 36.0892 66.1914 34.0214C65.186 33.3941 64.0007 33.1177 62.8212 33.2354C61.2706 33.5617 59.8683 34.2726 59.0656 35.6786C56.4896 40.1909 57.9197 47.3586 64.1273 47.1442Z"></path>
<path fill="#8C8884" d="M219.706 31.6681C219.891 31.6497 220.078 31.642 220.263 31.6449C225.558 31.7138 227.26 35.5855 227.188 40.3145C226.074 40.2235 224.065 40.2752 222.897 40.2756L214.899 40.2871C214.901 45.4266 219.077 48.8521 223.898 46.4235C224.671 46.0169 225.024 45.6053 225.613 44.9881C225.978 45.1809 226.508 45.4337 226.654 45.8159C226.414 47.2822 223.322 48.4715 221.993 48.6739C211.237 50.3105 209.633 33.0909 219.706 31.6681ZM214.936 38.7798L220.722 38.7775L225.418 38.7866C224.917 35.2847 223.445 32.8919 219.503 33.2334C216.574 34.0305 215.458 35.9129 214.936 38.7798Z"></path>
<path fill="#8C8884" d="M139.617 31.6749C143.223 31.2026 146.116 33.8035 146.784 37.1991C147 38.2989 146.983 39.1937 146.98 40.3036C143.163 40.1893 138.472 40.2421 134.642 40.3018C134.74 45.613 138.716 48.6278 143.737 46.4314C144.418 46.0924 144.895 45.533 145.406 44.9855C145.851 45.2531 146.294 45.5251 146.735 45.8016C143.79 49.0497 139.573 49.8762 135.877 47.2273C132.123 44.5374 131.856 37.8915 134.625 34.4473C136.006 32.7297 137.413 31.9331 139.617 31.6749ZM134.716 38.7902L140.701 38.7807C142.172 38.7853 143.699 38.7708 145.166 38.7952C144.867 35.2855 143.182 32.9906 139.403 33.2303C136.46 33.9123 135.185 35.9369 134.716 38.7902Z"></path>
<path fill="#8C8884" d="M45.9516 31.6745C47.6966 31.4133 49.856 32.0638 51.1258 33.3118C53.1608 35.3117 53.3219 37.6534 53.3679 40.3232C49.6656 40.1371 44.8193 40.2769 41.0362 40.2932C41.2234 45.45 45.1801 48.8041 50.1308 46.4328C50.7706 46.0684 51.3358 45.4845 51.8719 44.9733L53.0545 45.7978C53.0216 45.8474 52.9873 45.8962 52.952 45.9441C49.0608 51.2091 40.0258 48.7494 39.3447 42.0105C38.844 37.0566 40.5548 32.4816 45.9516 31.6745ZM41.1248 38.7861L46.9723 38.783L51.6209 38.7857C51.2596 35.4864 49.579 32.9381 45.9419 33.2408C42.9179 34.0255 41.6409 35.7001 41.1248 38.7861Z"></path>
<path fill="#8C8884" d="M23.0419 25.0235C23.6889 24.9888 24.0967 24.9938 24.744 25.0325C24.8299 28.4233 24.7722 31.6778 24.7572 35.0589C25.1658 34.4785 25.6041 33.8859 26.0917 33.3649C28.0878 31.2068 32.3291 31.0059 34.4056 33.1128C36.3371 35.0728 35.9879 38.6729 35.9889 41.2451C35.9967 43.6516 35.9862 46.0581 35.9576 48.4644L34.1258 48.4528L34.1236 38.1531C34.0983 35.6322 33.201 33.4712 30.6545 33.2413C26.6775 32.8824 24.1323 36.0658 24.7556 39.8119C24.8073 40.1221 24.7667 40.9193 24.7722 41.2495C24.8131 43.6653 24.846 46.056 24.7264 48.4693L22.9498 48.4502L22.9396 32.0294C22.9391 31.005 22.8276 25.6383 23.0419 25.0235Z"></path>
<path fill="#8C8884" d="M101.515 31.9353C102.151 31.8719 102.992 31.8965 103.646 31.898L98.8056 42.7121C98.2243 44.2784 97.312 45.9943 96.6207 47.5579C94.7877 51.704 93.8516 55.8137 88.3128 54.861L88.4873 53.4433C88.5819 53.4457 88.7267 53.4405 88.8142 53.451C92.4363 53.8874 93.4313 50.6198 94.5785 47.9489C92.6412 43.6806 90.6824 39.4263 88.6892 35.1837C88.1796 34.0992 87.6826 33.0189 87.2422 31.9039L89.2866 31.9236C89.5623 32.5125 89.8428 33.1164 90.0987 33.714C91.8466 37.7953 93.8642 41.7718 95.5609 45.8738C96.4818 43.929 97.5107 41.2976 98.3581 39.2752L101.515 31.9353Z"></path>
<path fill="#8C8884" d="M116.562 26.2623L118.489 26.248L122.571 39.3706C123.014 40.8017 123.99 44.3626 124.581 45.5449C126.456 39.0474 128.594 32.692 130.528 26.2501L132.487 26.2694C132.255 27.0214 132.016 27.7708 131.768 28.5176C130.398 32.1397 129.41 36.1483 128.145 39.8346C127.167 42.6877 126.245 45.5881 125.355 48.4697C124.795 48.4729 124.174 48.4424 123.609 48.4267C121.587 41.2421 118.802 33.4802 116.562 26.2623Z"></path>
<path fill="#8C8884" d="M235.855 31.6771C238.315 31.4456 241.464 32.2038 242.649 34.5972C242.889 35.0832 243.128 36.0012 243.053 36.5388C242.793 36.7241 241.71 36.6481 241.326 36.6419C241.094 35.5837 240.885 34.966 239.982 34.2404C238.241 32.7653 234.306 32.803 232.807 34.6015C231.479 36.2516 232.501 37.9388 234.34 38.5929C237.673 39.7785 244.638 39.9859 242.962 45.434C242.226 47.8248 239.742 48.4578 237.467 48.7393C233.574 48.8258 230.674 47.8706 229.758 43.8115C230.274 43.7696 230.989 43.7891 231.522 43.7887C232.664 47.1027 234.755 47.2391 237.907 47.063C239.306 47.2209 241.877 45.3609 241.406 43.809C240.164 39.7195 231.363 41.5558 230.455 36.9454C229.793 33.5843 232.974 32.0325 235.855 31.6771Z"></path>
<path fill="#8C8884" d="M157.327 31.6712C157.502 31.6541 157.678 31.6452 157.853 31.6444C163.955 31.6199 163.458 37.1017 163.444 41.4797L163.435 48.4637C162.851 48.4666 162.229 48.4441 161.641 48.4334C161.623 45.9634 161.624 43.4932 161.644 41.0232C161.647 39.1356 161.883 36.6243 160.894 34.9684C159.413 32.4896 156.643 32.8892 154.471 34.1941C152.517 35.6556 152.25 36.5692 152.263 38.8973C152.28 42.0838 152.275 45.2835 152.281 48.4711L150.469 48.4647C150.405 43.2626 150.263 37.0871 150.445 31.9188C150.984 31.8758 151.606 31.9079 152.154 31.9234C152.183 32.9137 152.218 33.9038 152.261 34.8936C153.819 32.8401 154.694 32.035 157.327 31.6712Z"></path>
<path fill="#8C8884" d="M182.561 31.9089L184.11 31.8887C184.24 34.3278 184.13 36.8731 184.138 39.3841C184.091 42.516 183.829 47.1389 188.174 47.1594C191.109 47.1732 193.538 45.3101 193.355 42.2787C193.298 41.3228 193.357 40.1555 193.355 39.1885L193.349 31.9523C193.841 31.9025 194.581 31.9005 195.095 31.8833C195.135 33.157 195.118 34.4974 195.122 35.7766L195.106 48.4653C194.57 48.4753 193.981 48.4385 193.44 48.4151C193.436 47.526 193.436 46.9692 193.304 46.08C193.24 46.1649 193.171 46.2476 193.101 46.3278C190.86 48.8472 187.343 49.7755 184.379 47.5708C183.174 46.674 182.378 44.2359 182.373 42.7569C182.361 39.2444 182.274 35.635 182.373 32.1206C182.449 32.0346 182.511 31.9641 182.561 31.9089Z"></path>
<path fill="#8C8884" d="M170.605 27.6717L172.445 27.6689L172.463 31.9665C174.506 31.9168 176.549 31.8896 178.593 31.885L178.517 33.4614L172.456 33.4457C172.445 35.8984 172.096 43.4635 172.763 45.3678C173.788 48.2919 177.921 46.4493 179.055 46.9971C179.482 49.2782 177.609 48.5275 175.91 48.7627C174.268 48.9901 171.222 47.7597 170.911 45.891C170.262 41.9794 170.549 37.4727 170.559 33.446L165.995 33.4541L165.961 31.9444C167.234 31.8131 169.244 31.9024 170.564 31.9475C170.523 30.5486 170.576 29.0765 170.605 27.6717Z"></path>
<path fill="#8C8884" d="M5.15793 26.2292L20.2395 26.2597L20.2692 27.8885L13.1234 27.8698C12.9816 32.2705 13.1124 37.4209 13.1108 41.8827L13.1076 48.468L11.3287 48.454L11.3746 27.8599C9.07097 27.9131 6.64138 27.8806 4.32798 27.8863C4.2999 27.4519 4.23043 26.8913 4.34457 26.4823C4.65156 26.1758 4.64993 26.2621 5.15793 26.2292Z"></path>
<path fill="#8C8884" d="M81.6557 31.6772C82.6441 31.548 83.945 31.7296 84.9378 31.8551C84.9144 32.4311 84.8436 33.1166 84.799 33.7009C81.0654 33.0123 77.0148 33.645 76.0915 37.9315C75.7733 39.408 75.9879 41.8048 76.0258 43.3492C76.0554 45.044 76.0653 46.739 76.0554 48.4341C75.7401 48.463 75.0437 48.4527 74.6985 48.4587C74.4603 48.467 74.357 48.4832 74.1453 48.3581C74.0274 47.6573 74.0913 44.0601 74.0933 43.1812L74.0967 32.0193C74.6332 31.9239 75.3039 31.9122 75.8589 31.8878C75.957 32.6128 75.9781 34.2519 76.0458 35.1262C76.1937 34.9057 76.3486 34.69 76.51 34.4792C77.9721 32.557 79.3434 31.9916 81.6557 31.6772Z"></path>
<path fill="#8C8884" d="M208.029 31.6803C208.81 31.5407 210.473 31.763 211.284 31.86L211.149 33.7047C207.642 32.9453 202.92 33.8914 202.42 37.8166C202.055 40.6888 202.297 45.4456 202.293 48.4617L200.522 48.4589L200.432 48.3735C200.353 47.0316 200.386 32.282 200.538 32.0219C201.012 31.8424 201.64 31.8921 202.159 31.9016C202.17 32.9758 202.269 34.1131 202.346 35.1903C202.567 34.829 202.812 34.4829 203.081 34.1539C204.421 32.4968 205.951 31.9027 208.029 31.6803Z"></path>
</svg>
