<svg xmlns="http://www.w3.org/2000/svg" fill="none" viewBox="0 0 60 60" height="60" width="60">
<path fill="#161616" d="M12.371 49.0501C12.371 50.7431 11.1271 51.5355 9.59271 50.82C8.05832 50.1045 6.81445 48.152 6.81445 46.459C6.81445 44.766 8.05832 43.9736 9.59271 44.6891C11.1271 45.4046 12.371 47.357 12.371 49.0501Z"></path>
<path fill="#161616" d="M13.6952 48.491C13.6952 50.184 12.2187 50.7484 10.9169 51.0704C9.38254 50.3549 8.13867 47.5929 8.13867 45.8999C8.13867 44.2069 9.38254 43.4145 10.9169 44.13C12.4513 44.8455 13.6952 46.798 13.6952 48.491Z"></path>
<path fill="#161616" d="M27.8944 56.1946C27.8944 57.8876 26.4179 58.452 25.1161 58.7741C23.5818 58.0586 22.3379 55.2966 22.3379 53.6035C22.3379 51.9105 23.5818 51.1181 25.1161 51.8336C26.6505 52.5491 27.8944 54.5016 27.8944 56.1946Z"></path>
<path fill="#161616" d="M44.6034 47.5588C44.6034 49.2519 43.1269 49.8162 41.8251 50.1383C40.2907 49.4228 39.0469 46.6608 39.0469 44.9678C39.0469 43.2748 40.2907 42.4824 41.8251 43.1979C43.3595 43.9134 44.6034 45.8658 44.6034 47.5588Z"></path>
<path fill="#161616" d="M26.5614 56.7659C26.5614 58.4589 25.3175 59.2513 23.7831 58.5358C22.2487 57.8203 21.0049 55.8678 21.0049 54.1748C21.0049 52.4818 22.2487 51.6894 23.7831 52.4049C25.3175 53.1204 26.5614 55.0729 26.5614 56.7659Z"></path>
<path fill="#161616" d="M43.3827 48.1067C43.3827 49.7997 42.1388 50.5921 40.6044 49.8766C39.07 49.1611 37.8262 47.2087 37.8262 45.5157C37.8262 43.8226 39.07 43.0302 40.6044 43.7457C42.1388 44.4612 43.3827 46.4137 43.3827 48.1067Z"></path>
<path fill="#161616" d="M8.98926 45.6069V39.2925C8.98926 38.8783 9.32504 38.5425 9.73926 38.5425C10.1535 38.5425 10.4893 38.8783 10.4893 39.2925V45.6069C10.4893 46.0211 10.1535 46.3569 9.73926 46.3569C9.32504 46.3569 8.98926 46.0211 8.98926 45.6069Z"></path>
<path fill="#161616" d="M23.0332 53.9658V49.1475C23.0332 48.7332 23.369 48.3975 23.7832 48.3975C24.1974 48.3975 24.5332 48.7332 24.5332 49.1475V53.9658C24.5332 54.38 24.1974 54.7158 23.7832 54.7158C23.369 54.7158 23.0332 54.38 23.0332 53.9658Z"></path>
<path fill="#E0DCD8" d="M34.4657 41.6019L8.67668 27.0783L7.31566 21.7587L29.2842 10.5374L31.3304 15.825L53.0794 30.3094C53.1734 30.372 53.1697 30.5112 53.0726 30.5688L34.4657 41.6019Z"></path>
<path fill="#161616" d="M31.9435 15.3318L53.4951 29.6852C54.0488 30.054 54.0269 30.8742 53.4547 31.2135L34.8486 42.2474L34.4752 42.4682L34.098 42.2552L8.30876 27.7316L8.02948 27.5747L6.65689 22.2092L3.21741 19.7421C2.88114 19.5007 2.80387 19.0325 3.04501 18.6961C3.28642 18.3595 3.75541 18.2824 4.092 18.5238L7.38042 20.8827L29.6835 9.49113L31.9435 15.3318ZM10.2782 27.1197L34.4549 40.7356L51.873 30.4076L31.2746 16.689L10.2782 27.1197ZM8.19108 22.1531L9.17334 25.9944L30.384 15.4569L28.8846 11.5826L8.19108 22.1531Z"></path>
<path fill="#D6CFC7" d="M45.9624 10.1468V35.2247L31.2416 43.9481L16.5208 35.2247V10.1468L31.2416 1.42334L45.9624 10.1468Z"></path>
<path fill="#57534E" d="M31.9915 19.2974V42.6323L45.2122 34.7974V11.4634L31.9915 19.2974ZM17.2708 34.7964L30.4915 42.6313V19.2964L17.2708 11.4634V34.7964ZM17.9924 10.147L31.2415 17.9976L44.4905 10.147L31.2415 2.29541L17.9924 10.147ZM46.7122 35.6519L31.2415 44.8198L15.7708 35.6519V9.71924L31.2415 0.55127L46.7122 9.71924V35.6519Z"></path>
<path fill="black" d="M39.6584 18.8623V30.9893L42.4231 26.4136L43.3094 26.9985L39.0089 34.1162L34.7092 31.9639L35.5956 30.3555L38.3594 31.7383V19.6123L39.6584 18.8623Z"></path>
<path fill="#E0DCD8" d="M8.678 27.0781L34.0267 41.8857L52.3992 31.1882C52.5314 31.1113 52.6823 31.2541 52.6129 31.3903L49.8471 36.8179L46.7811 42.9485L30.0253 52.7644L8.678 40.3687L8.678 34.1208L8.678 27.0781Z"></path>
<path fill="#161616" d="M52.1686 30.4701C52.9066 30.1915 53.6646 30.9781 53.281 31.7309L50.5175 37.1527L47.3521 43.4828L47.1607 43.5961L30.0276 53.6326L29.6491 53.4136L7.9283 40.8002L7.92858 25.7714L34.0265 41.0172L52.0223 30.5403L52.1686 30.4701ZM9.42862 39.9366L29.6202 51.6614L30.9242 47.9725L9.4279 35.4254L9.42862 39.9366ZM32.456 48.1411L31.4164 51.0792L46.2107 42.4124L48.0222 38.7889L32.456 48.1411ZM9.42769 33.6891L31.4518 46.5436L33.0994 42.213L9.42793 28.3841L9.42769 33.6891ZM34.633 42.4005L33.3094 45.8779L49.2758 36.2853L51.0234 32.8571L34.633 42.4005Z"></path>
</svg>
