<svg xmlns="http://www.w3.org/2000/svg" fill="none" viewBox="0 0 60 61" height="61" width="60">
<path fill="#161616" d="M51.6182 42.1694V29.2925L30.7002 16.897L10.5049 28.8647C14.5485 31.261 19.4294 34.1536 23.4229 36.52C25.6024 37.8116 27.5175 38.9473 28.8877 39.7593C29.5724 40.1651 30.1215 40.4896 30.499 40.7134C30.6878 40.8252 30.8338 40.9127 30.9326 40.9712C30.982 41.0004 31.0197 41.0226 31.0449 41.0376C31.0576 41.0451 31.0678 41.0504 31.0742 41.0542C31.0772 41.056 31.0795 41.0572 31.0811 41.0581L31.083 41.0591C31.4393 41.2702 31.5577 41.7311 31.3467 42.0874C31.1487 42.4214 30.7316 42.5459 30.3867 42.3862L30.3184 42.3501L30.3164 42.3491C30.3148 42.3482 30.3118 42.3461 30.3086 42.3442C30.3022 42.3405 30.2925 42.3349 30.2803 42.3276C30.255 42.3127 30.2172 42.2904 30.168 42.2612C30.0692 42.2027 29.923 42.1162 29.7344 42.0044C29.3568 41.7806 28.808 41.4552 28.123 41.0493C26.7528 40.2373 24.8377 39.1026 22.6582 37.811C18.6792 35.4531 13.8192 32.5723 9.78418 30.1812V42.9341L11.4258 43.9194C11.7809 44.1325 11.8966 44.5936 11.6836 44.9487C11.4705 45.3039 11.0095 45.4196 10.6543 45.2065L8.28418 43.7837V28.438L30.7012 15.1538L53.1182 28.438V42.1694C53.118 42.5834 52.7821 42.9193 52.3682 42.9194C51.9541 42.9194 51.6184 42.5835 51.6182 42.1694Z"></path>
<path fill="#D6CFC7" d="M16.2725 45.4386V12.5269L37.1382 0.839844L40.3786 2.31232L44.0778 4.03619L47.3483 5.6114V38.523L26.1149 50.694L16.2725 45.4386Z"></path>
<path fill="#57534E" d="M17.0225 44.9883L25.3652 49.4434V17.7529L22.5947 16.3682L17.0225 13.7139V44.9883ZM26.8652 17.7334V49.3984L46.5986 38.0879V6.87891L26.8652 17.7334ZM24.541 15.6641L26.0977 16.4424L45.7109 5.65527L44.1006 4.87988L24.541 15.6641ZM21.2227 14.0537L22.9033 14.8545L42.4219 4.0918L40.4121 3.15527L21.2227 14.0537ZM17.9033 12.4727L19.5703 13.2656L38.7285 2.38574L37.1729 1.67871L17.9033 12.4727ZM48.0986 38.958L26.4883 51.3447L26.1279 51.5508L15.5225 45.8887V12.0869L15.9062 11.873L37.1025 0L40.6885 1.62988L40.6953 1.63281L44.3945 3.35645L44.4033 3.36035L48.0986 5.14062V38.958Z"></path>
<path fill="black" d="M41.6126 29.8081V27.9751C41.6126 26.3643 40.4814 25.7113 39.0864 26.5166L34.3233 29.2666C32.9282 30.072 31.7971 32.0313 31.7971 33.6421V35.4751C31.7971 35.8893 31.5063 36.393 31.1476 36.6001C30.7888 36.8072 30.498 36.6393 30.498 36.2251V34.3921C30.498 31.9528 32.2108 28.9862 34.3233 27.7666L39.0864 25.0166C41.1988 23.7971 42.9116 24.7859 42.9116 27.2251V29.0581C42.9116 29.4722 42.6207 29.9759 42.2621 30.1831C41.9034 30.3902 41.6126 30.2223 41.6126 29.8081Z"></path>
<path fill="black" d="M39.5976 19.7256C39.5976 18.1148 38.4672 17.4614 37.0723 18.2666C35.6773 19.072 34.5461 21.0312 34.5461 22.6421C34.5462 24.2528 35.6773 24.905 37.0723 24.0996C38.4671 23.2942 39.5975 21.3363 39.5976 19.7256ZM40.8967 18.9756C40.8966 21.4147 39.1846 24.3799 37.0723 25.5996C34.9599 26.8192 33.2472 25.8312 33.2471 23.3921C33.2471 20.9528 34.9598 17.9862 37.0723 16.7666C39.1846 15.5472 40.8967 16.5364 40.8967 18.9756Z"></path>
<path fill="#E0DCD8" d="M9.26289 29.0014L30.701 41.7055L52.1364 29.003C52.2386 28.9424 52.3678 29.0161 52.3678 29.1348V42.1695V43.3597L30.701 56.1993L11.0404 44.5634L9.03418 43.3597V42.1695V29.1348C9.03418 29.0161 9.16072 28.9408 9.26289 29.0014Z"></path>
<path fill="#161616" d="M51.6182 30.1812L31.4512 42.1314V54.8823L51.6182 42.9312V30.1812ZM9.78418 42.9341L11.4209 43.9175L29.9512 54.8833V42.1323L9.78418 30.1812V42.9341ZM53.1182 43.7866L30.7012 57.0708L30.3193 56.8443L10.6582 45.2085L10.6543 45.2066L8.28418 43.7837V29.1343C8.28448 28.5034 8.93151 28.0457 9.52734 28.2964L9.64551 28.356L30.7002 40.8335L51.7539 28.3579C52.3559 28.0012 53.1178 28.4347 53.1182 29.1343V43.7866Z"></path>
<path fill="#161616" d="M44.8447 37.5594C45.2021 37.35 45.6616 37.4706 45.8711 37.828C46.0804 38.1853 45.9608 38.6449 45.6035 38.8543L39.6758 42.328C39.3184 42.5373 38.8588 42.4177 38.6494 42.0604C38.4402 41.7031 38.5607 41.2434 38.9179 41.034L44.8447 37.5594Z"></path>
</svg>
