<svg xmlns="http://www.w3.org/2000/svg" fill="none" viewBox="0 0 186 66">
<g clip-path="url(#clip0_1307_29077)">
<path fill="#8C8884" d="M13.5285 13.8381C16.7625 13.3741 20.5165 13.7142 23.796 13.7253C29.4141 13.7445 35.0546 13.6236 40.669 13.8217C40.3233 17.1129 39.0019 20.3771 36.4613 22.5869C32.4175 26.1042 26.927 25.8296 21.907 25.4853C20.7222 24.4623 19.5688 23.2768 18.0171 22.8417C15.973 22.2684 13.136 22.739 11.2914 23.7751C10.5556 24.1884 9.83053 24.8055 9.59947 25.6493C9.43825 26.2383 9.50074 26.8268 9.81615 27.3579C10.4742 28.4657 12.1097 29.0204 13.2917 29.3205C18.1965 30.5655 18.6022 29.0764 22.2136 26.93C23.7147 26.8973 25.216 26.8768 26.7175 26.8684C30.6739 26.8631 34.0049 27.689 36.8797 30.5567C39.1081 32.7798 40.4985 35.9099 40.497 39.0675C40.4796 42.407 39.1547 45.6072 36.8056 47.9841C32.6543 52.119 27.2453 51.6811 21.8412 51.6697L12.3022 51.6538C9.55659 51.639 6.80488 51.7744 4.06016 51.7265C3.51354 51.7169 2.879 51.7157 2.49031 51.3139C2.44737 51.0628 2.43748 50.8071 2.46091 50.5533C2.76548 47.445 4.15664 44.6278 6.59126 42.651C9.89114 39.9718 14.1415 39.4787 18.2645 39.913C20.6188 40.1611 21.2286 40.9551 22.6278 42.6881C24.9239 42.4379 31.8659 42.8976 33.39 41.7425C33.3247 41.6439 33.1561 41.3146 33.0725 41.263C32.1655 40.7037 26.7999 41.56 25.0344 41.0247L24.982 40.7951L25.3824 40.2592C26.9466 39.7238 29.9982 40.2368 31.7979 40.1151C32.4616 40.0703 32.8974 39.9953 33.3388 39.4904L33.2805 39.1586C31.7697 38.0773 26.8122 39.4069 24.8113 38.6728L24.7435 38.375C26.118 36.4773 30.4322 37.6849 32.5387 37.2848C32.9 37.2162 33.0036 37.2075 33.211 36.9004L33.0404 36.663C31.3257 36.1933 24.074 35.3515 22.7783 36.0554C21.0404 36.9995 20.8913 38.3622 18.5608 38.7418C15.2425 39.2823 10.3918 38.2687 7.68558 36.3257C4.94044 34.3453 3.09607 31.3564 2.55853 28.0176C2.04914 24.8014 2.84594 21.5153 4.77217 18.8881C6.95376 15.8678 9.91083 14.4253 13.5285 13.8381Z"></path>
<path fill="#8C8884" d="M88.1924 28.6971C91.0778 28.3777 91.3387 28.9874 93.8321 30.1659C94.3234 29.9626 94.1226 29.2117 94.3984 28.71C95.0186 28.3877 96.2808 28.5536 96.9909 28.5565C97.0104 28.5863 97.0299 28.6161 97.0479 28.647C97.5611 29.5315 97.458 37.3276 97.1338 38.5513C97.8868 39.0932 98.5844 39.7652 98.7632 40.7159C98.8515 41.1826 98.6976 41.4989 98.4383 41.8762C98.0173 42.1817 97.6517 42.3227 97.1245 42.2479C96.0036 42.0891 95.2771 41.2642 94.6257 40.4184L94.5772 40.1838C94.2632 40.112 92.0324 41.5392 91.3817 41.7776C89.7257 42.3843 88.5783 42.2728 86.9567 41.5169C85.3819 40.7824 84.2251 39.4865 83.64 37.856C83.005 36.0899 83.1011 34.1438 83.9072 32.4485C84.7883 30.589 86.2865 29.3778 88.1924 28.6971ZM86.4544 34.3662C86.2318 35.1627 86.2646 36.0087 86.5474 36.7857C87.1777 38.515 88.9165 39.5839 90.7459 39.3666C92.9267 39.1074 94.4819 37.1301 94.2171 34.9538C93.9523 32.7773 91.9691 31.2289 89.7898 31.4981C88.2002 31.6946 86.8848 32.8257 86.4544 34.3662Z"></path>
<path fill="#8C8884" d="M139.093 28.5024C139.844 28.4402 140.697 28.4858 141.425 28.6894C141.442 28.7136 141.459 28.738 141.476 28.7628C142.64 30.4862 144.925 36.5626 144.527 38.5666C144.741 38.3676 144.959 38.1201 145.09 37.8584C145.908 36.23 147.743 30.0766 147.254 28.5926C148.261 28.5807 149.24 28.5768 150.242 28.7103C150.466 28.9737 150.51 29.0907 150.547 29.4327C150.753 31.3372 147.656 40.2795 146.451 41.7649C146.119 42.1739 145.656 42.6135 145.106 42.6621C142.103 42.9272 141.782 34.4105 139.942 32.9266L139.907 32.8994C139.232 33.4132 137.954 40.1951 136.85 41.6513C136.531 42.0708 136.055 42.4824 135.515 42.5473C131.979 42.9727 130.568 30.4524 128.206 28.5764L128.188 28.5612C129.452 28.5212 130.683 28.4831 131.942 28.641C132.97 29.6795 134.208 34.697 134.667 36.2929C134.825 36.8418 134.803 37.4162 135.073 37.928L135.367 37.8346C136.374 35.6021 136.861 33.1081 137.663 30.7914C137.947 29.9725 138.208 28.9225 139.053 28.5213L139.093 28.5024Z"></path>
<path fill="#8C8884" d="M58.2052 23.2355C59.9074 22.9797 61.6534 23.2294 63.1545 24.096C64.2121 24.7065 65.934 26.3206 66.2405 27.5689C66.3594 28.0529 66.3035 28.2819 66.0527 28.6847C65.2643 28.9708 64.0224 28.7277 63.1829 28.6701C63.0894 28.1305 62.3187 27.3592 61.9066 27.0103C61.1682 26.3851 60.0698 26.068 59.11 26.1485C58.3596 26.2114 57.6202 26.5304 57.1324 27.1165C56.7731 27.5482 56.6178 28.1009 56.6727 28.6563C56.8519 30.4673 63.3441 31.8339 64.8648 33.0853C65.8101 33.8632 66.528 34.9574 66.6385 36.1964C66.7516 37.4635 66.1585 38.7235 65.3562 39.6714C63.9427 41.3417 62.1592 42.0137 60.0412 42.1883C59.7849 42.1971 59.5283 42.1947 59.2722 42.181C56.6401 42.0333 54.7842 40.8856 53.5036 38.5757C53.0687 37.7912 52.7807 37.0377 52.166 36.3546C55.2329 36.2975 55.5961 36.6405 57.8868 38.6173C58.513 39.1576 59.0666 39.5422 59.9317 39.4691C60.7331 39.4013 62.3864 38.4921 62.8939 37.8771C63.2442 37.4526 63.2186 37.2438 63.1736 36.7268C61.9845 34.5314 58.325 33.9939 56.2441 32.8769C54.9669 32.1914 53.7346 31.1246 53.3111 29.6909C52.9713 28.5404 53.2458 27.2628 53.8148 26.2289C54.7214 24.5815 56.4756 23.737 58.2052 23.2355Z"></path>
<path fill="#8C8884" d="M174.282 28.6977C175.048 28.5993 175.828 28.5393 176.601 28.5881C178.38 28.7004 180.26 29.6685 181.427 31.0015C182.498 32.2256 183.393 34.4685 183.283 36.111C181.961 37.6731 174.63 35.5754 172.678 36.8646C172.545 36.9527 172.538 37.1972 172.505 37.3541C172.698 37.8185 172.973 38.1215 173.34 38.4575C174.623 39.6336 175.641 39.5667 177.273 39.4965C178.137 39.2322 179.086 38.6113 179.759 38.0141C180.704 37.9511 181.65 37.9405 182.597 37.925C182.613 38.2113 182.563 38.45 182.433 38.7067C181.677 40.1983 179.839 41.2999 178.293 41.8001C176.459 42.4077 174.458 42.2624 172.732 41.3962C171.075 40.534 169.826 39.0542 169.255 37.278C168.733 35.6616 168.914 33.9334 169.694 32.4315C170.665 30.5603 172.298 29.3233 174.282 28.6977ZM171.749 34.0519L176.725 34.0524C177.816 34.0451 178.947 33.9762 180.032 34.0971C179.747 33.1608 178.665 32.1291 177.814 31.6754C176.852 31.1624 176.151 31.0241 175.08 31.2325C173.597 31.9908 173.015 33.1665 171.749 34.0519Z"></path>
<path fill="#8C8884" d="M115.251 23.2374C116 23.1152 116.938 23.0348 117.658 23.3032C117.823 23.5298 117.904 23.6287 117.944 23.9136C118.239 26.0362 118.217 31.9549 117.714 33.9239C117.591 34.4069 117.26 34.8436 116.963 35.2358C118.619 34.2937 122.531 30.3679 123.591 28.7556C124.365 28.6104 125.164 28.5253 125.947 28.4538C126.592 28.3949 126.995 28.4129 127.499 28.8322C127.477 28.8849 127.453 28.935 127.427 28.9857C127.1 29.6425 122.406 34.1669 121.59 34.5744C122.799 35.2781 124.126 37.4948 124.966 38.643C125.879 38.9654 126.783 39.4455 127.668 39.8436C128.062 40.3347 127.843 41.3433 127.78 41.9182C127.605 42.1617 127.527 42.3606 127.224 42.4393C126.607 42.5991 125.894 42.31 125.336 42.0701C121.603 40.4679 121.324 38.0197 119.244 36.768C119.243 37.4012 118.626 38.0365 118.388 38.6043C118.032 39.4553 118.072 41.0285 117.635 41.7228C117.622 41.7419 117.617 41.7494 117.603 41.7673C117.566 41.8176 117.528 41.8664 117.485 41.9121C116.928 42.1115 116.133 42.2554 115.567 42.0182C115.334 41.9205 115.298 41.8641 115.208 41.6311C114.491 39.7672 114.61 24.719 115.251 23.2374Z"></path>
<path fill="#8C8884" d="M68.3226 28.6958C69.0745 28.5419 70.0507 28.4162 70.8061 28.53C71.4363 28.9471 71.4792 29.3146 71.7247 30.0133C72.3608 30.1091 73.5843 28.9058 74.264 28.6613C75.4138 28.2477 77.228 28.5644 78.3122 29.0726C79.5604 29.6623 80.5196 30.7271 80.9758 32.0287C81.5304 33.5865 81.7069 37.1736 80.9805 38.687C81.2109 38.8016 81.4343 38.9439 81.6522 39.0802C82.2021 39.4247 82.6153 39.8332 82.7606 40.4946C82.902 41.1379 82.77 41.8668 82.4169 42.4164C80.4423 42.0736 79.8197 41.7811 78.327 40.4239C78.4122 39.4868 78.4895 38.2891 77.9896 37.4598C78.0364 37.3908 78.0794 37.3207 78.1177 37.2459C78.5153 36.4569 78.2942 34.2945 77.9982 33.4398C77.7529 32.7317 77.1913 32.156 76.5205 31.8354C75.6558 31.4216 74.6052 31.3993 73.7063 31.7167C69.7266 33.122 72.6296 39.1796 71.2518 42.0761C70.425 42.2237 69.5601 42.4498 68.819 41.9352C67.6944 40.0739 68.6748 31.5411 68.3226 28.6958Z"></path>
<path fill="#8C8884" d="M104.305 28.6974C105.89 28.4525 107.278 28.5719 108.765 29.1972C110.094 29.7561 112.362 31.3762 112.905 32.783C113.089 33.261 112.957 33.4975 112.759 33.9269C112.297 34.2492 110.517 33.9461 109.902 33.9034C109.887 33.8344 109.859 33.7784 109.825 33.717C109.12 32.4473 107.652 31.6634 106.31 31.2779C105.765 31.4288 105.185 31.5758 104.665 31.7989C103.677 32.223 102.586 33.2753 102.192 34.2845C101.887 35.0645 101.933 35.8656 102.269 36.6283C102.781 37.7938 103.807 38.718 104.99 39.1742C105.802 39.4876 106.782 39.6344 107.603 39.2632C108.067 39.0531 108.514 38.7208 108.701 38.2342C109.196 37.8865 109.802 37.55 110.079 36.9924C110.957 36.9382 111.98 36.7317 112.756 37.1698L112.775 37.5798C111.913 38.974 111.346 40.3708 109.863 41.2508C108.262 42.2011 106.241 42.3986 104.452 41.9436C102.613 41.4759 100.922 40.2763 99.9538 38.6354C99.0298 37.0688 98.9274 35.1831 99.3805 33.4472C100.061 30.8461 102.23 29.9072 104.305 28.6974Z"></path>
<path fill="#8C8884" d="M161.001 28.6976C161.593 28.6348 162.232 28.5444 162.827 28.5813C164.236 28.6686 165.994 29.7232 166.908 30.7589C167.227 31.12 167.445 31.4749 167.414 31.9743C167.268 32.2408 167.203 32.4525 166.932 32.6056C166.42 32.8942 165.396 32.7623 164.805 32.7486C164.79 32.6958 164.77 32.6442 164.747 32.5943C164.541 32.1606 163.608 31.3697 163.162 31.2002C162.613 30.992 161.998 31.0719 161.471 31.3039C160.926 31.5442 160.743 31.8743 160.539 32.4032C161.073 34.1675 164.578 34.0852 166.056 35.2161C166.855 35.8271 167.42 36.6445 167.547 37.6535C167.666 38.5957 167.352 39.5165 166.771 40.2575C165.875 41.4028 164.559 41.9538 163.15 42.1251C162.627 42.2723 162.032 42.1917 161.501 42.1174C159.97 41.903 158.629 40.9956 157.713 39.7692C157.331 39.258 157.135 38.8323 157.225 38.2004L157.62 37.9539C159.291 37.7855 160.939 39.0543 162.43 39.7114C162.916 39.5814 163.649 39.3875 164.045 39.0873C164.395 38.8231 164.416 38.6659 164.474 38.2614C163.934 37.0682 160.937 36.3925 159.758 35.8003C158.795 35.3172 157.807 34.5351 157.459 33.4781C157.208 32.7142 157.329 31.7948 157.69 31.084C158.335 29.8147 159.708 29.1202 161.001 28.6976Z"></path>
<path fill="#8C8884" d="M151.979 28.6974C152.975 28.4609 154.25 28.5541 155.247 28.7378C155.297 28.8508 155.342 28.9708 155.375 29.0904C155.644 30.0831 155.247 41.2592 154.839 41.958L154.765 42.0827C154.041 42.3607 152.884 42.2233 152.1 42.2293C152.191 42.0451 151.98 30.0495 151.979 28.6974Z"></path>
<path fill="#8C8884" d="M152.924 23.2373C153.384 23.1627 153.75 23.1443 154.173 23.366C154.736 23.6611 155.275 24.0956 155.461 24.7268C155.576 25.1146 155.578 25.5437 155.374 25.9017C155.034 26.4953 154.593 26.6945 153.958 26.8647C153.832 26.9996 153.496 27.0763 153.316 27.0905C153.041 27.112 152.802 27.073 152.597 26.8923C152.123 26.4741 151.969 26.0004 151.931 25.3899C151.871 24.4097 152.309 23.9349 152.924 23.2373Z"></path>
</g>
<defs>
<clipPath id="clip0_1307_29077">
<rect transform="translate(2 13)" fill="white" height="39" width="182"></rect>
</clipPath>
</defs>
</svg>
