<svg xmlns="http://www.w3.org/2000/svg" fill="none" viewBox="0 0 186 66" height="66" width="186">
<path fill="#8C8884" d="M134.585 24.1265C140.435 24.1265 146.42 27.9224 146.42 36.6313C146.42 45.3402 140.435 49.1812 134.585 49.1812C128.734 49.1811 122.75 45.3402 122.75 36.6313C122.75 27.9224 128.734 24.1265 134.585 24.1265ZM72.9219 23.7329C79.9784 23.7329 84.4004 29.2714 84.4004 36.3726C84.4004 36.7745 84.4001 37.132 84.3555 37.5786H66C66.4914 42.8038 69.8411 44.769 73.0566 44.769C76.4506 44.7689 78.4159 43.2952 79.3984 41.1069H84.0879C82.7927 45.573 78.7279 48.7886 73.1006 48.7886C65.4636 48.7885 61.042 43.4736 61.042 36.1938C61.042 28.6015 66.2675 23.7331 72.9219 23.7329ZM107.569 15.2476C113.509 15.2476 118.869 17.8827 120.119 24.314H115.072C114 20.8305 110.607 19.5348 107.347 19.5347C104.756 19.5347 100.826 20.6961 100.826 24.0903C100.826 26.636 102.97 27.9312 105.783 28.6011L109.669 29.4497C114.76 30.5662 120.744 32.3533 120.744 38.9185C120.744 45.3492 114.671 48.7884 108.195 48.7886C100.424 48.7886 95.4666 44.6348 94.5732 38.0698H99.6641C100.513 42.3125 103.55 44.5005 108.284 44.5005C112.616 44.5005 115.429 42.4911 115.43 39.4097C115.43 36.2834 112.616 34.8989 108.642 34.0503L104.667 33.2456C100.067 32.2631 95.5559 29.8518 95.5557 24.4927C95.5557 18.1062 102.031 15.2476 107.569 15.2476ZM41.1299 16.2212C51.4466 16.2212 59.039 20.0618 59.0391 32.3882C59.0391 44.7594 51.4467 48.6001 41.1299 48.6001H31.9297V16.2212H41.1299ZM154.348 48.6001H149.605V24.2397H154.348V48.6001ZM134.585 28.1011C131.056 28.1011 127.796 30.5128 127.796 36.6313C127.796 42.7498 131.056 45.1616 134.585 45.1616C138.113 45.1616 141.373 42.7499 141.373 36.6313C141.373 30.5127 138.113 28.1011 134.585 28.1011ZM37.1104 44.2241H41.041C47.5168 44.2241 53.6797 42.9281 53.6797 32.3882C53.6796 21.8932 47.5167 20.5982 41.041 20.5981H37.1104V44.2241ZM72.9219 27.6187C69.8404 27.6187 66.7586 29.0927 66.0439 33.9604H79.4873C79.2192 30.2091 76.6287 27.6187 72.9219 27.6187ZM152 14.8188C152.825 14.8188 153.528 15.0993 154.109 15.6597C154.701 16.2094 154.998 16.8754 154.998 17.6577C154.998 18.4295 154.701 19.0954 154.109 19.6558C153.528 20.2056 152.825 20.481 152 20.481C151.175 20.4809 150.467 20.2055 149.875 19.6558C149.293 19.0954 149.003 18.4294 149.003 17.6577C149.003 16.8755 149.293 16.2094 149.875 15.6597C150.467 15.0994 151.175 14.8189 152 14.8188Z"></path>
</svg>
