<svg xmlns="http://www.w3.org/2000/svg" fill="none" viewBox="0 0 186 66" height="66" width="186">
<mask height="42" width="95" y="12" x="45" maskUnits="userSpaceOnUse" style="mask-type:luminance" id="mask0_4532_197341">
<path fill="white" d="M140.002 12.968H45.0352V53.0321H140.002V12.968Z"></path>
</mask>
<g mask="url(#mask0_4532_197341)">
<mask height="39" width="26" y="13" x="45" maskUnits="userSpaceOnUse" style="mask-type:luminance" id="mask1_4532_197341">
<path fill="white" d="M45.0352 13.6709H70.6907V51.7041H45.0352V13.6709Z"></path>
</mask>
<g mask="url(#mask1_4532_197341)">
<path fill="#8C8884" d="M63.6653 43.5616C63.6653 44.859 62.5801 45.9112 61.2418 45.9112H54.484C53.1458 45.9112 52.0612 44.859 52.0612 43.5616V39.2008C52.0612 37.9034 53.1458 36.8512 54.484 36.8512H61.2418C62.5801 36.8512 63.6653 37.9034 63.6653 39.2008V43.5616ZM52.0612 21.799C52.0612 20.5008 53.1458 19.4493 54.484 19.4493H61.2418C62.5801 19.4493 63.6653 20.5008 63.6653 21.799V24.9542C63.6653 26.2524 62.5801 27.3039 61.2418 27.3039H54.484C53.1458 27.3039 52.0612 26.2524 52.0612 24.9542V21.799ZM70.6907 25.2136V20.1767C70.6907 16.5815 67.6887 13.6709 63.9806 13.6709H51.7459C48.0378 13.6709 45.0352 16.5815 45.0352 20.1767V25.2136C45.0352 27.862 46.6568 30.1182 48.9832 31.1374V32.0687C46.6568 33.0879 45.0352 35.3583 45.0352 37.9926V45.1978C45.0352 48.7931 48.0378 51.7044 51.7459 51.7044H63.9806C67.6887 51.7044 70.6907 48.7931 70.6907 45.1978V37.9926C70.6907 35.3583 69.0697 33.0879 66.7426 32.0687V31.1374C69.0697 30.1182 70.6907 27.848 70.6907 25.2136Z" clip-rule="evenodd" fill-rule="evenodd"></path>
</g>
<path fill="#8C8884" d="M103.418 48.9359H113.113V45.8664H106.716V43.5012H111.86V40.495H106.716V38.1291H113.113V35.0603H103.418V48.9359Z" clip-rule="evenodd" fill-rule="evenodd"></path>
<path fill="#8C8884" d="M123.133 23.499H119.769V17.9358H116.406V31.8113H119.769V26.5679H123.133V31.8113H126.497V17.9358H123.133V23.499Z" clip-rule="evenodd" fill-rule="evenodd"></path>
<path fill="#8C8884" d="M116.477 48.9359H126.171V45.8664H119.774V43.5012H124.919V40.495H119.774V38.1291H126.171V35.0603H116.477V48.9359Z" clip-rule="evenodd" fill-rule="evenodd"></path>
<path fill="#8C8884" d="M135.003 41.1351H132.497V38.0016H135.003C135.795 38.0016 136.388 38.2575 136.388 39.4728C136.388 40.6227 135.925 41.1351 135.003 41.1351ZM135.399 35.0601H129.199V48.9363H132.497V44.0126H135.399C136.981 44.0126 139.619 43.1172 139.619 39.5367C139.619 35.6997 137.047 35.0601 135.399 35.0601Z" clip-rule="evenodd" fill-rule="evenodd"></path>
<path fill="#8C8884" d="M108.165 26.5043H110.143C110.143 28.5504 109.418 29.0628 108.033 29.0628C106.517 29.0628 105.989 28.2313 105.989 26.5043V22.3482C105.989 21.1969 106.846 20.494 108.033 20.494C109.418 20.494 109.945 21.3255 109.945 22.3482H113.375C113.375 19.9823 111.727 17.6157 108.033 17.6157C104.274 17.6157 102.625 19.4067 102.625 22.3482V26.5043C102.625 28.8702 103.417 31.9397 108.033 31.9397C112.452 31.9397 113.441 29.318 113.441 26.633V23.9465H108.165V26.5043Z" clip-rule="evenodd" fill-rule="evenodd"></path>
<path fill="#8C8884" d="M84.5534 40.5592C82.9701 40.3041 82.5751 39.6005 82.5751 39.1527C82.5751 38.258 83.2347 37.8102 84.3555 37.8102C85.6089 37.8102 85.9381 38.577 85.9381 39.0248H89.1038C89.1038 37.4265 87.9824 34.7407 84.3555 34.7407C80.3329 34.7407 79.2773 37.2979 79.2773 39.2167C79.2773 41.4547 81.1245 42.8611 83.8278 43.2448C84.7513 43.3728 86.0699 43.6287 86.0699 44.78C86.0699 45.6747 85.5429 46.2504 84.3555 46.2504C83.5639 46.2504 82.5751 46.1225 82.5751 44.3962H79.2773C79.2773 46.1225 79.7391 49.1273 84.3555 49.1273C88.906 49.1273 89.4337 45.9945 89.4337 44.716C89.4337 42.0303 87.5872 41.0715 84.5534 40.5592Z" clip-rule="evenodd" fill-rule="evenodd"></path>
<path fill="#8C8884" d="M89.1711 28.6789H82.7736V26.3129H87.9177V23.3067H82.7736V20.9415H89.1711V17.8721H79.4766V31.7476H89.1711V28.6789Z" clip-rule="evenodd" fill-rule="evenodd"></path>
<path fill="#8C8884" d="M95.5665 35.0603H92.2695V48.9359H100.382V45.7384H95.5665V35.0603Z" clip-rule="evenodd" fill-rule="evenodd"></path>
<path fill="#8C8884" d="M132.498 31.8113H135.927V21.1332H138.96V17.9358H129.398V21.1332H132.498V31.8113Z" clip-rule="evenodd" fill-rule="evenodd"></path>
<path fill="#8C8884" d="M94.5773 28.8065H92.2691V31.8113H100.248V28.8065H97.875V20.942H100.182V17.9358H92.2031V20.942H94.5773V28.8065Z" clip-rule="evenodd" fill-rule="evenodd"></path>
</g>
</svg>
