<svg xmlns="http://www.w3.org/2000/svg" fill="none" viewBox="0 0 60 60" height="60" width="60">
<path fill="#161616" d="M9.73706 42.6646L29.9041 54.6167V46.6382L9.73706 20.4214V42.6646ZM31.4041 46.8091V54.6157L51.571 42.6646V34.8589L31.4041 46.8091ZM10.0974 18.4292L30.8435 45.3979L51.2097 33.3286L30.4646 6.35986L10.0974 18.4292ZM53.071 43.52L30.6541 56.8042L8.23706 43.52V17.7886L30.8435 4.39209L52.9148 33.0864L53.071 33.2886V43.52Z"></path>
<path fill="#E6E3E0" d="M43.2006 25.6523L25.251 35.8441L34.1899 36.6781L43.2006 25.6523Z"></path>
<path fill="#D6CFC7" d="M27.3845 21.9932C23.6206 29.3137 32.2555 42.4121 17.2008 33.0269C12.2575 30.4853 11.3014 22.4904 15.0653 15.1699C18.8292 7.84946 25.8877 3.97543 30.831 6.51706C45.3665 12.9238 31.1483 14.6727 27.3845 21.9932Z"></path>
<path fill="#57534E" d="M14.3985 14.8268C16.3396 11.0516 19.1446 8.13419 22.1454 6.48723C25.1371 4.84536 28.4042 4.43294 31.1617 5.84454C32.9863 6.65007 34.3903 7.39367 35.4318 8.10046C36.4705 8.80544 37.2031 9.50788 37.6111 10.2455C38.0392 11.0195 38.0898 11.7984 37.8293 12.5462C37.5833 13.2521 37.0771 13.8809 36.4937 14.4498C35.9042 15.0245 35.1749 15.5943 34.4124 16.1677C33.6366 16.751 32.8281 17.3367 32.02 17.976C30.4038 19.2546 28.9163 20.6551 28.0518 22.3365C27.1998 23.9938 27.0278 26.0276 27.0722 28.1095C27.0943 29.1457 27.1681 30.1582 27.2264 31.1305C27.2838 32.0877 27.3269 33.0163 27.2751 33.8228C27.2244 34.6136 27.0774 35.4025 26.6679 36.0098C26.2179 36.6769 25.521 37.0264 24.6266 37.0412C23.7841 37.0551 22.7544 36.7767 21.5081 36.2361C20.2512 35.6909 18.7085 34.8501 16.8169 33.6714C14.0827 32.2446 12.527 29.3561 12.1232 25.9796C11.7167 22.5807 12.4574 18.6021 14.3985 14.8268ZM15.7325 15.5127C13.9098 19.0578 13.2464 22.7371 13.6128 25.8012C13.9799 28.8705 15.3608 31.2372 17.544 32.3597L17.5718 32.374L17.5974 32.3905C19.4636 33.5538 20.9405 34.3545 22.1049 34.8596C23.2824 35.3703 24.0778 35.5501 24.6016 35.5415C25.0734 35.5337 25.2841 35.3792 25.4247 35.1708C25.6057 34.9023 25.7325 34.4439 25.7786 33.7265C25.8236 33.0248 25.7872 32.1833 25.7295 31.2207C25.6727 30.2734 25.5962 29.2157 25.5733 28.1415C25.5277 26.002 25.6881 23.6535 26.7178 21.6506C27.7351 19.6719 29.4359 18.1078 31.0898 16.7994C31.9166 16.1453 32.7639 15.5313 33.5108 14.9696C34.2709 14.398 34.9325 13.8775 35.447 13.3758C35.9674 12.8684 36.2796 12.4346 36.4128 12.0528C36.5313 11.7126 36.522 11.3767 36.2979 10.9714C36.0535 10.5298 35.5403 9.98731 34.5893 9.34185C33.6463 8.70187 32.3238 7.9948 30.5288 7.2036L30.5083 7.1942L30.4884 7.18392C28.3051 6.0614 25.5768 6.3153 22.8669 7.80258C20.1617 9.2873 17.5553 11.9676 15.7325 15.5127Z"></path>
<path fill="#57534E" d="M31.3723 8.47168L30.7229 9.82422L24.55 6.86035L25.1985 5.50879L31.3723 8.47168Z"></path>
<path fill="#57534E" d="M28.2864 10.3237L27.637 11.6763L21.4641 8.7124L22.1125 7.36084L28.2864 10.3237Z"></path>
<path fill="#57534E" d="M25.6321 12.6206L24.9827 13.9731L18.8098 11.0093L19.4583 9.65771L25.6321 12.6206Z"></path>
<path fill="#57534E" d="M23.0393 15.3223L22.3899 16.6748L16.217 13.7109L16.8655 12.3594L23.0393 15.3223Z"></path>
<path fill="#57534E" d="M20.9641 18.5815L20.3147 19.9341L14.1418 16.9702L14.7903 15.6187L20.9641 18.5815Z"></path>
<path fill="#57534E" d="M19.9514 22.2686L19.302 23.6211L13.1292 20.6572L13.7776 19.3057L19.9514 22.2686Z"></path>
<path fill="#57534E" d="M19.2258 25.9951L18.8831 26.6621L18.5393 27.3291L12.1848 24.0576L12.8704 22.7236L19.2258 25.9951Z"></path>
<path fill="#57534E" d="M19.4895 29.9346L18.7786 31.2559L12.6047 27.9326L13.3157 26.6123L19.4895 29.9346Z"></path>
<path fill="#D6CFC7" d="M38.416 27.3093C34.692 34.6502 27.8212 38.647 23.0697 36.2366C18.3183 33.8262 17.4854 25.9212 21.2094 18.5803C24.9335 11.2395 31.8042 7.24262 36.5557 9.65307C41.3072 12.0635 42.1401 19.9685 38.416 27.3093Z"></path>
<path fill="#57534E" d="M37.7472 26.9698C39.5536 23.4091 40.238 19.7416 39.9186 16.7103C39.5983 13.6706 38.2898 11.3737 36.2169 10.322C34.1438 9.27028 31.517 9.57069 28.8747 11.1077C26.24 12.6404 23.6848 15.3588 21.8785 18.9195C20.0721 22.4802 19.3877 26.1477 19.7071 29.179C20.0274 32.219 21.3365 34.5161 23.4096 35.5678C25.4827 36.6192 28.1089 36.3185 30.751 34.7816C33.3857 33.2489 35.9409 30.5305 37.7472 26.9698ZM39.0849 27.6484C37.1673 31.4284 34.4254 34.3795 31.506 36.0779C28.5943 37.7717 25.4092 38.2639 22.731 36.9055C20.0527 35.5468 18.569 32.686 18.216 29.3358C17.8621 25.9768 18.6231 22.021 20.5408 18.2409C22.4585 14.4607 25.201 11.5102 28.1206 9.81186C31.0324 8.11798 34.2173 7.62557 36.8956 8.98427C39.5736 10.343 41.0576 13.2039 41.4106 16.5539C41.7644 19.9129 41.0025 23.8684 39.0849 27.6484Z"></path>
<path fill="black" d="M34.1841 23.2403C34.1841 25.0129 33.0584 27.0809 30.7922 28.4906V29.9593L29.915 30.4658V28.9633C27.8828 29.9002 26.3331 29.4276 26.2307 27.0387L27.722 26.1778C27.8389 27.579 28.57 28.0517 29.915 27.4777V23.4429C29.9004 23.4513 29.8858 23.4429 29.8712 23.4513C28.3507 23.8565 26.6401 24.1181 26.6401 22.0923C26.6401 20.1846 27.8974 18.2094 29.915 16.9602V15.7615L30.7922 15.2551V16.5043C32.5613 15.7362 33.804 16.3018 33.921 18.412L32.4297 19.273C32.2981 18.0828 31.7426 17.6776 30.7922 18.0068V21.6027C32.7952 21.1216 34.1841 20.9106 34.1841 23.2403ZM28.146 21.0541C28.146 22.0501 28.8624 22.0248 29.915 21.8053V18.4458C28.8331 19.1379 28.146 20.1087 28.146 21.0541ZM30.7922 23.2234V27.0219C32.1812 26.1356 32.6783 25.1395 32.6783 24.1604C32.6783 23.0461 32.0642 22.9448 30.7922 23.2234Z"></path>
<path fill="#D6CFC7" d="M36.3808 29.9932C32.6169 37.3137 41.2518 50.4121 26.1971 41.0269C21.2538 38.4853 20.2977 30.4904 24.0616 23.1699C27.8255 15.8495 34.8841 11.9754 39.8274 14.5171C54.3628 20.9238 40.1447 22.6727 36.3808 29.9932Z"></path>
<path fill="#57534E" d="M23.3946 22.8268C25.3357 19.0516 28.1406 16.1342 31.1415 14.4872C34.1332 12.8454 37.4003 12.4329 40.1577 13.8445C41.9824 14.6501 43.3864 15.3937 44.4279 16.1005C45.4666 16.8054 46.1992 17.5079 46.6072 18.2455C47.0352 19.0195 47.0859 19.7984 46.8254 20.5462C46.5794 21.2521 46.0732 21.8809 45.4897 22.4498C44.9003 23.0245 44.171 23.5943 43.4085 24.1677C42.6327 24.751 41.8242 25.3367 41.016 25.976C39.3999 27.2546 37.9124 28.6551 37.0479 30.3365C36.1959 31.9938 36.0239 34.0276 36.0683 36.1095C36.0904 37.1457 36.1642 38.1582 36.2225 39.1305C36.2799 40.0877 36.323 41.0163 36.2712 41.8228C36.2205 42.6136 36.0735 43.4025 35.664 44.0098C35.2139 44.6769 34.5171 45.0264 33.6227 45.0412C32.7802 45.0551 31.7505 44.7767 30.5042 44.2361C29.2473 43.6909 27.7046 42.8501 25.813 41.6714C23.0788 40.2446 21.5231 37.3561 21.1193 33.9796C20.7128 30.5807 21.4535 26.6021 23.3946 22.8268ZM24.7286 23.5127C22.9059 27.0578 22.2425 30.7371 22.6089 33.8012C22.976 36.8705 24.3569 39.2372 26.5401 40.3597L26.5679 40.374L26.5935 40.3905C28.4597 41.5538 29.9366 42.3545 31.101 42.8596C32.2785 43.3703 33.0739 43.5501 33.5977 43.5415C34.0695 43.5337 34.2802 43.3792 34.4208 43.1708C34.6018 42.9023 34.7286 42.4439 34.7747 41.7265C34.8197 41.0248 34.7833 40.1833 34.7256 39.2207C34.6688 38.2734 34.5923 37.2157 34.5694 36.1415C34.5238 34.002 34.6842 31.6535 35.7139 29.6506C36.7312 27.6719 38.432 26.1078 40.0859 24.7994C40.9127 24.1453 41.76 23.5313 42.5069 22.9696C43.267 22.398 43.9286 21.8775 44.4431 21.3758C44.9635 20.8684 45.2757 20.4346 45.4089 20.0528C45.5274 19.7126 45.5181 19.3767 45.2939 18.9714C45.0496 18.5298 44.5364 17.9873 43.5854 17.3418C42.6423 16.7019 41.3199 15.9948 39.5249 15.2036L39.5044 15.1942L39.4845 15.1839C37.3012 14.0614 34.5729 14.3153 31.863 15.8026C29.1578 17.2873 26.5514 19.9676 24.7286 23.5127Z"></path>
<path fill="#57534E" d="M40.3687 16.4717L39.7192 17.8242L33.5464 14.8604L34.1948 13.5088L40.3687 16.4717Z"></path>
<path fill="#57534E" d="M37.2827 18.3237L36.6333 19.6763L30.4604 16.7124L31.1089 15.3608L37.2827 18.3237Z"></path>
<path fill="#57534E" d="M34.6284 20.6206L33.979 21.9731L27.8062 19.0093L28.4546 17.6577L34.6284 20.6206Z"></path>
<path fill="#57534E" d="M32.0356 23.3223L31.3862 24.6748L25.2134 21.7109L25.8618 20.3594L32.0356 23.3223Z"></path>
<path fill="#57534E" d="M29.9604 26.5815L29.311 27.9341L23.1382 24.9702L23.7866 23.6187L29.9604 26.5815Z"></path>
<path fill="#57534E" d="M28.9478 30.2686L28.2983 31.6211L22.1255 28.6572L22.7739 27.3057L28.9478 30.2686Z"></path>
<path fill="#57534E" d="M28.2222 33.9951L27.8794 34.6621L27.5356 35.3291L21.1812 32.0576L21.8667 30.7236L28.2222 33.9951Z"></path>
<path fill="#57534E" d="M28.4858 37.9346L27.7749 39.2559L21.6011 35.9326L22.312 34.6123L28.4858 37.9346Z"></path>
<path fill="#D6CFC7" d="M47.4123 35.3093C43.6883 42.6502 36.8175 46.647 32.0661 44.2366C27.3146 41.8262 26.4817 33.9212 30.2058 26.5803C33.9298 19.2395 40.8006 15.2426 45.552 17.6531C50.3035 20.0635 51.1364 27.9685 47.4123 35.3093Z"></path>
<path fill="#57534E" d="M46.7433 34.9698C48.5497 31.4091 49.2341 27.7416 48.9147 24.7103C48.5944 21.6706 47.2859 19.3737 45.213 18.322C43.1399 17.2703 40.5131 17.5707 37.8708 19.1077C35.2361 20.6404 32.6809 23.3588 30.8746 26.9195C29.0682 30.4802 28.3838 34.1477 28.7032 37.179C29.0235 40.219 30.3326 42.5161 32.4057 43.5678C34.4788 44.6192 37.105 44.3185 39.7471 42.7816C42.3818 41.2489 44.937 38.5305 46.7433 34.9698ZM48.081 35.6484C46.1634 39.4284 43.4215 42.3795 40.5021 44.0779C37.5904 45.7717 34.4053 46.2639 31.7271 44.9055C29.0488 43.5468 27.5651 40.686 27.2121 37.3358C26.8582 33.9768 27.6192 30.021 29.5369 26.2409C31.4546 22.4607 34.1971 19.5102 37.1167 17.8119C40.0285 16.118 43.2134 15.6256 45.8917 16.9843C48.5697 18.343 50.0537 21.2039 50.4067 24.5539C50.7605 27.9129 49.9986 31.8684 48.081 35.6484Z"></path>
<path fill="black" d="M43.1805 31.2403C43.1805 33.0129 42.0547 35.0809 39.7886 36.4906V37.9593L38.9114 38.4658V36.9633C36.8791 37.9002 35.3294 37.4276 35.2271 35.0387L36.7183 34.1778C36.8353 35.579 37.5663 36.0517 38.9114 35.4777V31.4429C38.8967 31.4513 38.8821 31.4429 38.8675 31.4513C37.347 31.8565 35.6364 32.1181 35.6364 30.0923C35.6364 28.1846 36.8938 26.2094 38.9114 24.9602V23.7615L39.7886 23.2551V24.5043C41.5576 23.7362 42.8004 24.3018 42.9173 26.412L41.4261 27.273C41.2945 26.0828 40.7389 25.6776 39.7886 26.0068V29.6027C41.7916 29.1216 43.1805 28.9106 43.1805 31.2403ZM37.1423 29.0541C37.1423 30.0501 37.8587 30.0248 38.9114 29.8053V26.4458C37.8295 27.1379 37.1423 28.1087 37.1423 29.0541ZM39.7886 31.2234V35.0219C41.1775 34.1356 41.6746 33.1395 41.6746 32.1604C41.6746 31.0461 41.0605 30.9448 39.7886 31.2234Z"></path>
<path fill="#E0DCD8" d="M9.53658 18.9308L30.6539 46.3833L51.8579 33.818C52.0622 33.6969 52.3207 33.8442 52.3207 34.0817L52.3207 42.9185C52.3207 43.0267 52.2636 43.127 52.1704 43.1822L30.6539 55.9327L9.13733 43.1822C9.04418 43.127 8.98706 43.0267 8.98706 42.9185V19.1177C8.98706 18.825 9.35812 18.6988 9.53658 18.9308Z"></path>
<path fill="#161616" d="M9.73706 42.6655L29.9041 54.6167V46.6382L9.73706 20.4214V42.6655ZM31.4041 46.8101V54.6157L51.571 42.6645V34.8589L31.4041 46.8101ZM53.071 42.9185C53.071 43.2916 52.8735 43.6374 52.5525 43.8276L30.6541 56.8042L8.75464 43.8276C8.43368 43.6374 8.23709 43.2916 8.23706 42.9185V19.1177C8.23706 18.109 9.5154 17.674 10.1306 18.4731L30.8425 45.3979L51.4753 33.1724C52.1796 32.755 53.071 33.2629 53.071 34.0815V42.9185Z"></path>
</svg>
