<svg width="32" height="32" viewBox="0 0 32 32" fill="none" xmlns="http://www.w3.org/2000/svg">
<path d="M16.0303 16.127L8.14715 11.5756V20.6783L16.0303 25.2296V16.127Z" fill="#E0DCD8"/>
<path d="M15.5971 22.7043V24.4797L14.0596 23.592V24.592L16.4631 25.9797V23.2043L15.5971 22.7043ZM7.71408 18.1531V20.9285L10.1176 22.3162V21.3162L8.5801 20.4285V18.6531L7.71408 18.1531ZM14.0596 14.4895V15.4895L15.5971 16.3772V18.1526L16.4631 18.6526V15.8772L14.0596 14.4895ZM7.71408 10.8259V13.6013L8.5801 14.1013V12.3259L10.1176 13.2136V12.2136L7.71408 10.8259Z" fill="#8B8682"/>
<path d="M23.9131 11.5957L16.03 7.04438L8.14685 11.5957L16.03 16.147L23.9131 11.5957Z" fill="#E0DCD8"/>
<path d="M17.568 14.7595L16.0305 15.6472L14.493 14.7595L13.6269 15.2595L16.0305 16.6472L18.434 15.2595L17.568 14.7595ZM9.68499 10.2083L7.28143 11.5959L9.68499 12.9836L10.551 12.4836L9.01348 11.5959L10.551 10.7083L9.68499 10.2083ZM22.376 10.2083L21.51 10.7083L23.0475 11.5959L21.51 12.4836L22.376 12.9836L24.7795 11.5959L22.376 10.2083ZM16.0305 6.54468L13.6269 7.93237L14.493 8.43237L16.0305 7.54468L17.568 8.43237L18.434 7.93237L16.0305 6.54468Z" fill="#8B8682"/>
<path d="M23.8564 11.6035L15.9733 16.1548V25.2575L23.8564 20.7062V11.6035Z" fill="#E0DCD8"/>
<path d="M23.4235 18.6807V20.4561L21.886 21.3438V22.3438L24.2896 20.9561V18.1807L23.4235 18.6807ZM15.5405 23.2319V26.0073L17.9441 24.6196V23.6196L16.4065 24.5073V22.7319L15.5405 23.2319ZM21.886 12.2412V13.2412L23.4235 12.3535V14.1289L24.2896 13.6289V10.8535L21.886 12.2412ZM15.5405 15.9048V18.6802L16.4065 18.1802V16.4048L17.9441 15.5171V14.5171L15.5405 15.9048Z" fill="#8B8682"/>
<path d="M16.7803 16.6592V29.291L27.8008 22.7607V10.1279L16.7803 16.6592ZM29.3008 23.6152L16.0303 31.4795L9.3877 27.543C9.03142 27.3318 8.91401 26.8719 9.125 26.5156C9.33612 26.1594 9.79604 26.041 10.1523 26.252L15.2803 29.29V16.6582C15.0634 16.5297 14.7566 16.3488 14.3789 16.125C13.5872 15.6558 12.4808 15.0001 11.2217 14.2539C9.07738 12.9832 6.49008 11.4496 4.25977 10.1279V22.7627L5.05469 23.2402C5.40987 23.4533 5.52561 23.9143 5.3125 24.2695C5.09937 24.6247 4.63836 24.7395 4.2832 24.5264L2.75977 23.6123V8.38477L16.0303 0.520508L22.6729 4.45703C23.0292 4.66818 23.1466 5.12804 22.9355 5.48438C22.7244 5.8407 22.2645 5.95917 21.9082 5.74805L16.0303 2.26465L4.98047 8.81152C7.22069 10.1391 9.82793 11.6848 11.9863 12.9639C13.2455 13.71 14.3519 14.3658 15.1436 14.835C15.513 15.0539 15.8144 15.2324 16.0303 15.3604L27.0791 8.81152L26.6035 8.53027C26.2472 8.31911 26.1297 7.8583 26.3408 7.50195C26.552 7.14598 27.012 7.02837 27.3682 7.23926L29.3008 8.38477V23.6152Z" fill="#161616"/>
<path d="M10.2059 26.103C10.2059 27.1274 9.37544 27.9579 8.351 27.9579C7.32657 27.9579 6.49609 27.1274 6.49609 26.103C6.49609 25.0785 7.32657 24.248 8.351 24.248C9.37544 24.248 10.2059 25.0785 10.2059 26.103Z" fill="#161616"/>
<path d="M24.9999 5.57952C24.9999 6.60396 24.1694 7.43443 23.1449 7.43443C22.1205 7.43443 21.29 6.60396 21.29 5.57952C21.29 4.55508 22.1205 3.72461 23.1449 3.72461C24.1694 3.72461 24.9999 4.55508 24.9999 5.57952Z" fill="#161616"/>
</svg>
