<svg xmlns="http://www.w3.org/2000/svg" fill="none" viewBox="0 0 186 66" height="66" width="186">
<g clip-path="url(#clip0_4532_197694)">
<mask height="30" width="137" y="18" x="24" maskUnits="userSpaceOnUse" style="mask-type:luminance" id="mask0_4532_197694">
<path fill="white" d="M161 18.1086H24V47.8913H161V18.1086Z"></path>
</mask>
<g mask="url(#mask0_4532_197694)">
<mask height="30" width="137" y="18" x="24" maskUnits="userSpaceOnUse" style="mask-type:luminance" id="mask1_4532_197694">
<path fill="white" d="M161 18.1086H24V47.8913H161V18.1086Z"></path>
</mask>
<g mask="url(#mask1_4532_197694)">
<path fill="#8C8884" d="M37.7673 18.9597C39.4691 18.9597 44.5747 21.087 44.5747 27.0436C44.5747 33.0001 39.4691 35.5529 37.7673 35.5529H30.5343V43.7323C30.5343 43.7627 30.5182 43.7911 30.4919 43.8062L24.4714 47.2814C24.3297 47.3633 24.1526 47.2614 24.1523 47.0978V19.3852C24.1523 19.1502 24.3428 18.9597 24.5778 18.9597H37.7673ZM30.5742 33.8718H34.4034C35.2543 33.8718 37.8071 32.5954 37.8071 27.0643C37.8071 21.5333 34.5521 20.257 34.4034 20.2569H30.5742V33.8718Z"></path>
<path fill="#8C8884" d="M64.5654 18.9597C64.7315 18.9597 64.8824 19.0565 64.9518 19.2074L76.294 43.8844C76.4235 44.1662 76.2177 44.4877 75.9076 44.4877H69.6112C69.4474 44.4877 69.2979 44.3935 69.2272 44.2458L66.6354 38.827C66.5647 38.6795 66.4159 38.5853 66.2523 38.5852H55.3555C55.0476 38.5852 54.8416 38.9022 54.9666 39.1835L57.0599 43.8894C57.1848 44.1707 56.9788 44.4877 56.671 44.4877H50.3796C50.0712 44.4877 49.8646 44.1692 49.9907 43.8877L61.0412 19.2115C61.1097 19.0585 61.2617 18.9598 61.4292 18.9597H64.5654ZM55.4735 36.6863H65.6465L60.6166 25.1738L55.4735 36.6863Z"></path>
<path fill="#8C8884" d="M91.8975 44.4868C91.7313 44.4868 91.5797 44.3902 91.5103 44.2392L80.1682 19.563C80.0386 19.2811 80.2452 18.9597 80.5553 18.9597H86.841C87.01 18.9597 87.1637 19.06 87.2315 19.2148L95.7035 38.5694L101.687 25.0342C101.735 24.9244 101.735 24.7991 101.686 24.6894L99.4031 19.558C99.2779 19.2767 99.4841 18.9597 99.792 18.9597H106.083C106.392 18.9597 106.598 19.2774 106.472 19.5589L95.4217 44.2359C95.3532 44.3888 95.2011 44.4866 95.0337 44.4868H91.8975Z"></path>
<path fill="#8C8884" d="M128.24 18.1086C131.963 18.1086 136.137 19.0688 138.77 21.6221C141.403 24.1754 142.28 28.1126 142.28 31.7235C142.28 35.3344 141.403 39.7105 138.77 42.2638C136.301 44.6575 132.479 45.2652 128.942 45.3318L128.24 45.3385C124.516 45.3385 120.342 44.8171 117.709 42.2638C115.077 39.7105 114.199 35.3344 114.199 31.7235C114.199 28.1126 115.077 24.1754 117.709 21.6221C120.342 19.0688 124.516 18.1086 128.24 18.1086ZM128.24 19.8105C124.48 19.8105 121.432 25.1442 121.432 31.7235C121.432 38.303 124.48 43.6366 128.24 43.6366C131.999 43.6366 135.047 38.303 135.047 31.7235C135.047 25.1442 131.999 19.8105 128.24 19.8105Z"></path>
<path fill="#8C8884" d="M151.411 18.9597H159.525C160.181 18.9597 160.59 19.6688 160.262 20.2361L158.6 23.1156C158.562 23.1803 158.543 23.2537 158.543 23.3284V40.119C158.543 40.1937 158.562 40.267 158.6 40.3317L160.262 43.2113C160.59 43.7786 160.181 44.4877 159.525 44.4877H151.411C150.756 44.4877 150.346 43.7786 150.674 43.2113L152.337 40.3317C152.374 40.267 152.394 40.1937 152.394 40.119V23.3284C152.394 23.2537 152.374 23.1803 152.337 23.1156L150.674 20.2361C150.346 19.6688 150.756 18.9597 151.411 18.9597Z"></path>
</g>
</g>
</g>
<defs>
<clipPath id="clip0_4532_197694">
<rect transform="translate(24 18.1086)" fill="white" height="29.7826" width="137"></rect>
</clipPath>
</defs>
</svg>
