<svg xmlns="http://www.w3.org/2000/svg" fill="none" viewBox="0 0 186 66" height="66" width="186">
<mask height="35" width="154" y="15" x="16" maskUnits="userSpaceOnUse" style="mask-type:luminance" id="mask0_4532_197653">
<path fill="white" d="M170 15.9971H16V49.1154H170V15.9971Z"></path>
</mask>
<g mask="url(#mask0_4532_197653)">
<path fill="#8C8884" d="M42.3793 46.8183V46.8052C42.3737 46.499 42.4313 46.1948 42.5481 45.9111C42.6651 45.6273 42.8394 45.3698 43.0601 45.1542C43.2811 44.9386 43.5439 44.7692 43.833 44.6564C44.122 44.5435 44.4313 44.4895 44.7422 44.4975C45.0735 44.4804 45.4046 44.5332 45.7138 44.6523C46.0227 44.7713 46.3024 44.9542 46.534 45.188L45.9001 45.9072C45.5954 45.5959 45.1788 45.4146 44.7399 45.4021C43.9761 45.4021 43.4274 46.0287 43.4274 46.7941V46.8052C43.4274 47.5729 43.9628 48.2084 44.7399 48.2084C44.9644 48.2066 45.1859 48.1593 45.3911 48.0694C45.5961 47.9793 45.7802 47.8488 45.9315 47.6853L46.5654 48.3164C46.3375 48.5797 46.0514 48.7886 45.7294 48.927C45.4073 49.0654 45.0573 49.1297 44.7062 49.115C44.3992 49.1199 44.0943 49.0636 43.8096 48.9499C43.525 48.8359 43.2667 48.6667 43.0499 48.4525C42.8332 48.2382 42.6624 47.9829 42.5479 47.7023C42.4336 47.4214 42.3777 47.1209 42.3837 46.8183"></path>
<path fill="#8C8884" d="M53.3935 46.8197V46.8066C53.3996 46.6249 53.3688 46.4437 53.3028 46.2739C53.2366 46.1043 53.1365 45.9494 53.0085 45.8185C52.8804 45.6878 52.727 45.5834 52.5572 45.5122C52.3875 45.4408 52.205 45.4038 52.0204 45.4033C51.8371 45.4027 51.6554 45.4385 51.4864 45.5087C51.3173 45.5792 51.1647 45.6826 51.0375 45.8127C50.91 45.9428 50.8109 46.0968 50.7458 46.2658C50.6807 46.4347 50.6511 46.6148 50.6586 46.7954V46.8066C50.6525 46.9883 50.6833 47.1696 50.7495 47.3394C50.8157 47.5092 50.916 47.6642 51.0444 47.7951C51.1726 47.926 51.3264 48.0301 51.4964 48.1013C51.6664 48.1726 51.849 48.2093 52.0338 48.2095C52.2169 48.2103 52.3984 48.1745 52.5671 48.1042C52.7357 48.034 52.8883 47.9308 53.0152 47.801C53.1424 47.6711 53.2414 47.5171 53.3065 47.3485C53.3713 47.1798 53.401 47 53.3935 46.8197ZM49.6172 46.8197V46.8066C49.6347 46.1896 49.8955 45.6038 50.3443 45.173C50.7928 44.7424 51.3942 44.5008 52.0205 44.4993C52.6471 44.4979 53.2495 44.7368 53.7001 45.1655C54.1508 45.594 54.4143 46.1786 54.4349 46.7954V46.8066C54.4176 47.4233 54.1571 48.0093 53.7088 48.4401C53.2602 48.8711 52.6591 49.1131 52.0325 49.1148C51.4061 49.1166 50.8034 48.8779 50.3527 48.4496C49.9017 48.0211 49.638 47.4364 49.6172 46.8197Z"></path>
<path fill="#8C8884" d="M57.9141 44.5732H61.3656V45.4666H58.9108V46.4174H61.0745V47.311H58.9108V49.0406H57.9141V44.5732Z"></path>
<path fill="#8C8884" d="M64.7578 44.5732H68.2093V45.4666H65.7546V46.4174H67.916V47.311H65.7546V49.0406H64.7578V44.5732Z"></path>
<path fill="#8C8884" d="M71.6016 44.5732H75.0192V45.4468H72.5914V46.3535H74.7305V47.2272H72.5914V48.167H75.0529V49.0406H71.6016V44.5732Z"></path>
<path fill="#8C8884" d="M78.5234 44.5732H81.9415V45.4468H79.5135V46.3535H81.6502V47.2272H79.5135V48.167H81.975V49.0406H78.5234V44.5732Z"></path>
<path fill="#8C8884" d="M92.0002 46.7434C92.4886 46.7434 92.7641 46.4875 92.7641 46.1102V46.0993C92.7641 45.6779 92.4684 45.4617 91.9823 45.4617H90.9967V46.7434H92.0002ZM89.9844 44.5749H92.0539C92.2938 44.5599 92.534 44.5922 92.761 44.6698C92.988 44.7473 93.1968 44.8688 93.3755 45.0271C93.5062 45.1628 93.608 45.3229 93.675 45.4979C93.742 45.6729 93.7726 45.8594 93.7651 46.0463V46.0617C93.7789 46.3653 93.6913 46.6648 93.5156 46.9147C93.3402 47.1646 93.0863 47.3507 92.7931 47.445L93.9085 49.0445H92.7439L91.7741 47.6148H90.9967V49.0445H90.0002L89.9844 44.5749Z"></path>
<path fill="#8C8884" d="M100.848 46.8197V46.8066C100.855 46.6249 100.824 46.4439 100.759 46.2741C100.692 46.1045 100.592 45.9496 100.465 45.8187C100.337 45.6878 100.183 45.5836 100.014 45.5122C99.8447 45.4408 99.6616 45.4038 99.478 45.4033C99.2941 45.4029 99.1128 45.4391 98.9438 45.5095C98.7755 45.58 98.6229 45.6833 98.4958 45.8135C98.369 45.9436 98.2698 46.0976 98.205 46.2662C98.1399 46.4351 98.1105 46.6152 98.118 46.7954V46.8066C98.1114 46.9881 98.1418 47.1691 98.2079 47.3386C98.2737 47.5084 98.3734 47.6634 98.5014 47.7943C98.6292 47.9252 98.7827 48.0293 98.9521 48.1008C99.1218 48.1722 99.3039 48.2091 99.4886 48.2095C99.6724 48.212 99.8547 48.1772 100.024 48.1075C100.193 48.0378 100.346 47.9346 100.474 47.8045C100.601 47.6742 100.7 47.5196 100.764 47.3502C100.829 47.1808 100.857 47.0002 100.848 46.8197ZM97.0742 46.8197V46.8066C97.0919 46.1896 97.3526 45.6038 97.8013 45.173C98.25 44.7424 98.8512 44.5008 99.478 44.4993C100.104 44.4979 100.706 44.7368 101.157 45.1655C101.608 45.594 101.872 46.1786 101.892 46.7954V46.8066C101.875 47.4233 101.614 48.0093 101.166 48.4401C100.717 48.8711 100.116 49.1131 99.4895 49.1148C98.8627 49.1166 98.2606 48.8779 97.8098 48.4496C97.3587 48.0211 97.095 47.4364 97.0742 46.8197Z"></path>
<path fill="#8C8884" d="M107.68 47.1699L107.078 45.7227L106.475 47.1699H107.68ZM106.63 44.5425H107.551L109.492 49.0451H108.45L108.036 48.0414H106.119L105.707 49.0451H104.688L106.63 44.5425Z"></path>
<path fill="#8C8884" d="M112.406 48.383L112.995 47.6859C113.362 48.0197 113.839 48.2122 114.339 48.2284C114.746 48.2284 114.993 48.0696 114.993 47.8072V47.7939C114.993 47.5468 114.838 47.4189 114.079 47.2268C113.167 47.0064 112.576 46.7483 112.576 45.8635V45.8502C112.576 45.0385 113.248 44.5024 114.161 44.5024C114.777 44.4916 115.376 44.6937 115.854 45.0737L115.336 45.8129C114.998 45.5524 114.588 45.3986 114.16 45.3717C113.774 45.3717 113.575 45.5436 113.575 45.7598V45.7731C113.575 46.0664 113.77 46.1613 114.554 46.36C115.472 46.596 115.99 46.9204 115.99 47.699V47.7212C115.99 48.6036 115.304 49.1045 114.325 49.1045C113.617 49.1039 112.934 48.8471 112.406 48.383Z"></path>
<path fill="#8C8884" d="M120.411 45.4799H119.031V44.5732H122.788V45.4799H121.41V49.0406H120.411V45.4799Z"></path>
<path fill="#8C8884" d="M126.148 44.5732H129.569V45.4468H127.139V46.3535H129.277V47.2272H127.139V48.167H129.603V49.0406H126.148V44.5732Z"></path>
<path fill="#8C8884" d="M135.089 46.7435C135.578 46.7435 135.854 46.4875 135.854 46.1104V46.0994C135.854 45.6778 135.556 45.4616 135.072 45.4616H134.079V46.7435H135.089ZM133.074 44.5748H135.146C135.385 44.56 135.626 44.5923 135.853 44.6699C136.08 44.7477 136.288 44.8691 136.467 45.0272C136.597 45.1629 136.699 45.323 136.765 45.498C136.832 45.6732 136.862 45.8595 136.855 46.0463V46.0619C136.869 46.365 136.782 46.6646 136.606 46.9144C136.431 47.1645 136.177 47.3508 135.885 47.445L136.991 49.04H135.824L134.854 47.6105H134.07V49.0444H133.074V44.5748Z"></path>
<path fill="#8C8884" d="M140.051 48.3829L140.64 47.6858C141.008 48.0194 141.485 48.2121 141.984 48.2285C142.391 48.2285 142.636 48.0697 142.636 47.8071V47.7938C142.636 47.5469 142.483 47.4188 141.724 47.2269C140.81 47.0063 140.221 46.7482 140.221 45.8634V45.8503C140.221 45.0384 140.894 44.5023 141.807 44.5023C142.419 44.4928 143.015 44.6942 143.491 45.0715L142.974 45.8107C142.635 45.5502 142.225 45.3964 141.796 45.3695C141.413 45.3695 141.212 45.5414 141.212 45.7576V45.7708C141.212 46.0642 141.406 46.1591 142.19 46.3578C143.111 46.5938 143.627 46.9181 143.627 47.6968V47.7211C143.627 48.6035 142.94 49.1044 141.964 49.1044C141.258 49.1015 140.578 48.8449 140.051 48.3829Z"></path>
<path fill="#8C8884" d="M33.7668 15.9971V19.3636H37.7242C38.1724 19.379 38.3358 19.5644 38.3516 19.9063C38.3489 20.0153 38.3293 20.1232 38.2933 20.2262L31.9347 32.982L25.5671 20.2063C25.5349 20.1094 25.5175 20.0083 25.5155 19.9063C25.5313 19.5644 25.6993 19.379 26.1472 19.3636H30.1026V15.9971H15.9922V19.3636H20.1514C20.7651 19.3526 21.5983 19.8909 21.9185 20.5284L30.4295 37.6324H33.433L41.9664 20.5174C42.2911 19.8865 43.1198 19.3526 43.7335 19.3636H47.8794V15.9971H33.7668Z"></path>
<path fill="#8C8884" d="M89.2094 25.1304V20.4645C89.2094 20.1719 89.3274 19.8913 89.5375 19.6845C89.7475 19.4776 90.0324 19.3614 90.3294 19.3614H100.814C101.225 19.3654 101.617 19.5281 101.908 19.8144C102.197 20.1008 102.362 20.4878 102.365 20.8924V23.5927C102.363 23.9977 102.198 24.3854 101.908 24.6722C101.618 24.959 101.225 25.122 100.814 25.126L89.2094 25.1304ZM117.654 30.4803L117.481 30.8443C117.213 31.4193 116.879 31.9625 116.487 32.4636C115.327 33.8909 113.336 35.1417 110.216 35.1417C105.683 35.1417 105.591 32.4217 101.942 28.3513C103.034 28.1028 104.008 27.4977 104.707 26.6346C105.405 25.7714 105.786 24.7008 105.788 23.5971V20.8947C105.787 19.5967 105.264 18.352 104.333 17.4337C103.401 16.5155 102.138 15.9988 100.82 15.9971H79.9169V19.3636H84.692C84.9831 19.3722 85.2593 19.4922 85.4622 19.6982C85.6649 19.9041 85.7783 20.1798 85.7783 20.4667V33.1607C85.7783 33.4532 85.6603 33.7338 85.4503 33.9406C85.2401 34.1475 84.9554 34.2638 84.6584 34.2638H79.9102V37.6259H95.2008V34.2638H90.3159C90.0189 34.2638 89.734 34.1475 89.5242 33.9406C89.314 33.7338 89.1962 33.4532 89.1962 33.1607V28.4991H94.6297C98.0991 28.5631 99.2193 30.2641 100.97 32.7415C103.114 35.8037 105.15 38.5083 110.104 38.5083H110.127C114.472 38.5083 118.08 36.4786 119.412 34.2197L119.469 34.127L117.654 30.4803Z"></path>
<path fill="#8C8884" d="M75.8666 22.5713V15.9971H50.5039V19.3636H53.2318C53.5289 19.3636 53.8136 19.4798 54.0238 19.6867C54.2336 19.8935 54.3518 20.1741 54.3518 20.4667V33.1607C54.3518 33.4532 54.2336 33.7338 54.0238 33.9406C53.8136 34.1475 53.5289 34.2638 53.2318 34.2638H50.5039V37.6193H75.8666V31.0671H72.4489V33.1607C72.4489 33.4498 72.3336 33.7274 72.128 33.9338C71.9222 34.14 71.6427 34.2586 71.3492 34.2638H58.8671C58.5731 34.2591 58.2928 34.1408 58.0867 33.9345C57.8805 33.7281 57.765 33.4502 57.765 33.1607V28.4948H69.8126V25.1326H57.765V20.4623C57.765 20.1697 57.883 19.8891 58.093 19.6823C58.303 19.4754 58.5879 19.3592 58.885 19.3592H71.3311C71.6281 19.3592 71.913 19.4754 72.123 19.6823C72.333 19.8891 72.451 20.1697 72.451 20.4623V22.5713H75.8666Z"></path>
<path fill="#8C8884" d="M127.902 15.9971V19.3636H131.866C132.314 19.379 132.473 19.5644 132.491 19.9063C132.489 20.0157 132.467 20.1239 132.428 20.2262L126.07 32.982L119.704 20.2063C119.673 20.1093 119.656 20.0082 119.655 19.9063C119.655 19.5644 119.837 19.379 120.285 19.3636H124.24V15.9971H110.129V19.3636H114.286C114.902 19.3526 115.735 19.8909 116.06 20.5284L124.571 37.6324H127.557L136.09 20.5174C136.411 19.8865 137.239 19.3526 137.853 19.3636H142.005V15.9971H127.902Z"></path>
<path fill="#8C8884" d="M170.005 22.5713V15.9971H144.645V19.3636H147.366C147.663 19.3636 147.948 19.4798 148.157 19.6867C148.368 19.8935 148.485 20.1741 148.485 20.4667V33.1607C148.485 33.4532 148.368 33.7338 148.157 33.9406C147.948 34.1475 147.663 34.2638 147.366 34.2638H144.645V37.6193H170.005V31.0671H166.59V33.1607C166.59 33.4502 166.474 33.7281 166.268 33.9345C166.062 34.1408 165.781 34.2591 165.487 34.2638H153.005C152.712 34.2586 152.432 34.14 152.227 33.9338C152.021 33.7274 151.906 33.4498 151.906 33.1607V28.4948H163.951V25.1326H151.906V20.4623C151.906 20.1697 152.024 19.8891 152.234 19.6823C152.444 19.4754 152.729 19.3592 153.026 19.3592H165.472C165.769 19.3592 166.054 19.4754 166.264 19.6823C166.474 19.8891 166.592 20.1697 166.592 20.4623V22.5713H170.005Z"></path>
</g>
</svg>
