<svg width="325" height="630" viewBox="0 0 325 630" fill="none" xmlns="http://www.w3.org/2000/svg">
<g clip-path="url(#clip0_3550_128926)">
<g opacity="0.3">
<path d="M-204 774.111L757.288 219.111" stroke="#444444"/>
<path d="M-143 871.111L852.929 296.111" stroke="#444444"/>
<path d="M-82 968.111L931.25 383.111" stroke="#444444"/>
<path d="M-21 1065.11L876.202 547.111" stroke="#444444"/>
<path d="M-389 750.111L497.423 236.111" stroke="#444444"/>
<path d="M-360 598.111L507.757 97.1113" stroke="#444444"/>
<path d="M-438 510.111L429.757 9.11132" stroke="#444444"/>
<path d="M-516 422.111L351.757 -78.8887" stroke="#444444"/>
<path d="M-594 334.111L273.757 -166.889" stroke="#444444"/>
<path d="M-371 303.111L676.422 915.611" stroke="#444444"/>
<path d="M-311 213.111L821.761 867.111" stroke="#444444"/>
<path d="M-295 90.1113L1015.3 846.611" stroke="#444444"/>
<path d="M-141 47.1113L895.632 645.611" stroke="#444444"/>
<path d="M-56 -35.8887L879.307 504.111" stroke="#444444"/>
<path d="M29 -118.889L964.307 421.111" stroke="#444444"/>
<path d="M-401 426.111L646.025 1030.61" stroke="#444444"/>
<path d="M-518 491.111L529.025 1095.61" stroke="#444444"/>
<path d="M-627 569.111L420.025 1173.61" stroke="#444444"/>
</g>
<ellipse cx="164" cy="267" rx="164" ry="165" fill="url(#paint0_radial_3550_128926)"/>
<path d="M46.6554 96.0684C46.6554 97.1503 47.5324 98.0273 48.6143 98.0273C49.6961 98.0273 50.5731 97.1503 50.5731 96.0684C50.5731 94.9866 49.6961 94.1095 48.6143 94.1095C47.5324 94.1095 46.6554 94.9866 46.6554 96.0684ZM48.6143 96.0684H48.9816V82.1113H48.6143H48.247V96.0684H48.6143Z" fill="#969593"/>
<path d="M48.5928 75.6914C48.5925 75.4888 48.4273 75.3242 48.2246 75.3242C48.0221 75.3245 47.8577 75.4889 47.8574 75.6914V76.2959L47.3242 75.9805C47.1497 75.8771 46.9237 75.9349 46.8203 76.1094C46.717 76.2838 46.7749 76.5089 46.9492 76.6123L48.2246 77.3682L48.4121 77.2578L49.3994 76.6729C49.5739 76.5696 49.6325 76.3445 49.5293 76.1699C49.426 75.9954 49.2 75.9377 49.0254 76.041L48.5928 76.2969V75.6914ZM52.9463 73.1113C52.9461 72.9087 52.7818 72.7441 52.5791 72.7441C52.3764 72.7441 52.2121 72.9087 52.2119 73.1113V74.1709C52.2078 74.1753 52.2041 74.18 52.2002 74.1846C52.1617 74.1928 52.1235 74.2062 52.0879 74.2275L51.9893 74.2871L51.001 74.8721C50.8266 74.9754 50.7688 75.2005 50.8721 75.375C50.9754 75.5495 51.2005 75.6071 51.375 75.5039L52.3633 74.9199L52.3652 74.918L52.4658 74.8574C52.5011 74.8362 52.5304 74.8091 52.5557 74.7793C52.5938 74.771 52.6317 74.7584 52.667 74.7373L52.7686 74.6768L52.9463 74.5693V73.1113ZM44.2383 73.1113C44.2381 72.9087 44.0738 72.7442 43.8711 72.7441C43.6684 72.7441 43.5041 72.9087 43.5039 73.1113V74.5703L43.6836 74.6777L44.7725 75.3223C44.947 75.4257 45.172 75.3679 45.2754 75.1934C45.3786 75.0189 45.3209 74.7938 45.1465 74.6904L44.2383 74.1523V73.1113ZM48.5928 73.1924V72.1514C48.6288 72.13 48.6703 72.1061 48.7158 72.0791C48.9075 71.9655 49.1797 71.8036 49.501 71.6133C49.6751 71.5097 49.7322 71.2847 49.6289 71.1104C49.5255 70.9361 49.3004 70.8782 49.126 70.9814C48.8046 71.1719 48.5325 71.3337 48.3408 71.4473C48.2983 71.4724 48.2598 71.4953 48.2256 71.5156L47.3242 70.9814C47.1497 70.878 46.9237 70.9358 46.8203 71.1104C46.7171 71.2848 46.7749 71.5099 46.9492 71.6133L47.8574 72.1514V73.1924C47.8574 73.3951 48.022 73.5593 48.2246 73.5596C48.4274 73.5596 48.5927 73.3952 48.5928 73.1924ZM52.9463 70.6123V69.1533L51.6777 68.4014C51.5032 68.298 51.2782 68.3558 51.1748 68.5303C51.0714 68.7048 51.1292 68.9298 51.3037 69.0332L51.8594 69.3623C51.6787 69.4694 51.4923 69.5796 51.3037 69.6914C51.1293 69.7948 51.0715 70.0199 51.1748 70.1943C51.2782 70.3688 51.5032 70.4265 51.6777 70.3232C51.8588 70.2159 52.038 70.1099 52.2119 70.0068V70.6123C52.212 70.8151 52.3763 70.9795 52.5791 70.9795C52.7819 70.9795 52.9462 70.8151 52.9463 70.6123ZM47.085 67.0303C46.9106 67.1337 46.8536 67.3597 46.957 67.5342C47.0605 67.7083 47.2856 67.7663 47.46 67.6631L48.2256 67.209L49.126 67.7432C49.3005 67.8466 49.5265 67.7888 49.6299 67.6143C49.733 67.4398 49.6753 67.2147 49.501 67.1113L48.4121 66.4658L48.2246 66.3555L47.085 67.0303ZM43.5039 70.6123C43.504 70.8151 43.6683 70.9795 43.8711 70.9795C44.0739 70.9795 44.2382 70.8151 44.2383 70.6123V70.0068L44.7725 70.3232C44.947 70.4266 45.172 70.3688 45.2754 70.1943C45.3786 70.0199 45.3209 69.7948 45.1465 69.6914L44.5918 69.3623L44.6025 69.3555L45.5547 68.791C45.7292 68.6876 45.787 68.4626 45.6836 68.2881C45.5802 68.1138 45.3551 68.056 45.1807 68.1592L44.0918 68.8047C44.043 68.8337 44.0041 68.8727 43.9746 68.917C43.9217 68.9217 43.8691 68.937 43.8203 68.9658L43.5039 69.1533V70.6123Z" fill="#8B8682"/>
<path d="M46.437 71.8631C46.437 72.8629 47.2475 73.6734 48.2473 73.6734C49.2471 73.6734 50.0576 72.8629 50.0576 71.8631C50.0576 70.8632 49.2471 70.0527 48.2473 70.0527C47.2475 70.0527 46.437 70.8632 46.437 71.8631Z" fill="#B3B0AD"/>
<path d="M46.9462 62.0588C46.5137 62.0525 46.0916 62.1944 45.7509 62.4611C45.4083 62.7294 45.1704 63.1099 45.0839 63.5363L44.8007 64.8967C44.6462 64.9767 44.4946 65.062 44.3456 65.1516L42.9804 64.7043L42.9794 64.7033C42.7284 64.6217 42.4628 64.5932 42.2001 64.6193C41.9374 64.6455 41.683 64.7262 41.453 64.8557C41.1686 65.0165 40.933 65.248 40.7675 65.5207L39.2059 68.0998C38.9743 68.4682 38.8831 68.9077 38.9491 69.3381C39.0158 69.7725 39.2384 70.1679 39.5751 70.4504L39.5761 70.4494L40.6493 71.3654V71.8508L39.5819 72.801C39.2571 73.0773 39.0402 73.4591 38.9696 73.8801C38.8985 74.3041 38.9825 74.7387 39.203 75.1076L39.202 75.1086L40.7108 77.6867L40.7128 77.6897C40.8794 77.9704 41.1172 78.2023 41.4022 78.3615L41.4042 78.3625C41.6874 78.5192 42.0054 78.6027 42.329 78.6047C42.5298 78.6059 42.7302 78.5751 42.9218 78.5148L42.9286 78.5129L44.286 78.0637C44.4371 78.1538 44.5912 78.2383 44.7479 78.3186L45.0292 79.6799C45.1181 80.1064 45.3563 80.4883 45.7001 80.7561C46.0405 81.022 46.4617 81.1617 46.8934 81.1555V81.1574H50.0184V81.1555C50.4509 81.1618 50.873 81.0218 51.2138 80.7551C51.5134 80.5206 51.7316 80.1989 51.8407 79.8371L51.8808 79.6799L52.1649 78.3166C52.3188 78.2364 52.4702 78.1518 52.619 78.0627L53.9823 78.5129L53.9891 78.5158C54.1329 78.561 54.2816 78.5891 54.4315 78.5998L54.5819 78.6047C54.905 78.6024 55.2231 78.5189 55.5058 78.3625L55.5067 78.3615C55.7905 78.2034 56.0274 77.9733 56.1942 77.6945L57.7567 75.1164L57.7558 75.1154C57.9863 74.7431 58.0751 74.3006 58.0038 73.8684C57.9359 73.4571 57.728 73.0831 57.4169 72.8078L56.3153 71.4162V71.3645L57.3827 70.4152C57.707 70.139 57.9244 69.7566 57.995 69.3361C58.0665 68.9095 57.9823 68.4711 57.7587 68.1008L56.1952 65.5217C56.0287 65.2431 55.7921 65.013 55.5087 64.8547L55.5067 64.8537C55.2281 64.6995 54.9158 64.6161 54.5975 64.6115C54.4537 64.6037 54.3096 64.6118 54.1679 64.6359L54.0224 64.6672L53.997 64.6731L53.9735 64.6818L52.6464 65.1477C52.4974 65.0591 52.3455 64.9757 52.1913 64.8967L51.9071 63.5363C51.8188 63.1105 51.5825 62.7301 51.2401 62.4621C50.8994 62.1954 50.4773 62.0535 50.0448 62.0598L46.9462 62.0588ZM50.0556 63.1604C50.2381 63.1566 50.4167 63.2168 50.5604 63.3293C50.6635 63.4099 50.7429 63.5159 50.7909 63.6359L50.829 63.76L51.1659 65.384L51.2225 65.6535L51.4706 65.7707C51.751 65.9027 52.0225 66.0517 52.2841 66.219L52.5097 66.3635L52.7636 66.2746L54.3046 65.7326C54.3833 65.7144 54.4641 65.707 54.5448 65.7121L54.5604 65.7131H54.5761C54.7151 65.7142 54.8519 65.7503 54.9735 65.8176C55.0881 65.8821 55.1838 65.976 55.2509 66.0891L55.2538 66.093L56.8163 68.6691C56.9038 68.8141 56.9361 68.9865 56.9081 69.1535C56.8871 69.2788 56.8325 69.3952 56.7518 69.4914L56.663 69.5803L56.6493 69.592L55.3983 70.7063L55.2138 70.8713V71.8L55.3329 71.9494L56.62 73.5764L56.6659 73.6145C56.7995 73.7236 56.8888 73.8779 56.9169 74.0481C56.9448 74.2179 56.9103 74.3922 56.8192 74.5383L56.8143 74.5451L55.2518 77.1242L55.2499 77.1281C55.1824 77.2414 55.0857 77.3344 54.9706 77.3986C54.8492 77.4658 54.7138 77.5 54.5751 77.5012C54.4887 77.5017 54.4026 77.4899 54.3202 77.4641L52.7196 76.9367L52.4716 76.8547L52.2509 76.9953C51.9901 77.1621 51.7192 77.313 51.4403 77.4475L51.1952 77.5656L51.1405 77.8322L50.8026 79.4553C50.7761 79.5832 50.7159 79.7019 50.6298 79.7981L50.5341 79.8869L50.4208 79.9611C50.3014 80.0253 50.1663 80.0577 50.0292 80.0549H46.8827C46.7002 80.0587 46.5216 79.9995 46.3778 79.8869L46.3768 79.8859C46.2392 79.7787 46.1439 79.6261 46.1083 79.4553L45.7167 77.5627L45.4667 77.4455C45.1858 77.3136 44.9153 77.1642 44.6552 76.9973L44.4345 76.8557L42.5917 77.4641C42.5092 77.49 42.4223 77.5027 42.3358 77.5022C42.1965 77.5013 42.0593 77.4661 41.9374 77.3986C41.8227 77.3342 41.7272 77.2403 41.66 77.1272L40.1532 74.552L40.1493 74.5461C40.0618 74.4012 40.0286 74.2296 40.0565 74.0627C40.0845 73.8957 40.1716 73.7435 40.3016 73.635L40.3085 73.6301L40.3153 73.6242L41.5663 72.51L41.7509 72.3449V70.8566L40.287 69.6086L40.2831 69.6066C40.1513 69.4961 40.0641 69.3411 40.038 69.1711C40.0119 69.001 40.0489 68.8269 40.1415 68.6818L40.1483 68.6711L41.7099 66.092C41.7796 65.9772 41.8781 65.8818 41.995 65.8156C42.0918 65.7614 42.1991 65.727 42.3095 65.716C42.42 65.7051 42.5319 65.716 42.6376 65.7502L44.245 66.2795L44.495 66.3615L44.7157 66.219C44.9746 66.0518 45.2437 65.9017 45.5224 65.7688L45.7694 65.6516L46.162 63.76L46.163 63.757C46.196 63.5925 46.2897 63.4397 46.4306 63.3293C46.5743 63.2168 46.7529 63.1566 46.9354 63.1604L46.9462 63.1613L50.0556 63.1604Z" fill="#B3B0AD"/>
<path d="M-77 121.708L-51.2197 137.124C-41.9604 142.661 -30.4115 142.679 -21.1354 137.17L48 96.1113" stroke="#969593" stroke-width="0.734584"/>
<path d="M188.751 499.961C188.751 501.076 187.847 501.98 186.732 501.98C185.618 501.98 184.714 501.076 184.714 499.961C184.714 498.846 185.618 497.943 186.732 497.943C187.847 497.943 188.751 498.846 188.751 499.961ZM186.732 499.961H186.354V485.578H186.732H187.111V499.961H186.732Z" fill="#969593"/>
<path d="M186.863 474.42L192.831 470.975V477.865L186.863 481.311V474.42Z" fill="#454545"/>
<path d="M187.191 479.398V480.743L188.355 480.071V480.828L186.535 481.879V479.777L187.191 479.398ZM193.159 475.953V478.055L191.339 479.105V478.349L192.503 477.676V476.332L193.159 475.953ZM188.355 473.18V473.938L187.191 474.609V475.953L186.535 476.332V474.23L188.355 473.18ZM193.159 470.406V472.508L192.503 472.886V471.542L191.339 472.215V471.457L193.159 470.406Z" fill="#8B8682"/>
<path d="M180.896 470.99L186.863 467.545L192.831 470.99L186.863 474.436L180.896 470.99Z" fill="#454545"/>
<path d="M185.699 473.385L186.864 474.057L188.028 473.385L188.683 473.764L186.863 474.814L185.043 473.764L185.699 473.385ZM191.667 469.939L193.487 470.99L191.667 472.041L191.011 471.663L192.176 470.99L191.011 470.318L191.667 469.939ZM182.059 469.939L182.716 470.318L181.552 470.99L182.716 471.662L182.059 472.041L180.239 470.99L182.059 469.939ZM186.863 467.166L188.683 468.217L188.028 468.595L186.864 467.923L185.699 468.596L185.043 468.217L186.863 467.166Z" fill="#8B8682"/>
<path d="M180.939 470.996L186.907 474.441V481.332L180.939 477.887V470.996Z" fill="#454545"/>
<path d="M181.267 476.354V477.698L182.431 478.37V479.127L180.611 478.076V475.975L181.267 476.354ZM187.235 479.799V481.9L185.415 480.85V480.093L186.579 480.765V479.42L187.235 479.799ZM182.431 471.479V472.236L181.267 471.564V472.908L180.611 472.529V470.428L182.431 471.479ZM187.235 474.252V476.354L186.579 475.975V474.631L185.415 473.959V473.201L187.235 474.252Z" fill="#8B8682"/>
<path d="M186.296 474.822V484.385L177.953 479.44V469.879L186.296 474.822ZM176.817 480.088L186.574 485.87L186.863 486.041L187.153 485.87L191.893 483.062C192.162 482.902 192.25 482.554 192.091 482.284C191.931 482.014 191.583 481.925 191.313 482.085L187.432 484.385V474.821C187.596 474.724 187.828 474.587 188.113 474.418C188.713 474.063 189.551 473.567 190.504 473.002C192.127 472.04 194.086 470.879 195.774 469.878V479.443L195.172 479.805C194.903 479.966 194.816 480.314 194.978 480.583C195.139 480.852 195.487 480.939 195.756 480.778L196.634 480.252L196.909 480.086V468.559L186.863 462.605L186.574 462.777L181.835 465.586C181.565 465.746 181.476 466.094 181.636 466.363C181.796 466.633 182.144 466.722 182.414 466.562L186.864 463.925L195.229 468.882C193.533 469.887 191.559 471.056 189.925 472.024C188.971 472.589 188.134 473.086 187.534 473.441C187.255 473.607 187.028 473.742 186.864 473.839L178.5 468.882L178.859 468.669C179.129 468.509 179.218 468.16 179.059 467.891C178.899 467.621 178.55 467.532 178.28 467.691L176.817 468.559V480.088Z" fill="#B3B0AD"/>
<path d="M191.273 481.969C191.273 482.744 191.901 483.373 192.677 483.373C193.452 483.373 194.081 482.744 194.081 481.969C194.081 481.193 193.452 480.564 192.677 480.564C191.901 480.564 191.273 481.193 191.273 481.969Z" fill="#B3B0AD"/>
<path d="M180.074 466.437C180.074 467.213 180.703 467.842 181.479 467.842C182.254 467.842 182.883 467.213 182.883 466.437C182.883 465.662 182.254 465.033 181.479 465.033C180.703 465.033 180.074 465.662 180.074 466.437Z" fill="#B3B0AD"/>
<path d="M377 439.111L244.458 516.135C234.928 521.673 223.142 521.595 213.685 515.932L187 499.95" stroke="#969593" stroke-width="0.757009"/>
</g>
<defs>
<radialGradient id="paint0_radial_3550_128926" cx="0" cy="0" r="1" gradientUnits="userSpaceOnUse" gradientTransform="translate(164 267) rotate(90) scale(283.556 281.837)">
<stop stop-color="#161616"/>
<stop offset="1" stop-color="#161616" stop-opacity="0"/>
</radialGradient>
<clipPath id="clip0_3550_128926">
<rect width="325" height="630" fill="white"/>
</clipPath>
</defs>
</svg>
